<svg width="157" height="159" viewBox="0 0 157 159" fill="none" xmlns="http://www.w3.org/2000/svg">
<circle cx="71.4521" cy="71.4521" r="70.4521" fill="#FFC056" stroke="#FFC056" stroke-width="2"/>
<path d="M31.5307 99.5564L110.059 43.217L142.904 79.5193C139.438 107.835 114.518 143.603 70.8759 142.904L31.5307 99.5564Z" fill="#CE9432"/>
<rect x="35.3008" y="46.6256" width="72.3004" height="51.4445" fill="white"/>
<path d="M111.788 45.8708C111.788 63.4011 111.788 80.9473 111.788 98.4776C111.174 100.777 109.221 102.541 106.134 102.51C97.7229 102.415 89.3121 102.478 80.8855 102.478C80.6178 102.478 80.2398 102.337 80.0823 102.604C79.909 102.888 80.2083 103.14 80.35 103.376C82.2558 106.699 84.1774 110.007 86.0832 113.315C87.1385 115.126 86.7132 116.544 84.8389 117.536C84.3192 117.536 83.7836 117.536 83.2639 117.536C82.4133 117.189 81.8936 116.528 81.4526 115.756C79.0585 111.566 76.6329 107.392 74.2388 103.203C73.9395 102.699 73.6088 102.431 72.9945 102.463C72.081 102.51 71.1517 102.526 70.2382 102.463C69.4349 102.415 68.9624 102.699 68.5529 103.408C66.1903 107.581 63.7489 111.724 61.3706 115.882C60.9453 116.622 60.4256 117.205 59.638 117.536C59.1183 117.536 58.5827 117.536 58.063 117.536C56.1887 116.544 55.7791 115.142 56.8187 113.315C58.7088 110.007 60.6146 106.715 62.5204 103.423C63.0559 102.478 63.0559 102.478 61.9691 102.478C53.4166 102.478 44.8483 102.478 36.2957 102.478C33.9331 102.478 32.3266 101.344 31.3815 99.2179C31.3028 99.0289 31.2083 98.8399 31.1295 98.6509C31.1453 81.0418 31.1453 63.4641 31.1453 45.8708C32.1691 42.9727 33.7284 41.8701 36.7997 41.8701C46.8486 41.8701 56.8974 41.8701 66.9463 41.8701C68.8836 41.8701 68.9151 41.8544 68.8836 39.9013C68.8364 38.468 69.3561 37.46 70.6792 36.8929C71.1989 36.8929 71.7345 36.8929 72.2542 36.8929C73.53 37.4442 74.1443 38.405 74.0498 39.8225C74.034 40.0273 74.0498 40.2478 74.0498 40.4526C74.0498 41.8859 74.0498 41.8859 75.4516 41.8859C85.847 41.8859 96.2266 41.8859 106.622 41.8701C107.772 41.8701 108.796 42.1536 109.725 42.7994C110.796 43.5554 111.426 44.6265 111.788 45.8708ZM71.5455 47.0363C60.7878 47.0363 50.0302 47.0363 39.2568 47.0363C37.2565 47.0363 36.2327 47.9971 36.2327 49.9187C36.2327 64.6454 36.2327 79.3722 36.2327 94.0832C36.2327 96.4458 37.1305 97.3121 39.4773 97.3121C60.8193 97.3121 82.1456 97.3121 103.488 97.3121C105.771 97.3121 106.669 96.3986 106.669 94.099C106.669 87.4838 106.669 80.8685 106.669 74.2533C106.669 66.189 106.669 58.1405 106.669 50.0762C106.669 47.9183 105.724 47.0048 103.582 47.0048C92.919 47.0363 82.2401 47.0363 71.5455 47.0363Z" fill="#5A5A5A"/>
<circle cx="71.4521" cy="71.4521" r="70.4521" fill="#FFC056" stroke="#FFC056" stroke-width="2"/>
<path d="M31.5306 99.5564L110.059 43.217L142.904 79.5193C139.438 107.835 114.518 143.603 70.8758 142.904L31.5306 99.5564Z" fill="#CE9432"/>
<rect x="35.3007" y="46.6256" width="72.3004" height="51.4445" fill="white"/>
<path d="M111.788 45.8708C111.788 63.4011 111.788 80.9473 111.788 98.4776C111.174 100.777 109.221 102.541 106.134 102.51C97.7228 102.415 89.312 102.478 80.8854 102.478C80.6177 102.478 80.2396 102.337 80.0821 102.604C79.9089 102.888 80.2081 103.14 80.3499 103.376C82.2557 106.699 84.1773 110.007 86.0831 113.315C87.1384 115.126 86.7131 116.544 84.8388 117.536C84.319 117.536 83.7835 117.536 83.2638 117.536C82.4132 117.189 81.8935 116.528 81.4524 115.756C79.0584 111.566 76.6328 107.392 74.2387 103.203C73.9394 102.699 73.6087 102.431 72.9944 102.463C72.0809 102.51 71.1516 102.526 70.238 102.463C69.4348 102.415 68.9622 102.699 68.5527 103.408C66.1901 107.581 63.7488 111.724 61.3705 115.882C60.9452 116.622 60.4254 117.205 59.6379 117.536C59.1181 117.536 58.5826 117.536 58.0629 117.536C56.1885 116.544 55.779 115.142 56.8186 113.315C58.7086 110.007 60.6144 106.715 62.5203 103.423C63.0558 102.478 63.0558 102.478 61.969 102.478C53.4164 102.478 44.8481 102.478 36.2956 102.478C33.933 102.478 32.3264 101.344 31.3814 99.2179C31.3027 99.0289 31.2081 98.8399 31.1294 98.6509C31.1451 81.0418 31.1451 63.4641 31.1451 45.8708C32.1689 42.9727 33.7282 41.8701 36.7996 41.8701C46.8485 41.8701 56.8973 41.8701 66.9462 41.8701C68.8835 41.8701 68.915 41.8544 68.8835 39.9013C68.8362 38.468 69.356 37.46 70.6791 36.8929C71.1988 36.8929 71.7343 36.8929 72.2541 36.8929C73.5299 37.4442 74.1442 38.405 74.0497 39.8225C74.0339 40.0273 74.0497 40.2478 74.0497 40.4526C74.0497 41.8859 74.0497 41.8859 75.4515 41.8859C85.8468 41.8859 96.2265 41.8859 106.622 41.8701C107.772 41.8701 108.795 42.1536 109.725 42.7994C110.796 43.5554 111.426 44.6265 111.788 45.8708ZM71.5453 47.0363C60.7877 47.0363 50.0301 47.0363 39.2567 47.0363C37.2564 47.0363 36.2326 47.9971 36.2326 49.9187C36.2326 64.6454 36.2326 79.3722 36.2326 94.0832C36.2326 96.4458 37.1304 97.3121 39.4772 97.3121C60.8192 97.3121 82.1455 97.3121 103.487 97.3121C105.771 97.3121 106.669 96.3986 106.669 94.099C106.669 87.4838 106.669 80.8685 106.669 74.2533C106.669 66.189 106.669 58.1405 106.669 50.0762C106.669 47.9183 105.724 47.0048 103.582 47.0048C92.9188 47.0363 82.24 47.0363 71.5453 47.0363Z" fill="#5A5A5A"/>
<rect x="43.7932" y="66.8423" width="9.21963" height="29.9638" fill="#FF6C6C"/>
<rect x="55.3177" y="61.0801" width="9.21963" height="35.7261" fill="#315CD5"/>
<rect x="66.8424" y="74.9095" width="9.21963" height="21.8966" fill="#7CD167"/>
<rect x="78.3669" y="54.1654" width="9.21963" height="42.6408" fill="#FF8A35"/>
<rect x="89.8915" y="66.8423" width="9.21963" height="29.9638" fill="#7F00AC"/>
</svg>
