<svg width="81" height="71" viewBox="0 0 81 71" fill="none" xmlns="http://www.w3.org/2000/svg">
<path d="M53.7702 0C56.2864 0 58.837 0 61.3532 0C65.1447 0.991159 68.7638 2.27966 71.9349 4.62541C76.9672 8.35877 79.6557 13.3476 81 19.1624C81 21.5742 81 24.0191 81 26.4309C79.8625 31.3537 77.6566 35.7478 73.8651 39.349C67.3162 45.5933 60.8017 51.8376 54.2872 58.1149C49.8409 62.41 45.4289 66.705 41.017 71C40.6723 71 40.3277 71 39.983 71C39.5349 70.5044 39.1213 69.9758 38.6387 69.5133C29.16 60.4607 19.7502 51.2759 10.1336 42.2894C5.30808 37.7962 1.30979 32.9395 0 26.4309C0 24.0191 0 21.5742 0 19.1624C0.103404 18.7329 0.241277 18.3034 0.344681 17.9069C1.65447 12.6538 4.41191 8.29269 8.82383 4.85668C12.1328 2.27966 15.9587 0.925081 19.9915 0C22.5077 0 25.0583 0 27.5745 0C31.9519 1.05724 36.1226 2.51094 39.5004 5.58353C40.1553 6.17822 40.8102 6.14518 41.4651 5.55049C44.9809 2.54397 49.186 0.859004 53.7702 0ZM5.6183 22.1359C5.58383 23.7548 6.41106 24.845 7.82426 24.9772C9.20298 25.1094 10.2026 24.2503 10.5128 22.5654C10.5817 22.235 10.5817 21.9046 10.6162 21.5742C10.9953 17.94 12.6843 14.9995 15.683 12.7199C18.0613 10.9358 20.7843 10.3081 23.6796 9.97766C25.1617 9.81247 26.1613 9.08562 26.0923 7.49977C26.0234 6.17822 24.817 5.31922 23.1626 5.35226C13.8562 5.51745 5.82511 13.2154 5.6183 22.1359Z" fill="#E25252"/>
</svg>
