<svg width="62" height="59" viewBox="0 0 62 59" fill="none" xmlns="http://www.w3.org/2000/svg">
<path d="M25.7517 58.9897C24.5832 58.6921 23.4713 58.283 22.7739 57.2042C22.2651 56.4231 22.0389 55.5676 22.2839 54.3773C20.305 56.2371 18.3637 56.6463 16.234 54.9724C14.5755 53.6705 14.1608 52.1083 15.0655 49.8951C13.0866 51.011 11.2772 51.2528 9.52448 50.0439C7.71516 48.7978 7.45131 47.0681 7.96018 45.1153C7.54554 45.0595 7.31938 45.3013 7.07437 45.4501C4.47348 46.9751 0.76062 44.4643 0.76062 42.0837C0.76062 40.9306 0.854855 39.8147 1.62758 38.829C2.56993 37.6573 3.43689 36.4484 4.3604 35.2767C4.66195 34.8862 4.71849 34.5514 4.49233 34.0864C3.66306 32.3568 2.89033 30.5899 2.07991 28.8417C1.85375 28.3767 1.8349 27.9862 2.09876 27.5212C2.51339 26.7587 2.90918 25.9775 3.28612 25.1964C3.58767 24.5455 3.85153 24.6012 4.24732 25.122C5.64199 26.9818 7.09321 28.8231 8.46905 30.7201C8.92137 31.3339 9.39255 31.5942 10.1841 31.5942C13.275 31.5756 15.1786 33.7703 14.7828 36.8018C14.6132 38.0851 15.0278 38.5872 16.2906 38.6616C18.5899 38.7732 20.1542 40.1495 20.5688 42.3999C20.8892 44.0924 21.4546 44.5759 23.1886 44.5945C24.9979 44.6131 26.1287 45.4129 26.5245 47.2727C26.8826 48.9837 28.183 49.6161 29.54 50.1183C30.4635 50.4716 31.2174 50.7506 31.5755 51.7921C31.9713 52.9266 33.6298 53.9495 34.6664 53.8937C35.2695 53.8751 35.7595 53.652 36.1741 53.2242C36.8338 52.5174 36.7961 52.0525 36.0234 51.4759C33.9125 49.8579 31.8016 48.2584 29.6908 46.659C28.8238 45.9894 28.6353 45.2083 29.1631 44.5201C29.6342 43.925 30.52 43.9064 31.3493 44.5015C34.7418 46.9565 38.1342 49.4301 41.5267 51.8851C42.8083 52.815 43.8637 52.7778 44.8626 51.7735C45.805 50.8064 45.8427 49.2813 44.9003 48.2212C44.6176 47.905 44.2595 47.6261 43.9014 47.3657C40.2828 44.6875 36.6642 42.0093 33.0455 39.3312C32.3293 38.8104 32.1409 38.1409 32.4424 37.3598C32.7251 36.6344 33.4225 36.4484 34.1387 36.4298C34.6664 36.4298 34.9868 36.7832 35.3637 37.0622C39.7174 40.2797 44.0522 43.4972 48.4059 46.7147C49.744 47.7005 51.591 47.3099 52.1376 45.9522C52.571 44.8921 52.3449 44.111 51.346 43.3484C46.54 39.7031 41.734 36.0579 36.9469 32.4126C36.6265 32.1708 36.2495 31.9848 36.0988 31.5571C35.8537 30.8317 35.6841 30.0506 36.4003 29.5112C37.0976 28.9719 37.8704 29.1021 38.5677 29.6414C40.5278 31.1479 42.4879 32.6544 44.448 34.1422C47.4635 36.467 50.4979 38.7918 53.5134 41.1166C54.8138 42.1023 56.4724 42.0837 57.5278 41.0608C58.4513 40.1681 58.4702 38.0293 57.5466 36.9134C56.9435 36.2067 56.2839 35.5371 55.6243 34.8676C48.9147 28.0791 42.1675 21.3279 35.5145 14.4837C34.1575 13.0888 32.6874 12.5123 30.8781 13.0145C29.0877 13.5166 28.183 14.8557 27.7307 16.6225C26.7318 20.6584 24.1874 23.2994 20.1353 24.4897C18.7407 24.8988 16.3094 24.0991 15.4424 22.946C14.7828 22.0719 14.6886 21.1234 15.2163 20.1562C15.9702 18.7614 16.4413 17.2735 16.3094 15.6926C16.0832 12.9587 16.724 10.4665 18.3826 8.25326C18.0999 7.91849 17.7606 8.04868 17.4779 8.04868C15.3671 8.03008 13.275 8.03008 11.1642 8.04868C10.3726 8.04868 10.203 7.7697 10.5611 7.10016C11.1265 6.00285 11.2207 4.49638 12.2196 3.84544C13.1243 3.25029 14.4812 3.67805 15.6309 3.67805C18.2695 3.65945 20.9081 3.65945 23.5466 3.67805C24.3194 3.67805 25.0167 3.52927 25.7141 3.1759C27.8815 2.11579 30.0866 1.09288 32.5178 0.8139C35.1941 0.497727 37.8138 0.776703 40.377 1.76242C43.2418 2.87832 46.2008 3.75245 49.3294 3.67805C49.9513 3.65945 50.3094 3.86404 50.5733 4.42199C54.173 12.1217 57.7917 19.8215 61.4291 27.5212C61.6364 27.949 61.6741 28.3395 61.448 28.7673C61.316 29.0091 61.2407 29.288 61.1087 29.5298C60.2606 31.0921 60.0156 32.487 60.9014 34.3282C62.6353 37.8991 60.1852 42.6231 55.9258 43.0509C55.3981 43.1067 55.0965 43.274 55.1154 43.925C55.1719 46.2498 53.6642 47.7377 52.0056 49.0581C51.2329 49.6905 50.2152 49.8021 49.2351 49.7277C48.7074 49.6905 48.4435 49.8765 48.2928 50.3972C46.9735 54.4331 43.5245 55.8652 39.7551 53.9123C39.0389 53.5404 38.7185 53.5032 38.285 54.3029C36.8903 56.7951 33.5167 57.6692 31.0101 56.2557C30.4823 55.9581 30.1808 55.9024 29.8227 56.4789C29.0688 57.725 27.9945 58.5805 26.5622 58.9711C26.2606 58.9897 25.9968 58.9897 25.7517 58.9897Z" fill="#747474"/>
</svg>
