<svg width="33" height="33" viewBox="0 0 33 33" fill="none" xmlns="http://www.w3.org/2000/svg">
<g filter="url(#filter0_i)">
<g clip-path="url(#clip0)">
<path d="M16.5 33C25.5985 33 33 25.5985 33 16.5C33 7.40154 25.5985 -6.47063e-07 16.5 -1.44248e-06C7.40154 -2.23789e-06 2.23789e-06 7.40153 1.44248e-06 16.5C6.47063e-07 25.5985 7.40154 33 16.5 33Z" fill="#5B94E3"/>
<path d="M15.1249 8.25204C15.1249 7.4927 15.7405 6.87712 16.4998 6.87712C17.2592 6.87712 17.8748 7.4927 17.8748 8.25204C17.8748 9.01138 17.2592 9.62695 16.4998 9.62695C15.7405 9.62695 15.1249 9.01138 15.1249 8.25204Z" fill="#ECEFF1"/>
<path d="M15.1249 13.752C15.1249 12.9931 15.7408 12.377 16.4998 12.377C17.2589 12.377 17.8748 12.9931 17.8748 13.752L17.8748 24.752C17.8748 25.5111 17.2589 26.127 16.4998 26.127C15.7408 26.127 15.1249 25.5111 15.1249 24.752L15.1249 13.752Z" fill="#FAFAFA"/>
</g>
</g>
<defs>
<filter id="filter0_i" x="0" y="0" width="33" height="35" filterUnits="userSpaceOnUse" color-interpolation-filters="sRGB">
<feFlood flood-opacity="0" result="BackgroundImageFix"/>
<feBlend mode="normal" in="SourceGraphic" in2="BackgroundImageFix" result="shape"/>
<feColorMatrix in="SourceAlpha" type="matrix" values="0 0 0 0 0 0 0 0 0 0 0 0 0 0 0 0 0 0 127 0" result="hardAlpha"/>
<feOffset dy="2"/>
<feGaussianBlur stdDeviation="2.5"/>
<feComposite in2="hardAlpha" operator="arithmetic" k2="-1" k3="1"/>
<feColorMatrix type="matrix" values="0 0 0 0 0 0 0 0 0 0 0 0 0 0 0 0 0 0 0.5 0"/>
<feBlend mode="normal" in2="shape" result="effect1_innerShadow"/>
</filter>
<clipPath id="clip0">
<rect x="33" y="33" width="33" height="33" transform="rotate(-180 33 33)" fill="white"/>
</clipPath>
</defs>
</svg>
