<svg width="23" height="23" viewBox="0 0 23 23" fill="none" xmlns="http://www.w3.org/2000/svg">
<g clip-path="url(#clip0)">
<path d="M22.3402 14.0002C22.0073 14.0002 21.7374 14.27 21.7374 14.603V19.9557C21.7362 20.9539 20.9274 21.763 19.9289 21.7642H3.01415C2.01571 21.763 1.20684 20.9539 1.20566 19.9557V4.24657C1.20684 3.24813 2.01571 2.43926 3.01415 2.43808H8.36661C8.69958 2.43808 8.96944 2.16822 8.96944 1.83525C8.96944 1.50228 8.69958 1.23242 8.36661 1.23242H3.01415C1.35024 1.23431 0.00188384 2.58267 0 4.24657V19.9557C0.00188384 21.6196 1.35024 22.968 3.01415 22.9698H19.9289C21.5928 22.968 22.9412 21.6196 22.9431 19.9557V14.6032C22.9431 14.2703 22.6732 14.0002 22.3402 14.0002Z" fill="#5B94E3"/>
<path d="M21.564 4.36572L12.7619 13.168L9.92324 10.3293L18.7253 1.527L21.564 4.36572Z" fill="#5B94E3"/>
<path d="M23.0002 0.0914459L19.8632 0.960368L22.1313 3.22852L23.0002 0.0914459Z" fill="#5B94E3"/>
<path d="M9.13828 14.6629C9.72721 15.2504 10.6807 15.2504 11.2696 14.6629L11.9089 14.0235L9.07022 11.1848L8.4309 11.8242C7.84314 12.4131 7.84314 13.3666 8.4309 13.9555L9.13828 14.6629Z" fill="#5B94E3"/>
</g>
<defs>
<clipPath id="clip0">
<rect width="23" height="23" fill="white"/>
</clipPath>
</defs>
</svg>
