<svg width="23" height="23" viewBox="0 0 23 23" fill="none" xmlns="http://www.w3.org/2000/svg">
<g clip-path="url(#clip0)">
<path d="M20.3645 23H2.63548C1.18166 23 0 21.8183 0 20.3645V2.63548C0 1.18166 1.18166 0 2.63548 0H20.3645C21.8183 0 23 1.18166 23 2.63548V20.3645C23 21.8183 21.8183 23 20.3645 23ZM2.63548 1.4375C1.97516 1.4375 1.4375 1.97516 1.4375 2.63548V20.3645C1.4375 21.0248 1.97516 21.5625 2.63548 21.5625H20.3645C21.0248 21.5625 21.5625 21.0248 21.5625 20.3645V2.63548C21.5625 1.97516 21.0248 1.4375 20.3645 1.4375H2.63548Z" fill="#5B94E3"/>
<path d="M18.448 11.4988C18.0512 11.4988 17.7292 11.1768 17.7292 10.78V5.26953H12.2188C11.822 5.26953 11.5 4.94753 11.5 4.55078C11.5 4.15403 11.822 3.83203 12.2188 3.83203H18.448C18.8447 3.83203 19.1667 4.15403 19.1667 4.55078V10.78C19.1667 11.1768 18.8447 11.4988 18.448 11.4988Z" fill="#5B94E3"/>
<path d="M10.3021 13.4162C10.1182 13.4162 9.93417 13.3462 9.79431 13.2053C9.51355 12.9245 9.51355 12.4693 9.79431 12.1886L17.9401 4.0426C18.2208 3.76184 18.676 3.76184 18.957 4.0426C19.2377 4.32354 19.2377 4.77872 18.957 5.05949L10.811 13.2053C10.6701 13.3462 10.4862 13.4162 10.3021 13.4162Z" fill="#5B94E3"/>
<path d="M7.90625 23C7.5095 23 7.1875 22.678 7.1875 22.2812V15.8125H0.71875C0.321999 15.8125 0 15.4905 0 15.0938C0 14.697 0.321999 14.375 0.71875 14.375H7.90625C8.303 14.375 8.625 14.697 8.625 15.0938V22.2812C8.625 22.678 8.303 23 7.90625 23Z" fill="#5B94E3"/>
</g>
<defs>
<clipPath id="clip0">
<rect width="23" height="23" fill="white"/>
</clipPath>
</defs>
</svg>
