<svg width="154" height="147" viewBox="0 0 154 147" fill="none" xmlns="http://www.w3.org/2000/svg">
<path d="M0.0864648 77.1999C-0.0135352 52.3999 9.38647 32.5999 27.0865 18.4999C52.0865 -1.50008 85.8865 -4.40008 115.186 15.0999C118.186 17.0999 118.486 19.9999 118.186 22.9999C117.786 27.6999 119.386 29.9999 124.386 29.2999C129.086 28.5999 131.986 30.7999 134.686 34.5999C155.986 65.4999 149.186 109.2 119.886 132.7C116.486 135.4 114.686 135.1 112.586 131.4C102.286 113.5 102.286 95.4999 112.786 77.9999C122.086 62.2999 121.386 44.3999 109.886 33.3999C109.386 32.8999 108.886 32.4999 108.386 31.9999C100.686 25.5999 98.8865 25.9999 96.2865 35.5999C93.9865 43.7999 91.8865 51.9999 89.6865 60.1999C88.5865 64.4999 87.2865 68.3999 89.0865 73.1999C91.1865 78.4999 85.4865 83.6999 80.0865 81.6999C76.8865 80.5999 74.3865 80.9999 71.5865 82.3999C65.2865 85.4999 58.8865 88.3999 52.5865 91.2999C50.1865 92.3999 47.7865 93.2999 46.0865 95.7999C44.8865 97.6999 42.7865 97.9999 40.7865 96.8999C39.1865 95.9999 38.3865 94.4999 38.8865 92.6999C39.4865 90.4999 41.0865 89.0999 43.2865 89.4999C46.1865 89.9999 48.4865 88.6999 50.8865 87.5999C57.2865 84.5999 64.5865 82.5999 69.9865 78.2999C75.5865 73.8999 81.6865 68.5999 84.1865 61.5999C87.8865 51.2999 89.8865 40.3999 92.7865 29.7999C93.6865 26.4999 93.1865 24.9999 89.4865 24.3999C77.8865 22.7999 66.5865 23.3999 55.6865 27.8999C48.6865 30.6999 43.6865 35.2999 41.0865 42.6999C39.3865 47.3999 36.9865 51.7999 34.8865 56.2999C33.8865 58.4999 33.1865 60.5999 35.0865 62.7999C36.7865 64.7999 36.1865 66.6999 34.6865 68.5999C32.1865 71.8999 29.8865 75.3999 27.4865 78.7999C25.4865 81.5999 25.7865 83.7999 29.1865 84.9999C32.8865 86.2999 34.3865 88.4999 32.4865 92.1999C31.8865 93.4999 31.9865 94.5999 32.3865 95.9999C33.2865 99.0999 34.1865 102.2 32.6865 105.6C31.6865 108 32.9865 110.1 35.3865 111.4C37.7865 112.7 40.1865 113.6 42.8865 114C54.9865 115.9 60.6865 122.6 60.4865 135.2C60.3865 147.1 58.7865 148.3 47.8865 144.1C22.2865 134.3 7.38646 115.3 1.28646 88.9999C0.286465 84.7999 -0.213535 80.2999 0.0864648 77.1999Z" fill="#315CD5"/>
<path d="M136.286 6.4001C137.286 11.4001 134.786 12.6001 130.186 12.7001C125.386 12.8001 123.886 11.1001 123.886 6.4001C123.886 1.6001 125.486 0.100098 130.286 0.100098C134.886 0.100098 137.186 1.5001 136.286 6.4001Z" fill="#315CD5"/>
<path d="M144.486 17.2001C150.386 17.4001 150.786 18.1001 150.586 24.9001C150.486 30.1001 146.586 28.2001 143.986 28.5001C137.886 29.1001 139.286 24.4001 138.986 21.0001C138.686 16.2001 142.086 17.3001 144.486 17.2001Z" fill="#315CD5"/>
<path d="M153.386 6C154.486 11 151.586 11.6 147.986 11.7C144.186 11.8 142.086 10.5 142.086 6.2C142.086 2.2 142.886 0 147.586 0C152.286 0.2 154.386 1.6 153.386 6Z" fill="#315CD5"/>
</svg>
