<svg width="787" height="270" viewBox="0 0 787 270" fill="none" xmlns="http://www.w3.org/2000/svg"><path d="M273.764 137.586H267.004V133.042H242.324V137.586H235.486V142.131H225.818V269.153H283.51V142.131H273.764V137.586Z" fill="#E3EDFF"></path><path d="M150.676 160.905H130.083V269.153H150.676V160.905Z" fill="#E3EDFF"></path><path d="M100.058 172.601H89.7611V269.153H100.058H110.354H120.651V146.079H100.058V172.601Z" fill="#1C3476"></path><path d="M193.749 148.686H203.024V155.093H218.272V132.445C218.272 131.998 218.587 131.626 218.901 131.626C219.294 131.626 219.53 131.998 219.53 132.445V155.093V269.153H169.776V148.686C169.776 148.686 169.776 147.494 169.776 141.907C189.898 141.907 193.749 148.686 193.749 148.686Z" fill="#E3EDFF"></path><path d="M462.325 131.626V149.208H460.989V151.89H458.238V155.54H453.601V158.148H446.369L443.54 160.904V269.153H463.74V160.904V155.54V151.89V149.208V131.626H462.325Z" fill="#E3EDFF"></path><path d="M75.063 143.695V135.798H43.8588V143.695V269.153H84.6522V143.695H75.063Z" fill="#E3EDFF"></path><path d="M573.308 254.7V227.135H561.204V221.175H558.924V219.759H563.483V218.716H557.038V209.18H556.488V218.716H549.964V214.693H549.335V218.716H545.798V202.177H545.327V218.716H539.039V219.759H543.519V221.175H541.239V227.135H529.135V269.153H570.714H573.308H581.09V254.7H573.308Z" fill="#E3EDFF"></path><path d="M46.0596 140.343V124.772H45.3522V122.761H43.7802V121.867H41.3436V120.6H39.9288V124.772H36.4704V122.314H33.8766V120.004H36.156V118.514L5.502 115.236V124.772H0V269.153H47.7888V140.343H46.0596Z" fill="#5877CF"></path><path d="M66.9672 165.002V162.916H61.5438V165.002H50.5398V269.153H89.7612V165.002H66.9672Z" fill="#5877CF"></path><path d="M136.291 154.049V151.889H134.012V148.312H132.676V144.364H129.139L124.266 139H113.262L109.41 144.364H105.795V148.312H104.537V151.889H102.258V154.049H101V264.607H137.47V154.049H136.291Z" fill="#5877CF"></path><path d="M196.343 155.54L192.491 151.964V133.041H186.832V131.477H184.16V133.041H154.135V135.053H155.471V158.893H148.79V269.153H201.137V155.54H196.343Z" fill="#5877CF"></path><path d="M328.155 171.111V167.461H332.714L371.385 204.487V269.153H328.155V171.111Z" fill="#E3EDFF"></path><path d="M380.581 159.563H405.891L408.877 161.426V269.153H380.581V159.563Z" fill="#E3EDFF"></path><path d="M452.343 179.455V172.75H450.771V150.549H449.749V151.22H445.112V148.836L437.016 141.162V139.97L437.802 139.225L436.309 137.81L434.815 139.225L435.601 139.97V141.162L427.505 148.836V151.22H422.868V150.549H421.846V172.75H420.274V179.455H418.938V269.153H436.309H453.679V179.455H452.343ZM427.584 153.604H423.025V152.039H427.584V153.604ZM449.513 153.604H444.955V152.039H449.513V153.604Z" fill="#5877CF"></path><path d="M719.405 160.646V153.941H717.833V131.739H716.811V132.41H712.174V130.026L704.078 122.352V121.161L704.864 120.416L703.371 119L701.877 120.416L702.663 121.161V122.352L694.567 130.026V132.41H689.93V131.739H688.908V153.941H687.336V160.646H686V250.343H703.371H720.741V160.646H719.405ZM694.646 134.794H690.087V133.229H694.646V134.794ZM716.575 134.794H712.017V133.229H716.575V134.794Z" fill="#E3EDFF"></path><path d="M480.079 172.37C480.079 172.37 480.079 170.284 480.079 169.167C480.079 168.049 480.472 166.857 481.258 166.857C481.258 164.547 481.258 161.642 481.258 161.642C481.258 161.642 484.166 161.046 486.131 161.046C486.131 160.45 486.131 159.332 486.131 159.332H487.86V153H495.563L497.921 155.235V156.725H495.72V160.077H502.087V158.289L505.388 160.376V168.422H506.645V268.326H480V172.37H480.079Z" fill="#5877CF"></path><path d="M564.269 245.239V234.958C565.37 235.479 565.999 235.852 566.077 235.852C566.234 235.926 566.392 236.001 566.549 236.001C566.863 236.001 567.178 235.852 567.413 235.554C567.649 235.107 567.492 234.585 567.099 234.287C566.47 233.915 550.672 225.273 535.03 225.273C519.389 225.273 505.477 232.723 504.926 233.021C504.612 233.17 504.455 233.468 504.455 233.84H502.254C496.438 233.84 491.722 238.012 491.171 243.376H494.708V245.239H491.171H487.949V269.153H570.557V245.239H564.269ZM512.236 233.84H507.442C508.542 233.319 510.193 232.574 512.236 231.754V233.84ZM516.323 233.84H513.258V231.382C514.201 231.009 515.223 230.637 516.323 230.339V233.84ZM520.725 233.84H517.345V230.041C518.446 229.743 519.546 229.37 520.725 229.072V233.84ZM525.598 233.84H521.668V228.849C522.926 228.551 524.262 228.253 525.598 228.029V233.84ZM530.078 233.84H526.541V227.88C527.72 227.657 528.899 227.508 530.078 227.433V233.84ZM535.423 233.84H531.022V227.284C532.279 227.21 533.615 227.135 534.873 227.135C535.03 227.135 535.187 227.135 535.345 227.135V233.84H535.423ZM540.768 233.84H536.366V227.135C537.86 227.21 539.275 227.284 540.768 227.508V233.84ZM545.327 233.84H541.79V227.657C542.969 227.806 544.148 228.029 545.327 228.327V233.84ZM550.2 233.84H546.27V228.476C547.606 228.774 548.942 229.147 550.2 229.519V233.84ZM554.602 233.84H551.222V229.817C552.401 230.19 553.501 230.562 554.602 230.935V233.84ZM555.545 233.84V231.233C557.981 232.127 560.182 233.021 561.911 233.84H555.545Z" fill="#1C3476"></path><path d="M755.11 188.991H753.853H748.665V187.277H744.892V185.862H739.94V187.277H738.29V185.862H734.989V187.277H731.216V188.991H726.814H724.771V190.853V194.057V195.919V199.123V200.985V204.189V206.051V209.255V211.117V214.321V216.183V219.387V221.25V224.453V226.315V229.519V231.381V234.585V236.447V239.651V241.513V244.717V246.579V249.783V251.645V254.849V256.712V259.915V261.777V264.981V266.843V269.153H726.814V266.843H728.936V269.153H750.944V266.843H753.774V269.153H755.818V188.991H755.11ZM751.023 254.849V251.645H753.853V254.849H751.023ZM753.853 256.712V259.915H751.023V256.712H753.853ZM751.023 249.783V246.579H753.853V249.783H751.023ZM751.023 244.717V241.513H753.853V244.717H751.023ZM751.023 239.651V236.447H753.853V239.651H751.023ZM751.023 234.585V231.381H753.853V234.585H751.023ZM751.023 229.519V226.315H753.853V229.519H751.023ZM751.023 224.453V221.25H753.853V224.453H751.023ZM751.023 219.387V216.183H753.853V219.387H751.023ZM751.023 214.321V211.117H753.853V214.321H751.023ZM751.023 209.255V206.051H753.853V209.255H751.023ZM751.023 204.189V200.985H753.853V204.189H751.023ZM751.023 199.123V195.919H753.853V199.123H751.023ZM751.023 194.057V190.853H753.853V194.057H751.023ZM726.893 190.853H729.015V194.057H726.893V190.853ZM726.893 195.919H729.015V199.123H726.893V195.919ZM726.893 200.985H729.015V204.189H726.893V200.985ZM726.893 206.051H729.015V209.255H726.893V206.051ZM726.893 211.117H729.015V214.321H726.893V211.117ZM726.893 216.183H729.015V219.387H726.893V216.183ZM726.893 221.25H729.015V224.453H726.893V221.25ZM726.893 226.315H729.015V229.519H726.893V226.315ZM726.893 231.381H729.015V234.585H726.893V231.381ZM726.893 236.447H729.015V239.651H726.893V236.447ZM726.893 241.513H729.015V244.717H726.893V241.513ZM726.893 246.579H729.015V249.783H726.893V246.579ZM726.893 251.645H729.015V254.849H726.893V251.645ZM726.893 256.712H729.015V259.915H726.893V256.712ZM726.893 264.981V261.777H729.015V264.981H726.893ZM751.023 264.981V261.777H753.853V264.981H751.023Z" fill="#5877CF"></path><path d="M679.34 211.639V210.224H680.99V208.361H674.388C674.388 208.361 674.86 202.997 670.851 202.997C670.851 200.986 670.851 200.39 670.851 200.39H668.572H666.292C666.292 200.39 666.292 200.986 666.292 202.997C662.205 202.997 662.755 208.361 662.755 208.361H656.153V210.224H657.803V211.639H653.795V213.204H656.624V269.153H680.676V213.204H683.506V211.639H679.34Z" fill="#5877CF"></path><path d="M651.594 213.427V212.533H650.179V209.255V202.177H648.607V206.871H645.306V209.255H643.42V205.753H633.202V209.255H631.237V206.871H627.935V202.177H626.363V209.255V212.533H625.027V213.427H626.363V215.364H625.027V216.332H626.363V218.269H625.027V219.163H626.363V221.175H625.027V222.069H626.363V224.006H625.027V224.974H626.363V226.911H625.027V227.805H626.363V229.817H625.027V230.711H626.363V232.648H625.027V233.616H626.363V235.553H625.027V236.447H626.363V238.384H625.027V239.353H626.363V241.29H625.027V242.184H626.363V244.195H625.027V245.089H626.363V247.026H625.027V247.995H626.363V249.932H625.027V250.826H626.363V252.837H625.027V253.731H626.363V255.668H625.027V256.637H626.363V258.574H625.027V259.468H626.363V261.479H625.027V262.373H626.363V264.31H625.027V265.279H626.363V267.216H625.027V268.11H626.363V269.153H650.179V268.11H651.594V267.216H650.179V265.279H651.594V264.31H650.179V262.373H651.594V261.479H650.179V259.468H651.594V258.574H650.179V256.637H651.594V255.668H650.179V253.731H651.594V252.837H650.179V250.826H651.594V249.932H650.179V247.995H651.594V247.026H650.179V245.089H651.594V244.195H650.179V242.184H651.594V241.29H650.179V239.353H651.594V238.384H650.179V236.447H651.594V235.553H650.179V233.616H651.594V232.648H650.179V230.711H651.594V229.817H650.179V227.805H651.594V226.911H650.179V224.974H651.594V224.006H650.179V222.069H651.594V221.175H650.179V219.163H651.594V218.269H650.179V216.332H651.594V215.364H650.179V213.427H651.594Z" fill="#5877CF"></path><path d="M621.333 218.269V216.556H619.682V210.149H614.573V208.435H609.543V205.902V201.581H607.578V205.902H604.277V208.435H599.011V210.149H593.902V216.556H592.251V218.269H593.902V219.536H592.251V221.175H593.902V222.441H592.251V224.08H593.902V225.347H592.251V226.986H593.902V228.252H592.251V229.966H593.902V231.158H592.251V232.871H593.902V234.063H592.251V235.777H593.902V237.118H592.251V238.831H593.902V240.172H592.251V241.811H593.902V243.152H592.251V244.866H593.902V246.207H592.251V247.92H593.902V249.261H592.251V250.9H593.902V252.241H592.251V253.955H593.902V255.296H592.251V257.009H593.902V258.35H592.251V259.989H593.902V261.405H592.251V263.044H593.902V264.385H592.251V266.098H593.902V267.439H592.251V269.153H593.902H619.682H621.333V267.439H619.682V266.098H621.333V264.385H619.682V263.044H621.333V261.405H619.682V259.989H621.333V258.35H619.682V257.009H621.333V255.296H619.682V253.955H621.333V252.241H619.682V250.9H621.333V249.261H619.682V247.92H621.333V246.207H619.682V244.866H621.333V243.152H619.682V241.811H621.333V240.172H619.682V238.831H621.333V237.118H619.682V235.777H621.333V234.063H619.682V232.871H621.333V231.158H619.682V229.966H621.333V228.252H619.682V226.986H621.333V225.347H619.682V224.08H621.333V222.441H619.682V221.175H621.333V219.536H619.682V218.269H621.333Z" fill="#E3EDFF"></path><path d="M254.664 154.646V152.411H252.385V142.056L249.398 140.268V128.05H247.433V139.001L224.403 134.755V142.13L220.63 142.056V269.153H252.385V265.428H254.664V263.118H252.385V261.182H254.664V258.872H252.385V256.935H254.664V254.625H252.385V252.688H254.664V250.379H252.385V248.367H254.664V246.058H252.385V244.121H254.664V241.811H252.385V239.874H254.664V237.565H252.385V235.628H254.664V233.318H252.385V231.381H254.664V229.072H252.385V227.135H254.664V224.825H252.385V222.814H254.664V220.504H252.385V218.567H254.664V216.258H252.385V214.321H254.664V212.011H252.385V210.074H254.664V207.765H252.385V205.828H254.664V203.518H252.385V201.507H254.664V199.272H252.385V197.26H254.664V194.951H252.385V193.014H254.664V190.704H252.385V188.767H254.664V186.458H252.385V184.521H254.664V182.211H252.385V180.274H254.664V177.965H252.385V175.953H254.664V173.644H252.385V171.707H254.664V169.397H252.385V167.46H254.664V165.151H252.385V163.214H254.664V160.904H252.385V158.967H254.664V156.658H252.385V154.646H254.664Z" fill="#5877CF"></path><path d="M572 171.619V169.718H574.277V160.911L577.261 159.391V149H579.224V158.314L602.231 154.702V160.975L606 160.911V269H574.277V265.832H572V263.868H574.277V262.221H572V260.257H574.277V258.609H572V256.645H574.277V254.998H572V253.034H574.277V251.323H572V249.359H574.277V247.712H572V245.748H574.277V244.1H572V242.136H574.277V240.489H572V238.525H574.277V236.878H572V234.913H574.277V233.266H572V231.302H574.277V229.591H572V227.627H574.277V225.98H572V224.016H574.277V222.369H572V220.404H574.277V218.757H572V216.793H574.277V215.146H572V213.182H574.277V211.471H572V209.57H574.277V207.86H572V205.895H574.277V204.248H572V202.284H574.277V200.637H572V198.673H574.277V197.025H572V195.061H574.277V193.414H572V191.45H574.277V189.739H572V187.775H574.277V186.128H572V184.164H574.277V182.516H572V180.552H574.277V178.905H572V176.941H574.277V175.294H572V173.329H574.277V171.619H572Z" fill="#5877CF"></path><path d="M318.33 125.294H315.658H312.75V124.25V121.047H310.942V122.611H309.134V124.25H300.724V125.294H296.244V269.153H315.658V129.242H318.33V125.294Z" fill="#5877CF"></path><path d="M170.405 233.84V232.052H165.689V233.84H160.187V230.19H151.934V233.84H149.025V232.052H143.288V233.84H138.493V269.153H173.942V233.84H170.405Z" fill="#1C3476"></path><path d="M201.923 201.134V199.495H204.36V196.59H183.688V199.495H186.125V201.134H180.151V269.153H207.897V201.134H201.923Z" fill="#1C3476"></path><path d="M259.694 242.482V237.267H255.45V231.978H252.149V228.625H245.232V222.516H242.56V220.505H240.595V222.516H238.63V220.505H236.665V222.516H234.7V220.505H232.735V222.516H230.062V228.625H223.145V231.978H219.844V237.267H215.6V242.482H212.77V269.153H262.524V242.482H259.694Z" fill="#1C3476"></path><path d="M319.079 163.37C319.079 163.37 319.079 161.284 319.079 160.167C319.079 159.049 319.472 157.857 320.258 157.857C320.258 155.547 320.258 152.642 320.258 152.642C320.258 152.642 323.166 152.046 325.131 152.046C325.131 151.45 325.131 150.332 325.131 150.332H326.86V144H334.563L336.921 146.235V147.725H334.72V151.077H341.087V149.289L344.388 151.376V159.422H345.645V259.326H319V163.37H319.079Z" fill="#5877CF"></path><path d="M331.378 232.126C321.553 232.126 313.614 239.427 313.614 248.516H315.736V269.153H347.019V248.516H349.141C349.141 239.427 341.203 232.126 331.378 232.126Z" fill="#1C3476"></path><path d="M479.224 234.436V232.648H476.08H469.949V228.476H456.352V232.648H451.164V234.436V246.729V257.978V269.153H476.08V257.978H479.224V246.729H476.08V234.436H479.224Z" fill="#1C3476"></path><path d="M29.5539 184.298V180.573H25.7025V177.593H6.28825V180.573H2.43685V184.298H0.786255V269.153H31.2045V184.298H29.5539Z" fill="#1C3476"></path><path d="M107.525 193.089V191.375C107.525 191.375 96.5994 189.364 91.962 192.642C90.3114 192.642 88.6608 192.642 88.6608 192.642V196.069H87.1674V210H84.888V229.743H82.137V249.485H78.5214V269.228H111.612V249.485V229.743V211.639V210V196.069V193.089H107.525Z" fill="#1C3476"></path><path d="M61.6224 185.639V180.945H53.9982V185.639H43.8588V269.153H71.7618V185.639H61.6224Z" fill="#1C3476"></path><path d="M309.055 88.6395V87.7455L309.605 87.373V86.1065C309.605 86.1065 300.409 82.754 297.187 81.86C293.964 80.8915 293.885 79.923 293.964 79.476C295.379 78.8055 296.636 77.688 296.636 77.688C296.636 77.688 294.514 76.8685 294.121 76.8685C294.121 75.155 292.235 75.2295 292.235 75.2295V74.0375H291.527V75.155C291.527 75.155 290.191 75.155 289.327 75.155C289.327 73.8885 288.934 73.2925 288.541 72.9945L287.44 61L286.497 73.069C286.104 73.367 285.711 73.963 285.711 75.2295C284.846 75.2295 283.51 75.2295 283.51 75.2295V74.0375H282.803V75.155C282.803 75.155 280.916 75.006 280.916 76.794C280.445 76.794 278.401 77.6135 278.401 77.6135C278.401 77.6135 279.659 78.6565 281.074 79.4015C281.152 79.8485 280.995 80.817 277.851 81.7855C274.628 82.754 265.432 86.032 265.432 86.032V87.2985L265.982 87.671V88.565L261.345 90.055C261.345 90.055 261.345 90.2785 261.345 90.5765C261.345 90.8745 263.546 91.843 267.947 91.843C268.576 92.439 268.812 93.184 268.812 93.184V94.7485L266.375 96.164C266.375 96.164 268.812 98.101 271.72 98.101C274.628 98.101 275.572 98.101 275.572 98.101C275.572 98.101 280.602 132.818 280.602 135.798C280.602 138.778 280.916 161.649 279.423 171.632C278.244 179.455 273.764 215.364 271.877 230.562C269.677 231.233 268.419 232.052 268.419 232.872C268.419 233.691 269.519 234.436 271.327 235.032C271.17 236.522 271.013 237.341 271.013 237.341L267.004 269.153H270.698L273.056 246.356C273.056 246.356 273.528 242.035 274.235 235.852C276.593 236.299 279.58 236.671 282.881 236.82V269.153H287.362H291.842V262.448H303.396L304.103 269.153H307.798L303.789 237.341C303.789 237.341 303.71 236.522 303.475 235.032C305.282 234.436 306.383 233.691 306.383 232.872C306.383 231.978 305.125 231.233 302.924 230.562C301.038 215.364 296.558 179.53 295.379 171.632C293.885 161.575 294.2 138.704 294.2 135.798C294.2 132.818 299.23 98.101 299.23 98.101C299.23 98.101 300.173 98.101 303.082 98.101C305.99 98.101 308.426 96.164 308.426 96.164L305.99 94.7485V93.184C305.99 93.184 306.226 92.439 306.854 91.843C311.335 91.843 313.457 90.8745 313.457 90.5765C313.457 90.2785 313.457 90.055 313.457 90.055L309.055 88.6395ZM295.3 191.598H291.999V179.902H293.885C294.357 184.745 294.907 188.767 295.3 191.598ZM295.772 194.951C295.929 195.845 296.243 198.9 296.794 203.072H291.999V193.312H295.615C295.615 194.057 295.693 194.579 295.772 194.951ZM291.92 216.407H298.287C298.68 219.611 299.073 222.963 299.387 226.167H291.842V216.407H291.92ZM291.92 214.619V204.86H296.951C297.265 207.765 297.658 211.118 298.13 214.619H291.92ZM278.558 98.101H283.039V149.953V191.598H279.737C280.838 183.85 283.039 166.12 283.039 149.953C283.039 130.434 279.895 103.316 278.558 98.101ZM275.1 229.817C276.751 215.736 278.873 197.41 279.187 195.025C279.266 194.653 279.344 194.057 279.423 193.387H283.039V228.997C280.052 229.072 277.301 229.37 275.1 229.817ZM301.745 246.356L302.06 249.187H291.92V239.428H300.959C301.431 243.6 301.745 246.356 301.745 246.356ZM291.92 260.735V250.975H302.217L303.239 260.735H291.92ZM300.802 237.64H291.999V236.82C295.3 236.671 298.208 236.299 300.645 235.852C300.645 236.447 300.724 237.044 300.802 237.64ZM291.92 228.923V227.88H299.623C299.702 228.551 299.78 229.147 299.859 229.743C297.658 229.37 294.907 229.072 291.92 228.923ZM291.92 149.879C291.92 159.563 292.706 169.77 293.571 178.114H291.92V149.879V98.101H296.401C295.064 103.316 291.92 130.434 291.92 149.879Z" fill="#1C3476"></path><path d="M403.768 221.1V219.312H391.585V221.175C390.013 221.175 388.441 221.249 386.948 221.324V218.344H374.765V221.845C370.678 222.069 368.241 222.218 368.241 222.218V269.227H436.309V222.218C436.309 222.143 421.375 221.175 403.768 221.1Z" fill="#1C3476"></path><path d="M722.515 238.152V236.364H736.978V233.086H768.103V231H782.88V233.086H786.967V236.364V237.109V238.152V239.94V269.442H720V238.152H722.515Z" fill="#1C3476"></path><path d="M689.794 242.854V241.141H684.292H683.113V242.854H677.375V241.141H671.873H670.615V242.854H662.441V241.141H658.118H657.175V242.854H646.328V269.153H714.081V242.854H689.794Z" fill="#1C3476"></path><path d="M630.058 239.651V236.373H621.569V239.651H619.604L616.067 244.419H602.705V251.347H574.802V269.153H602.705V269.004H635.56V244.419L632.023 239.651H630.058Z" fill="#1C3476"></path><path d="M786 255.296H0V267.514H786V255.296Z" fill="#1C3476"></path><path d="M786 256.935H0V269.153H786V256.935Z" fill="#1C3476"></path></svg>
