<svg width="58" height="60" viewBox="0 0 58 60" fill="none" xmlns="http://www.w3.org/2000/svg">
<g clip-path="url(#clip0)">
<path d="M58 29.5976L51.4168 36.6616L44.6961 43.8492C42.4315 46.2593 40.1481 48.6822 37.8419 51.1042C36.6922 52.3181 35.5317 53.5271 34.3702 54.7381C33.2077 55.9481 32.0462 57.163 30.8738 58.368L30.0764 59.1882L29.2295 58.368L25.6807 54.93L22.1418 51.4811C19.7802 49.1848 17.4344 46.8717 15.0837 44.5645L11.5666 41.0939L8.05435 37.6193L1.05267 30.6463L0 29.5976L1.05267 28.5479L8.05237 21.5729L15.0808 14.6266C17.4324 12.3195 19.7762 10.0054 22.1378 7.70906L25.6758 4.26017L29.2256 0.823144L30.0764 0L30.8768 0.823144C32.0492 2.02917 33.2117 3.24212 34.3732 4.45309C35.5347 5.66406 36.6962 6.87305 37.8458 8.087L41.2888 11.7199L44.7001 15.3439L51.4198 22.5326L58 29.5976ZM58 29.5976L43.3516 15.9019L39.7751 12.5381L36.2312 9.1832C35.0519 8.0682 33.8844 6.94825 32.716 5.83027C31.5496 4.7123 30.3831 3.5973 29.2256 2.47339H30.8758L27.4378 6.02221L23.9889 9.56015C21.6926 11.9217 19.3785 14.2665 17.0713 16.6172L10.1251 23.6456L3.15011 30.6453V28.5469L10.1231 35.5485L13.5977 39.0608L17.0684 42.5779C19.3765 44.9286 21.6887 47.2744 23.985 49.636L27.4339 53.1749L30.8719 56.7237H29.2276C30.3841 55.5998 31.5525 54.4858 32.719 53.3659C33.8864 52.2469 35.0549 51.1279 36.2342 50.0129C38.5859 47.777 40.9603 45.542 43.3546 43.2942L58 29.5976Z" fill="#315CD5"/>
<path d="M16.077 15.623C16.7755 16.089 17.4493 16.5798 18.1151 17.0794C18.7819 17.577 19.4349 18.0885 20.0839 18.604C21.38 19.6369 22.6414 20.7054 23.888 21.7877C26.3742 23.9603 28.7705 26.222 31.1014 28.549C33.4303 30.8779 35.693 33.2741 37.8656 35.7594C38.948 37.006 40.0155 38.2674 41.0484 39.5635C41.5628 40.2135 42.0743 40.8665 42.572 41.5333C43.0706 42.1991 43.5613 42.8729 44.0263 43.5724C43.3269 43.1074 42.6531 42.6166 41.9873 42.118C41.3204 41.6204 40.6665 41.1089 40.0175 40.5944C38.7214 39.5615 37.46 38.494 36.2134 37.4116C33.7281 35.239 31.3319 32.9763 29.003 30.6474C26.676 28.3165 24.4143 25.9203 22.2417 23.434C21.1593 22.1874 20.0918 20.926 19.058 19.6299C18.5425 18.9809 18.031 18.3279 17.5334 17.6611C17.0337 16.9953 16.542 16.3215 16.077 15.623Z" fill="#315CD5"/>
<path d="M16.077 43.5724C16.543 42.8739 17.0337 42.2001 17.5334 41.5343C18.031 40.8675 18.5425 40.2145 19.058 39.5655C20.0908 38.2694 21.1593 37.008 22.2417 35.7614C24.4143 33.2751 26.676 30.8789 29.003 28.548C31.3319 26.219 33.7281 23.9564 36.2134 21.7838C37.46 20.7014 38.7214 19.6339 40.0175 18.601C40.6675 18.0865 41.3204 17.575 41.9873 17.0774C42.6531 16.5788 43.3269 16.088 44.0263 15.623C43.5613 16.3225 43.0706 16.9963 42.572 17.6621C42.0743 18.3289 41.5628 18.9829 41.0484 19.6319C40.0155 20.928 38.948 22.1894 37.8656 23.436C35.693 25.9213 33.4303 28.3175 31.1014 30.6464C28.7705 32.9734 26.3742 35.2351 23.888 37.4077C22.6414 38.49 21.38 39.5575 20.0839 40.5914C19.4349 41.1069 18.7819 41.6184 18.1151 42.116C17.4493 42.6156 16.7755 43.1064 16.077 43.5724Z" fill="#315CD5"/>
</g>
<defs>
<clipPath id="clip0">
<rect width="58" height="59.1892" fill="white"/>
</clipPath>
</defs>
</svg>
