<svg width="1440" height="598" viewBox="0 0 1440 598" fill="none" xmlns="http://www.w3.org/2000/svg">
<rect x="0.5" y="-0.5" width="1439" height="596" transform="matrix(-1 0 0 1 1441 1.375)" fill="#E3EDFF" stroke="#E3EDFF"/>
<path fill-rule="evenodd" clip-rule="evenodd" d="M1265.24 597C1231.11 513.772 1106.93 397.298 877.431 334.996C656.614 275.049 845.424 171.694 1022.19 74.9328C1068.59 49.5327 1114.16 24.587 1151.28 1H7.52344e-05V597H1265.24Z" fill="#315CD5"/>
<path d="M877.431 334.996L877.3 335.478L877.3 335.478L877.431 334.996ZM1265.24 597L1265.71 596.81L1265.99 597.5H1265.24V597ZM1022.19 74.9328L1022.43 75.3714L1022.43 75.3714L1022.19 74.9328ZM1151.28 1V0.5H1152.99L1151.54 1.42199L1151.28 1ZM7.52344e-05 1H-0.499925V0.5H7.52344e-05V1ZM7.52344e-05 597V597.5H-0.499925V597H7.52344e-05ZM877.562 334.513C1107.14 396.838 1231.49 513.384 1265.71 596.81L1264.78 597.19C1230.73 514.16 1106.71 397.758 877.3 335.478L877.562 334.513ZM1022.43 75.3714C978.235 99.5634 933.304 124.159 894.209 148.384C855.107 172.614 821.884 196.448 801.085 219.108C780.268 241.789 772.048 263.111 782.475 282.441C787.708 292.142 797.667 301.416 813.247 310.143C828.823 318.868 849.982 327.026 877.562 334.513L877.3 335.478C849.676 327.979 828.432 319.794 812.758 311.015C797.088 302.237 786.951 292.846 781.595 282.916C770.843 262.982 779.47 241.179 800.349 218.432C821.246 195.665 854.568 171.771 893.682 147.534C932.804 123.292 977.761 98.6831 1021.95 74.4943L1022.43 75.3714ZM1151.54 1.42199C1114.41 25.0195 1068.83 49.9736 1022.43 75.3714L1021.95 74.4943C1068.35 49.0918 1113.91 24.1544 1151.01 0.57801L1151.54 1.42199ZM1151.28 1.5H7.52344e-05V0.5H1151.28V1.5ZM0.500075 1V597H-0.499925V1H0.500075ZM7.52344e-05 596.5H1265.24V597.5H7.52344e-05V596.5Z" fill="#315CD5"/>
</svg>
