<svg width="799" height="356" viewBox="0 0 799 356" fill="none" xmlns="http://www.w3.org/2000/svg"><path d="M794 0H4V356H794V0Z" fill="#315CD5"></path><path d="M794 0V356H379.545C284.639 327.371 251.635 251.536 279.62 188.82C299.392 144.583 351.408 117.103 399.165 85.2179C430.649 64.2485 457.721 40.2152 477.95 13.6923C480.84 9.95804 483.121 4.69177 486.011 0H794Z" fill="#E3EDFF"></path><g opacity="0.1313"><path opacity="0.1313" d="M250.159 1C247.517 13.6 241.954 25.8 233.055 36.7C208.72 66.5 161.72 83.6 114.581 90.2C76.897 95.5 37.5447 95 0 88.8V1H250.159Z" fill="#6B43D6"></path></g><defs><filter id="filter0_d" x="340.57" y="26" width="457.776" height="324.491" filterUnits="userSpaceOnUse" color-interpolation-filters="sRGB"><feFlood flood-opacity="0" result="BackgroundImageFix"></feFlood><feColorMatrix in="SourceAlpha" type="matrix" values="0 0 0 0 0 0 0 0 0 0 0 0 0 0 0 0 0 0 127 0"></feColorMatrix><feOffset dy="4"></feOffset><feGaussianBlur stdDeviation="2"></feGaussianBlur><feColorMatrix type="matrix" values="0 0 0 0 0 0 0 0 0 0 0 0 0 0 0 0 0 0 0.25 0"></feColorMatrix><feBlend mode="normal" in2="BackgroundImageFix" result="effect1_dropShadow"></feBlend><feBlend mode="normal" in="SourceGraphic" in2="effect1_dropShadow" result="shape"></feBlend></filter><linearGradient id="paint0_linear" x1="679.78" y1="72.4795" x2="679.78" y2="256.143" gradientUnits="userSpaceOnUse"><stop stop-color="#BAE794"></stop><stop offset="0.4507" stop-color="#54C4AC"></stop><stop offset="1" stop-color="#1CB1BA"></stop></linearGradient><linearGradient id="paint1_linear" x1="679.78" y1="313.725" x2="679.78" y2="294.522" gradientUnits="userSpaceOnUse"><stop stop-color="white"></stop><stop offset="1" stop-color="#A7A9AC"></stop></linearGradient></defs></svg>
