<svg width="459" height="325" viewBox="0 0 459 325" fill="none" xmlns="http://www.w3.org/2000/svg">
<g filter="url(#filter0_d)">
<path d="M397.326 294.247H281.903C275.201 294.247 269.882 288.822 269.882 282.226V29.041C269.882 22.3391 275.307 17.0201 281.903 17.0201H397.326C404.028 17.0201 409.347 22.4454 409.347 29.041V282.226C409.347 288.928 404.028 294.247 397.326 294.247Z" fill="#D7D7D7"/>
<path d="M405.73 38.7224H273.925V266.27H405.73V38.7224Z" fill="#D7D7D7"/>
<path d="M352.965 30.4247H325.093C324.562 30.4247 324.136 29.9992 324.136 29.4673C324.136 28.9354 324.562 28.5099 325.093 28.5099H352.965C353.497 28.5099 353.922 28.9354 353.922 29.4673C353.922 29.9992 353.497 30.4247 352.965 30.4247Z" fill="#D7D7D7"/>
<path d="M396.368 292.439H282.86C276.159 292.439 270.839 287.014 270.839 280.418V29.9992C270.839 23.2973 276.265 17.9782 282.86 17.9782H396.368C403.07 17.9782 408.389 23.4036 408.389 29.9992V280.418C408.495 287.014 403.07 292.439 396.368 292.439Z" fill="white"/>
<path d="M404.879 39.3607H274.776V264.674H404.879V39.3607Z" fill="url(#paint0_linear)"/>
<path d="M352.752 31.1694H325.306C324.774 31.1694 324.349 30.7439 324.349 30.212C324.349 29.6801 324.774 29.2546 325.306 29.2546H352.752C353.284 29.2546 353.71 29.6801 353.71 30.212C353.71 30.7439 353.284 31.1694 352.752 31.1694Z" fill="#D7D7D7"/>
<path opacity="0.1" d="M353.71 17.2336L272.222 272.653L270.414 37.0203C270.308 26.3823 278.818 17.6591 289.456 17.5527C314.136 17.2336 353.71 16.7017 353.71 17.2336Z" fill="#F5FDFF"/>
<path opacity="0.5" d="M339.774 287.652C345.062 287.652 349.348 283.366 349.348 278.078C349.348 272.79 345.062 268.504 339.774 268.504C334.486 268.504 330.2 272.79 330.2 278.078C330.2 283.366 334.486 287.652 339.774 287.652Z" fill="url(#paint1_linear)"/>
<path opacity="0.5" d="M392.964 96.0613H286.584C284.35 96.0613 282.435 94.2529 282.435 91.9125V54.8922C282.435 52.6582 284.243 50.7433 286.584 50.7433H393.07C395.304 50.7433 397.219 52.5518 397.219 54.8922V91.8061C397.113 94.1465 395.304 96.0613 392.964 96.0613Z" stroke="white" stroke-width="0.5" stroke-miterlimit="10"/>
<path opacity="0.5" d="M393.283 206.59H334.455C332.327 206.59 330.625 204.888 330.625 202.761V168.613C330.625 166.485 332.327 164.783 334.455 164.783H393.283C395.411 164.783 397.113 166.485 397.113 168.613V202.761C397.113 204.888 395.411 206.59 393.283 206.59Z" stroke="white" stroke-width="0.4624" stroke-miterlimit="10"/>
<path opacity="0.5" d="M392.539 257.547H287.648C286.052 257.547 284.775 256.27 284.775 254.674V228.718C284.775 227.122 286.052 225.845 287.648 225.845H392.539C394.134 225.845 395.411 227.122 395.411 228.718V254.568C395.411 256.27 394.134 257.547 392.539 257.547Z" stroke="white" stroke-width="0.3504" stroke-miterlimit="10"/>
<g opacity="0.5">
<path opacity="0.5" d="M284.775 104.359H338.072" stroke="white" stroke-width="1.4061" stroke-miterlimit="10" stroke-linecap="round" stroke-linejoin="round" stroke-dasharray="2.81 2.81"/>
<path opacity="0.5" d="M347.327 104.359H372.645" stroke="white" stroke-width="1.4061" stroke-miterlimit="10" stroke-linecap="round" stroke-linejoin="round" stroke-dasharray="2.81 2.81"/>
</g>
<path opacity="0.5" d="M317.966 111.593H376.688" stroke="white" stroke-width="1.4061" stroke-miterlimit="10" stroke-linecap="round" stroke-linejoin="round" stroke-dasharray="2.81 2.81"/>
<path opacity="0.5" d="M284.775 111.593H314.562" stroke="white" stroke-width="1.4061" stroke-miterlimit="10" stroke-linecap="round" stroke-linejoin="round" stroke-dasharray="2.81 2.81"/>
<path opacity="0.5" d="M378.177 104.359H393.921" stroke="white" stroke-width="1.4061" stroke-miterlimit="10" stroke-linecap="round" stroke-linejoin="round" stroke-dasharray="2.81 2.81"/>
<path opacity="0.5" d="M380.943 111.699H393.921" stroke="white" stroke-width="1.4061" stroke-miterlimit="10" stroke-linecap="round" stroke-linejoin="round" stroke-dasharray="2.81 2.81"/>
<g opacity="0.5">
<path opacity="0.5" d="M284.775 118.188H338.072" stroke="white" stroke-width="1.4061" stroke-miterlimit="10" stroke-linecap="round" stroke-linejoin="round" stroke-dasharray="2.81 2.81"/>
<path opacity="0.5" d="M347.327 118.188H372.645" stroke="white" stroke-width="1.4061" stroke-miterlimit="10" stroke-linecap="round" stroke-linejoin="round" stroke-dasharray="2.81 2.81"/>
</g>
<path opacity="0.5" d="M317.966 125.422H376.688" stroke="white" stroke-width="1.4061" stroke-miterlimit="10" stroke-linecap="round" stroke-linejoin="round" stroke-dasharray="2.81 2.81"/>
<path opacity="0.5" d="M284.775 125.422H314.562" stroke="white" stroke-width="1.4061" stroke-miterlimit="10" stroke-linecap="round" stroke-linejoin="round" stroke-dasharray="2.81 2.81"/>
<path opacity="0.5" d="M378.177 118.188H393.921" stroke="white" stroke-width="1.4061" stroke-miterlimit="10" stroke-linecap="round" stroke-linejoin="round" stroke-dasharray="2.81 2.81"/>
<path opacity="0.5" d="M380.943 125.529H393.921" stroke="white" stroke-width="1.4061" stroke-miterlimit="10" stroke-linecap="round" stroke-linejoin="round" stroke-dasharray="2.81 2.81"/>
<g opacity="0.5">
<path opacity="0.5" d="M284.775 132.018H342.753" stroke="white" stroke-width="1.4061" stroke-miterlimit="10" stroke-linecap="round" stroke-linejoin="round" stroke-dasharray="2.81 2.81"/>
<path opacity="0.5" d="M347.327 132.018H372.645" stroke="white" stroke-width="1.4061" stroke-miterlimit="10" stroke-linecap="round" stroke-linejoin="round" stroke-dasharray="2.81 2.81"/>
</g>
<path opacity="0.5" d="M317.966 139.252H376.688" stroke="white" stroke-width="1.4061" stroke-miterlimit="10" stroke-linecap="round" stroke-linejoin="round" stroke-dasharray="2.81 2.81"/>
<path opacity="0.5" d="M284.775 139.252H314.562" stroke="white" stroke-width="1.4061" stroke-miterlimit="10" stroke-linecap="round" stroke-linejoin="round" stroke-dasharray="2.81 2.81"/>
<path opacity="0.5" d="M378.177 132.018H393.921" stroke="white" stroke-width="1.4061" stroke-miterlimit="10" stroke-linecap="round" stroke-linejoin="round" stroke-dasharray="2.81 2.81"/>
<path opacity="0.5" d="M380.943 139.358H393.921" stroke="white" stroke-width="1.4061" stroke-miterlimit="10" stroke-linecap="round" stroke-linejoin="round" stroke-dasharray="2.81 2.81"/>
<g opacity="0.5">
<path opacity="0.5" d="M284.775 145.847H305.307" stroke="white" stroke-width="1.4061" stroke-miterlimit="10" stroke-linecap="round" stroke-linejoin="round" stroke-dasharray="2.81 2.81"/>
<path opacity="0.5" d="M310.945 145.847H372.645" stroke="white" stroke-width="1.4061" stroke-miterlimit="10" stroke-linecap="round" stroke-linejoin="round" stroke-dasharray="2.81 2.81"/>
</g>
<path opacity="0.5" d="M317.966 153.081H376.688" stroke="white" stroke-width="1.4061" stroke-miterlimit="10" stroke-linecap="round" stroke-linejoin="round" stroke-dasharray="2.81 2.81"/>
<path opacity="0.5" d="M284.775 153.081H314.562" stroke="white" stroke-width="1.4061" stroke-miterlimit="10" stroke-linecap="round" stroke-linejoin="round" stroke-dasharray="2.81 2.81"/>
<path opacity="0.5" d="M378.177 145.847H393.921" stroke="white" stroke-width="1.4061" stroke-miterlimit="10" stroke-linecap="round" stroke-linejoin="round" stroke-dasharray="2.81 2.81"/>
<path opacity="0.5" d="M380.943 153.188H393.921" stroke="white" stroke-width="1.4061" stroke-miterlimit="10" stroke-linecap="round" stroke-linejoin="round" stroke-dasharray="2.81 2.81"/>
<g opacity="0.5">
<path opacity="0.5" d="M284.775 159.57H338.072" stroke="white" stroke-width="1.4061" stroke-miterlimit="10" stroke-linecap="round" stroke-linejoin="round" stroke-dasharray="2.81 2.81"/>
<path opacity="0.5" d="M347.327 159.57H372.645" stroke="white" stroke-width="1.4061" stroke-miterlimit="10" stroke-linecap="round" stroke-linejoin="round" stroke-dasharray="2.81 2.81"/>
</g>
<path opacity="0.5" d="M284.775 173.4H302.009" stroke="white" stroke-width="1.4061" stroke-miterlimit="10" stroke-linecap="round" stroke-linejoin="round" stroke-dasharray="2.81 2.81"/>
<path opacity="0.5" d="M378.177 159.57H393.921" stroke="white" stroke-width="1.4061" stroke-miterlimit="10" stroke-linecap="round" stroke-linejoin="round" stroke-dasharray="2.81 2.81"/>
<path opacity="0.5" d="M284.775 179.995H325.944" stroke="white" stroke-width="1.4061" stroke-miterlimit="10" stroke-linecap="round" stroke-linejoin="round" stroke-dasharray="2.81 2.81"/>
<path opacity="0.5" d="M304.775 173.4H327.221" stroke="white" stroke-width="1.4061" stroke-miterlimit="10" stroke-linecap="round" stroke-linejoin="round" stroke-dasharray="2.81 2.81"/>
<path opacity="0.5" d="M284.775 187.229H323.817" stroke="white" stroke-width="1.4061" stroke-miterlimit="10" stroke-linecap="round" stroke-linejoin="round" stroke-dasharray="2.81 2.81"/>
<g opacity="0.5">
<path opacity="0.5" d="M284.775 193.718H295.945" stroke="white" stroke-width="1.4061" stroke-miterlimit="10" stroke-linecap="round" stroke-linejoin="round" stroke-dasharray="2.81 2.81"/>
<path opacity="0.5" d="M304.243 193.718H325.944" stroke="white" stroke-width="1.4061" stroke-miterlimit="10" stroke-linecap="round" stroke-linejoin="round" stroke-dasharray="2.81 2.81"/>
</g>
<path opacity="0.5" d="M284.775 201.059H325.732" stroke="white" stroke-width="1.4061" stroke-miterlimit="10" stroke-linecap="round" stroke-linejoin="round" stroke-dasharray="2.81 2.81"/>
<g opacity="0.5">
<path opacity="0.5" d="M284.775 212.229H338.072" stroke="white" stroke-width="1.4061" stroke-miterlimit="10" stroke-linecap="round" stroke-linejoin="round" stroke-dasharray="2.81 2.81"/>
<path opacity="0.5" d="M347.327 212.229H372.645" stroke="white" stroke-width="1.4061" stroke-miterlimit="10" stroke-linecap="round" stroke-linejoin="round" stroke-dasharray="2.81 2.81"/>
</g>
<path opacity="0.5" d="M317.966 219.462H376.688" stroke="white" stroke-width="1.4061" stroke-miterlimit="10" stroke-linecap="round" stroke-linejoin="round" stroke-dasharray="2.81 2.81"/>
<path opacity="0.5" d="M284.775 219.462H314.562" stroke="white" stroke-width="1.4061" stroke-miterlimit="10" stroke-linecap="round" stroke-linejoin="round" stroke-dasharray="2.81 2.81"/>
<path opacity="0.5" d="M378.177 212.229H393.921" stroke="white" stroke-width="1.4061" stroke-miterlimit="10" stroke-linecap="round" stroke-linejoin="round" stroke-dasharray="2.81 2.81"/>
<path opacity="0.5" d="M380.943 219.569H393.921" stroke="white" stroke-width="1.4061" stroke-miterlimit="10" stroke-linecap="round" stroke-linejoin="round" stroke-dasharray="2.81 2.81"/>
<path d="M123.077 151H120.973V142.828H118.278V141.077H125.771V142.828H123.077V151ZM129.403 145.747H130.095C130.742 145.747 131.226 145.62 131.547 145.367C131.869 145.109 132.029 144.735 132.029 144.247C132.029 143.753 131.894 143.389 131.622 143.154C131.355 142.919 130.934 142.801 130.36 142.801H129.403V145.747ZM134.154 144.172C134.154 145.24 133.819 146.057 133.149 146.622C132.484 147.188 131.536 147.471 130.305 147.471H129.403V151H127.299V141.077H130.468C131.672 141.077 132.586 141.337 133.21 141.858C133.839 142.373 134.154 143.145 134.154 144.172ZM140.228 151L137.839 143.215H137.778C137.864 144.799 137.907 145.855 137.907 146.385V151H136.027V141.077H138.891L141.24 148.665H141.28L143.771 141.077H146.636V151H144.674V146.303C144.674 146.081 144.676 145.826 144.681 145.536C144.69 145.247 144.722 144.477 144.776 143.229H144.715L142.156 151H140.228Z" fill="#E25252"/>
<path opacity="0.5" d="M161.693 134.252H108.61C105.844 134.252 103.61 136.486 103.61 139.252V153.613C103.61 156.379 105.844 158.613 108.61 158.613H150.311V166.485L156.8 158.613H161.587C164.353 158.613 166.587 156.379 166.587 153.613V139.252C166.8 136.486 164.459 134.252 161.693 134.252Z" stroke="#E25252" stroke-width="0.4291" stroke-miterlimit="10"/>
<path d="M202.814 60.4469C202.814 61.2204 202.535 61.8297 201.976 62.2751C201.422 62.7204 200.648 62.943 199.656 62.943C198.742 62.943 197.933 62.7711 197.23 62.4274V60.7399C197.808 60.9977 198.297 61.1794 198.695 61.2848C199.097 61.3903 199.465 61.443 199.797 61.443C200.195 61.443 200.5 61.3669 200.711 61.2145C200.925 61.0622 201.033 60.8356 201.033 60.5348C201.033 60.3669 200.986 60.2184 200.892 60.0895C200.799 59.9567 200.66 59.8297 200.476 59.7086C200.297 59.5876 199.927 59.3942 199.369 59.1286C198.845 58.8825 198.453 58.6461 198.191 58.4196C197.929 58.193 197.72 57.9294 197.564 57.6286C197.408 57.3278 197.33 56.9762 197.33 56.5739C197.33 55.8161 197.586 55.2204 198.097 54.7868C198.613 54.3532 199.324 54.1364 200.23 54.1364C200.675 54.1364 201.099 54.1891 201.502 54.2946C201.908 54.4001 202.332 54.5485 202.773 54.7399L202.187 56.152C201.73 55.9645 201.351 55.8336 201.05 55.7594C200.754 55.6852 200.461 55.6481 200.172 55.6481C199.828 55.6481 199.564 55.7282 199.381 55.8883C199.197 56.0485 199.105 56.2575 199.105 56.5153C199.105 56.6754 199.142 56.8161 199.216 56.9372C199.291 57.0544 199.408 57.1696 199.568 57.2829C199.732 57.3922 200.117 57.5915 200.722 57.8805C201.523 58.2633 202.072 58.6481 202.369 59.0348C202.666 59.4176 202.814 59.8883 202.814 60.4469ZM211.474 58.4606C211.474 59.8708 211.072 60.9508 210.267 61.7008C209.466 62.4508 208.308 62.8258 206.793 62.8258H204.367V54.2594H207.056C208.455 54.2594 209.541 54.6286 210.314 55.3669C211.088 56.1051 211.474 57.1364 211.474 58.4606ZM209.588 58.5075C209.588 56.6676 208.775 55.7477 207.15 55.7477H206.183V61.3258H206.963C208.713 61.3258 209.588 60.3864 209.588 58.5075ZM216.877 62.8258L214.814 56.1051H214.761C214.836 57.4723 214.873 58.3844 214.873 58.8415V62.8258H213.25V54.2594H215.722L217.75 60.8102H217.785L219.935 54.2594H222.408V62.8258H220.715V58.7711C220.715 58.5797 220.716 58.359 220.72 58.109C220.728 57.859 220.756 57.195 220.802 56.1169H220.75L218.541 62.8258H216.877Z" fill="#E25252"/>
<path opacity="0.5" d="M244.883 47.1264H191.799C189.033 47.1264 186.799 49.3604 186.799 52.1263V66.4876C186.799 69.2535 189.033 71.4875 191.799 71.4875H233.5V79.3596L239.989 71.4875H244.776C247.542 71.4875 249.776 69.2535 249.776 66.4876V52.1263C249.883 49.3604 247.649 47.1264 244.883 47.1264Z" stroke="#E25252" stroke-width="0.4291" stroke-miterlimit="10"/>
<path d="M150.416 91.599C150.416 92.3725 150.137 92.9818 149.578 93.4272C149.023 93.8725 148.25 94.0951 147.258 94.0951C146.344 94.0951 145.535 93.9232 144.832 93.5795V91.892C145.41 92.1498 145.898 92.3315 146.297 92.4369C146.699 92.5424 147.066 92.5951 147.398 92.5951C147.797 92.5951 148.101 92.519 148.312 92.3666C148.527 92.2143 148.635 91.9877 148.635 91.6869C148.635 91.519 148.588 91.3705 148.494 91.2416C148.4 91.1088 148.262 90.9818 148.078 90.8607C147.898 90.7397 147.529 90.5463 146.971 90.2807C146.447 90.0346 146.055 89.7982 145.793 89.5717C145.531 89.3451 145.322 89.0815 145.166 88.7807C145.01 88.4799 144.932 88.1283 144.932 87.726C144.932 86.9682 145.187 86.3725 145.699 85.9389C146.215 85.5053 146.926 85.2885 147.832 85.2885C148.277 85.2885 148.701 85.3412 149.103 85.4467C149.51 85.5522 149.933 85.7006 150.375 85.892L149.789 87.3041C149.332 87.1166 148.953 86.9857 148.652 86.9115C148.355 86.8373 148.062 86.8002 147.773 86.8002C147.43 86.8002 147.166 86.8803 146.982 87.0404C146.799 87.2006 146.707 87.4096 146.707 87.6674C146.707 87.8275 146.744 87.9682 146.818 88.0893C146.892 88.2065 147.01 88.3217 147.17 88.435C147.334 88.5443 147.719 88.7436 148.324 89.0326C149.125 89.4154 149.674 89.8002 149.971 90.1869C150.267 90.5697 150.416 91.0404 150.416 91.599ZM159.076 89.6127C159.076 91.0229 158.674 92.1029 157.869 92.8529C157.068 93.6029 155.91 93.9779 154.394 93.9779H151.969V85.4115H154.658C156.057 85.4115 157.142 85.7807 157.916 86.519C158.689 87.2572 159.076 88.2885 159.076 89.6127ZM157.189 89.6596C157.189 87.8197 156.377 86.8998 154.752 86.8998H153.785V92.4779H154.564C156.314 92.4779 157.189 91.5385 157.189 89.6596ZM165.785 93.9779H160.851V85.4115H165.785V86.8998H162.668V88.7807H165.568V90.269H162.668V92.4779H165.785V93.9779Z" fill="#E25252"/>
<path opacity="0.5" d="M140.205 78.1895H174.459C177.225 78.1895 179.459 80.4235 179.459 83.1894V97.5507C179.459 100.317 177.225 102.551 174.459 102.551H171.055V110.423L164.566 102.551H140.205C137.439 102.551 135.205 100.317 135.205 97.5507V83.2957C135.205 80.5299 137.439 78.1895 140.205 78.1895Z" stroke="#E25252" stroke-width="0.4291" stroke-miterlimit="10"/>
<path opacity="0.5" d="M317.115 76.0619C316.902 72.2322 315.094 68.7217 312.115 66.3813C311.796 66.0622 311.37 65.8494 310.945 65.5303C309.881 64.892 308.711 64.3601 307.541 64.0409C306.583 63.7218 305.519 63.6154 304.456 63.509C304.349 63.509 304.349 63.509 304.243 63.509C304.137 63.509 304.136 63.509 304.03 63.509C303.285 63.509 302.647 63.509 301.903 63.6154C300.52 63.8282 299.137 64.2537 297.86 64.892C297.435 65.1047 297.009 65.3175 296.69 65.5303C293.073 67.8706 290.839 71.8067 290.626 76.0619C290.626 76.2747 290.626 76.4874 290.626 76.7002C290.626 76.9129 290.626 77.1257 290.626 77.3385C290.733 80.5299 292.116 83.6149 294.349 85.9553C294.669 86.2744 294.988 86.5935 295.307 86.9127C297.009 88.2956 298.924 89.2531 300.945 89.6786H301.051C301.583 89.785 302.009 89.8913 302.541 89.8913C303.073 90.1041 303.711 90.2105 304.243 90.2105C304.988 90.2105 305.732 89.9977 306.477 89.6786C307.115 89.5722 307.753 89.3594 308.392 89.1467H308.498C309.881 88.6148 311.158 87.8701 312.328 86.9127C312.753 86.5935 313.072 86.2744 313.285 85.9553C315.519 83.6149 316.796 80.6363 317.009 77.4448C317.009 77.2321 317.009 77.0193 317.009 76.8066C317.115 76.5938 317.115 76.2747 317.115 76.0619ZM316.051 76.1683L312.434 76.2747C312.328 73.296 311.583 70.5301 310.413 68.4025C310.732 68.0834 311.051 67.6579 311.37 67.2323C314.136 69.4663 315.838 72.6577 316.051 76.1683ZM299.03 84.5723C300.413 84.0404 302.009 83.7213 303.711 83.7213V88.8275C303.605 88.8275 303.498 88.8275 303.392 88.8275C301.69 88.5084 300.2 86.9127 299.03 84.5723ZM309.668 67.2323C309.136 66.4877 308.711 65.9558 308.073 65.4239C308.817 65.743 309.562 66.0622 310.307 66.4877C310.2 66.8068 309.987 67.0196 309.668 67.2323ZM304.881 65.2111C306.37 65.4239 307.647 66.4877 308.711 68.0834C307.647 68.828 306.264 69.3599 304.881 69.4663V65.2111ZM303.711 65.2111V69.3599C302.328 69.2536 301.051 68.7217 299.988 67.8706C301.051 66.3813 302.328 65.4239 303.711 65.2111ZM299.349 69.0408C300.626 69.9982 302.115 70.5301 303.711 70.7429V76.2747H297.541C297.647 73.4024 298.392 70.9557 299.349 69.0408ZM303.711 77.5512V82.4447C301.903 82.4447 300.094 82.7639 298.498 83.4021C297.86 81.7001 297.541 79.6788 297.435 77.5512H303.711ZM304.881 88.8275V83.8277C306.477 83.934 308.073 84.3596 309.349 84.8915C308.392 86.8063 307.009 88.2956 305.519 88.7212C305.307 88.8275 305.094 88.8275 304.881 88.8275ZM310.519 85.5297C310.838 85.7425 311.158 85.9553 311.477 86.168C310.732 86.8063 309.881 87.3382 309.03 87.7637C309.668 87.1254 310.094 86.3808 310.519 85.5297ZM309.987 83.7213C308.498 83.083 306.796 82.6575 304.988 82.4447V77.4448H311.158C311.051 79.7852 310.626 81.9128 309.987 83.7213ZM304.881 76.2747V70.7429C306.583 70.6365 308.073 70.1046 309.349 69.2536C310.307 71.1684 310.945 73.6152 311.051 76.2747H304.881ZM301.051 64.9984C300.307 65.5303 299.669 66.1685 299.03 67.0196C298.711 66.7004 298.498 66.3813 298.286 66.0622H298.392C299.243 65.5303 300.2 65.2111 301.051 64.9984ZM297.222 66.7004C297.541 67.2323 297.966 67.7642 298.392 68.1898C297.222 70.3174 296.371 73.1896 296.264 76.2747H291.796V76.1683C292.009 72.3386 294.03 68.828 297.222 66.7004ZM291.796 77.5512H296.264C296.264 79.8916 296.69 82.0192 297.435 83.934C296.583 84.3596 295.945 84.7851 295.307 85.317C293.179 83.1894 292.009 80.4235 291.796 77.5512ZM296.264 86.168C296.796 85.7425 297.328 85.4234 297.966 85.1042C298.605 86.3808 299.243 87.4446 300.094 88.2956C298.711 87.7637 297.328 87.1254 296.264 86.168ZM312.647 85.2106L312.541 85.317C312.115 84.9978 311.689 84.5723 311.158 84.3596C311.902 82.4447 312.434 80.1044 312.434 77.5512H316.051C315.838 80.4235 314.668 83.083 312.647 85.2106Z" fill="white"/>
<path opacity="0.38" d="M440.516 151.805C442.631 151.805 444.346 150.09 444.346 147.975C444.346 145.86 442.631 144.145 440.516 144.145C438.401 144.145 436.686 145.86 436.686 147.975C436.686 150.09 438.401 151.805 440.516 151.805Z" stroke="#0F0F0F" stroke-width="0.9056" stroke-miterlimit="10"/>
<path opacity="0.38" d="M258.712 99.2528C258.712 101.38 257.01 103.082 254.882 103.082C252.755 103.082 251.053 101.38 251.053 99.2528C251.053 97.1252 252.755 95.4231 254.882 95.4231C257.01 95.4231 258.712 97.1252 258.712 99.2528Z" stroke="#0F0F0F" stroke-width="0.9056" stroke-miterlimit="10"/>
<path opacity="0.38" d="M124.354 111.912C126.469 111.912 128.184 110.197 128.184 108.082C128.184 105.967 126.469 104.253 124.354 104.253C122.239 104.253 120.524 105.967 120.524 108.082C120.524 110.197 122.239 111.912 124.354 111.912Z" stroke="#0F0F0F" stroke-width="0.9056" stroke-miterlimit="10"/>
<path opacity="0.38" d="M95.0993 71.1684C97.2144 71.1684 98.929 69.4538 98.929 67.3387C98.929 65.2236 97.2144 63.509 95.0993 63.509C92.9842 63.509 91.2696 65.2236 91.2696 67.3387C91.2696 69.4538 92.9842 71.1684 95.0993 71.1684Z" stroke="#0F0F0F" stroke-width="0.9056" stroke-miterlimit="10"/>
<path opacity="0.38" d="M254.457 243.079C256.572 243.079 258.287 241.364 258.287 239.249C258.287 237.134 256.572 235.419 254.457 235.419C252.342 235.419 250.627 237.134 250.627 239.249C250.627 241.364 252.342 243.079 254.457 243.079Z" stroke="#0F0F0F" stroke-width="0.9056" stroke-miterlimit="10"/>
<path opacity="0.38" d="M53.9302 208.718C53.9302 210.846 52.2281 212.548 50.1005 212.548C47.9729 212.548 46.2708 210.846 46.2708 208.718C46.2708 206.59 47.9729 204.888 50.1005 204.888C52.2281 204.888 53.9302 206.59 53.9302 208.718Z" stroke="#0F0F0F" stroke-width="0.9056" stroke-miterlimit="10"/>
<path opacity="0.38" d="M180.842 184.251C180.842 186.378 179.14 188.08 177.012 188.08C174.885 188.08 173.182 186.378 173.182 184.251C173.182 182.123 174.885 180.421 177.012 180.421C179.14 180.421 180.842 182.123 180.842 184.251Z" stroke="#0F0F0F" stroke-width="0.9056" stroke-miterlimit="10"/>
<path opacity="0.38" d="M129.46 34.3608C131.575 34.3608 133.29 32.6462 133.29 30.5311C133.29 28.4161 131.575 26.7014 129.46 26.7014C127.345 26.7014 125.63 28.4161 125.63 30.5311C125.63 32.6462 127.345 34.3608 129.46 34.3608Z" stroke="#0F0F0F" stroke-width="0.9056" stroke-miterlimit="10"/>
<path opacity="0.38" d="M426.367 50.2115C426.367 52.3391 424.665 54.0412 422.538 54.0412C420.41 54.0412 418.708 52.3391 418.708 50.2115C418.708 48.0839 420.41 46.3818 422.538 46.3818C424.665 46.3818 426.367 48.0839 426.367 50.2115Z" stroke="#0F0F0F" stroke-width="0.9056" stroke-miterlimit="10"/>
<path opacity="0.38" d="M255.085 21.6169H252.319V18.851C252.319 18.4255 252 18 251.468 18C250.936 18 250.617 18.3191 250.617 18.851V21.6169H247.851C247.426 21.6169 247 21.9361 247 22.468C247 22.8935 247.319 23.319 247.851 23.319H250.617V26.0849C250.617 26.5104 250.936 26.9359 251.468 26.9359C252 26.9359 252.319 26.6168 252.319 26.0849V23.319H255.085C255.51 23.319 255.936 22.9999 255.936 22.468C255.83 21.9361 255.51 21.6169 255.085 21.6169Z" fill="black"/>
<path opacity="0.38" d="M219.245 30.8503H216.479V28.0844C216.479 27.6589 216.16 27.2333 215.628 27.2333C215.203 27.2333 214.777 27.5525 214.777 28.0844V30.8503H212.011C211.586 30.8503 211.16 31.1694 211.16 31.7013C211.16 32.1268 211.479 32.5523 212.011 32.5523H214.777V35.3182C214.777 35.7438 215.096 36.1693 215.628 36.1693C216.054 36.1693 216.479 35.8501 216.479 35.3182V32.5523H219.245C219.671 32.5523 220.096 32.2332 220.096 31.7013C220.096 31.2758 219.777 30.8503 219.245 30.8503Z" fill="black"/>
<path opacity="0.38" d="M154.566 56.9134H151.8V54.1476C151.8 53.722 151.481 53.2965 150.949 53.2965C150.523 53.2965 150.098 53.6157 150.098 54.1476V56.9134H147.332C146.907 56.9134 146.481 57.2326 146.481 57.7645C146.481 58.19 146.8 58.6155 147.332 58.6155H150.098V61.3814C150.098 61.8069 150.417 62.2325 150.949 62.2325C151.374 62.2325 151.8 61.9133 151.8 61.3814V58.6155H154.566C154.991 58.6155 155.417 58.2964 155.417 57.7645C155.311 57.339 154.991 56.9134 154.566 56.9134Z" fill="black"/>
<path opacity="0.38" d="M12.6546 238.505H9.88874V235.739C9.88874 235.313 9.5696 234.888 9.0377 234.888C8.50579 234.888 8.18665 235.207 8.18665 235.739V238.505H5.42077C4.99525 238.505 4.56973 238.824 4.56973 239.356C4.56973 239.781 4.88887 240.207 5.42077 240.207H8.18665V242.972C8.18665 243.398 8.50579 243.824 9.0377 243.824C9.5696 243.824 9.88874 243.504 9.88874 242.972V240.207H12.6546C13.0802 240.207 13.5057 239.887 13.5057 239.356C13.5057 238.824 13.1865 238.505 12.6546 238.505Z" fill="black"/>
<path opacity="0.38" d="M109.673 218.611H106.908V215.846C106.908 215.42 106.588 214.994 106.056 214.994C105.631 214.994 105.205 215.314 105.205 215.846V218.611H102.44C102.014 218.611 101.589 218.931 101.589 219.462C101.589 219.888 101.908 220.313 102.44 220.313H105.205V223.079C105.205 223.505 105.525 223.93 106.056 223.93C106.482 223.93 106.908 223.611 106.908 223.079V220.207H109.673C110.099 220.207 110.524 219.888 110.524 219.356C110.524 218.931 110.099 218.611 109.673 218.611Z" fill="black"/>
<path opacity="0.38" d="M426.155 117.231H423.389V114.465C423.389 114.04 423.07 113.614 422.538 113.614C422.112 113.614 421.687 113.933 421.687 114.465V117.231H418.921C418.495 117.231 418.07 117.55 418.07 118.082C418.07 118.508 418.389 118.933 418.921 118.933H421.687V121.699C421.687 122.125 422.006 122.55 422.538 122.55C422.963 122.55 423.389 122.231 423.389 121.699V118.933H426.155C426.58 118.933 427.006 118.614 427.006 118.082C427.006 117.657 426.58 117.231 426.155 117.231Z" fill="black"/>
<path opacity="0.38" d="M332.327 3.61693H329.561V0.851042C329.561 0.425521 329.242 0 328.71 0C328.285 0 327.859 0.319141 327.859 0.851042V3.61693H325.093C324.668 3.61693 324.242 3.93607 324.242 4.46797C324.242 4.89349 324.561 5.31901 325.093 5.31901H327.859V8.0849C327.859 8.51042 328.178 8.93594 328.71 8.93594C329.136 8.93594 329.561 8.6168 329.561 8.0849V5.31901H332.327C332.753 5.31901 333.178 4.99987 333.178 4.46797C333.072 4.04245 332.753 3.61693 332.327 3.61693Z" fill="black"/>
<path opacity="0.38" d="M71.802 121.699H69.0362V118.933C69.0362 118.508 68.717 118.082 68.1851 118.082C67.7596 118.082 67.3341 118.401 67.3341 118.933V121.699H64.5682C64.1427 121.699 63.7172 122.018 63.7172 122.55C63.7172 122.976 64.0363 123.401 64.5682 123.401H67.3341V126.167C67.3341 126.592 67.6532 127.018 68.1851 127.018C68.6106 127.018 69.0362 126.699 69.0362 126.167V123.401H71.802C72.2276 123.401 72.6531 123.082 72.6531 122.55C72.6531 122.018 72.2276 121.699 71.802 121.699Z" fill="black"/>
<path opacity="0.38" d="M197.437 207.867H194.671V205.101C194.671 204.676 194.352 204.25 193.82 204.25C193.395 204.25 192.969 204.569 192.969 205.101V207.867H190.203C189.778 207.867 189.352 208.186 189.352 208.718C189.352 209.144 189.671 209.569 190.203 209.569H192.969V212.335C192.969 212.761 193.288 213.186 193.82 213.186C194.246 213.186 194.671 212.867 194.671 212.335V209.569H197.437C197.863 209.569 198.288 209.25 198.288 208.718C198.288 208.293 197.863 207.867 197.437 207.867Z" fill="black"/>
<path opacity="0.5" d="M19.2502 309.141H454.345" stroke="white" stroke-width="0.4291" stroke-miterlimit="10"/>
<path d="M140.524 308.503C140.524 308.503 154.353 309.141 164.672 299.78C172.97 292.333 179.14 279.886 180.948 274.355C182.757 268.929 183.501 257.972 180.842 256.164C178.182 254.355 130.524 299.673 130.524 299.673L140.524 308.503Z" fill="#0D2E3F"/>
<path d="M78.8231 278.929C78.8231 278.929 84.5677 272.44 100.099 272.44C112.227 272.44 151.8 283.291 151.8 283.291L134.566 301.694L78.8231 278.929Z" fill="#0D2E3F"/>
<path d="M150.843 305.205L142.864 301.801L140.098 306.907L143.715 309.992H149.885L150.843 305.205Z" fill="#FFE1BD"/>
<path d="M143.715 309.992C143.715 309.992 146.375 310.311 148.396 307.971C150.417 305.524 149.247 304.567 150.523 304.46C151.8 304.354 157.438 306.907 162.97 306.375C168.608 305.843 170.31 304.992 170.629 307.013C170.948 309.141 170.204 316.8 163.395 316.481C156.8 316.056 143.715 309.992 143.715 309.992Z" fill="#0A1828"/>
<path d="M100.099 281.589C108.822 286.908 145.098 299.141 145.098 299.141C145.098 299.141 146.481 308.503 138.609 311.269C138.609 311.269 94.8865 298.929 84.5677 294.248C74.2488 289.461 77.4402 281.163 78.8231 279.035C80.2061 276.801 89.142 274.993 100.099 281.589Z" fill="#183F5B"/>
<path d="M133.077 217.228C133.928 217.654 134.566 218.399 134.992 219.25C135.417 220.101 135.63 221.271 135.417 222.335C134.886 225.101 134.354 229.356 133.715 233.824C132.652 241.058 131.481 248.93 130.418 252.015C130.205 252.759 133.396 256.483 132.013 258.185C132.013 258.291 131.588 272.865 131.588 272.865L130.098 274.248C129.567 274.567 127.439 275.418 126.375 274.993C125.205 274.567 98.5035 283.184 98.7162 282.865C109.886 269.993 119.248 262.759 119.886 261.589C121.269 259.142 120.311 234.143 120.95 229.143C121.162 226.696 122.12 223.611 123.396 221.59C124.673 219.569 126.588 218.292 127.864 217.228C129.779 215.739 130.843 216.058 133.077 217.228Z" fill="#E5E5E5"/>
<path d="M160.842 256.164C159.459 259.887 159.034 263.823 159.991 267.759C161.693 275.418 159.779 275.95 159.779 275.95C159.779 275.95 150.523 282.333 141.587 283.291C133.503 284.142 126.694 284.674 126.907 277.865L129.46 279.886C129.46 279.461 129.46 279.035 129.46 278.716C129.779 263.397 126.588 262.546 125.737 245.419C124.886 227.76 120.631 225.42 124.46 220.42C130.205 212.973 145.311 209.25 157.332 212.122C166.374 214.25 169.353 216.59 169.246 223.292C169.246 225.526 168.821 228.186 168.289 231.483C166.8 239.887 163.289 249.994 160.842 256.164Z" fill="white"/>
<path d="M151.587 202.016C148.183 204.25 145.949 206.165 141.587 206.165C139.885 206.165 140.524 205.527 139.034 205.101C139.779 205.527 138.29 206.165 138.822 206.378C139.992 206.59 140.843 207.654 140.949 208.824L141.268 213.931L143.29 218.08L146.694 215.846L151.694 212.548L151.162 204.676C151.055 204.569 150.204 203.399 151.587 202.016Z" fill="#FFE1BD"/>
<path d="M143.396 210.633L143.715 215.314L143.077 217.973L141.056 213.824L140.736 208.718C140.63 207.548 139.779 206.59 138.609 206.271C137.332 205.952 137.971 205.101 136.162 203.08C136.056 202.974 135.949 202.867 135.843 202.654C136.056 202.761 136.375 204.569 140.524 204.995C143.609 205.527 143.183 207.548 143.396 210.633Z" fill="#E8C5A0"/>
<path d="M151.481 208.824C151.481 208.824 152.651 209.463 153.928 211.271C153.928 211.271 152.226 212.016 150.843 212.867C149.566 213.718 143.183 218.186 143.183 218.186L141.268 214.356C141.268 214.356 147.864 209.782 151.481 208.824Z" fill="#E5E5E5"/>
<path d="M141.268 214.356C141.268 214.356 139.034 215.101 138.396 216.803C138.396 216.803 137.226 214.675 138.715 210.739C138.715 210.739 139.885 209.569 140.843 209.144L141.268 214.356Z" fill="#E5E5E5"/>
<path d="M150.843 277.333L107.971 277.014L133.503 286.482L150.843 277.333Z" fill="#B3C5CE"/>
<path d="M133.396 287.546L151.8 285.844L151.906 284.248L133.29 286.056L133.396 287.546Z" fill="#E8F1F8"/>
<path d="M136.907 273.823L133.396 275.738C133.396 275.738 129.992 273.397 126.588 275.95C123.184 278.503 127.333 285.844 129.779 285.099C132.332 284.354 139.673 278.929 139.673 278.929L136.907 273.823Z" fill="#FFE1BD"/>
<path opacity="0.24" d="M88.9293 287.014L84.6741 288.29L131.588 288.822L152.119 283.184L108.503 283.61L88.9293 287.014Z" fill="#474747"/>
<path d="M153.715 271.802C147.226 273.823 140.417 284.248 140.417 284.248L139.779 283.291C139.779 283.291 136.375 281.801 135.524 278.716C135.205 277.546 135.205 273.929 135.205 273.929C135.205 273.929 151.481 265.738 156.587 260.206C159.034 257.547 159.247 255.313 161.587 254.142C161.481 253.93 161.481 253.823 161.374 253.61C158.821 246.377 158.927 235.951 157.864 230.739C157.332 228.186 157.438 225.632 158.076 223.186C158.502 221.59 159.247 219.994 160.204 218.611C161.8 216.377 163.927 214.675 166.693 215.314C167.757 215.526 168.608 216.058 169.353 216.803C170.097 217.654 170.629 218.718 170.842 219.782C171.906 227.441 175.204 248.291 174.991 252.972C174.991 253.823 174.884 254.568 174.672 255.206C174.672 255.419 174.565 255.632 174.459 255.951C171.906 262.653 160.31 269.78 153.715 271.802Z" fill="#E5E5E5"/>
<path d="M133.396 287.546L88.9293 283.503C87.4399 283.397 86.2698 282.227 86.057 280.737L82.5465 249.781C82.3337 248.079 83.7166 246.696 85.4187 246.802L127.12 250.632C128.396 250.738 129.354 251.696 129.46 252.972L133.396 287.546Z" fill="#D4DEDF"/>
<path d="M130.949 189.144C130.843 189.144 130.843 189.889 129.886 190.953C128.928 192.123 128.822 194.357 128.822 194.357C128.822 194.25 126.907 189.038 127.439 187.655C127.971 186.378 129.141 186.059 129.46 186.485C129.779 186.91 130.949 189.144 130.949 189.144Z" fill="#632F00"/>
<path d="M153.289 197.867C153.396 199.357 153.502 200.633 153.396 201.697C153.396 201.803 153.396 202.016 153.289 202.122C153.289 202.229 153.289 202.442 153.183 202.548C152.119 206.803 146.694 212.867 142.864 213.292C142.332 213.292 141.907 213.399 141.375 213.292C136.056 213.08 132.971 208.718 131.162 204.144C131.056 203.931 131.056 203.825 130.949 203.612C129.354 199.357 128.822 194.889 128.715 193.399C128.715 193.08 128.715 192.867 128.715 192.867C128.396 191.165 128.715 189.889 128.822 189.357C128.822 189.144 128.928 189.038 128.928 189.038C128.928 189.038 129.035 189.038 129.141 189.038C130.63 188.612 140.63 185.527 140.843 185.527C141.056 185.527 151.162 186.272 151.162 186.272C151.162 186.272 152.757 192.867 153.289 197.867Z" fill="#FFE1BD"/>
<path d="M154.672 197.655C154.779 199.144 154.885 200.42 154.779 201.484C154.779 201.591 154.779 201.803 154.672 201.91C154.034 206.165 148.715 212.867 142.864 213.399C142.439 213.505 142.013 213.505 141.587 213.505C135.205 213.718 132.971 208.931 131.269 204.25C131.162 204.037 131.162 203.931 131.056 203.718C131.056 203.718 133.29 207.229 134.354 207.335C135.417 207.441 134.034 206.059 137.12 204.888C139.034 204.144 141.907 204.25 143.29 204.356C144.566 204.569 146.8 205.208 147.545 205.314C147.758 205.314 147.864 205.314 147.97 205.314C149.034 204.782 151.162 201.165 151.481 198.931C151.694 197.974 153.821 197.548 154.672 197.655Z" fill="#8C4200"/>
<path d="M124.46 183.825C124.46 183.825 124.779 191.484 137.439 188.399C149.992 185.314 149.034 197.867 149.034 197.867C149.034 197.867 150.736 193.718 151.268 195.314C151.8 196.91 151.268 201.059 151.268 201.059C151.268 201.059 154.779 201.484 154.885 199.782C154.991 198.718 155.098 184.251 152.545 180.846C150.098 177.442 147.119 177.549 147.119 177.549C147.119 177.549 143.928 174.889 136.481 177.017C129.035 179.144 125.099 176.485 125.205 176.698C125.205 176.91 123.928 179.038 124.46 183.825Z" fill="#8C4200"/>
<path d="M148.928 195.208C148.821 194.676 146.481 194.782 144.885 194.995C143.29 195.208 138.928 195.74 137.971 196.272C137.013 196.803 137.12 197.123 136.588 197.229C136.162 197.229 136.056 196.91 135.098 196.591C134.035 196.272 131.588 196.591 129.992 196.803C128.396 197.016 126.801 197.335 126.801 197.867C126.801 198.399 127.013 199.357 127.333 199.463C127.652 199.569 127.652 199.569 128.822 201.697C129.46 202.867 130.524 203.505 132.652 203.08C135.311 202.548 135.63 200.314 135.843 199.463C136.056 198.506 136.268 198.399 136.694 198.293C137.12 198.186 137.332 198.293 137.864 199.144C138.29 199.995 138.609 201.91 141.375 201.91C144.885 201.91 146.481 200.952 147.119 199.357C147.864 197.123 147.758 197.123 147.97 196.91C148.077 196.803 148.928 196.484 148.928 196.272C149.034 195.846 148.928 195.421 148.928 195.208ZM135.098 200.314C134.992 201.484 134.141 202.548 132.332 202.761C130.737 202.974 129.992 202.335 129.141 200.846C128.396 199.569 128.396 198.506 128.715 198.08C129.035 197.654 129.886 197.654 131.907 197.548C133.928 197.335 134.673 197.335 134.886 197.974C135.098 198.293 135.205 199.144 135.098 200.314ZM146.694 198.718C146.268 200.42 145.417 201.165 143.183 201.484C139.992 201.91 139.46 200.952 139.034 199.888C138.609 198.825 138.502 197.867 138.502 197.655C138.609 196.91 139.354 196.803 141.268 196.484C143.29 196.165 145.949 195.74 146.375 195.952C146.8 196.165 147.119 197.229 146.694 198.718Z" fill="#282C3B"/>
<path d="M119.46 299.992L127.652 296.801L130.205 302.12L126.481 304.992L120.311 304.779L119.46 299.992Z" fill="#FFE1BD"/>
<path d="M126.482 304.992C126.482 304.992 123.822 305.205 121.801 302.758C119.886 300.311 121.056 299.354 119.78 299.141C118.503 298.928 112.865 301.375 107.227 300.631C101.695 299.886 99.9928 298.928 99.5673 301.056C99.2481 303.077 99.6737 310.843 106.482 310.843C113.29 310.737 126.482 304.992 126.482 304.992Z" fill="#0A1828"/>
<path d="M124.886 294.141C124.886 294.141 145.524 277.44 154.14 268.504C162.757 259.568 168.183 250.951 178.289 254.355C188.288 257.866 175.736 276.482 166.48 283.822C157.332 291.163 134.566 307.226 134.566 307.226C134.566 307.226 122.333 302.971 124.886 294.141Z" fill="#183F5B"/>
<path d="M105.95 270.738C107.948 270.738 109.567 269.118 109.567 267.121C109.567 265.123 107.948 263.504 105.95 263.504C103.953 263.504 102.333 265.123 102.333 267.121C102.333 269.118 103.953 270.738 105.95 270.738Z" fill="#B4BCC5"/>
<path d="M207.65 86.2744C207.65 86.2744 207.011 80.6362 200.735 81.9128C194.352 83.083 188.288 88.7211 189.565 96.3805C190.842 103.934 186.693 104.04 185.735 103.614C185.735 103.614 190.735 108.933 197.437 105.742C204.139 102.551 203.714 91.0615 203.714 91.0615L207.65 86.2744Z" fill="#153851"/>
<path d="M223.181 83.2957C223.181 83.2957 229.989 87.019 224.883 100.529C223.288 104.785 212.969 97.1251 212.969 97.1251L223.181 83.2957Z" fill="#153851"/>
<path d="M227.436 297.439C227.436 297.439 228.287 301.375 228.287 304.567C227.862 306.801 228.287 307.439 228.287 307.439L236.585 306.694C236.585 306.694 232.968 304.886 233.181 296.375C233.394 287.759 227.436 297.439 227.436 297.439Z" fill="#FFCC99"/>
<path d="M228.181 305.205C228.181 305.205 231.798 306.588 235.308 305.524C239.457 307.439 242.436 308.184 246.266 308.715C250.095 309.247 249.351 312.332 242.861 311.907C236.372 311.481 231.798 311.801 230.309 311.907C228.819 312.013 226.585 312.226 226.479 311.269C226.479 310.205 227.011 304.779 228.181 305.205Z" fill="#151515"/>
<path d="M202.011 297.439C202.011 297.439 202.863 301.375 202.863 304.567C202.437 306.801 202.863 307.439 202.863 307.439L211.16 306.694C211.16 306.694 207.543 304.886 207.756 296.375C207.969 287.759 202.011 297.439 202.011 297.439Z" fill="#FFCC99"/>
<path d="M202.65 305.205C202.65 305.205 206.267 306.588 209.777 305.524C213.926 307.439 216.905 308.184 220.734 308.715C224.564 309.247 223.819 312.332 217.33 311.907C210.841 311.481 206.267 311.801 204.777 311.907C203.288 312.013 201.054 312.226 200.948 311.269C200.948 310.205 201.48 304.779 202.65 305.205Z" fill="#151515"/>
<path d="M232.011 181.059C232.011 181.059 235.84 230.1 236.16 237.334C236.479 244.568 236.691 253.185 236.372 257.547C236.053 262.015 235.308 299.354 235.308 299.354C235.308 299.354 228.5 302.439 225.309 299.567C225.309 299.567 223.5 252.866 221.905 245.951C220.309 239.036 214.352 209.675 214.352 209.675L221.479 173.613L232.011 181.059Z" fill="#10354C"/>
<path d="M203.501 241.483C204.777 231.058 202.65 194.676 202.756 185.74C202.862 176.804 228.075 181.378 228.075 181.378C228.075 181.378 219.99 227.973 219.032 235.526C218.075 243.079 217.011 251.377 216.586 258.61C216.16 265.844 210.203 300.631 210.203 300.631C210.203 300.631 202.118 302.758 201.16 300.099C198.82 286.588 203.501 241.483 203.501 241.483Z" fill="#183F5B"/>
<path d="M383.496 301.801C383.283 302.758 385.198 305.311 382.645 307.545C380.198 309.673 374.56 312.013 378.284 312.013C382.007 312.12 385.517 311.269 387.432 310.311C389.347 309.354 387.858 307.864 390.198 307.226C393.283 306.269 393.283 306.056 391.794 302.652C389.666 297.971 384.028 298.609 383.496 301.801Z" fill="#0A1828"/>
<path d="M359.135 145.954C357.858 149.251 357.539 152.975 358.284 156.485C359.88 163.4 358.071 163.932 358.071 163.932C358.071 163.932 348.603 169.889 340.838 172.336C335.2 174.038 330.412 173.825 330.625 167.549V167.442C330.625 167.017 330.625 166.698 330.625 166.379C330.838 152.443 327.966 151.698 327.221 136.167C326.476 120.21 330.732 111.274 334.987 107.338C339.242 103.508 344.986 103.295 355.944 105.955C364.135 107.87 366.794 110.104 366.794 116.061C366.794 118.082 366.475 120.529 365.943 123.507C364.56 131.167 361.369 140.316 359.135 145.954Z" fill="#CCD6E7"/>
<path d="M339.348 111.699C339.348 111.699 330.838 139.571 332.54 152.868L335.625 158.507L339.029 152.337C339.029 152.337 336.263 125.635 341.582 112.125L339.348 111.699Z" fill="#12374F"/>
<path d="M359.135 145.954C357.859 149.251 357.539 152.975 358.284 156.485C359.88 163.4 358.071 163.932 358.071 163.932C358.071 163.932 348.603 169.889 340.838 172.336L333.497 171.591L330.519 169.251V167.442C330.519 167.017 330.519 166.698 330.519 166.379C332.221 166.485 335.944 166.698 341.582 166.06C345.944 165.528 349.774 164.357 352.433 163.294C354.348 162.549 355.412 160.634 355.093 158.613C354.667 155.847 354.029 151.911 354.029 148.932C354.029 145.847 355.518 140.635 356.582 136.911C357.433 134.039 357.752 131.06 357.539 128.082C357.22 122.869 357.539 117.976 357.539 117.976L363.39 114.784L366.582 115.954C366.582 117.976 366.263 120.422 365.731 123.401C364.56 131.167 361.369 140.316 359.135 145.954Z" fill="#A3B4D8"/>
<path d="M359.241 175.527C359.88 175.634 361.582 172.655 361.582 172.655L360.837 171.698C360.412 171.166 359.88 170.74 359.241 170.528H359.135C358.603 170.315 357.965 170.528 357.539 171.059C357.007 171.804 356.263 172.655 355.412 172.549H355.305C354.667 172.655 358.603 175.421 359.241 175.527Z" fill="#F4D5B5"/>
<path d="M332.859 78.7214C332.859 78.7214 332.115 80.7426 333.285 82.3383L337.753 76.2746H334.668L332.859 78.7214Z" fill="#153851"/>
<path d="M357.22 86.8063C357.007 94.6784 350.306 99.1464 350.306 99.1464L350.731 106.274L346.157 109.252L343.072 111.274L341.263 107.55L341.05 102.976C340.944 101.912 340.199 101.061 339.136 100.742C337.965 100.529 336.37 99.7846 334.668 98.0826C334.561 97.9762 334.455 97.8698 334.349 97.7634C331.37 93.721 330.306 78.2958 340.412 73.8279C350.944 69.2535 357.433 78.9341 357.22 86.8063Z" fill="#FFE1BD"/>
<path d="M345.838 104.997L346.157 109.252L343.072 111.274L341.263 107.55L341.05 102.976C340.944 101.912 340.199 101.061 339.136 100.742C337.965 100.529 336.37 99.7846 334.668 98.0826C334.561 97.9762 334.455 97.8698 334.348 97.7634C334.561 97.8698 337.008 99.3591 340.731 99.7847C343.497 99.9974 345.625 102.231 345.838 104.997Z" fill="#E8C5A0"/>
<path d="M346.263 89.253C346.689 89.4658 347.008 88.8275 347.008 88.8275C347.008 88.8275 349.242 83.934 349.986 83.083C351.369 81.7 354.561 81.8064 354.774 86.0616C354.986 89.3594 351.05 96.3805 349.88 98.4017C349.667 98.7209 349.774 99.1464 350.093 99.3592C350.199 99.4655 350.412 99.4655 350.518 99.5719H350.625C350.837 99.5719 350.944 99.4655 351.157 99.3592C353.71 97.1252 364.667 86.5935 355.944 76.5938C355.944 76.5938 349.029 77.0193 347.965 80.4235C346.901 83.8276 346.157 88.2956 346.157 88.2956C346.157 88.2956 345.838 89.0403 346.263 89.253Z" fill="#153851"/>
<path d="M332.859 78.7214C332.859 78.7214 338.923 73.9343 348.178 79.7852L355.731 77.8703C355.731 77.8703 356.05 77.764 355.837 76.5938C355.625 75.4236 354.88 64.3601 341.582 66.8068C334.029 68.2961 329.349 73.6151 332.859 78.7214Z" fill="#153851"/>
<path d="M338.816 109.359V109.678C338.923 110.316 339.136 111.061 339.348 111.699L341.689 112.125L343.71 110.635L341.37 107.976L341.05 108.082C340.199 108.295 339.455 108.721 338.816 109.359Z" fill="#12374F"/>
<path d="M350.625 102.976C350.625 102.976 351.688 103.614 352.859 105.21C352.859 105.21 351.369 105.848 350.093 106.699C348.923 107.444 343.178 111.486 343.178 111.486L341.476 107.976C341.37 108.082 347.433 103.933 350.625 102.976Z" fill="#A3B4D8"/>
<path d="M341.37 108.082C341.37 108.082 339.348 108.721 338.71 110.316C338.71 110.316 337.646 108.295 339.029 104.785C339.029 104.785 340.093 103.721 340.944 103.402L341.37 108.082Z" fill="#A3B4D8"/>
<path d="M357.433 170.634C357.433 170.634 356.369 172.017 356.05 172.123C355.731 172.336 355.731 171.91 355.837 171.698C355.944 171.485 357.327 170.315 357.433 170.634Z" fill="#E5BB98"/>
<path d="M350.625 99.5719C350.837 99.5719 351.05 99.4655 351.157 99.3592C353.71 97.1252 364.667 86.5935 355.944 76.5938C355.944 76.5938 356.369 78.2959 356.156 79.7852C356.156 79.7852 361.795 88.8275 350.625 99.5719Z" fill="#153851"/>
<path d="M370.199 203.505C370.199 203.505 376.794 181.804 358.178 163.932C358.178 163.932 348.178 168.4 340.199 168.932C333.923 169.357 330.732 168.719 330.732 168.719C330.732 168.719 330.2 187.974 330.2 198.399L370.199 203.505Z" fill="#183F5B"/>
<path d="M328.391 239.568C327.966 229.888 335.2 230.952 339.348 237.973C352.859 260.632 339.348 288.929 337.859 305.311C336.263 302.652 333.285 301.801 332.54 301.801C331.37 301.907 330.732 302.758 330.732 302.758C331.051 282.759 328.817 249.994 328.391 239.568Z" fill="#183F5B"/>
<path d="M339.029 240.632C337.859 244.568 327.434 249.143 328.498 234.781C329.029 228.398 330.306 193.08 330.519 189.676C330.732 186.272 331.37 181.272 332.966 180.634C341.157 177.549 352.752 187.867 350.625 200.633C349.135 209.144 341.582 232.441 339.029 240.632Z" fill="#183F5B"/>
<path d="M330.838 303.184C330.412 304.035 328.285 305.95 325.519 307.226C322.647 308.503 316.583 309.141 319.987 310.205C323.391 311.375 327.327 310.63 329.242 310.311C331.263 309.992 333.178 309.992 335.519 309.886C338.604 309.886 338.604 309.673 338.178 306.162C337.646 301.482 332.221 300.418 330.838 303.184Z" fill="#0A1828"/>
<path d="M362.965 241.802C359.667 232.654 366.901 231.483 372.964 237.015C392.538 254.674 387.964 285.737 391.368 301.801C389.453 303.184 386.368 303.609 385.198 303.503C384.028 303.396 383.496 302.652 383.496 302.652C377.858 283.503 366.475 251.589 362.965 241.802Z" fill="#183F5B"/>
<path d="M373.603 239.143C373.922 243.292 366.05 251.483 361.582 237.653C359.667 231.59 347.54 198.293 346.476 195.101C345.412 191.804 344.135 187.016 345.412 185.846C351.901 179.889 366.475 185.102 369.241 197.761C371.156 206.165 372.752 230.632 373.603 239.143Z" fill="#183F5B"/>
<path d="M224.883 123.827L237.011 127.124C237.011 127.124 235.628 137.337 237.011 140.316H228.607C228.607 140.316 227.117 144.677 226.373 146.698C225.628 148.72 232.117 175.634 233.074 182.123C233.074 182.123 229.564 188.08 201.905 184.995C201.905 184.995 200.841 178.506 204.458 168.613C207.543 159.89 193.607 137.869 193.607 137.869C193.607 137.869 195.948 121.912 209.458 119.146C217.33 117.55 217.437 121.805 224.883 123.827Z" fill="white"/>
<path d="M222.649 85.4233C222.649 85.4233 228.713 103.295 225.522 109.146C222.968 113.72 217.437 113.189 217.437 113.189V123.933C217.437 123.933 216.905 124.465 215.841 124.571C214.032 124.678 209.352 121.593 209.352 121.593V96.5933L222.649 85.4233Z" fill="#FFE1BD"/>
<path d="M192.863 143.72C192.863 143.72 187.118 170.208 189.246 171.91C191.373 173.613 214.139 173.613 216.479 174.038C218.713 174.464 229.989 176.059 234.989 172.017C235.628 171.485 228.607 172.762 227.862 170.953C227.117 169.038 224.67 168.4 224.67 168.4L216.905 170.634C216.905 170.634 199.458 167.336 198.288 166.272C197.118 165.209 203.394 143.826 203.394 143.826L192.863 143.72Z" fill="#FFE1BD"/>
<path d="M191.905 143.081C191.905 143.081 195.948 124.997 201.905 122.656C207.862 120.316 210.522 129.252 208.075 137.762C205.522 146.379 204.884 149.464 204.884 149.464C204.884 149.464 196.586 149.464 191.905 143.081Z" fill="#F2F2F2"/>
<path d="M375.092 135.848C375.092 135.848 380.092 169.676 377.326 171.698C374.56 173.719 345.838 175.315 342.965 175.74C340.093 176.166 328.391 179.357 322.328 173.932C321.583 173.187 328.604 172.868 329.668 170.528C330.732 168.187 333.817 167.442 333.817 167.442L342.646 171.379C342.646 171.379 361.688 163.826 366.795 162.975C364.454 159.783 361.263 137.762 361.263 137.762L375.092 135.848Z" fill="#FFE1BD"/>
<path d="M376.688 137.231C376.688 137.231 372.752 112.444 365.305 109.146C357.858 105.848 352.54 116.486 355.305 127.444C358.071 138.401 358.816 142.443 358.816 142.443C358.816 142.443 369.986 143.613 376.688 137.231Z" fill="#CCD6E7"/>
<path opacity="0.1" d="M333.923 174.889H224.351C221.585 174.889 219.351 172.655 219.351 169.889V125.21C219.351 122.444 221.585 120.21 224.351 120.21H333.923C336.689 120.21 338.923 122.444 338.923 125.21V169.889C338.923 172.655 336.689 174.889 333.923 174.889Z" fill="#7F1E00"/>
<path d="M336.051 172.762H226.479C223.713 172.762 221.479 170.528 221.479 167.762V123.082C221.479 120.316 223.713 118.082 226.479 118.082H336.051C338.816 118.082 341.05 120.316 341.05 123.082V167.762C341.05 170.528 338.816 172.762 336.051 172.762Z" fill="white"/>
<path d="M234.989 123.72L231.904 126.912L234.989 130.209" stroke="#34B77E" stroke-width="0.8295" stroke-miterlimit="10" stroke-linecap="round" stroke-linejoin="round"/>
<path d="M242.542 123.72L245.521 126.912L242.542 130.209" stroke="#34B77E" stroke-width="0.8295" stroke-miterlimit="10" stroke-linecap="round" stroke-linejoin="round"/>
<path d="M237.436 130.741L239.883 123.72" stroke="#34B77E" stroke-width="0.8295" stroke-miterlimit="10" stroke-linecap="round" stroke-linejoin="round"/>
<path d="M249.563 130.741C249.563 131.273 249.138 131.592 248.712 131.592C248.287 131.592 247.861 131.167 247.861 130.741C247.861 130.209 248.287 129.89 248.712 129.89C249.244 129.89 249.563 130.316 249.563 130.741Z" fill="#34B77E"/>
<path d="M253.074 130.741C253.074 131.273 252.648 131.592 252.223 131.592C251.797 131.592 251.372 131.167 251.372 130.741C251.372 130.209 251.797 129.89 252.223 129.89C252.648 129.89 253.074 130.316 253.074 130.741Z" fill="#34B77E"/>
<path d="M255.733 131.592C256.204 131.592 256.585 131.211 256.585 130.741C256.585 130.271 256.204 129.89 255.733 129.89C255.263 129.89 254.882 130.271 254.882 130.741C254.882 131.211 255.263 131.592 255.733 131.592Z" fill="#34B77E"/>
<path d="M231.904 136.273H332.327" stroke="#34B77E" stroke-width="0.7605" stroke-miterlimit="10" stroke-linecap="round" stroke-linejoin="round"/>
<path d="M231.904 140.209H292.222" stroke="#00FCFF" stroke-width="0.856" stroke-miterlimit="10" stroke-linecap="round" stroke-linejoin="round"/>
<path d="M296.903 140.209H332.327" stroke="#00FCFF" stroke-width="0.8438" stroke-miterlimit="10" stroke-linecap="round" stroke-linejoin="round"/>
<path d="M332.327 144.571H282.648" stroke="#00FCFF" stroke-width="0.8438" stroke-miterlimit="10" stroke-linecap="round" stroke-linejoin="round"/>
<path d="M300.626 123.72H332.54" stroke="#E1F0FF" stroke-width="0.7605" stroke-miterlimit="10" stroke-linecap="round" stroke-linejoin="round"/>
<path d="M297.115 127.763H332.54" stroke="#E1F0FF" stroke-width="0.8438" stroke-miterlimit="10" stroke-linecap="round" stroke-linejoin="round"/>
<path d="M332.54 132.124H282.967" stroke="#E1F0FF" stroke-width="0.8438" stroke-miterlimit="10" stroke-linecap="round" stroke-linejoin="round"/>
<path d="M278.605 144.571H272.754" stroke="#00FCFF" stroke-width="0.856" stroke-miterlimit="10" stroke-linecap="round" stroke-linejoin="round"/>
<path d="M268.074 144.571H262.116" stroke="#00FCFF" stroke-width="0.856" stroke-miterlimit="10" stroke-linecap="round" stroke-linejoin="round"/>
<path d="M257.436 144.571H251.478" stroke="#00FCFF" stroke-width="0.856" stroke-miterlimit="10" stroke-linecap="round" stroke-linejoin="round"/>
<path d="M246.798 144.571H240.947" stroke="#00FCFF" stroke-width="0.856" stroke-miterlimit="10" stroke-linecap="round" stroke-linejoin="round"/>
<path d="M332.327 149.89H239.032" stroke="#FF4F92" stroke-width="0.7605" stroke-miterlimit="10" stroke-linecap="round" stroke-linejoin="round"/>
<path d="M234.138 144.571H231.904" stroke="#00FCFF" stroke-width="0.856" stroke-miterlimit="10" stroke-linecap="round" stroke-linejoin="round"/>
<path d="M234.138 149.89H231.904" stroke="#00FCFF" stroke-width="0.856" stroke-miterlimit="10" stroke-linecap="round" stroke-linejoin="round"/>
<path d="M234.138 155.209H231.904" stroke="#00FCFF" stroke-width="0.856" stroke-miterlimit="10" stroke-linecap="round" stroke-linejoin="round"/>
<path d="M234.138 160.421H231.904" stroke="#00FCFF" stroke-width="0.856" stroke-miterlimit="10" stroke-linecap="round" stroke-linejoin="round"/>
<path d="M240.734 155.209H266.372" stroke="#FF4F92" stroke-width="0.9928" stroke-miterlimit="10" stroke-linecap="round" stroke-linejoin="round"/>
<path d="M240.734 160.634H274.669" stroke="#FF4F92" stroke-width="0.9928" stroke-miterlimit="10" stroke-linecap="round" stroke-linejoin="round"/>
<path d="M240.734 166.06H286.797" stroke="#E1F0FF" stroke-width="0.8438" stroke-miterlimit="10" stroke-linecap="round" stroke-linejoin="round"/>
<path d="M269.031 155.209H332.327" stroke="#FF8B00" stroke-width="0.856" stroke-miterlimit="10" stroke-linecap="round" stroke-linejoin="round"/>
<path d="M277.116 160.634H332.327" stroke="#FF8B00" stroke-width="0.856" stroke-miterlimit="10" stroke-linecap="round" stroke-linejoin="round"/>
<path d="M289.669 166.06H332.327" stroke="#E1F0FF" stroke-width="0.8438" stroke-miterlimit="10" stroke-linecap="round" stroke-linejoin="round"/>
<path d="M253.18 171.91C253.18 171.91 250.627 168.613 248.925 168.081C247.223 167.549 245.415 167.549 244.989 168.4C244.564 169.251 244.032 173.081 244.457 173.719C244.776 174.357 251.797 175.527 253.18 171.91Z" fill="#FFE1BD"/>
<path d="M317.115 117.337C317.115 117.337 319.881 121.167 321.689 121.912C323.604 122.656 325.625 122.763 326.157 121.805C326.689 120.848 327.54 116.486 327.115 115.848C326.795 115.103 318.923 113.401 317.115 117.337Z" fill="#FFE1BD"/>
<path d="M200.203 299.248C200.309 299.567 200.416 299.78 200.416 300.099C200.416 300.311 200.309 300.418 200.309 300.631C200.309 301.162 200.948 301.482 201.586 301.588C203.501 301.907 205.522 301.907 207.437 301.907C208.394 301.907 209.352 301.801 210.096 301.375C210.416 301.162 210.735 300.95 210.841 300.631C210.947 300.311 210.841 299.886 210.522 299.673C210.841 299.567 210.841 299.035 210.522 298.716C210.203 298.503 209.884 298.503 209.458 298.503C207.756 298.609 205.948 298.822 204.245 298.822C203.394 298.822 202.543 298.822 201.692 298.716C201.267 298.716 199.99 298.184 200.203 299.248Z" fill="#1C4D66"/>
<path d="M224.883 298.29C224.99 298.609 225.096 298.822 225.096 299.141C225.096 299.354 224.99 299.46 224.99 299.673C224.99 300.205 225.628 300.524 226.266 300.631C228.181 300.95 230.202 300.95 232.117 300.95C233.074 300.95 234.032 300.843 234.777 300.418C235.096 300.205 235.415 299.992 235.521 299.673C235.628 299.354 235.521 298.928 235.202 298.716C235.521 298.609 235.521 298.077 235.202 297.758C234.883 297.546 234.564 297.546 234.138 297.546C232.436 297.652 230.628 297.865 228.926 297.865C228.075 297.865 227.224 297.865 226.373 297.758C225.841 297.758 224.67 297.226 224.883 298.29Z" fill="#1C4D66"/>
<path d="M223.607 88.402C223.607 88.402 219.032 98.4017 214.564 100.21C214.564 100.21 213.288 98.4017 212.118 99.4655C210.947 100.529 212.65 104.359 213.82 104.678C214.99 105.104 211.373 109.784 209.352 110.104C207.33 110.316 199.565 100.636 201.16 93.0827C202.756 85.4233 206.692 84.5723 206.692 84.5723C206.692 84.5723 212.33 78.5086 223.5 83.5085L223.607 88.402Z" fill="#153851"/>
</g>
<defs>
<filter id="filter0_d" x="0.569729" y="0" width="457.776" height="324.491" filterUnits="userSpaceOnUse" color-interpolation-filters="sRGB">
<feFlood flood-opacity="0" result="BackgroundImageFix"/>
<feColorMatrix in="SourceAlpha" type="matrix" values="0 0 0 0 0 0 0 0 0 0 0 0 0 0 0 0 0 0 127 0"/>
<feOffset dy="4"/>
<feGaussianBlur stdDeviation="2"/>
<feColorMatrix type="matrix" values="0 0 0 0 0 0 0 0 0 0 0 0 0 0 0 0 0 0 0.25 0"/>
<feBlend mode="normal" in2="BackgroundImageFix" result="effect1_dropShadow"/>
<feBlend mode="normal" in="SourceGraphic" in2="effect1_dropShadow" result="shape"/>
</filter>
<linearGradient id="paint0_linear" x1="339.78" y1="46.4795" x2="339.78" y2="230.143" gradientUnits="userSpaceOnUse">
<stop stop-color="#BAE794"/>
<stop offset="0.4507" stop-color="#54C4AC"/>
<stop offset="1" stop-color="#1CB1BA"/>
</linearGradient>
<linearGradient id="paint1_linear" x1="339.78" y1="287.725" x2="339.78" y2="268.522" gradientUnits="userSpaceOnUse">
<stop stop-color="white"/>
<stop offset="1" stop-color="#A7A9AC"/>
</linearGradient>
</defs>
</svg>
