<svg width="40" height="60" viewBox="0 0 40 60" fill="none" xmlns="http://www.w3.org/2000/svg">
<path d="M0.246238 12.7046C0.382333 12.8408 0.603105 12.8409 0.739268 12.7047L4.14005 9.30416C5.70229 7.74204 5.70228 5.20922 4.14005 3.6471L0.73904 0.246331C0.602983 0.110284 0.382402 0.110289 0.24635 0.246341C0.110295 0.382396 0.110295 0.602985 0.24635 0.73904L3.1544 3.64709C4.71654 5.20923 4.71649 7.74198 3.15429 9.30406L0.246365 12.2118C0.110284 12.3478 0.110227 12.5684 0.246238 12.7046Z" fill="#5B94E3" fill-opacity="0.4"/>
<path d="M15.6787 2.9585H10.7829C10.5904 2.9585 10.4343 3.11457 10.4343 3.3071C10.4343 3.49963 10.5904 3.6557 10.7829 3.6557H15.6787C15.8712 3.6557 16.0273 3.49963 16.0273 3.3071C16.0273 3.11457 15.8712 2.9585 15.6787 2.9585Z" fill="#5B94E3" fill-opacity="0.4"/>
<path d="M27.4868 2.9585H19.8562C19.6636 2.9585 19.5076 3.11457 19.5076 3.3071C19.5076 3.49963 19.6636 3.6557 19.8562 3.6557H27.4868C27.6794 3.6557 27.8354 3.49963 27.8354 3.3071C27.8354 3.11457 27.6794 2.9585 27.4868 2.9585Z" fill="#5B94E3" fill-opacity="0.4"/>
<path d="M33.4467 2.9585H32.6775C32.4849 2.9585 32.3289 3.11457 32.3289 3.3071C32.3289 3.49963 32.4849 3.6557 32.6775 3.6557H33.4467C33.6392 3.6557 33.7953 3.49963 33.7953 3.3071C33.7953 3.11457 33.6392 2.9585 33.4467 2.9585Z" fill="#5B94E3" fill-opacity="0.4"/>
<path d="M39.4062 2.9585H38.2898C38.0972 2.9585 37.9412 3.11457 37.9412 3.3071C37.9412 3.49963 38.0972 3.6557 38.2898 3.6557H39.4062C39.5987 3.6557 39.7548 3.49963 39.7548 3.3071C39.7548 3.11457 39.5987 2.9585 39.4062 2.9585Z" fill="#5B94E3" fill-opacity="0.4"/>
<path d="M39.4063 6.12744H34.511C34.3184 6.12744 34.1624 6.28352 34.1624 6.47604C34.1624 6.66857 34.3184 6.82465 34.511 6.82465H39.4063C39.5988 6.82465 39.7549 6.66857 39.7549 6.47604C39.7549 6.28352 39.5988 6.12744 39.4063 6.12744Z" fill="#5B94E3" fill-opacity="0.4"/>
<path d="M11.8994 6.12744H10.7829C10.5904 6.12744 10.4343 6.28352 10.4343 6.47604C10.4343 6.66857 10.5904 6.82465 10.7829 6.82465H11.8994C12.0919 6.82465 12.248 6.66857 12.248 6.47604C12.248 6.28352 12.0919 6.12744 11.8994 6.12744Z" fill="#5B94E3" fill-opacity="0.4"/>
<path d="M33.4467 9.2959H32.6775C32.4849 9.2959 32.3289 9.45197 32.3289 9.6445C32.3289 9.83703 32.4849 9.9931 32.6775 9.9931H33.4467C33.6392 9.9931 33.7953 9.83703 33.7953 9.6445C33.7953 9.45197 33.6392 9.2959 33.4467 9.2959Z" fill="#5B94E3" fill-opacity="0.4"/>
<path d="M39.4062 9.2959H38.2898C38.0972 9.2959 37.9412 9.45197 37.9412 9.6445C37.9412 9.83703 38.0972 9.9931 38.2898 9.9931H39.4062C39.5987 9.9931 39.7548 9.83703 39.7548 9.6445C39.7548 9.45197 39.5987 9.2959 39.4062 9.2959Z" fill="#5B94E3" fill-opacity="0.4"/>
<path d="M7.43407 15.752H0.595428C0.402901 15.752 0.246826 15.908 0.246826 16.1006C0.246826 16.2931 0.4029 16.4492 0.595428 16.4492H7.43407C7.62659 16.4492 7.78267 16.2931 7.78267 16.1006C7.78267 15.908 7.62659 15.752 7.43407 15.752Z" fill="#5B94E3" fill-opacity="0.4"/>
<path d="M31.3758 15.752H30.0971C29.9046 15.752 29.7485 15.908 29.7485 16.1006C29.7485 16.2931 29.9046 16.4492 30.0971 16.4492H31.3758C31.5683 16.4492 31.7244 16.2931 31.7244 16.1006C31.7244 15.908 31.5683 15.752 31.3758 15.752Z" fill="#5B94E3" fill-opacity="0.4"/>
<path d="M39.4064 15.752H37.6596C37.4671 15.752 37.311 15.908 37.311 16.1006C37.311 16.2931 37.4671 16.4492 37.6596 16.4492H39.4064C39.5989 16.4492 39.755 16.2931 39.755 16.1006C39.755 15.908 39.5989 15.752 39.4064 15.752Z" fill="#5B94E3" fill-opacity="0.4"/>
<path d="M39.4065 20.0215H32.5678C32.3753 20.0215 32.2192 20.1776 32.2192 20.3701C32.2192 20.5626 32.3753 20.7187 32.5678 20.7187H39.4065C39.599 20.7187 39.7551 20.5626 39.7551 20.3701C39.7551 20.1776 39.599 20.0215 39.4065 20.0215Z" fill="#5B94E3" fill-opacity="0.4"/>
<path d="M9.90411 20.0215H8.62497C8.43244 20.0215 8.27637 20.1776 8.27637 20.3701C8.27637 20.5626 8.43244 20.7187 8.62497 20.7187H9.90411C10.0966 20.7187 10.2527 20.5626 10.2527 20.3701C10.2527 20.1776 10.0966 20.0215 9.90411 20.0215Z" fill="#5B94E3" fill-opacity="0.4"/>
<path d="M2.34216 20.0215H0.595428C0.402901 20.0215 0.246826 20.1776 0.246826 20.3701C0.246826 20.5626 0.402901 20.7187 0.595428 20.7187H2.34216C2.53468 20.7187 2.69076 20.5626 2.69076 20.3701C2.69076 20.1776 2.53468 20.0215 2.34216 20.0215Z" fill="#5B94E3" fill-opacity="0.4"/>
<path d="M39.4064 24.29H37.6596C37.4671 24.29 37.311 24.4461 37.311 24.6386C37.311 24.8312 37.4671 24.9872 37.6596 24.9872H39.4064C39.5989 24.9872 39.755 24.8312 39.755 24.6386C39.755 24.4461 39.5989 24.29 39.4064 24.29Z" fill="#5B94E3" fill-opacity="0.4"/>
<path d="M19.7419 40.5596C19.9455 40.5596 20.5475 40.5596 20.7512 40.5596C23.3772 40.5596 33.3577 39.9273 34.2245 36.8333C35.8752 30.2118 31.9889 28.6248 28.5602 27.2214C28.0657 27.0188 27.147 26.6627 27.0758 26.6351C27.0725 26.6339 27.0698 26.6328 27.0666 26.6316C26.6643 26.4758 26.0942 26.0969 25.7941 25.789L24.9152 25.0143C24.471 24.5675 23.8713 25.3955 23.3174 25.6956L20.7136 27.1065C20.5736 27.1823 20.4187 27.2221 20.2594 27.2221C20.1025 27.2221 19.9462 27.1835 19.8077 27.1097L17.1483 25.6932C16.5865 25.3939 15.9817 24.5611 15.5227 25.0022L14.6334 25.8157C14.3338 26.1238 13.7611 26.5038 13.3598 26.6588C13.3586 26.6593 13.3579 26.6595 13.3567 26.66C13.3176 26.6751 12.432 27.0176 11.934 27.2221C8.506 28.6254 4.61966 30.213 6.26973 36.8339C7.13538 39.9273 17.1152 40.5596 19.7419 40.5596ZM24.8636 32.2123C24.8836 32.171 25.3468 32.1377 25.7772 32.1377H28.0456C28.476 32.1377 28.8664 32.1523 28.913 32.171C28.9585 32.188 28.9967 32.6196 28.9967 33.0276C28.9967 33.4356 28.9797 33.8035 28.9591 33.8442C28.9397 33.8842 28.476 33.9175 28.0456 33.9175H25.7772C25.3468 33.9175 24.9564 33.9042 24.9097 33.8842C24.8636 33.8672 24.8248 33.4356 24.8248 33.0276C24.8248 32.6196 24.8418 32.2529 24.8636 32.2123Z" fill="#5B94E3" fill-opacity="0.8"/>
<path d="M25.6098 19.1152C25.6127 19.1047 25.6156 19.0942 25.6185 19.0837C25.8426 18.259 26.4855 17.566 26.8083 16.7747C27.055 16.1546 27.1884 14.8161 27.1926 14.7597C27.3011 13.6494 26.9949 12.415 26.9707 11.2998C26.9106 8.51597 25.8096 7.88984 25.037 7.76175C24.712 7.7084 24.2198 7.58595 24.0004 7.34287C23.4881 6.77729 23.2608 6.14866 22.3764 6.19958C22.0478 6.21716 21.6059 6.11411 21.3543 5.90376C21.0161 5.62066 20.5499 5.29028 20.2044 5.29028C19.8643 5.29028 19.4363 5.60732 19.1235 5.88799C18.8786 6.10622 18.4458 6.21716 18.1184 6.19958C17.2334 6.14866 17.0067 6.77729 16.4944 7.34287C16.2738 7.58595 15.7822 7.70901 15.4566 7.76175C14.6841 7.8899 13.5822 8.51653 13.5224 11.3046C13.4986 12.4144 13.1925 13.6538 13.3016 14.7585C13.3064 14.8161 13.4392 16.1546 13.6871 16.7747C14.0076 17.5669 14.6526 18.2578 14.875 19.0829C14.8779 19.0937 14.8808 19.1045 14.8838 19.1152C15.2699 20.5252 17.2588 23.7138 19.8467 23.7987C19.9152 23.8029 20.0607 23.8042 20.2122 23.8042L20.5487 23.8017C23.1481 23.7763 25.2267 20.521 25.6098 19.1152Z" fill="#5B94E3" fill-opacity="0.8"/>
<path d="M26.7653 14.1546C26.1782 14.1546 25.7117 13.6829 25.4148 13.1764C24.9613 12.4029 24.0878 11.9197 23.1363 12.0098C22.2548 12.0932 21.5157 12.6531 21.1778 13.4303C21.0082 13.8207 20.6664 14.1546 20.2407 14.1546C19.815 14.1546 19.4735 13.8206 19.3039 13.4302C18.9047 12.5111 17.9482 11.9102 16.8965 12.0098C16.1142 12.0838 15.444 12.5331 15.067 13.1766C14.7701 13.6831 14.3032 14.1546 13.7161 14.1546C13.5861 14.1546 13.4807 14.2599 13.4807 14.3899C13.4807 14.5199 13.5861 14.6253 13.7161 14.6253C14.3032 14.6253 14.7697 15.097 15.0666 15.6035C15.5201 16.3769 16.3936 16.8602 17.3451 16.7701C18.2262 16.6867 18.9651 16.1273 19.3031 15.3506C19.4732 14.9597 19.8156 14.6253 20.2419 14.6253C20.6682 14.6253 21.0103 14.9598 21.1804 15.3508C21.5798 16.2692 22.536 16.8696 23.5873 16.7701C24.3704 16.6959 25.0412 16.2458 25.418 15.6013C25.7137 15.0956 26.1795 14.6253 26.7653 14.6253C26.8953 14.6253 27.0007 14.5199 27.0007 14.3899C27.0007 14.2599 26.8953 14.1546 26.7653 14.1546ZM17.1196 16.3012H17.1149C16.0594 16.2986 15.2058 15.4408 15.2084 14.3852C15.211 13.3297 16.0688 12.4761 17.1243 12.4787C18.1781 12.4813 19.0309 13.3362 19.0309 14.3899C19.0309 15.4455 18.1752 16.3012 17.1196 16.3012ZM23.3618 16.3012H23.3571C22.3015 16.2986 21.448 15.4408 21.4505 14.3852C21.4531 13.3297 22.3109 12.4761 23.3665 12.4787C24.4202 12.4813 25.273 13.3362 25.273 14.3899C25.273 15.4455 24.4173 16.3012 23.3618 16.3012Z" fill="white"/>
<path d="M17.3809 12.8955C17.2509 12.8955 17.1455 13.0009 17.1455 13.1309C17.1455 13.2609 17.2509 13.3663 17.3809 13.3663C17.8086 13.3663 18.1553 13.713 18.1553 14.1406C18.1553 14.2706 18.2607 14.376 18.3906 14.376C18.5206 14.376 18.626 14.2706 18.626 14.1406C18.626 13.453 18.0686 12.8955 17.3809 12.8955Z" fill="white"/>
<path d="M23.6087 12.8955C23.4787 12.8955 23.3733 13.0009 23.3733 13.1309C23.3733 13.2609 23.4787 13.3663 23.6087 13.3663C24.0363 13.3663 24.3831 13.713 24.3831 14.1406C24.3831 14.2706 24.4884 14.376 24.6184 14.376C24.7484 14.376 24.8538 14.2706 24.8538 14.1406C24.8538 13.453 24.2963 12.8955 23.6087 12.8955Z" fill="white"/>
<path d="M4.4716 29.3911H36.4164C37.5853 29.3911 38.5366 30.3424 38.5366 31.5113V52.5723C38.5366 53.7412 37.5853 54.6925 36.4164 54.6925H4.4716C3.30264 54.6925 2.35136 53.7412 2.35136 52.5723V31.5113C2.35136 30.3424 3.30264 29.3911 4.4716 29.3911Z" fill="#5B94E3"/>
<circle cx="20.3519" cy="41.9495" r="0.837219" fill="white"/>
<path d="M9.13587 57.7772H13.3057C14.1644 57.7772 14.8605 57.081 14.8605 56.2223C14.8605 55.3636 15.5566 54.6675 16.4153 54.6675H24.4722C25.3309 54.6675 26.027 55.3636 26.027 56.2223C26.027 57.081 26.7232 57.7772 27.5819 57.7772H31.7517C32.3368 57.7772 32.8118 58.2521 32.8118 58.8373C32.8118 59.4224 32.3368 59.8974 31.7517 59.8974H9.13587C8.55069 59.8974 8.07575 59.4224 8.07575 58.8373C8.07575 58.2521 8.55069 57.7772 9.13587 57.7772Z" fill="#5B94E3"/>
</svg>
