<svg width="40" height="60" viewBox="0 0 40 60" fill="none" xmlns="http://www.w3.org/2000/svg">
<path d="M19.6443 35.0291C19.6474 35.0369 19.655 35.0419 19.6635 35.0419C19.6719 35.0419 19.6795 35.0369 19.6827 35.0291C20.2194 33.7119 20.7431 32.06 21.2045 30.3622C21.3468 29.8383 21.3767 29.2892 21.2762 28.7558C21.1509 28.0915 21.0085 27.4799 20.8733 26.9568C20.6579 26.1237 20.7366 25.2755 21.0866 24.4893C21.1629 24.318 21.2227 24.1492 21.2487 23.9852C21.3387 23.421 21.1488 23.0361 20.8591 22.6777C20.7385 22.5305 20.544 22.4719 20.4055 22.5765L19.9119 22.9208C19.7741 23.0254 19.5509 23.0254 19.4131 22.9208L18.9188 22.5765C18.7823 22.4726 18.5865 22.5312 18.4672 22.6777C18.1762 23.0361 17.9863 23.421 18.0776 23.9852C18.1043 24.1505 18.165 24.3207 18.2422 24.4935C18.5921 25.2771 18.6682 26.1235 18.4529 26.9542C18.3175 27.477 18.1747 28.0887 18.0494 28.7534C17.9488 29.2871 17.9791 29.8365 18.1216 30.3605C18.5835 32.059 19.1059 33.7114 19.6443 35.0291Z" fill="#5B94E3" fill-opacity="0.8"/>
<path d="M19.1082 38.7528C19.332 38.7528 19.9934 38.7528 20.2172 38.7528C23.1026 38.7528 34.0688 38.0581 35.0212 34.6585C36.8349 27.383 32.5648 25.6393 28.7975 24.0973C28.2532 23.8742 27.2412 23.4821 27.1661 23.453C27.1628 23.4517 27.1601 23.4506 27.1568 23.4494C26.7148 23.2784 26.088 22.8619 25.7582 22.5234L24.7924 21.6722C24.458 21.3358 24.099 21.4397 23.9945 21.902L19.9055 35.1947C19.7729 35.649 19.5538 35.649 19.4199 35.196L15.287 21.9006C15.1797 21.4397 14.814 21.3305 14.4723 21.6588L13.4952 22.5527C13.166 22.8913 12.5365 23.3089 12.0957 23.4792C12.0944 23.4797 12.0939 23.4799 12.0926 23.4804C12.0534 23.4955 11.0774 23.8728 10.5292 24.098C6.7626 25.6399 2.49244 27.3844 4.30548 34.6592C5.25662 38.0581 16.2221 38.7528 19.1082 38.7528ZM24.7358 29.5811C24.7578 29.5358 25.2667 29.4991 25.7396 29.4991H28.232C28.7049 29.4991 29.1339 29.5151 29.1851 29.5358C29.2351 29.5544 29.2771 30.0287 29.2771 30.4769C29.2771 30.9252 29.2584 31.3295 29.2358 31.3741C29.2144 31.4181 28.7049 31.4547 28.232 31.4547H25.7396C25.2667 31.4547 24.8377 31.4401 24.7864 31.4181C24.7358 31.3994 24.6932 30.9252 24.6932 30.4769C24.6932 30.0287 24.7118 29.6257 24.7358 29.5811Z" fill="#5B94E3" fill-opacity="0.8"/>
<path d="M25.5558 15.1904C25.559 15.1788 25.5621 15.1673 25.5653 15.1558C25.8116 14.2496 26.518 13.4882 26.8726 12.6187C27.1437 11.9373 27.2902 10.4666 27.2949 10.4047C27.2974 10.3789 27.2997 10.3533 27.3017 10.328C27.3953 9.15461 27.0705 7.85513 27.0525 6.67818C27.0047 3.55551 25.7822 2.85745 24.9263 2.71556C24.5693 2.65695 24.0285 2.5224 23.7874 2.25531C23.2245 1.63387 22.9748 0.943153 22.003 0.999103C21.642 1.01842 21.1564 0.905188 20.88 0.674062C20.5083 0.363008 19.9961 0 19.6164 0C19.2428 0 18.7725 0.348354 18.4288 0.656744C18.1598 0.896529 17.6842 1.01842 17.3245 0.999103C16.352 0.943153 16.1029 1.63387 15.5401 2.25531C15.2977 2.5224 14.7575 2.65761 14.3998 2.71556C13.55 2.85654 12.3373 3.54659 12.2743 6.61968C12.2495 7.83179 11.9128 9.19683 12.0319 10.4033C12.0373 10.4666 12.1831 11.9373 12.4555 12.6187C12.8076 13.4891 13.5163 14.2483 13.7607 15.1549C13.7639 15.1667 13.7671 15.1785 13.7704 15.1904C14.1946 16.7396 16.38 20.2432 19.2235 20.3364C19.2987 20.3411 19.4586 20.3424 19.6251 20.3424L19.9948 20.3397C22.8509 20.3118 25.1348 16.735 25.5558 15.1904Z" fill="#5B94E3" fill-opacity="0.8"/>
<path d="M2.32969 26.481H37.4295C38.7139 26.481 39.7592 27.5262 39.7592 28.8106V51.9516C39.7592 53.236 38.7139 54.2813 37.4295 54.2813H2.32969C1.04528 54.2813 4.95911e-05 53.236 4.95911e-05 51.9516V28.8106C4.95911e-05 27.5262 1.04528 26.481 2.32969 26.481Z" fill="#5B94E3"/>
<circle cx="19.7783" cy="40.2798" r="0.919907" fill="white"/>
<path d="M7.45449 57.6707H12.0361C12.9796 57.6707 13.7445 56.9058 13.7445 55.9623C13.7445 55.0188 14.5094 54.2539 15.4529 54.2539H24.3055C25.249 54.2539 26.0139 55.0188 26.0139 55.9623C26.0139 56.9058 26.7788 57.6707 27.7223 57.6707H32.3039C32.9469 57.6707 33.4688 58.1925 33.4688 58.8355C33.4688 59.4785 32.9469 60.0003 32.3039 60.0003H7.45449C6.81151 60.0003 6.28967 59.4785 6.28967 58.8355C6.28967 58.1925 6.81151 57.6707 7.45449 57.6707Z" fill="#5B94E3"/>
</svg>
