<svg width="93" height="60" viewBox="0 0 93 60" fill="none" xmlns="http://www.w3.org/2000/svg">
<path d="M10.0257 16.9358C10.0299 17.0132 10.2093 18.821 10.5445 19.6604C10.9813 20.7288 11.8469 21.6644 12.1481 22.7786C12.1519 22.7925 12.1556 22.8064 12.1594 22.8202C12.6823 24.725 15.3667 29.0295 18.8606 29.147C18.9534 29.1481 19.1483 29.1522 19.3535 29.1522L19.8083 29.1481C23.3167 29.114 26.1258 24.7198 26.6435 22.8202C26.6472 22.8068 26.6509 22.7934 26.6545 22.78C26.9567 21.6657 27.8281 20.7318 28.2585 19.6604C28.5947 18.822 28.7721 17.0142 28.7783 16.9379C28.7928 16.7919 28.8006 16.6523 28.8028 16.5192C28.8239 15.2864 28.4759 13.9228 28.4831 12.6898C28.5073 8.57013 26.9503 7.67024 25.868 7.49047C25.4277 7.41828 24.7646 7.25225 24.4686 6.92327C23.7777 6.16014 23.4714 5.30934 22.2761 5.37844C21.8317 5.40319 21.2366 5.265 20.8963 4.98037C20.4405 4.59571 19.8114 4.14917 19.3412 4.14917C18.8833 4.14917 18.3058 4.57818 17.8819 4.95768C17.554 5.25159 16.9692 5.40319 16.5248 5.37741C15.3316 5.30831 15.0243 6.1591 14.3333 6.92224C14.0353 7.25121 13.3712 7.41622 12.9349 7.48944C11.8479 7.66909 10.2811 8.57845 10.3186 12.7449C10.3294 13.9457 9.99477 15.2634 10.001 16.4642C10.0018 16.6132 10.0095 16.7705 10.0257 16.9358Z" fill="#5B94E3"/>
<path d="M17.3003 40.6852C17.5339 41.5839 18.8481 41.6879 19.3866 40.9314C19.7535 40.416 20.153 39.9383 20.5776 39.4944C20.981 39.0726 21.1804 38.4852 21.0453 37.9173C20.9542 37.5347 20.8629 37.1796 20.7761 36.8595C20.5739 36.1137 20.6029 35.3307 20.9582 34.6445C21.137 34.2992 21.2977 33.9576 21.3509 33.6326C21.4602 32.9376 21.2261 32.4673 20.8703 32.0249C20.7218 31.8424 20.4846 31.7712 20.3144 31.9001L19.7091 32.3219C19.5389 32.4508 19.2636 32.4508 19.0944 32.3219L18.486 31.9001C18.3189 31.7712 18.0786 31.8424 17.9301 32.0249C17.5754 32.4673 17.3403 32.9376 17.4527 33.6326C17.4993 33.921 17.6308 34.2223 17.7845 34.5276C18.1706 35.2946 18.2138 36.1584 17.9915 36.9878C17.7515 37.8836 17.4819 39.0313 17.2807 40.2892C17.2596 40.4206 17.2669 40.5564 17.3003 40.6852Z" fill="#5B94E3"/>
<path d="M77.6645 29.3283C77.6738 29.3238 77.6807 29.3096 77.6908 29.3072C88.2926 26.7898 85.7714 8.46257 76.0834 4.90068C75.624 4.78005 74.9682 4.66994 74.2295 4.71632C73.0868 4.78808 71.8921 4.78823 70.7494 4.71604C70.0107 4.66937 69.3552 4.77943 68.8945 4.90068C59.1968 8.46654 56.6809 26.8308 67.3227 29.3153C67.3286 29.3166 67.332 29.3231 67.3313 29.3291C67.331 29.3319 67.3322 29.3344 67.3342 29.3362C68.8017 30.6463 69.4812 35.8215 69.3843 39.1634C69.3712 39.6161 69.5243 40.0571 69.8066 40.4114C69.9997 40.6539 70.1855 40.9052 70.3629 41.166C71.2565 42.4791 74.427 42.4438 75.4536 41.2319C75.7245 40.9121 75.6966 40.6494 75.6565 40.2322C75.352 37.0581 76.0076 30.8011 77.644 29.3362C77.6496 29.3312 77.6578 29.3316 77.6645 29.3283Z" fill="#5B94E3"/>
<path d="M87.7093 35.5502C85.827 34.669 83.9843 39.2289 84.7901 41.1447C85.3411 42.4547 84.621 42.3396 83.2167 42.1209C81.4953 41.8528 77.1705 42.1496 76.1497 43.5613C74.4075 45.9705 72.876 47.31 72.529 47.5993C72.519 47.6076 72.5169 47.6201 72.5171 47.6331C72.5171 47.6345 72.5171 47.6359 72.5171 47.6374C72.5171 47.6382 72.5173 47.6389 72.5175 47.6397C72.5195 47.6449 72.5219 47.6504 72.5241 47.6561C72.525 47.6584 72.5221 47.6604 72.5202 47.6589C72.5189 47.658 72.5172 47.6589 72.5173 47.6606C72.5978 48.8624 72.5502 50.1788 72.3532 51.6144C72.3426 51.6916 72.4048 51.7621 72.4823 51.7544C72.49 51.7536 72.4946 51.7535 72.5023 51.754C75.001 51.9224 91.0207 51.1267 92.2658 46.8001C94.0256 39.9373 91.2841 37.2239 87.7093 35.5502Z" fill="#5B94E3"/>
<path d="M62.1122 33.7664C61.5437 33.9771 61.5209 34.7785 62.0763 35.0215C62.1601 35.0582 62.2443 35.0953 62.3288 35.1328C62.6397 35.271 63.0102 35.1382 63.1718 34.8387C63.4813 34.265 62.7924 33.5129 62.1816 33.7406C62.1585 33.7492 62.1353 33.7578 62.1122 33.7664Z" fill="#5B94E3"/>
<path d="M0.528673 46.7447C1.29822 49.4925 7.38733 50.802 12.4758 51.377C14.9585 51.6576 16.8626 49.4395 17.1438 46.9568C17.2234 46.2546 17.3479 45.5922 17.512 44.9668C17.7399 44.0983 17.7904 43.1816 17.5239 42.3242L14.0238 31.0664C13.8939 30.4992 13.4422 30.3641 13.0214 30.7684L11.8221 31.8646C11.4159 32.281 10.6459 32.7928 10.1027 33.0033C10.0994 33.0046 10.0965 33.0057 10.0932 33.007C10.0108 33.039 8.84094 33.4937 8.17756 33.7652C3.54615 35.6597 -1.69886 37.8026 0.528673 46.7447Z" fill="#5B94E3"/>
<path d="M26.8922 31.832L25.7042 30.7832C25.2948 30.3707 24.8523 30.4986 24.7224 31.0647C24.0695 33.1892 26.7458 35.3219 28.8003 34.474C29.0001 34.3915 29.1962 34.3112 29.3878 34.2328C29.8217 34.0543 29.8234 33.441 29.3866 33.2699C28.9744 33.1084 28.6416 32.9792 28.6178 32.97C28.6163 32.9694 28.6157 32.9692 28.6143 32.9686C28.0709 32.7608 27.2979 32.2481 26.8922 31.832Z" fill="#5B94E3"/>
<path d="M44.768 54.2359C44.7729 54.248 44.7847 54.2558 44.7978 54.2558C44.8109 54.2558 44.8226 54.248 44.8276 54.2358C45.7044 52.084 46.5587 49.3552 47.301 46.5745C47.441 46.0501 47.4701 45.5013 47.3757 44.9668C47.1071 43.4459 46.7713 42.0791 46.4832 41.0356C46.2542 40.2061 46.2775 39.3297 46.6782 38.5681C46.9346 38.0807 47.1792 37.5964 47.2522 37.1368C47.3914 36.2633 47.0975 35.6672 46.6489 35.1124C46.4622 34.8845 46.1611 34.7937 45.9466 34.9556L45.1824 35.4888C44.969 35.6507 44.6235 35.6507 44.41 35.4888L43.6448 34.9556C43.4334 34.7948 43.1302 34.8855 42.9456 35.1124C42.495 35.6672 42.2011 36.2633 42.3423 37.1368C42.4167 37.5978 42.6624 38.0835 42.9192 38.5728C43.3179 39.3326 43.3398 40.2067 43.111 41.0338C42.8225 42.0764 42.4862 43.4421 42.2177 44.9632C42.1233 45.4981 42.1528 46.0471 42.293 46.5718C43.0364 49.3533 43.8884 52.0832 44.768 54.2359Z" fill="#5B94E3"/>
<path d="M43.9378 60.0002C44.2843 60.0002 45.3084 60.0002 45.6549 60.0002C50.1223 60.0002 67.1011 58.9246 68.5758 53.661C71.3839 42.3965 64.7725 39.6966 58.9397 37.3093C58.0917 36.9617 56.5106 36.3491 56.4117 36.3108C56.4085 36.3096 56.4053 36.3083 56.402 36.3071C55.7175 36.0429 54.7453 35.3971 54.234 34.8724L52.7387 33.5544C52.221 33.0336 51.6651 33.1945 51.5032 33.9102L45.1723 54.4912C44.967 55.1945 44.6278 55.1945 44.4205 54.4932L38.0215 33.9082C37.8554 33.1945 37.2893 33.0254 36.7602 33.5338L35.2474 34.9178C34.7374 35.4422 33.7621 36.0891 33.0794 36.3526C33.0782 36.3531 33.0781 36.3531 33.0768 36.3536C33.0372 36.3689 31.5101 36.9592 30.6552 37.3103C24.8234 39.6977 18.2119 42.3986 21.019 53.662C22.4917 58.9246 39.4694 60.0002 43.9378 60.0002ZM52.651 45.7997C52.685 45.7295 53.4729 45.6728 54.2051 45.6728H58.0641C58.7963 45.6728 59.4604 45.6976 59.5398 45.7295C59.6172 45.7584 59.6822 46.4927 59.6822 47.1867C59.6822 47.8808 59.6533 48.5067 59.6182 48.5758C59.5852 48.6439 58.7963 48.7006 58.0641 48.7006H54.2051C53.4729 48.7006 52.8088 48.6779 52.7294 48.6439C52.651 48.615 52.585 47.8808 52.585 47.1867C52.585 46.4927 52.6139 45.8688 52.651 45.7997Z" fill="#5B94E3"/>
<path d="M53.9201 23.519C53.9445 23.4309 53.968 23.3422 53.9909 23.2531C54.3177 21.9779 55.2912 20.9204 55.8693 19.7377C55.9013 19.6722 55.9312 19.6054 55.959 19.5373C56.3787 18.4823 56.6056 16.2053 56.6128 16.1094C56.654 15.688 56.6511 15.3087 56.6218 14.9741C56.5191 13.8015 56.1878 12.5353 56.2273 11.3589C56.4187 5.65306 54.3592 4.43882 52.9456 4.20446C52.3928 4.11371 51.5555 3.9054 51.1821 3.49186C50.3107 2.52969 49.924 1.46027 48.4194 1.5469C47.8604 1.5768 47.1086 1.40149 46.6807 1.04364C46.1052 0.56204 45.3122 0 44.7244 0C44.1458 0 43.4178 0.539351 42.8856 1.01683C42.469 1.38808 41.7327 1.5768 41.1758 1.5469C39.6701 1.46027 39.2844 2.52969 38.413 3.49186C38.0376 3.9054 37.2013 4.11474 36.6475 4.20446C35.2398 4.438 33.189 5.64458 33.3631 11.3015C33.4004 12.5133 33.0583 13.8304 32.9666 15.0393C32.9425 15.3577 32.9426 15.7146 32.9814 16.1073C32.9896 16.2053 33.2155 18.4823 33.6372 19.5373C33.666 19.6083 33.697 19.6778 33.7302 19.7459C34.3058 20.9234 35.2781 21.9726 35.6003 23.243C35.6237 23.3355 35.6479 23.4276 35.673 23.519C36.3299 25.9177 39.7134 31.3422 44.1159 31.4866C44.2325 31.4938 44.48 31.4958 44.7378 31.4958L45.3101 31.4917C49.7322 31.4484 53.2684 25.9105 53.9201 23.519Z" fill="#5B94E3"/>
</svg>
