<svg width="1290" height="352" viewBox="0 0 1290 352" fill="none" xmlns="http://www.w3.org/2000/svg">
<mask id="mask0_218_2533" style="mask-type:alpha" maskUnits="userSpaceOnUse" x="0" y="0" width="1290" height="352">
<rect x="1290" y="352" width="1290" height="352" rx="16" transform="rotate(-180 1290 352)" fill="#C4C4C4"/>
</mask>
<g mask="url(#mask0_218_2533)">
<rect x="1290" y="352" width="1290" height="352" rx="16" transform="rotate(-180 1290 352)" fill="#315CD5"/>
<path opacity="0.05" d="M507.788 160.829C676.253 278.68 908.418 140.964 1092.41 234.229C1188.14 282.755 1207.56 326.543 1276.26 398.932C1320.32 445.362 1324.52 453.445 1366.34 486.654C1408.16 519.862 1484 558.263 1484 558.263V680H-496V-130.981H-23.5209C-23.5209 -130.981 228.834 -134.809 349.682 -34.3076C423.184 26.8185 421.55 100.5 507.788 160.829Z" fill="white"/>
<path opacity="0.1" d="M450.599 266.019C580.095 372.477 758.557 220.583 899.992 304.832C973.58 348.666 1012.1 504.014 1033.54 549.923C1045.28 575.079 1063.21 597.72 1092.34 615.329C1121.47 632.938 1201 625.032 1201 625.032V735H-321V48.4195H19.5775C19.5775 48.4195 258.406 39.6149 336.131 102.685C403.964 157.727 384.309 211.523 450.599 266.019Z" fill="white"/>
</g>
</svg>
