<?xml version="1.0" encoding="utf-8"?>
<svg viewBox="309.768 208.441 68 68" xmlns="http://www.w3.org/2000/svg">
  <g opacity="0.3" transform="matrix(1, 0, 0, 1, 309.7677, 208.441223)">
    <circle cx="2" cy="2" r="2" fill="#315CD5"/>
    <circle cx="18" cy="2" r="2" fill="#315CD5"/>
    <circle cx="34" cy="2" r="2" fill="#315CD5"/>
    <circle cx="50" cy="2" r="2" fill="#315CD5"/>
    <circle cx="66" cy="2" r="2" fill="#315CD5"/>
    <circle cx="2" cy="18" r="2" fill="#315CD5"/>
    <circle cx="18" cy="18" r="2" fill="#315CD5"/>
    <circle cx="34" cy="18" r="2" fill="#315CD5"/>
    <circle cx="50" cy="18" r="2" fill="#315CD5"/>
    <circle cx="66" cy="18" r="2" fill="#315CD5"/>
    <circle cx="2" cy="34" r="2" fill="#315CD5"/>
    <circle cx="18" cy="34" r="2" fill="#315CD5"/>
    <circle cx="34" cy="34" r="2" fill="#315CD5"/>
    <circle cx="50" cy="34" r="2" fill="#315CD5"/>
    <circle cx="66" cy="34" r="2" fill="#315CD5"/>
    <circle cx="2" cy="50" r="2" fill="#315CD5"/>
    <circle cx="18" cy="50" r="2" fill="#315CD5"/>
    <circle cx="34" cy="50" r="2" fill="#315CD5"/>
    <circle cx="50" cy="50" r="2" fill="#315CD5"/>
    <circle cx="66" cy="50" r="2" fill="#315CD5"/>
    <circle cx="2" cy="66" r="2" fill="#315CD5"/>
    <circle cx="18" cy="66" r="2" fill="#315CD5"/>
    <circle cx="34" cy="66" r="2" fill="#315CD5"/>
    <circle cx="50" cy="66" r="2" fill="#315CD5"/>
    <circle cx="66" cy="66" r="2" fill="#315CD5"/>
  </g>
</svg>