<svg width="1290" height="288" viewBox="0 0 1290 288" fill="none" xmlns="http://www.w3.org/2000/svg">
<mask id="mask0_218_1148" style="mask-type:alpha" maskUnits="userSpaceOnUse" x="0" y="0" width="1290" height="288">
<rect width="1290" height="288" rx="16" fill="#C4C4C4"/>
</mask>
<g mask="url(#mask0_218_1148)">
<rect width="1290" height="288" rx="16" fill="#315CD5"/>
<path opacity="0.15" d="M848.711 206.715C711.79 122.077 523.096 220.981 373.553 154C295.746 119.15 279.966 87.7021 224.132 35.7146C188.32 2.36945 184.906 -3.43556 150.916 -27.2854C116.926 -51.1353 55.2866 -78.714 55.2866 -78.714V-166.143H1664.55V416.286H1280.54C1280.54 416.286 1075.43 419.035 977.213 346.857C917.474 302.958 918.802 250.041 848.711 206.715Z" fill="white"/>
<path opacity="0.15" d="M903.996 178.715C767.075 94.0768 578.381 214.838 428.838 147.857C351.03 113.007 310.297 -10.4998 287.635 -46.9998C275.218 -66.9998 256.257 -84.9998 225.46 -98.9998C194.662 -113 110.571 -106.714 110.571 -106.714V-194.143H1719.83V351.715H1359.73C1359.73 351.715 1107.21 358.715 1025.03 308.572C953.305 264.811 974.087 222.041 903.996 178.715Z" fill="white"/>
</g>
</svg>
