<?xml version="1.0" encoding="utf-8"?>
<svg viewBox="296.5 12 306 514" xmlns="http://www.w3.org/2000/svg">
  <defs>
    <clipPath id="clip0_218_3350">
      <rect x="24" y="20" width="306" height="514" rx="10" fill="white"/>
    </clipPath>
  </defs>
  <g clip-path="url(#clip0_218_3350)" transform="matrix(1, 0, 0, 1, 272.5, -8.000183)">
    <rect width="736" height="582" rx="16" transform="matrix(1 0 0 -1 -263 537)" fill="#315CD5"/>
    <path opacity="0.15" d="M221.1 94.4786C142.909 239.649 35.1516 70.0086 -50.2479 184.894C-94.6814 244.669 -103.692 298.608 -135.578 387.776C-156.029 444.97 -157.978 454.926 -177.389 495.833C-196.8 536.741 -232 584.043 -232 584.043V734H687V-264.976H467.703C467.703 -264.976 350.574 -269.692 294.484 -145.893C260.369 -70.5972 261.127 20.1652 221.1 94.4786Z" fill="white"/>
    <path opacity="0.15" d="M253.114 251.263C175.093 371.512 67.5702 199.941 -17.6434 295.104C-61.9802 344.617 -85.1908 520.09 -98.1043 571.947C-105.18 600.362 -115.984 625.935 -133.534 645.826C-151.083 665.716 -199 656.786 -199 656.786V781H718V5.47382H512.803C512.803 5.47382 368.91 -4.47144 322.081 66.769C281.212 128.942 293.054 189.707 253.114 251.263Z" fill="white"/>
  </g>
</svg>