<svg width="36" height="41" viewBox="0 0 36 41" fill="none" xmlns="http://www.w3.org/2000/svg">
<path d="M0 4.1037C0.15949 3.30625 0.425306 2.56196 1.0101 1.97717C1.75439 1.17972 2.71132 0.807578 3.77459 0.807578C11.6427 0.807578 19.5641 0.807578 27.4322 0.807578C27.5917 0.807578 27.7512 0.754415 27.8044 0.913905C27.9107 1.07339 27.7512 1.17972 27.6449 1.28605C26.9537 2.24299 26.2626 3.14676 25.5715 4.1037C25.3057 4.42268 25.0399 4.58217 24.6146 4.58217C17.916 4.529 11.2174 4.529 4.51887 4.529C4.35938 4.529 4.19989 4.529 4.09357 4.529C3.82775 4.529 3.66826 4.63533 3.72142 4.90115C3.72142 5.00747 3.72142 5.16696 3.72142 5.27329C3.72142 15.5338 3.72142 25.7411 3.72142 36.0016C3.72142 36.6927 3.72143 36.6927 4.41255 36.6927C13.4503 36.6927 22.5412 36.6927 31.5789 36.6927C32.2701 36.6927 32.2701 36.6927 32.2701 36.0016C32.2701 28.6651 32.2701 21.3817 32.2701 14.0452C32.2701 13.5667 32.3764 13.3009 32.7485 13.0351C33.7055 12.3972 34.6093 11.6529 35.513 10.9618C35.6194 10.9086 35.7257 10.6959 35.8852 10.8023C36.0447 10.9086 35.9915 11.0681 35.9915 11.1744C35.9915 11.2276 35.9915 11.2807 35.9915 11.3871C35.9915 19.7337 35.9915 28.0803 35.9915 36.4269C35.9915 38.0218 35.4067 39.2446 33.9713 39.9889C33.546 40.2015 33.1207 40.3078 32.6954 40.4142C22.9133 40.4142 13.0781 40.4142 3.29612 40.4142C2.39234 40.2547 1.64806 39.9357 1.0101 39.2446C0.425306 38.6598 0.15949 37.9155 0 37.1181C0 26.1133 0 15.1085 0 4.1037Z" fill="#5B94E3"/>
<path d="M21.5311 17.6603C21.6375 16.6502 21.7969 15.4806 22.1159 14.3642C22.2222 13.9921 22.4349 13.6199 22.7007 13.301C24.9336 10.377 27.1664 7.39984 29.3461 4.47586C29.6119 4.10372 29.7714 4.15688 30.0904 4.36953C31.1005 5.16698 32.1106 6.01759 33.1739 6.76188C33.4397 6.97453 33.4929 7.13402 33.2802 7.453C31.0473 10.377 28.8677 13.301 26.6348 16.2249C26.369 16.5971 26.05 16.9161 25.6247 17.1287C24.6678 17.6603 23.7108 18.192 22.6476 18.5641C21.8501 18.9363 21.5311 18.7236 21.5311 17.6603Z" fill="#5B94E3"/>
<path d="M18.0224 29.5157C20.7337 29.5157 23.445 29.5157 26.1563 29.5157C26.9006 29.5157 27.0601 29.6752 27.0601 30.3663C27.0601 30.7916 27.0601 31.1638 27.0601 31.5891C27.0069 32.1207 26.8475 32.2802 26.3158 32.2802C25.3589 32.2802 24.4019 32.2802 23.445 32.2802C18.9261 32.2802 14.4073 32.2802 9.94156 32.2802C9.14411 32.2802 8.98462 32.1207 8.98462 31.3764C8.98462 31.0043 8.98462 30.6321 8.98462 30.3132C8.98462 29.6752 9.14411 29.5157 9.78207 29.5157C12.4934 29.5157 15.2579 29.5157 18.0224 29.5157Z" fill="#5B94E3"/>
<path d="M18.0224 26.0069C15.311 26.0069 12.5466 26.0069 9.83523 26.0069C9.14411 26.0069 8.98462 25.8474 8.98462 25.2095C8.98462 24.731 8.98462 24.3057 8.98462 23.8272C8.98462 23.4551 9.25044 23.2424 9.62258 23.2424C9.7289 23.2424 9.88839 23.2424 9.99472 23.2424C15.311 23.2424 20.6805 23.2424 25.9968 23.2424C26.9006 23.2424 27.0069 23.3488 27.0601 24.2525C27.0601 24.5715 27.0601 24.8905 27.0601 25.2626C27.0601 25.9006 26.9006 26.0069 26.2627 26.0069C23.4982 26.0069 20.7337 26.0069 18.0224 26.0069Z" fill="#5B94E3"/>
<path d="M33.0141 0.967125C34.0242 0.967125 35.5127 2.18988 35.7254 3.30631C35.8317 3.94426 35.5659 4.4759 35.1938 4.95437C34.6621 5.64549 34.6621 5.64549 33.971 5.11386C33.0141 4.36957 32.1103 3.62529 31.1534 2.93416C30.8344 2.72151 30.7812 2.50886 31.047 2.24304C31.2597 2.03039 31.4192 1.76457 31.6318 1.55192C32.004 1.17978 32.4293 0.967125 33.0141 0.967125Z" fill="#5B94E3"/>
</svg>
