<svg width="42" height="31" viewBox="0 0 42 31" fill="none" xmlns="http://www.w3.org/2000/svg">
<path d="M0.000165913 15.1843C0.000165913 7.234 6.01148 0.774369 13.9934 0.0588413C22.4729 -0.696438 29.8577 5.9222 30.4349 13.9918C30.6937 17.6092 29.7781 20.8489 27.8274 23.87C27.2302 24.7843 26.6331 24.9234 25.6776 24.5458C23.9658 23.87 23.9857 23.9296 25.0009 22.4787C27.8871 18.4042 28.2852 14.0116 26.016 9.63897C23.7667 5.28617 19.9848 3.07996 15.0085 3.09984C9.05695 3.11971 3.82193 7.75077 3.14516 13.6141C2.42858 19.7756 6.21053 25.48 12.0228 26.9508C14.7697 27.6464 17.4967 27.5272 20.1042 26.3744C20.781 26.0762 21.2786 26.116 21.8161 26.5533C22.035 26.7321 22.3336 26.8713 22.5724 27.0303C22.9307 27.2489 23.5478 27.2887 23.5876 27.7259C23.6274 28.2427 22.9905 28.3619 22.6123 28.5806C17.3374 31.721 9.61429 30.8265 5.09585 26.6129C1.75181 23.5123 -0.0197391 19.7557 0.000165913 15.1843Z" fill="#5B94E3"/>
<path d="M28.7231 4.88848C27.5687 5.32574 26.7127 4.49096 25.817 3.5568C25.2398 2.96053 25.4388 2.78164 26.0957 2.62264C29.5791 1.78786 32.8634 2.34438 35.8491 4.2127C39.87 6.71705 41.9799 10.4934 41.9998 15.1643C42.0396 21.7431 37.4216 26.7717 31.5298 27.9046C23.4881 29.4351 16.183 23.4922 16.0437 15.3233C15.9839 11.527 17.4768 8.30711 20.2635 5.68351C20.9005 5.06736 22.672 5.64376 22.8512 6.49841C22.9308 6.91581 22.5327 7.03506 22.3137 7.25369C19.746 9.51953 18.492 12.3419 18.6512 15.7208C18.8503 19.7158 20.8209 22.7568 24.3839 24.5059C27.9668 26.2549 31.6094 26.0959 34.9335 23.7307C41.4425 19.0798 40.8254 9.79779 33.779 5.96177C32.306 5.16674 30.6738 4.84873 28.7231 4.88848Z" fill="#5B94E3"/>
</svg>
