<svg width="33" height="34" viewBox="0 0 33 34" fill="none" xmlns="http://www.w3.org/2000/svg">
<path d="M0.00122407 16.7092C-0.0321875 13.8358 0.619337 11.33 1.83886 8.97444C2.13956 8.38974 2.60732 8.08904 3.25885 8.22268C3.81014 8.33962 4.11084 8.74056 4.21108 9.27514C4.29461 9.65938 4.09414 9.97679 3.94378 10.3109C3.20873 11.8645 2.70756 13.4683 2.57391 15.189C2.17297 20.2174 3.86026 24.4273 7.83623 27.5345C12.0127 30.8256 16.7571 31.5105 21.6853 29.5392C26.6636 27.5512 29.5871 23.7423 30.3723 18.4466C31.5584 10.4111 25.5944 3.17754 17.4587 2.59284C14.9195 2.40908 12.5305 2.89354 10.2586 3.99612C9.33975 4.43047 8.67151 4.33024 8.30399 3.6453C7.91976 2.92695 8.22046 2.25872 9.13928 1.77426C18.8787 -3.321 31.3078 3.11072 32.828 14.0196C34.081 22.9572 28.3676 31.0595 19.5804 32.7802C9.40657 34.7347 -0.0154817 26.9498 0.00122407 16.7092Z" fill="#5B94E3"/>
</svg>
