<svg width="68" height="55" viewBox="0 0 68 55" fill="none" xmlns="http://www.w3.org/2000/svg">
<path d="M43.875 0.375H23.625C21.2988 0.375 19.4062 2.26753 19.4062 4.59375V18.375C19.4062 20.7012 21.2988 22.5938 23.625 22.5938H28.5268L32.7555 26.8225C33.0303 27.097 33.39 27.2344 33.75 27.2344C34.11 27.2344 34.4697 27.097 34.7444 26.8225L38.9732 22.5938H43.875C46.2012 22.5938 48.0938 20.7012 48.0938 18.375V4.59375C48.0938 2.26753 46.2012 0.375 43.875 0.375ZM45.2812 18.375C45.2812 19.1504 44.6504 19.7812 43.875 19.7812H38.3906C38.0177 19.7812 37.6601 19.9295 37.3963 20.1931L33.75 23.8393L30.1037 20.193C29.8399 19.9295 29.4823 19.7812 29.1094 19.7812H23.625C22.8496 19.7812 22.2188 19.1504 22.2188 18.375V4.59375C22.2188 3.81834 22.8496 3.1875 23.625 3.1875H43.875C44.6504 3.1875 45.2812 3.81834 45.2812 4.59375V18.375Z" fill="#5B94E3"/>
<path d="M14.6087 35.0596C13.115 35.8105 11.4308 36.236 9.64815 36.236C7.86549 36.236 6.18131 35.8105 4.68763 35.0596C2.0547 35.3517 0 37.5896 0 40.2992V52.7628C0 53.6229 0.699685 54.3226 1.55972 54.3226H17.7366C18.5966 54.3226 19.2963 53.6229 19.2963 52.7628V40.2992C19.2963 37.5896 17.2416 35.3518 14.6087 35.0596Z" fill="#5B94E3"/>
<path d="M9.64817 31.9294C13.3911 31.9294 16.4254 28.8952 16.4254 25.1522C16.4254 21.4093 13.3911 18.375 9.64817 18.375C5.90523 18.375 2.87097 21.4093 2.87097 25.1522C2.87097 28.8952 5.90523 31.9294 9.64817 31.9294Z" fill="#5B94E3"/>
<path d="M62.6087 35.0596C61.115 35.8105 59.4308 36.236 57.6482 36.236C55.8655 36.236 54.1813 35.8105 52.6876 35.0596C50.0547 35.3517 48 37.5896 48 40.2992V52.7628C48 53.6229 48.6997 54.3226 49.5597 54.3226H65.7366C66.5966 54.3226 67.2963 53.6229 67.2963 52.7628V40.2992C67.2963 37.5896 65.2416 35.3518 62.6087 35.0596Z" fill="#5B94E3"/>
<path d="M57.6482 31.9294C61.3911 31.9294 64.4254 28.8952 64.4254 25.1522C64.4254 21.4093 61.3911 18.375 57.6482 18.375C53.9052 18.375 50.871 21.4093 50.871 25.1522C50.871 28.8952 53.9052 31.9294 57.6482 31.9294Z" fill="#5B94E3"/>
<path d="M28.1347 9.95109C27.8733 9.68812 27.5105 9.53906 27.1406 9.53906C26.7708 9.53906 26.408 9.68812 26.1464 9.95109C25.8848 10.2127 25.7344 10.5755 25.7344 10.9453C25.7344 11.3152 25.8847 11.678 26.1464 11.9395C26.408 12.2011 26.7708 12.3516 27.1406 12.3516C27.5105 12.3516 27.8733 12.2011 28.1347 11.9395C28.3963 11.678 28.5469 11.3152 28.5469 10.9453C28.5469 10.5755 28.3964 10.2127 28.1347 9.95109Z" fill="#5B94E3"/>
<path d="M34.7441 9.95109C34.4827 9.68967 34.1198 9.53906 33.75 9.53906C33.3802 9.53906 33.0173 9.68953 32.7558 9.95109C32.4942 10.2127 32.3438 10.5755 32.3438 10.9453C32.3438 11.3152 32.4941 11.678 32.7558 11.9395C33.0173 12.2011 33.3802 12.3516 33.75 12.3516C34.1198 12.3516 34.4827 12.2011 34.7441 11.9395C35.0056 11.678 35.1562 11.3152 35.1562 10.9453C35.1562 10.5755 35.0058 10.2127 34.7441 9.95109Z" fill="#5B94E3"/>
<path d="M41.3535 9.95109C41.092 9.68812 40.7292 9.53906 40.3594 9.53906C39.9895 9.53906 39.6267 9.68812 39.3652 9.95109C39.1036 10.2127 38.9531 10.5755 38.9531 10.9453C38.9531 11.3152 39.1035 11.678 39.3652 11.9395C39.6267 12.2011 39.9895 12.3516 40.3594 12.3516C40.7292 12.3516 41.092 12.2011 41.3535 11.9395C41.615 11.678 41.7656 11.3152 41.7656 10.9453C41.7656 10.5755 41.6152 10.2127 41.3535 9.95109Z" fill="#5B94E3"/>
</svg>
