<svg width="67" height="67" viewBox="0 0 67 67" fill="none" xmlns="http://www.w3.org/2000/svg">
<path d="M57.0662 4.43978C54.6477 2.02124 50.7122 2.02151 48.2937 4.43978C46.2962 6.43722 45.9501 9.46857 47.252 11.8264L42.3635 17.1394C43.0954 18.4729 43.5334 19.9887 43.5941 21.5997L50.1407 14.4844C50.9462 14.8448 51.8127 15.0263 52.6799 15.0263C54.2684 15.0263 55.8568 14.4216 57.0662 13.2123C59.4847 10.7938 59.4847 6.85832 57.0662 4.43978Z" fill="#5B94E3"/>
<path d="M19.7479 11.8265C21.0499 9.46885 20.7037 6.43749 18.7063 4.43993C16.2878 2.02139 12.3523 2.02126 9.93378 4.43993C7.51524 6.85847 7.51524 10.7939 9.93378 13.2125C11.143 14.4217 12.7315 15.0264 14.32 15.0264C15.1871 15.0264 16.0538 14.8449 16.8592 14.4845L23.406 21.5998C23.4667 19.9887 23.9047 18.473 24.6366 17.1394L19.7479 11.8265Z" fill="#5B94E3"/>
<path d="M23.0847 51.5476C21.9541 50.7626 21.1402 49.5536 20.8741 48.1523L16.8592 52.5158C14.5782 51.4954 11.8032 51.9185 9.93378 53.7879C7.51524 56.2065 7.51524 60.1419 9.93378 62.5605C11.143 63.7697 12.7315 64.3744 14.32 64.3744C15.9087 64.3744 17.497 63.7697 18.7064 62.5605C20.7039 60.563 21.05 57.5317 19.7481 55.174L23.0847 51.5476Z" fill="#5B94E3"/>
<path d="M57.066 53.7879C55.1965 51.9185 52.4215 51.4955 50.1407 52.5158L46.1256 48.1523C45.8595 49.5536 45.0455 50.7626 43.915 51.5476L47.2517 55.174C45.9499 57.5317 46.2959 60.563 48.2933 62.5605C49.5026 63.7697 51.0911 64.3744 52.6797 64.3744C54.2682 64.3744 55.8566 63.7697 57.066 62.5605C59.4845 60.1419 59.4845 56.2065 57.066 53.7879Z" fill="#5B94E3"/>
<path d="M12.0854 31.5372C11.7912 30.6508 11.2937 29.8179 10.5895 29.1138C8.1711 26.6952 4.23565 26.6951 1.81698 29.1136C0.645266 30.2855 0 31.8432 0 33.5002C0 35.157 0.645266 36.7147 1.81698 37.8864C3.02625 39.0957 4.61475 39.7004 6.20325 39.7004C7.79188 39.7004 9.38024 39.0957 10.5896 37.8864C11.2937 37.1824 11.7913 36.3494 12.0855 35.4629H20.7878C20.8408 34.0419 21.2344 32.707 21.89 31.5372H12.0854Z" fill="#5B94E3"/>
<path d="M65.183 29.1136C62.7644 26.6951 58.829 26.6953 56.4104 29.1136C55.7064 29.8176 55.2088 30.6507 54.9146 31.537H45.1101C45.7657 32.7069 46.1595 34.0418 46.2123 35.4628H54.9146C55.2088 36.3491 55.7063 37.1821 56.4104 37.8863C57.6197 39.0955 59.2082 39.7002 60.7968 39.7002C62.3853 39.7002 63.9737 39.0955 65.1831 37.8864C66.3548 36.7147 67.0001 35.1569 67.0001 33.5C67 31.8431 66.3547 30.2853 65.183 29.1136Z" fill="#5B94E3"/>
<path d="M38.0218 31.0156C36.6602 31.7001 35.125 32.088 33.5 32.088C31.875 32.088 30.3397 31.7001 28.9782 31.0156C26.5781 31.2819 24.7051 33.3219 24.7051 35.7919V47.1533C24.7051 47.9373 25.3429 48.5751 26.1269 48.5751H40.8731C41.6571 48.5751 42.2949 47.9373 42.2949 47.1533V35.7919C42.2949 33.3219 40.4219 31.2821 38.0218 31.0156Z" fill="#5B94E3"/>
<path d="M33.4999 28.1624C36.9118 28.1624 39.6777 25.3964 39.6777 21.9845C39.6777 18.5726 36.9118 15.8066 33.4999 15.8066C30.0879 15.8066 27.322 18.5726 27.322 21.9845C27.322 25.3964 30.0879 28.1624 33.4999 28.1624Z" fill="#5B94E3"/>
</svg>
