<svg width="46" height="38" viewBox="0 0 46 38" fill="none" xmlns="http://www.w3.org/2000/svg">
<path d="M0 10.375V37.375H46V10.375H0ZM5.39484 33.3251V19.827H28.916V33.3251H5.39484ZM40.6062 25.2273V27.9251H31.6145V25.2273H40.6062ZM31.6145 22.5248V19.827H40.6062V22.5248H31.6145ZM40.6062 30.6272V33.3251H31.6145V30.6272H40.6062ZM5.39378 14.4271H40.6062V17.1249H5.39378V14.4271Z" fill="#5B94E3"/>
<path d="M46 7.375V0.375063L0 0.375V7.375H46ZM8.0912 5.08387H5.39378V2.61421H8.0912V5.08387ZM13.4864 5.08387H10.789V2.61421H13.4864V5.08387ZM18.8812 5.08387H16.1838V2.61421H18.8812V5.08387Z" fill="#5B94E3"/>
<path d="M8 22.375H26V30.375H8V22.375Z" fill="#5B94E3"/>
</svg>
