<svg width="47" height="39" viewBox="0 0 47 39" fill="none" xmlns="http://www.w3.org/2000/svg">
<path d="M0.00917431 32.2936C0.220183 32.2844 0.431193 32.2661 0.651376 32.2661C15.8807 32.2661 31.1101 32.2661 46.3486 32.2661C46.5596 32.2661 46.7706 32.2844 46.9908 32.2936C46.9908 34.1284 46.9817 35.9633 47 37.7982C47 38.1101 46.9358 38.1743 46.6239 38.1743C31.945 38.1651 17.2844 38.1651 2.62385 38.1651C1.84404 38.1651 1.06422 38.156 0.284404 38.1743C0.0550459 38.1743 0 38.1193 0 37.8899C0.00917431 36.0275 0.00917431 34.156 0.00917431 32.2936Z" fill="#5B94E3"/>
<path d="M38.1741 0C38.1833 0.201835 38.2017 0.394495 38.2017 0.59633C38.2017 9.95413 38.2017 19.3119 38.2017 28.6697C38.2017 29.3945 38.2017 29.3945 37.4769 29.3945C35.9173 29.3945 34.3576 29.3853 32.798 29.4037C32.376 29.4128 32.2567 29.2661 32.2567 28.8532C32.2659 19.3761 32.2659 9.88991 32.2659 0.412844C32.2659 0.275229 32.2842 0.137615 32.2934 0C34.2567 0 36.2108 0 38.1741 0Z" fill="#5B94E3"/>
<path d="M14.6513 19.0367C14.6513 15.8073 14.6604 12.5871 14.6421 9.35777C14.6421 8.88988 14.7705 8.75227 15.2384 8.76144C16.8439 8.78896 18.4494 8.77979 20.0549 8.76144C20.477 8.75227 20.5962 8.89906 20.5962 9.3119C20.587 15.8257 20.587 22.3302 20.5962 28.844C20.5962 29.266 20.4678 29.3945 20.0458 29.3945C18.4219 29.3761 16.8072 29.3761 15.1834 29.3945C14.7614 29.4036 14.6421 29.2569 14.6421 28.844C14.6604 25.578 14.6513 22.3027 14.6513 19.0367Z" fill="#5B94E3"/>
<path d="M29.3944 23.5138C29.3944 25.2844 29.3853 27.0551 29.4036 28.8349C29.4128 29.2844 29.266 29.4037 28.8256 29.4037C27.2201 29.3853 25.6146 29.3853 24.0091 29.4037C23.6146 29.4037 23.4403 29.3211 23.4403 28.8716C23.4587 25.2844 23.4587 21.6881 23.4403 18.1009C23.4403 17.6973 23.5687 17.578 23.9724 17.578C25.6054 17.5964 27.2385 17.5964 28.8807 17.578C29.2935 17.5688 29.4036 17.7156 29.3944 18.1101C29.3853 19.9083 29.3944 21.7064 29.3944 23.5138Z" fill="#5B94E3"/>
<path d="M11.7796 24.9541C11.7796 26.2661 11.7704 27.578 11.7888 28.8991C11.798 29.2752 11.6695 29.4037 11.2934 29.4037C9.642 29.3853 7.99063 29.3853 6.33925 29.4037C5.9631 29.4037 5.83466 29.2844 5.84384 28.8991C5.85301 26.2752 5.85301 23.6422 5.84384 21.0184C5.84384 20.6422 5.9631 20.5138 6.33925 20.5138C7.99063 20.5321 9.642 20.5321 11.2934 20.5138C11.6695 20.5138 11.798 20.633 11.7888 21.0184C11.7704 22.3303 11.7796 23.6422 11.7796 24.9541Z" fill="#5B94E3"/>
</svg>
