<svg width="54" height="42" viewBox="0 0 54 42" fill="none" xmlns="http://www.w3.org/2000/svg">
<path d="M0 17.9583C0.062463 17.227 0.124926 16.5061 0.166568 15.7749C0.312315 13.675 0.62463 11.5961 0.988998 9.52757C1.06187 9.1097 1.22844 9.02612 1.62404 9.09925C6.00686 9.84098 10.4209 10.238 14.8662 10.1857C18.791 10.1439 22.6845 9.80964 26.5468 9.09925C27.0048 9.01567 27.1506 9.14104 27.2235 9.59026C27.744 12.5781 28.0875 15.5764 28.1604 18.606C28.2437 22.252 27.8689 25.8353 26.6196 29.2828C24.6417 34.7256 20.8314 38.3821 15.5845 40.6386C15.1056 40.8475 14.6268 41.046 14.1479 41.255C14.1166 41.255 14.075 41.255 14.0438 41.255C13.7731 41.1401 13.5024 41.0251 13.2317 40.9207C10.0045 39.6461 7.16242 37.8075 4.90335 35.1435C2.14456 31.9049 0.82243 28.0605 0.270673 23.8921C0.135337 22.8161 0.124926 21.7401 0 20.6745C0 19.7656 0 18.8672 0 17.9583ZM14.3248 28.6455C12.2323 28.6455 10.1294 28.6559 8.03691 28.6351C7.68295 28.6351 7.55802 28.7186 7.58925 29.1052C7.71418 30.4842 8.30758 31.602 9.36945 32.4586C11.9929 34.5794 16.5943 34.5794 19.2282 32.4691C20.2797 31.6229 20.8731 30.5364 21.0292 29.1783C21.0813 28.7082 20.9251 28.6246 20.5087 28.6351C18.4474 28.6559 16.3861 28.6455 14.3248 28.6455ZM9.80669 20.5282C10.2023 20.5282 10.5979 20.5282 11.0039 20.5282C11.4411 20.5282 11.5765 20.2984 11.5244 19.891C11.3266 18.5328 10.7124 17.4255 9.55684 16.6628C8.3284 15.8584 7.00627 15.9942 5.95481 16.9971C5.53839 17.3941 5.2573 17.8956 4.9554 18.3866C4.70555 18.794 4.7576 19.0448 5.17402 19.3164C6.57944 20.2357 8.14101 20.5909 9.80669 20.5282ZM18.7701 20.5282C20.0506 20.5909 21.3103 20.4237 22.4554 19.8283C24.2565 18.8985 24.1107 19.1388 23.028 17.4882C22.4971 16.6733 21.6851 16.1301 20.6857 16.1405C18.8742 16.1509 17.0212 18.1777 17.0732 20.0163C17.0836 20.3715 17.2398 20.5282 17.5729 20.5387C17.9685 20.5387 18.3641 20.5282 18.7701 20.5282Z" fill="#5B94E3"/>
<path d="M53.1974 12.5259C52.729 13.8004 52.2709 15.075 51.7816 16.339C50.2721 20.2357 48.419 23.9444 45.7748 27.2039C42.5996 31.111 38.6332 33.7123 33.6153 34.5272C32.1058 34.7779 30.5858 34.8406 29.0555 34.7779C28.4829 34.757 28.4309 34.6525 28.7224 34.1615C29.9508 32.1139 30.8253 29.9305 31.3979 27.6217C31.5124 27.1725 31.6685 27.1516 32.0433 27.3606C33.48 28.165 34.9478 28.9276 36.3845 29.732C36.7593 29.941 36.9258 29.8574 37.0716 29.4813C37.8107 27.5486 37.3423 25.8249 36.145 24.2474C35.2706 23.0878 34.1046 22.2729 32.7929 21.6774C32.4493 21.5207 32.3348 21.3222 32.3452 20.967C32.3973 18.7209 32.4181 16.4748 32.1682 14.2392C32.1266 13.8736 32.2723 13.7691 32.6159 13.8736C33.2509 14.0512 33.9068 14.1452 34.5626 14.1974C34.8333 14.2183 35.0415 14.1556 35.0624 13.8213C35.1977 12.1916 34.6876 10.8335 33.4071 9.80969C32.9907 9.47539 32.491 9.30824 31.96 9.27689C31.5748 9.256 31.4811 9.04706 31.4291 8.72321C31.2209 7.5427 30.9918 6.36219 30.794 5.18169C30.7212 4.76381 30.5962 4.58621 30.107 4.69068C29.0555 4.92052 27.9936 5.08767 26.9422 5.27571C26.8068 5.29661 26.6403 5.40107 26.557 5.26526C26.4425 5.10856 26.6194 4.9832 26.7027 4.85783C27.7125 3.35347 28.764 1.8909 29.8883 0.470113C30.0029 0.323856 30.0965 0.156704 30.2006 0C30.2735 0 30.336 0 30.4089 0C30.8253 0.334303 31.2417 0.679052 31.6685 1.00291C36.7176 4.85783 42.1623 8.02326 48.0234 10.4678C49.7203 11.1782 51.4172 11.8782 53.2078 12.3274C53.1974 12.3901 53.1974 12.4528 53.1974 12.5259ZM41.9957 15.0436C40.9339 15.0645 39.8616 15.451 39.2057 16.0256C38.9871 16.2137 38.9142 16.3704 39.1224 16.6315C40.2988 18.1255 41.673 19.3373 43.5157 19.9119C44.9523 20.3611 44.7649 20.3298 45.0981 18.9926C45.4104 17.7285 45.275 16.5166 44.1507 15.6495C43.5261 15.1585 42.7869 15.0123 41.9957 15.0436Z" fill="#5B94E3"/>
</svg>
