<svg width="57" height="39" viewBox="0 0 57 39" fill="none" xmlns="http://www.w3.org/2000/svg">
<path d="M56.6715 24.5647C56.6715 29.2521 56.6715 33.9395 56.6715 38.6269C40.8472 38.6269 25.0229 38.6269 9.2338 38.6269C9.09282 38.5916 8.95185 38.5916 8.81087 38.5916C5.99139 38.5916 3.20716 38.5916 0.387678 38.5916C0.246704 38.5916 0.140974 38.5916 0 38.5916C0 29.5693 0 20.5117 0 11.4894C0.10573 11.4541 0.211461 11.4541 0.317191 11.4541C0.881087 11.4541 1.40974 11.4541 1.97364 11.4541C2.39656 11.4541 2.39656 11.4541 2.39656 11.8771C2.39656 13.4983 2.39656 15.0842 2.39656 16.7054C2.39656 16.9874 2.4318 17.0226 2.71375 17.0226C3.2424 17.0226 3.8063 17.0226 4.33495 17.0226C4.82836 17.0226 4.82836 17.0578 4.82836 16.5292C4.82836 12.6172 4.82836 8.70514 4.82836 4.79311C4.82836 4.68738 4.82836 4.58165 4.82836 4.47592C4.82836 4.29971 4.8636 4.29971 5.03982 4.26446C5.14555 4.26446 5.21604 4.26446 5.32177 4.26446C8.95185 4.26446 12.5819 4.26446 16.212 4.26446C16.7407 4.26446 16.7054 4.26446 16.7054 4.75787C16.7054 9.58623 16.7054 14.4146 16.7054 19.2782C16.7054 19.3839 16.7054 19.4544 16.7054 19.5601C16.7054 19.8421 16.7407 19.8421 16.9874 19.8421C17.7275 19.8421 18.4323 19.8421 19.1725 19.8421C19.5249 19.8421 19.5249 19.8421 19.5249 19.4897C19.5249 18.0094 19.5249 16.5292 19.5249 15.049C19.5249 13.5687 19.5249 12.0885 19.5249 10.6083C19.5249 10.3263 19.5601 10.2911 19.8421 10.2911C20.0888 10.2911 20.3707 10.2911 20.6174 10.2911C20.9699 10.2911 20.9699 10.2911 21.0051 9.93866C21.0404 9.4805 21.0404 9.02233 21.0756 8.56417C21.1461 7.47162 21.1461 6.37907 21.1813 5.32177C21.1813 5.18079 21.2166 5.00458 21.2166 4.8636C21.2518 4.89885 21.2871 4.96933 21.2871 5.00458C21.2871 5.49798 21.2871 6.02664 21.2871 6.52005C21.2871 7.71832 21.2871 8.88136 21.2871 10.0796C21.2871 10.3263 21.3223 10.3616 21.569 10.3616C21.8157 10.3616 22.0272 10.3616 22.2739 10.3616C22.4853 10.3616 22.5206 10.3968 22.5558 10.6083C22.5558 10.714 22.5558 10.7845 22.5558 10.8902C22.5558 13.0048 22.5558 15.1195 22.5558 17.2341C22.5558 17.5513 22.5558 17.5513 22.873 17.5513C23.4722 17.5513 24.0713 17.5513 24.6704 17.5513C25.0581 17.5513 25.0581 17.5513 25.0581 17.9389C25.0581 18.8553 25.0581 19.7716 25.0581 20.7232C25.0581 20.7937 25.0581 20.8994 25.0581 20.9699C25.0581 21.0404 25.1286 21.1109 25.1991 21.1109C25.2696 21.1109 25.3401 21.1109 25.4106 21.1109C26.2564 21.1109 27.1375 21.1109 27.9833 21.1109C28.0186 21.1109 28.0891 21.1109 28.1243 21.1109C28.23 21.1109 28.3005 21.0404 28.3005 20.9346C28.3005 20.8289 28.3005 20.7232 28.3005 20.6174C28.3005 13.8859 28.3005 7.11918 28.3005 0.387678C28.3005 -4.20135e-08 28.3005 0 28.6882 0C32.2478 0 35.8074 0 39.367 0C39.4375 0 39.508 0 39.5784 0C39.6842 0 39.7547 0.070487 39.7547 0.176217C39.7547 0.281948 39.7547 0.387678 39.7547 0.528652C39.7547 7.89454 39.7547 15.2604 39.7547 22.5911C39.7547 22.6968 39.7547 22.8025 39.7547 22.873C39.7547 22.9788 39.8251 23.0492 39.9309 23.0492C40.0014 23.0492 40.0719 23.0492 40.1423 23.0492C40.8472 23.0492 41.5521 23.0492 42.2217 23.0492C42.2922 23.0492 42.3627 23.0492 42.4332 23.0492C42.5389 23.0492 42.6094 22.9788 42.6094 22.873C42.6094 22.7673 42.6094 22.6616 42.6094 22.5911C42.6094 17.8332 42.6094 13.1106 42.6094 8.35271C42.6094 7.96503 42.6094 7.96503 42.9971 7.96503C46.4157 7.96503 49.8343 7.96503 53.2529 7.96503C53.3234 7.96503 53.3939 7.96503 53.4644 7.96503C53.5701 7.96503 53.6054 8.03552 53.6054 8.106C53.6054 8.21173 53.6054 8.35271 53.6054 8.45844C53.6054 13.7097 53.6054 18.9962 53.6054 24.2475C53.6054 24.6352 53.6054 24.6352 53.993 24.6352C54.9446 24.5647 55.7904 24.5647 56.6715 24.5647ZM22.3796 29.7455C22.3796 30.1332 22.3796 30.5561 22.3796 30.9438C22.3796 31.1905 22.4149 31.2257 22.6616 31.2257C23.0845 31.2257 23.5074 31.2257 23.9303 31.2257C24.177 31.2257 24.2123 31.1905 24.2123 30.9438C24.2123 30.1332 24.2123 29.3226 24.2123 28.4767C24.2123 28.23 24.177 28.1948 23.9303 28.1948C23.5074 28.1948 23.0845 28.1948 22.6263 28.1948C22.3796 28.1948 22.3444 28.23 22.3444 28.4767C22.3796 28.9349 22.3796 29.3226 22.3796 29.7455ZM52.1604 21.2518C52.1604 20.8289 52.1604 20.4412 52.1604 20.0183C52.1604 19.7716 52.1251 19.7364 51.9137 19.7364C51.4907 19.7364 51.0326 19.7364 50.6097 19.7364C50.3982 19.7364 50.3629 19.7716 50.3629 19.9831C50.3629 20.7937 50.3629 21.6395 50.3629 22.4501C50.3629 22.6968 50.3982 22.7321 50.6449 22.7321C51.0678 22.7321 51.4907 22.7321 51.9489 22.7321C52.1956 22.7321 52.1956 22.6968 52.2309 22.4501C52.1604 22.0624 52.1604 21.6395 52.1604 21.2518ZM22.3796 20.0535C22.3796 20.4765 22.3796 20.8641 22.3796 21.2871C22.3796 21.4985 22.4149 21.5338 22.6263 21.5338C23.0492 21.5338 23.5074 21.5338 23.9303 21.5338C24.1418 21.5338 24.177 21.4985 24.177 21.2871C24.177 20.4765 24.177 19.6306 24.177 18.82C24.177 18.5733 24.1418 18.5381 23.8951 18.5381C23.4722 18.5381 23.0492 18.5381 22.5911 18.5381C22.3444 18.5381 22.3091 18.5733 22.3091 18.82C22.3796 19.2429 22.3796 19.6306 22.3796 20.0535ZM22.3796 34.5739C22.3796 34.9968 22.3796 35.4197 22.3796 35.8426C22.3796 36.0893 22.4149 36.1246 22.6616 36.1246C23.0845 36.1246 23.5074 36.1246 23.9656 36.1246C24.2123 36.1246 24.2475 36.0893 24.2475 35.8426C24.2475 35.032 24.2475 34.1862 24.2475 33.3756C24.2475 33.1641 24.2123 33.1289 24.0008 33.1289C23.5779 33.1289 23.1197 33.1289 22.6968 33.1289C22.4853 33.1289 22.4501 33.1641 22.4501 33.3756C22.3796 33.7633 22.3796 34.1862 22.3796 34.5739ZM52.1604 11.5246C52.1604 11.1017 52.1604 10.714 52.1604 10.2911C52.1604 10.0796 52.1251 10.0444 51.9137 10.0444C51.4907 10.0444 51.0678 10.0444 50.6097 10.0444C50.3629 10.0444 50.3277 10.0796 50.3277 10.3263C50.3277 11.1369 50.3277 11.9475 50.3277 12.7934C50.3277 13.0401 50.3629 13.0753 50.6097 13.0753C51.0326 13.0753 51.4555 13.0753 51.9137 13.0753C52.1604 13.0753 52.1956 13.0401 52.1956 12.8286C52.1604 12.3705 52.1604 11.9475 52.1604 11.5246ZM22.3796 24.8819C22.3796 25.2696 22.3796 25.6925 22.3796 26.0802C22.3796 26.2916 22.4149 26.3269 22.6263 26.3269C23.0845 26.3269 23.5074 26.3269 23.9656 26.3269C24.177 26.3269 24.2123 26.2916 24.2123 26.0802C24.2123 25.2696 24.2123 24.459 24.2123 23.6131C24.2123 23.4017 24.177 23.3664 23.9656 23.3664C23.5427 23.3664 23.0845 23.3664 22.6616 23.3664C22.4501 23.3664 22.4149 23.4017 22.4149 23.6131C22.3796 24.0713 22.3796 24.4942 22.3796 24.8819ZM52.1604 16.3882C52.1604 16.0005 52.1604 15.5776 52.1604 15.1899C52.1604 14.9432 52.1251 14.908 51.9137 14.908C51.4907 14.908 51.0326 14.908 50.6097 14.908C50.3982 14.908 50.3629 14.9432 50.3629 15.1547C50.3629 15.9653 50.3629 16.7759 50.3629 17.5865C50.3629 17.8332 50.3982 17.8685 50.6449 17.8685C51.0678 17.8685 51.4907 17.8685 51.9489 17.8685C52.1956 17.8685 52.1956 17.8332 52.1956 17.5865C52.1604 17.1988 52.1604 16.7759 52.1604 16.3882ZM36.1246 21.9567C36.1246 22.3796 36.1246 22.8025 36.1246 23.2255C36.1246 23.4369 36.1598 23.4722 36.3713 23.4722C36.759 23.4722 37.1819 23.4722 37.5696 23.4722C37.7458 23.4722 37.781 23.4369 37.8163 23.2607C37.8163 22.4149 37.8163 21.569 37.8163 20.7232C37.8163 20.5117 37.781 20.4765 37.5696 20.4765C37.1819 20.4765 36.7942 20.4765 36.4065 20.4765C36.1598 20.4765 36.1246 20.5117 36.1246 20.7584C36.1246 21.1461 36.1246 21.569 36.1246 21.9567ZM43.8429 27.208C43.8429 26.7851 43.8429 26.3974 43.8429 25.9745C43.8429 25.7277 43.8077 25.6925 43.561 25.6925C43.1733 25.6925 42.7856 25.6925 42.4332 25.6925C42.2217 25.6925 42.1865 25.7277 42.1865 25.9392C42.1865 26.7851 42.1865 27.5957 42.1865 28.4415C42.1865 28.653 42.2217 28.6882 42.4332 28.6882C42.8208 28.6882 43.2085 28.6882 43.561 28.6882C43.8429 28.6882 43.8429 28.653 43.8429 28.4063C43.8429 28.0186 43.8429 27.5957 43.8429 27.208ZM30.2742 3.52435C30.2742 3.94727 30.2742 4.33495 30.2742 4.75787C30.2742 5.00458 30.3094 5.03982 30.5209 5.03982C30.9085 5.03982 31.2962 5.03982 31.6839 5.03982C31.8954 5.03982 31.9306 5.00458 31.9306 4.79311C31.9306 3.94727 31.9306 3.13667 31.9306 2.29083C31.9306 2.07937 31.8954 2.04412 31.6839 2.04412C31.2962 2.04412 30.9438 2.04412 30.5561 2.04412C30.3094 2.07937 30.2742 2.07937 30.2742 2.36131C30.2742 2.74899 30.2742 3.13667 30.2742 3.52435ZM8.35271 26.5736C8.35271 26.1507 8.35271 25.7277 8.35271 25.3048C8.35271 25.1286 8.31746 25.0581 8.106 25.0581C7.71833 25.0581 7.2954 25.0581 6.90772 25.0581C6.69626 25.0581 6.66102 25.0934 6.66102 25.3048C6.66102 26.1154 6.66102 26.9613 6.66102 27.7719C6.66102 27.9833 6.69626 28.0186 6.90772 28.0186C7.2954 28.0186 7.68308 28.0186 8.07076 28.0186C8.28222 28.0186 8.31746 27.9833 8.31746 27.7719C8.35271 27.3842 8.35271 26.9965 8.35271 26.5736ZM35.9484 3.52435C35.9484 3.94727 35.9484 4.37019 35.9484 4.79311C35.9484 5.00458 35.9836 5.03982 36.1951 5.03982C36.5827 5.03982 36.9704 5.03982 37.3581 5.03982C37.5696 5.03982 37.6048 5.00458 37.6048 4.79311C37.6048 3.98251 37.6048 3.13667 37.6048 2.32607C37.6048 2.11461 37.5696 2.07937 37.3581 2.07937C36.9704 2.07937 36.5827 2.07937 36.2303 2.07937C35.9836 2.07937 35.9484 2.11461 35.9484 2.36131C35.9484 2.74899 35.9484 3.13667 35.9484 3.52435ZM6.69626 7.57735C6.69626 8.00027 6.69626 8.38795 6.69626 8.81087C6.69626 9.05758 6.73151 9.09282 6.97821 9.09282C7.36589 9.09282 7.75357 9.09282 8.106 9.09282C8.31746 9.09282 8.35271 9.05758 8.35271 8.84612C8.35271 8.00027 8.35271 7.18967 8.35271 6.34383C8.35271 6.13237 8.31746 6.09712 8.106 6.09712C7.71833 6.09712 7.33065 6.09712 6.97821 6.09712C6.73151 6.09712 6.69626 6.13237 6.69626 6.37907C6.69626 6.80199 6.69626 7.18967 6.69626 7.57735ZM8.35271 17.3398C8.35271 16.9169 8.35271 16.494 8.35271 16.071C8.35271 15.8596 8.31746 15.8243 8.106 15.8243C7.71833 15.8243 7.33065 15.8243 6.94297 15.8243C6.73151 15.8243 6.69626 15.8596 6.69626 16.071C6.69626 16.8816 6.69626 17.7275 6.69626 18.5381C6.69626 18.7495 6.73151 18.7848 6.94297 18.7848C7.33065 18.7848 7.71833 18.7848 8.106 18.7848C8.31746 18.7848 8.35271 18.7495 8.35271 18.5381C8.35271 18.1504 8.35271 17.7627 8.35271 17.3398ZM35.8074 8.00027C35.8074 8.42319 35.8074 8.81087 35.8074 9.2338C35.8074 9.44526 35.8426 9.4805 36.0541 9.4805C36.4418 9.4805 36.8294 9.4805 37.2171 9.4805C37.4286 9.4805 37.4638 9.44526 37.4638 9.2338C37.4638 8.42319 37.4638 7.57735 37.4638 6.76675C37.4638 6.55529 37.4286 6.52005 37.2171 6.52005C36.8294 6.52005 36.4418 6.52005 36.0541 6.52005C35.8426 6.52005 35.8074 6.55529 35.8074 6.76675C35.8074 7.15443 35.8074 7.57735 35.8074 8.00027ZM37.4638 12.7581C37.4638 12.3352 37.4638 11.9475 37.4638 11.5246C37.4638 11.3132 37.4286 11.2427 37.2171 11.2427C36.8294 11.2427 36.4065 11.2427 36.0189 11.2427C35.8074 11.2427 35.7721 11.2779 35.7721 11.4894C35.7721 12.3352 35.7721 13.1458 35.7721 13.9917C35.7721 14.2031 35.8074 14.2384 36.0189 14.2384C36.4065 14.2384 36.7942 14.2384 37.1819 14.2384C37.4286 14.2384 37.4286 14.2031 37.4286 13.9564C37.4991 13.5687 37.4638 13.1458 37.4638 12.7581ZM42.1865 33.0231C42.1865 33.4461 42.1865 33.869 42.1865 34.2919C42.1865 34.5034 42.2217 34.5386 42.4332 34.5386C42.8208 34.5386 43.2085 34.5386 43.5962 34.5386C43.8077 34.5386 43.8429 34.5034 43.8429 34.2919C43.8429 33.4813 43.8429 32.6355 43.8429 31.8249C43.8429 31.6134 43.8077 31.5782 43.5962 31.5782C43.2085 31.5782 42.8208 31.5782 42.4684 31.5782C42.2217 31.5782 42.1865 31.6134 42.1865 31.8601C42.1512 32.2478 42.1865 32.6355 42.1865 33.0231ZM8.35271 12.7229C8.35271 12.3 8.35271 11.8771 8.35271 11.4541C8.35271 11.2427 8.31746 11.2074 8.106 11.2074C7.71833 11.2074 7.33065 11.2074 6.94297 11.2074C6.69626 11.2074 6.66102 11.2427 6.66102 11.4894C6.66102 12.3 6.66102 13.1106 6.66102 13.9564C6.66102 14.2031 6.69626 14.2384 6.94297 14.2384C7.33065 14.2384 7.71833 14.2384 8.07076 14.2384C8.31746 14.2384 8.31746 14.2031 8.35271 13.9564C8.35271 13.5335 8.35271 13.1106 8.35271 12.7229ZM8.35271 21.9919C8.35271 21.569 8.35271 21.1461 8.35271 20.7232C8.35271 20.5117 8.31746 20.4765 8.106 20.4765C7.71833 20.4765 7.2954 20.4765 6.90772 20.4765C6.69626 20.4765 6.66102 20.5117 6.66102 20.7232C6.66102 21.5338 6.66102 22.3796 6.66102 23.1902C6.66102 23.4017 6.69626 23.4369 6.90772 23.4369C7.2954 23.4369 7.68308 23.4369 8.07076 23.4369C8.28222 23.4369 8.31746 23.4017 8.31746 23.1902C8.35271 22.8025 8.35271 22.3796 8.35271 21.9919ZM30.4856 21.9567C30.4856 22.3796 30.4856 22.8025 30.4856 23.2255C30.4856 23.4722 30.5209 23.5074 30.7676 23.5074C31.1552 23.5074 31.5077 23.5074 31.8954 23.5074C32.1421 23.5074 32.1773 23.4722 32.1773 23.2255C32.1773 22.4149 32.1773 21.569 32.1773 20.7584C32.1773 20.5117 32.1421 20.4765 31.8954 20.4765C31.5077 20.4765 31.1552 20.4765 30.7676 20.4765C30.5209 20.4765 30.4856 20.5117 30.4856 20.7584C30.4856 21.1461 30.4856 21.5338 30.4856 21.9567ZM10.3968 37.0057C10.3968 36.618 10.3968 36.1951 10.3968 35.8074C10.3968 35.5959 10.3616 35.5607 10.1501 35.5607C9.76245 35.5607 9.37477 35.5607 8.98709 35.5607C8.77563 35.5607 8.74039 35.5959 8.74039 35.8074C8.74039 36.618 8.74039 37.4286 8.74039 38.2392C8.74039 38.4859 8.77563 38.5211 9.02233 38.5211C9.41001 38.5211 9.79769 38.5211 10.1501 38.5211C10.3968 38.5211 10.4321 38.4859 10.4321 38.2392C10.3968 37.8163 10.3968 37.4286 10.3968 37.0057ZM8.35271 31.6487C8.35271 31.261 8.35271 30.8381 8.35271 30.4504C8.35271 30.2389 8.31746 30.2037 8.106 30.2037C7.71833 30.2037 7.33065 30.2037 6.94297 30.2037C6.69626 30.2037 6.69626 30.2389 6.69626 30.4856C6.69626 31.2962 6.69626 32.0716 6.69626 32.8822C6.69626 33.1289 6.73151 33.1641 6.97821 33.1641C7.36589 33.1641 7.71833 33.1641 8.106 33.1641C8.35271 33.1641 8.38795 33.1289 8.38795 32.8822C8.35271 32.4593 8.35271 32.0716 8.35271 31.6487ZM36.3008 33.0231C36.3008 33.4461 36.3008 33.869 36.3008 34.2919C36.3008 34.5034 36.336 34.5386 36.5475 34.5386C36.9352 34.5386 37.3229 34.5386 37.6753 34.5386C37.8868 34.5386 37.922 34.5034 37.922 34.2919C37.922 33.4461 37.922 32.6355 37.922 31.7896C37.922 31.5782 37.8868 31.5429 37.6753 31.5429C37.2876 31.5429 36.9352 31.5429 36.5475 31.5429C36.3008 31.5429 36.2656 31.5782 36.2656 31.8249C36.3008 32.2478 36.3008 32.6355 36.3008 33.0231ZM32.283 33.0584C32.283 32.6355 32.283 32.2125 32.283 31.7896C32.283 31.5782 32.2478 31.5429 32.0363 31.5429C31.6487 31.5429 31.261 31.5429 30.8733 31.5429C30.6971 31.5429 30.6618 31.5782 30.6618 31.7896C30.6618 32.6355 30.6618 33.4461 30.6618 34.2919C30.6618 34.5034 30.6971 34.5386 30.9085 34.5386C31.2962 34.5386 31.6839 34.5386 32.0363 34.5386C32.2478 34.5386 32.283 34.5034 32.283 34.2919C32.283 33.869 32.283 33.4813 32.283 33.0584ZM13.3573 31.9306C13.3573 32.3535 13.3573 32.7412 13.3573 33.1641C13.3573 33.3756 13.3925 33.4108 13.604 33.4108C13.9917 33.4108 14.3441 33.4108 14.7318 33.4108C14.9432 33.4108 14.9785 33.3756 14.9785 33.1641C14.9785 32.3535 14.9785 31.5077 14.9785 30.6971C14.9785 30.4504 14.9432 30.4151 14.6965 30.4151C14.3441 30.4151 13.9564 30.4151 13.604 30.4151C13.3573 30.4151 13.322 30.4504 13.322 30.6971C13.3573 31.12 13.3573 31.5077 13.3573 31.9306ZM47.8254 33.0584C47.8254 33.4813 47.8254 33.869 47.8254 34.2919C47.8254 34.5034 47.8607 34.5386 48.0721 34.5386C48.4598 34.5386 48.8122 34.5386 49.1999 34.5386C49.4114 34.5386 49.4466 34.5034 49.4466 34.2919C49.4466 33.4813 49.4466 32.6355 49.4466 31.8249C49.4466 31.6134 49.4114 31.5782 49.1999 31.5782C48.8475 31.5782 48.4598 31.5782 48.1074 31.5782C47.8607 31.5782 47.8254 31.6134 47.8254 31.8601C47.8254 32.2478 47.8254 32.6355 47.8254 33.0584ZM47.8254 27.208C47.8254 27.6309 47.8254 28.0186 47.8254 28.4415C47.8254 28.653 47.8607 28.6882 48.0721 28.6882C48.4598 28.6882 48.8122 28.6882 49.1999 28.6882C49.4114 28.6882 49.4466 28.653 49.4466 28.4415C49.4466 27.6309 49.4466 26.7851 49.4466 25.9745C49.4466 25.7277 49.4114 25.6925 49.1647 25.6925C48.8122 25.6925 48.4246 25.6925 48.0721 25.6925C47.8254 25.6925 47.7902 25.7277 47.7902 25.9745C47.8254 26.3974 47.8254 26.7851 47.8254 27.208ZM36.3008 27.208C36.3008 27.6309 36.3008 28.0538 36.3008 28.4767C36.3008 28.6882 36.336 28.7234 36.5123 28.7234C36.8999 28.7234 37.2876 28.7234 37.6753 28.7234C37.8868 28.7234 37.922 28.6882 37.922 28.4767C37.922 27.6309 37.922 26.8203 37.922 25.9745C37.922 25.763 37.8868 25.7277 37.6401 25.7277C37.2524 25.7277 36.8999 25.7277 36.5123 25.7277C36.3008 25.7277 36.2656 25.763 36.2656 25.9745C36.3008 26.3621 36.3008 26.7851 36.3008 27.208ZM30.6266 27.208C30.6266 27.6309 30.6266 28.0186 30.6266 28.4415C30.6266 28.653 30.6618 28.6882 30.8733 28.6882C31.261 28.6882 31.6487 28.6882 32.0363 28.6882C32.2126 28.6882 32.283 28.653 32.283 28.4767C32.283 27.6309 32.283 26.7851 32.283 25.9392C32.283 25.7277 32.2478 25.6925 32.0363 25.6925C31.6487 25.6925 31.2962 25.6925 30.9085 25.6925C30.6618 25.6925 30.6266 25.7277 30.6266 25.9745C30.6266 26.3974 30.6266 26.7851 30.6266 27.208ZM14.9785 26.5736C14.9785 26.1507 14.9785 25.763 14.9785 25.3401C14.9785 25.1286 14.9432 25.0934 14.7318 25.0581C14.3441 25.0581 13.9564 25.0581 13.604 25.0581C13.3925 25.0581 13.3573 25.0934 13.3573 25.3048C13.3573 26.1507 13.3573 26.9613 13.3573 27.8071C13.3573 28.0186 13.3925 28.0538 13.604 28.0538C13.9564 28.0538 14.3441 28.0538 14.6965 28.0538C14.9432 28.0538 14.9785 28.0186 14.9785 27.7719C15.0137 27.3842 15.0137 26.9613 14.9785 26.5736ZM13.3573 21.9215C13.3573 22.3444 13.3573 22.732 13.3573 23.155C13.3573 23.4017 13.3925 23.4369 13.604 23.4369C13.9917 23.4369 14.3441 23.4369 14.7318 23.4369C14.9432 23.4369 14.9785 23.4017 14.9785 23.1902C14.9785 22.3796 14.9785 21.5338 14.9785 20.7232C14.9785 20.5117 14.9432 20.4765 14.7318 20.4765C14.3441 20.4765 13.9917 20.4765 13.604 20.4765C13.3925 20.4765 13.3573 20.5117 13.3573 20.7232C13.3573 21.1109 13.3573 21.5338 13.3573 21.9215ZM13.3573 17.3398C13.3573 17.7627 13.3573 18.1504 13.3573 18.5733C13.3573 18.7848 13.3925 18.82 13.604 18.82C13.9917 18.82 14.3441 18.82 14.7318 18.82C14.9432 18.82 14.9785 18.7848 14.9785 18.5733C14.9785 17.7275 14.9785 16.9169 14.9785 16.071C14.9785 15.8596 14.9432 15.8243 14.7318 15.8243C14.3441 15.8243 13.9917 15.8243 13.604 15.8243C13.3573 15.8243 13.322 15.8596 13.322 16.1063C13.3573 16.5292 13.3573 16.9169 13.3573 17.3398ZM31.8249 12.7581C31.8249 12.3352 31.8249 11.9475 31.8249 11.5246C31.8249 11.2779 31.7896 11.2427 31.5429 11.2427C31.1905 11.2427 30.8028 11.2427 30.4504 11.2427C30.2037 11.2427 30.1684 11.2779 30.1684 11.5246C30.1684 12.3352 30.1684 13.1811 30.1684 13.9917C30.1684 14.2031 30.2037 14.2384 30.4151 14.2384C30.7676 14.2384 31.1552 14.2384 31.5077 14.2384C31.7896 14.2384 31.7896 14.2031 31.7896 13.9564C31.8249 13.5687 31.8249 13.1458 31.8249 12.7581ZM13.3573 12.6877C13.3573 13.1106 13.3573 13.5335 13.3573 13.9564C13.3573 14.1679 13.3925 14.2031 13.604 14.2384C13.9917 14.2384 14.3793 14.2384 14.7318 14.2384C14.9432 14.2384 14.9785 14.2031 14.9785 13.9917C14.9785 13.1458 14.9785 12.3352 14.9785 11.4894C14.9785 11.2779 14.9432 11.2427 14.7318 11.2427C14.3441 11.2427 13.9917 11.2427 13.604 11.2427C13.3925 11.2427 13.3573 11.2779 13.3573 11.4894C13.3573 11.8771 13.3573 12.2647 13.3573 12.6877ZM31.8249 8.00027C31.8249 7.57735 31.8249 7.18967 31.8249 6.76675C31.8249 6.55529 31.7896 6.52005 31.5782 6.52005C31.1905 6.52005 30.8381 6.52005 30.4504 6.52005C30.2389 6.52005 30.2037 6.55529 30.2037 6.76675C30.2037 7.57735 30.2037 8.42319 30.2037 9.2338C30.2037 9.4805 30.2389 9.51574 30.4856 9.51574C30.8381 9.51574 31.2257 9.51574 31.5782 9.51574C31.8249 9.51574 31.8601 9.4805 31.8601 9.2338C31.8249 8.81087 31.8249 8.38795 31.8249 8.00027ZM13.3573 7.57735C13.3573 8.00027 13.3573 8.42319 13.3573 8.84612C13.3573 9.05758 13.3925 9.09282 13.604 9.09282C13.9917 9.09282 14.3441 9.09282 14.7318 9.09282C14.9785 9.09282 15.0137 9.05758 15.0137 8.81087C15.0137 8.00027 15.0137 7.15443 15.0137 6.34383C15.0137 6.13237 14.9785 6.09712 14.767 6.09712C14.4146 6.09712 14.0269 6.09712 13.6745 6.09712C13.4278 6.09712 13.3925 6.13237 13.3925 6.37907C13.3573 6.76675 13.3573 7.18967 13.3573 7.57735ZM12.441 37.0057C12.441 36.618 12.441 36.1951 12.441 35.8074C12.441 35.5607 12.4057 35.5254 12.159 35.5254C11.8066 35.5254 11.4189 35.5254 11.0665 35.5254C10.855 35.5254 10.8198 35.5607 10.8198 35.7721C10.8198 36.5827 10.8198 37.3933 10.8198 38.2039C10.8198 38.4154 10.855 38.4859 11.1017 38.4859C11.4541 38.4859 11.8418 38.4859 12.1942 38.4859C12.441 38.4859 12.441 38.4506 12.4762 38.2039C12.441 37.8163 12.441 37.4286 12.441 37.0057Z" fill="#5B94E3"/>
</svg>
