<svg width="113" height="119" viewBox="0 0 113 119" fill="none" xmlns="http://www.w3.org/2000/svg">
<rect width="113" height="119" fill="white"/>
<path d="M1.12988 109.649C2.54238 101.715 4.51988 94.0654 8.47488 86.9821C12.7124 79.3321 18.3624 72.8154 25.4249 67.7154C26.8374 66.5821 27.9674 66.5821 29.3799 67.7154C45.4824 81.0321 68.6474 81.0321 84.7499 67.7154C86.1624 66.5821 87.2924 66.5821 88.7049 67.4321C104.242 79.3321 112.152 95.1987 113 114.465C113 116.732 112.435 117.865 109.892 117.865C74.2974 117.865 38.7024 117.865 3.10738 117.865C2.54238 117.865 1.69488 117.865 1.12988 117.865C1.12988 115.032 1.12988 112.199 1.12988 109.649Z" fill="#315CD5"/>
<path d="M62.1497 1.13184C66.9522 2.26517 71.7547 3.96517 75.9922 6.7985C87.2922 14.4485 92.6597 28.3318 89.2697 41.9318C86.1622 55.2485 75.1447 65.4485 61.5847 67.1485C44.0697 69.4152 27.9672 57.7985 24.5772 40.5152C21.1872 22.9485 31.9222 5.9485 49.1547 1.6985C50.0022 1.41517 50.8497 1.13184 51.9797 1.13184C55.3697 1.13184 58.7597 1.13184 62.1497 1.13184Z" fill="#315CD5"/>
<path d="M64.9744 73.666C62.1494 73.9493 59.3244 74.2327 56.4994 74.2327C53.6744 74.2327 50.8494 73.9493 48.0244 73.666V83.5827H51.1319L48.3069 110.499L56.4994 116.166L64.6919 110.499L61.8669 83.5827H64.9744V73.666Z" fill="white"/>
</svg>
