<svg width="109" height="109" viewBox="0 0 109 109" fill="none" xmlns="http://www.w3.org/2000/svg">
<g clip-path="url(#clip0)">
<path d="M10.2188 80.0469V28.9531L52.7969 3.40625H56.2031L98.7812 28.9531V80.0469L56.2031 105.594H52.7969L10.2188 80.0469Z" fill="#315CD5"/>
<path d="M77.9013 66.5412L89.9424 54.5001L77.9013 42.459L73.0815 47.2788L80.3027 54.5001L73.0815 61.7213L77.9013 66.5412Z" fill="white"/>
<path d="M31.0991 66.5412L35.9189 61.7213L28.6977 54.5001L35.9189 47.2788L31.0991 42.459L19.058 54.5001L31.0991 66.5412Z" fill="white"/>
<path d="M68.2666 63.4463L45.5571 40.7368L40.7407 45.5532L63.4502 68.2627L68.2666 63.4463Z" fill="white"/>
<path d="M27.4203 22.6005L13.625 30.8777V78.1223L53.7336 102.188H55.2664L95.375 78.1223V30.8777L55.2664 6.8125H53.7336L27.4203 22.6005L22.4642 17.6444L51.8602 0H57.1398L102.188 27.0286V81.9714L57.1398 109H51.8602L6.8125 81.9714V27.0286L22.4642 17.6444L27.4203 22.6005Z" fill="#315CD5"/>
</g>
<defs>
<clipPath id="clip0">
<rect width="109" height="109" transform="matrix(-1 0 0 1 109 0)" fill="white"/>
</clipPath>
</defs>
</svg>
