<svg width="40" height="42" viewBox="0 0 40 42" fill="none" xmlns="http://www.w3.org/2000/svg">
<path d="M0 38.644C0.480077 35.8664 1.23448 33.1574 2.60613 30.6542C4.11494 27.9795 6.06954 25.6819 8.57279 23.8302C9.08716 23.453 9.43007 23.4187 9.97873 23.8645C15.6711 28.5967 23.8667 28.5967 29.559 23.8645C30.0734 23.453 30.4163 23.4187 30.9649 23.7959C36.4515 27.9795 39.2291 33.5689 39.6063 40.4272C39.6406 41.2501 39.4349 41.5931 38.5433 41.5931C25.9584 41.5588 13.3393 41.5931 0.754406 41.5588C0.514368 41.5588 0.274329 41.5245 0.0342912 41.5245C0 40.5643 0 39.6042 0 38.644Z" fill="#5B94E3"/>
<path d="M21.5692 0.375C23.2837 0.786494 24.964 1.33515 26.4385 2.36389C30.4163 5.10718 32.3023 9.97653 31.1707 14.743C30.0391 19.4409 26.1299 23.0072 21.3291 23.6244C15.1567 24.4474 9.43008 20.3325 8.26418 14.2286C7.06398 8.05622 10.9046 2.12385 17.0084 0.615038C17.317 0.546456 17.6257 0.443582 17.9686 0.375C19.1688 0.375 20.369 0.375 21.5692 0.375Z" fill="#5B94E3"/>
</svg>
