<svg width="50" height="51" viewBox="0 0 50 51" fill="none" xmlns="http://www.w3.org/2000/svg">
<g clip-path="url(#clip0)">
<path d="M4.6875 37.0938V13.6562L24.2188 1.9375H25.7812L45.3125 13.6562V37.0938L25.7812 48.8125H24.2188L4.6875 37.0938Z" fill="#5B94E3"/>
<path d="M35.7344 30.8984L41.2578 25.375L35.7344 19.8516L33.5234 22.0625L36.8359 25.375L33.5234 28.6875L35.7344 30.8984Z" fill="white"/>
<path d="M14.2656 30.8984L16.4766 28.6875L13.1641 25.375L16.4766 22.0625L14.2656 19.8516L8.74219 25.375L14.2656 30.8984Z" fill="white"/>
<path d="M31.3148 29.4795L20.8976 19.0623L18.6882 21.2717L29.1054 31.6889L31.3148 29.4795Z" fill="white"/>
<path d="M12.5781 10.7422L6.25 14.5391V36.2109L24.6484 47.25H25.3516L43.75 36.2109V14.5391L25.3516 3.5H24.6484L12.5781 10.7422L10.3047 8.46875L23.7891 0.375H26.2109L46.875 12.7734V37.9766L26.2109 50.375H23.7891L3.125 37.9766V12.7734L10.3047 8.46875L12.5781 10.7422Z" fill="#5B94E3"/>
</g>
<defs>
<clipPath id="clip0">
<rect width="50" height="50" transform="matrix(-1 0 0 1 50 0.375)" fill="white"/>
</clipPath>
</defs>
</svg>
