<svg width="44" height="49" viewBox="0 0 44 49" fill="none" xmlns="http://www.w3.org/2000/svg">
<path d="M28.4947 19.25C30.6693 19.25 32.4322 17.4871 32.4322 15.3125C32.4322 13.1379 30.6693 11.375 28.4947 11.375C26.32 11.375 24.5572 13.1379 24.5572 15.3125C24.5572 17.4871 26.32 19.25 28.4947 19.25Z" fill="#5B94E3"/>
<path d="M12.3074 26.25C13.2739 26.25 14.0574 25.4665 14.0574 24.5C14.0574 23.5335 13.2739 22.75 12.3074 22.75C11.3409 22.75 10.5574 23.5335 10.5574 24.5C10.5574 25.4665 11.3409 26.25 12.3074 26.25Z" fill="#5B94E3"/>
<path d="M11.4237 14.8655C11.902 14.3869 11.9017 13.6113 11.4231 13.133C10.9446 12.6547 10.1689 12.6549 9.69056 13.1333C9.21224 13.6119 9.21233 14.3874 9.69075 14.8659C10.1699 15.3429 10.9447 15.3427 11.4237 14.8655Z" fill="#5B94E3"/>
<path d="M43.0125 11.4824C42.2373 8.82741 40.6121 6.5003 38.3863 4.85842C33.8054 1.2644 29.5569 -0.222438 24.6042 0.0266759C21.8432 0.219804 19.1 0.613334 16.396 1.2042C12.8148 1.92494 10.2497 3.14515 8.5543 4.93451C7.17024 6.4112 6.1022 8.15491 5.41572 10.0589C5.11694 10.9213 4.87376 11.8019 4.68771 12.6954L4.61335 13.0146C4.40587 13.8046 4.12173 14.5724 3.76485 15.3072C3.59823 15.681 3.42989 16.0544 3.28634 16.4359C3.19724 16.6289 3.14948 16.8385 3.14623 17.0512C3.18384 17.3195 3.51794 17.6254 3.87166 17.9492C4.59661 18.4585 5.0644 19.2578 5.1534 20.1393C5.13914 20.557 5.02133 20.9647 4.81079 21.3258C3.7169 23.6306 2.3764 25.8101 0.812612 27.8259C0.139248 28.6476 0.00258398 28.9676 0 29.0992C0.161259 29.2508 0.333429 29.3903 0.515264 29.5166C0.745525 29.6769 0.988801 29.8179 1.24241 29.9379C1.99091 30.3199 3.01636 30.8424 3.22059 31.9152C3.34788 32.5762 3.26567 33.2603 2.98564 33.8724C2.83606 34.1864 2.68226 34.4604 2.54818 34.6979C2.50205 34.7787 2.45162 34.8679 2.40721 34.9495C2.76696 35.2366 3.26681 35.6113 3.47707 35.7664C3.66714 35.9068 3.79222 36.1181 3.824 36.3522C3.85567 36.5863 3.79127 36.8233 3.64541 37.0092C3.51612 37.1784 3.40386 37.3601 3.31046 37.5514C3.37199 37.5876 3.43525 37.6235 3.49755 37.659C4.27045 37.9926 4.85921 38.6469 5.10995 39.4505C5.23609 40.0708 5.20824 40.7126 5.0288 41.3197C4.9886 41.5008 4.94764 41.682 4.92372 41.8632C4.87319 42.3874 4.94544 42.9162 5.13474 43.4076C5.32174 44.2212 6.11991 44.7403 6.93941 44.5812C9.48405 43.9606 11.9934 43.203 14.4564 42.3117L14.4616 42.31C15.3066 42.0212 16.0791 41.7507 16.7063 41.5312C17.3856 41.2928 17.8991 41.1137 18.1572 41.0322C21.7931 39.891 22.5304 38.5768 22.5091 37.6753C22.4978 37.1921 22.8803 36.7911 23.3636 36.7798C23.8468 36.7685 24.2478 37.151 24.2591 37.6343C24.3104 39.8192 22.434 41.524 18.6828 42.7014C18.4342 42.7796 17.9403 42.9531 17.2849 43.1825C17.0832 43.2534 16.8662 43.3295 16.6372 43.4094C18.0833 45.0097 19.1392 46.9233 19.7219 49H39.6563C39.6452 48.9837 39.6332 48.9676 39.6212 48.9518C39.3204 48.5653 39.0547 48.1526 38.8274 47.7187C38.395 46.8319 38.0322 45.9128 37.7422 44.9699C37.2109 43.1801 36.8439 41.3456 36.6459 39.4891C36.2988 36.5627 36.7399 33.5965 37.9235 30.8977C38.6238 29.4405 39.4875 28.0677 40.4981 26.8056C41.0073 26.1194 41.5338 25.4102 41.9908 24.6899C43.1978 22.8165 43.8466 20.6383 43.8614 18.4097C43.9111 16.0716 43.6254 13.7389 43.0125 11.4824ZM6.4385 14.6185C6.27437 14.4544 6.18221 14.2317 6.1823 13.9997C6.18221 13.7676 6.27437 13.545 6.4385 13.3809C6.60263 13.2167 6.82524 13.1246 7.05731 13.1247H7.72695C7.78092 12.9491 7.85136 12.7791 7.9374 12.6168L7.46415 12.1432C7.24307 11.9222 7.15685 11.6 7.23771 11.2982C7.31858 10.9962 7.55449 10.7604 7.85634 10.6795C8.15828 10.5987 8.48042 10.685 8.70139 10.906L9.17608 11.381C9.33791 11.2955 9.5074 11.2252 9.68235 11.1714V10.4997C9.68235 10.0165 10.0741 9.62471 10.5574 9.62471C11.0406 9.62471 11.4324 10.0164 11.4324 10.4997V11.1713C11.6073 11.2252 11.7768 11.2954 11.9386 11.3809L12.4133 10.906C12.6343 10.6849 12.9565 10.5987 13.2584 10.6795C13.5603 10.7604 13.7961 10.9962 13.877 11.2982C13.9579 11.6001 13.8715 11.9222 13.6506 12.1432L13.1773 12.6168C13.2634 12.7791 13.3338 12.949 13.3878 13.1247H14.0574C14.5406 13.1247 14.9324 13.5164 14.9324 13.9997C14.9324 14.4829 14.5407 14.8747 14.0574 14.8747H13.3878C13.3338 15.0502 13.2634 15.2203 13.1773 15.3826L13.6506 15.8561C13.9922 16.1978 13.9922 16.7517 13.6506 17.0935C13.3089 17.4351 12.7549 17.4351 12.4132 17.0935L11.9385 16.6187C11.7767 16.7042 11.6072 16.7745 11.4323 16.8285V17.4998C11.4323 17.983 11.0406 18.3748 10.5573 18.3748C10.0741 18.3748 9.68225 17.9831 9.68225 17.4998V16.8285C9.50731 16.7745 9.33772 16.7042 9.17589 16.6187L8.7013 17.0935C8.35964 17.4351 7.80571 17.4351 7.46396 17.0935C7.1223 16.7518 7.1223 16.1979 7.46396 15.8561L7.93711 15.3827C7.85117 15.2204 7.78073 15.0503 7.72676 14.8748H7.05712C6.82524 14.8748 6.60263 14.7826 6.4385 14.6185ZM16.6822 25.3747H15.6829C15.6014 25.6879 15.4763 25.9882 15.3112 26.2667L16.0191 26.9748C16.2402 27.1957 16.3264 27.518 16.2455 27.8198C16.1647 28.1218 15.9288 28.3576 15.6269 28.4384C15.3251 28.5193 15.0028 28.433 14.7819 28.212L14.074 27.5038C13.7956 27.6687 13.4954 27.7938 13.1823 27.8754V28.8747C13.1823 29.3579 12.7906 29.7497 12.3073 29.7497C11.8241 29.7497 11.4323 29.358 11.4323 28.8747V27.8754C11.1191 27.7938 10.819 27.6687 10.5406 27.5038L9.8327 28.212C9.61181 28.4337 9.2893 28.5205 8.98697 28.4397C8.68465 28.3589 8.44855 28.1227 8.36768 27.8204C8.28681 27.5181 8.37371 27.1956 8.59535 26.9747L9.30327 26.2666C9.13818 25.9882 9.0131 25.6879 8.93156 25.3747H7.93223C7.44903 25.3747 7.05722 24.983 7.05722 24.4997C7.05722 24.0165 7.44893 23.6247 7.93223 23.6247H8.93156C9.0131 23.3115 9.13818 23.0112 9.30327 22.7327L8.59535 22.0246C8.37371 21.8038 8.2869 21.4812 8.36768 21.1789C8.44845 20.8766 8.68465 20.6405 8.98697 20.5596C9.2893 20.4788 9.61172 20.5656 9.8327 20.7873L10.5406 21.4955C10.819 21.3306 11.1191 21.2055 11.4323 21.1239V20.1246C11.4323 19.6414 11.824 19.2496 12.3073 19.2496C12.7905 19.2496 13.1823 19.6413 13.1823 20.1246V21.1239C13.4954 21.2055 13.7956 21.3306 14.074 21.4955L14.7819 20.7873C15.0028 20.5663 15.3251 20.48 15.6269 20.5609C15.9288 20.6417 16.1647 20.8776 16.2455 21.1795C16.3264 21.4814 16.2401 21.8036 16.0191 22.0245L15.3112 22.7326C15.4763 23.011 15.6014 23.3114 15.6829 23.6246H16.6822C17.1654 23.6246 17.5573 24.0163 17.5573 24.4996C17.5573 24.9829 17.1655 25.3747 16.6822 25.3747ZM40.989 17.5027C40.9146 17.92 40.5517 18.2239 40.1277 18.2239H38.3137C38.1122 18.9086 37.838 19.5697 37.4959 20.196L38.7793 21.4795C39.0793 21.7793 39.1211 22.2511 38.8785 22.5989C38.0373 23.8059 36.9888 24.8543 35.7818 25.6955C35.434 25.9378 34.9625 25.8963 34.6625 25.5968L33.379 24.3134C32.7524 24.6555 32.091 24.9297 31.406 25.1311V26.9457C31.4057 27.3695 31.102 27.7323 30.6848 27.807C29.2361 28.0639 27.7534 28.0639 26.3047 27.807C25.8875 27.7323 25.5837 27.3694 25.5835 26.9457V25.1311C24.8985 24.9297 24.2371 24.6556 23.6105 24.3134L22.327 25.5968C22.0269 25.8962 21.5554 25.9377 21.2076 25.6955C20.0006 24.8543 18.9522 23.8059 18.111 22.5989C17.8684 22.251 17.9101 21.7793 18.2101 21.4795L19.4936 20.196C19.1515 19.5697 18.8774 18.9086 18.6758 18.2239H16.8618C16.4378 18.224 16.0749 17.92 16.0005 17.5027C15.743 16.0537 15.743 14.5707 16.0005 13.1217C16.0749 12.7043 16.4378 12.4005 16.8618 12.4005H18.6758C18.8773 11.7158 19.1515 11.0547 19.4936 10.4283L18.2101 9.14486C17.9102 8.84502 17.8684 8.3733 18.111 8.02552C18.9522 6.81851 20.0006 5.77009 21.2076 4.92886C21.5552 4.68549 22.0273 4.72712 22.327 5.02753L23.6105 6.311C24.2371 5.96886 24.8985 5.69467 25.5835 5.49322V3.67879C25.5837 3.25502 25.8875 2.89221 26.3047 2.81747C27.7535 2.56194 29.236 2.56194 30.6848 2.81747C31.102 2.89221 31.4057 3.25502 31.406 3.67879V5.49332C32.091 5.69477 32.7524 5.96886 33.379 6.3111L34.6625 5.02763C34.9621 4.72712 35.4343 4.68549 35.7818 4.92896C36.9888 5.77018 38.0373 6.81861 38.8785 8.02561C39.1211 8.37349 39.0794 8.84521 38.7793 9.14495L37.4959 10.4284C37.838 11.0548 38.1121 11.7159 38.3137 12.4006H40.1277C40.5517 12.4005 40.9146 12.7044 40.989 13.1218C41.2466 14.5707 41.2466 16.0537 40.989 17.5027Z" fill="#5B94E3"/>
<path d="M37.6352 14.1505C37.2243 14.1506 36.8688 13.8647 36.7806 13.4635C36.5709 12.5039 36.1918 11.5894 35.6613 10.7628C35.4382 10.4169 35.487 9.96208 35.7783 9.67124L37.0062 8.44337C36.5198 7.83815 35.9691 7.28748 35.3639 6.80102L34.136 8.0285C33.8451 8.31934 33.391 8.36844 33.0448 8.14641C32.2179 7.61526 31.303 7.23589 30.3429 7.02621C29.9417 6.93797 29.6559 6.58253 29.6559 6.17168V4.43716C28.8839 4.35428 28.1053 4.35428 27.3333 4.43716V6.17177C27.3333 6.58253 27.0475 6.93797 26.6463 7.0263C25.6862 7.23608 24.7713 7.61545 23.9444 8.1465C23.5983 8.3694 23.1437 8.3202 22.8532 8.0286L21.6253 6.80121C21.0201 7.28767 20.4694 7.83834 19.983 8.44357L21.2108 9.67143C21.5022 9.96227 21.551 10.4171 21.3279 10.763C20.7974 11.5896 20.4183 12.5041 20.2086 13.4637C20.1204 13.8649 19.7649 14.1508 19.354 14.1507H17.6194C17.5362 14.9229 17.5362 15.7019 17.6194 16.4741H19.354C19.7649 16.474 20.1204 16.7599 20.2086 17.1611C20.4183 18.1207 20.7974 19.0352 21.3279 19.8618C21.551 20.2077 21.5022 20.6625 21.2108 20.9534L19.983 22.1811C20.4694 22.7864 21.0201 23.337 21.6253 23.8235L22.8532 22.596C23.1436 22.3042 23.5983 22.2551 23.9444 22.4781C24.7713 23.0092 25.6862 23.3886 26.6463 23.5983C27.0475 23.6865 27.3332 24.042 27.3333 24.4528V26.1874C28.1053 26.2703 28.8839 26.2703 29.6559 26.1874V24.4528C29.6559 24.0421 29.9417 23.6866 30.3428 23.5983C31.3029 23.3885 32.2179 23.0091 33.0447 22.4781C33.3909 22.256 33.8451 22.3051 34.1359 22.596L35.3638 23.8235C35.969 23.337 36.5197 22.7864 37.0061 22.1811L35.7782 20.9533C35.4869 20.6624 35.4381 20.2076 35.6612 19.8617C36.1917 19.0351 36.5708 18.1206 36.7805 17.161C36.8687 16.7598 37.2242 16.4739 37.6351 16.474H39.3697C39.4529 15.7018 39.4529 14.9228 39.3697 14.1506H37.6352V14.1505ZM28.4947 20.9997C25.3536 20.9997 22.8072 18.4533 22.8072 15.3122C22.8072 12.1711 25.3535 9.62463 28.4947 9.62463C31.6358 9.62463 34.1822 12.171 34.1822 15.3122C34.1785 18.4518 31.6342 20.996 28.4947 20.9997Z" fill="#5B94E3"/>
</svg>
