<svg width="99" height="111" viewBox="0 0 99 111" fill="none" xmlns="http://www.w3.org/2000/svg">
<path d="M64.1678 43.3511C69.0648 43.3511 73.0347 39.3813 73.0347 34.4842C73.0347 29.5871 69.0648 25.6172 64.1678 25.6172C59.2707 25.6172 55.3008 29.5871 55.3008 34.4842C55.3008 39.3813 59.2707 43.3511 64.1678 43.3511Z" fill="#315CD5"/>
<path d="M27.7153 59.1123C29.8919 59.1123 31.6563 57.3479 31.6563 55.1714C31.6563 52.9949 29.8919 51.2305 27.7153 51.2305C25.5388 51.2305 23.7744 52.9949 23.7744 55.1714C23.7744 57.3479 25.5388 59.1123 27.7153 59.1123Z" fill="#315CD5"/>
<path d="M25.7254 33.4765C26.8023 32.3987 26.8017 30.6522 25.7239 29.575C24.6463 28.4981 22.8995 28.4985 21.8224 29.5759C20.7452 30.6535 20.7454 32.4 21.8228 33.4774C22.9019 34.5517 24.6467 34.5513 25.7254 33.4765Z" fill="#315CD5"/>
<path d="M96.8611 25.8575C95.1154 19.8787 91.4555 14.6382 86.4432 10.9408C76.1273 2.84734 66.56 -0.500916 55.407 0.0600723C49.1894 0.494983 43.0118 1.38119 36.9226 2.71178C28.858 4.33483 23.0815 7.08266 19.2637 11.1122C16.1469 14.4376 13.7417 18.3643 12.1958 22.652C11.523 24.594 10.9754 26.5772 10.5564 28.5892L10.3889 29.308C9.92171 31.087 9.28184 32.8161 8.47818 34.4706C8.10297 35.3124 7.72388 36.1534 7.4006 37.0124C7.19996 37.4471 7.09241 37.9191 7.08509 38.398C7.16978 39.0023 7.92215 39.6911 8.7187 40.4204C10.3512 41.5672 11.4047 43.3671 11.6051 45.3523C11.573 46.293 11.3077 47.2111 10.8336 48.0242C8.37021 53.2145 5.35148 58.1224 1.82995 62.6621C0.313576 64.5123 0.00581893 65.233 0 65.5293C0.363144 65.8707 0.750858 66.1849 1.16034 66.4694C1.67887 66.8304 2.22671 67.1478 2.79783 67.4181C4.48338 68.2782 6.79263 69.4549 7.25254 71.8708C7.53918 73.3592 7.35405 74.8999 6.72345 76.2784C6.3866 76.9855 6.04027 77.6023 5.73833 78.1372C5.63445 78.3191 5.52087 78.5202 5.42087 78.7038C6.231 79.3503 7.35664 80.1941 7.83013 80.5434C8.25814 80.8596 8.53982 81.3354 8.61137 81.8626C8.68271 82.3897 8.53766 82.9236 8.20922 83.3421C7.91805 83.7231 7.66526 84.1322 7.45491 84.563C7.59349 84.6447 7.73594 84.7255 7.87625 84.8055C9.61675 85.5568 10.9426 87.03 11.5073 88.8397C11.7913 90.2367 11.7286 91.6819 11.3245 93.049C11.234 93.4569 11.1417 93.8649 11.0879 94.2729C10.9741 95.4535 11.1368 96.6442 11.5631 97.7509C11.9842 99.583 13.7816 100.752 15.6271 100.394C21.3574 98.9961 27.0082 97.2901 32.5548 95.283L32.5664 95.2791C34.4694 94.6287 36.209 94.0196 37.6213 93.5252C39.1511 92.9884 40.3075 92.5852 40.8888 92.4015C49.0764 89.8317 50.737 86.8723 50.6889 84.8421C50.6635 83.754 51.5249 82.8509 52.6133 82.8255C53.7014 82.8001 54.6044 83.6615 54.6298 84.7499C54.7454 89.6701 50.5197 93.5091 42.0724 96.1606C41.5125 96.3366 40.4002 96.7274 38.9243 97.244C38.4702 97.4037 37.9814 97.575 37.4657 97.755C40.7224 101.359 43.1002 105.668 44.4122 110.345H89.3031C89.2781 110.308 89.2512 110.271 89.2243 110.236C88.5467 109.366 87.9484 108.436 87.4365 107.459C86.4628 105.462 85.6458 103.392 84.9928 101.269C83.7963 97.2386 82.9698 93.1074 82.5241 88.9268C81.7424 82.3365 82.7357 75.657 85.401 69.5795C86.9781 66.298 88.9232 63.2065 91.1988 60.3642C92.3456 58.819 93.5311 57.222 94.5604 55.5998C97.2785 51.3811 98.7395 46.476 98.7727 41.4575C98.8848 36.1922 98.2412 30.939 96.8611 25.8575ZM14.4991 32.9198C14.1294 32.5502 13.9219 32.0489 13.9221 31.5263C13.9219 31.0036 14.1294 30.5023 14.4991 30.1327C14.8687 29.7631 15.3699 29.5556 15.8926 29.5558H17.4005C17.5221 29.1605 17.6807 28.7776 17.8745 28.4121L16.8087 27.3457C16.3109 26.8478 16.1167 26.1224 16.2988 25.4427C16.4809 24.7627 17.0122 24.2317 17.6919 24.0496C18.3719 23.8675 19.0973 24.0619 19.5949 24.5595L20.6639 25.6291C21.0283 25.4366 21.41 25.2785 21.804 25.1571V23.6446C21.804 22.5565 22.6861 21.6742 23.7744 21.6742C24.8626 21.6742 25.7449 22.5563 25.7449 23.6446V25.1569C26.1389 25.2785 26.5205 25.4364 26.885 25.6289L27.9539 24.5595C28.4516 24.0617 29.1772 23.8675 29.8569 24.0496C30.5369 24.2317 31.0679 24.7627 31.25 25.4427C31.4321 26.1226 31.2377 26.8481 30.7401 27.3457L29.6744 28.4121C29.8681 28.7776 30.0268 29.1603 30.1483 29.5558H31.6563C32.7444 29.5558 33.6267 30.4379 33.6267 31.5263C33.6267 32.6144 32.7446 33.4967 31.6563 33.4967H30.1483C30.0268 33.892 29.8681 34.275 29.6744 34.6405L30.7401 35.7068C31.5095 36.4762 31.5095 37.7236 30.7401 38.4932C29.9707 39.2626 28.7231 39.2626 27.9537 38.4932L26.8848 37.4241C26.5203 37.6167 26.1386 37.7749 25.7447 37.8965V39.4083C25.7447 40.4965 24.8626 41.3788 23.7742 41.3788C22.6861 41.3788 21.8037 40.4967 21.8037 39.4083V37.8965C21.4098 37.7749 21.0279 37.6167 20.6635 37.4241L19.5947 38.4932C18.8253 39.2626 17.5779 39.2626 16.8083 38.4932C16.0389 37.7239 16.0389 36.4764 16.8083 35.7068L17.8738 34.6407C17.6803 34.2752 17.5217 33.8922 17.4001 33.4969H15.8921C15.37 33.4969 14.8687 33.2894 14.4991 32.9198ZM37.5672 57.1421H35.3168C35.1332 57.8474 34.8515 58.5235 34.4797 59.1507L36.0739 60.7453C36.5718 61.2429 36.7659 61.9685 36.5838 62.6483C36.4017 63.3282 35.8705 63.8593 35.1907 64.0414C34.511 64.2235 33.7854 64.0291 33.2877 63.5315L31.6936 61.9366C31.0666 62.308 30.3908 62.5896 29.6856 62.7735V65.0237C29.6856 66.1118 28.8035 66.9941 27.7151 66.9941C26.627 66.9941 25.7447 66.112 25.7447 65.0237V62.7735C25.0395 62.5896 24.3636 62.308 23.7367 61.9366L22.1425 63.5315C21.6451 64.0306 20.9188 64.2261 20.238 64.0442C19.5572 63.8623 19.0255 63.3304 18.8434 62.6496C18.6613 61.9688 18.857 61.2427 19.3561 60.745L20.9503 59.1504C20.5785 58.5235 20.2969 57.8474 20.1132 57.1421H17.8628C16.7747 57.1421 15.8924 56.2599 15.8924 55.1716C15.8924 54.0835 16.7745 53.2011 17.8628 53.2011H20.1132C20.2969 52.4957 20.5785 51.8197 20.9503 51.1925L19.3561 49.5979C18.857 49.1005 18.6615 48.3742 18.8434 47.6934C19.0253 47.0126 19.5572 46.4809 20.238 46.2988C20.9188 46.1169 21.6449 46.3124 22.1425 46.8115L23.7367 48.4063C24.3636 48.035 25.0395 47.7533 25.7447 47.5695V45.3193C25.7447 44.2311 26.6268 43.3488 27.7151 43.3488C28.8033 43.3488 29.6856 44.2309 29.6856 45.3193V47.5695C30.3908 47.7533 31.0666 48.035 31.6936 48.4063L33.2877 46.8115C33.7854 46.3139 34.511 46.1195 35.1907 46.3016C35.8705 46.4837 36.4017 47.015 36.5838 47.6947C36.7659 48.3746 36.5715 49.1001 36.0739 49.5977L34.4797 51.1923C34.8515 51.8192 35.1332 52.4955 35.3168 53.2009H37.5672C38.6554 53.2009 39.5377 54.083 39.5377 55.1714C39.5377 56.2597 38.6556 57.1421 37.5672 57.1421ZM92.3044 39.4148C92.1367 40.3547 91.3195 41.0389 90.3648 41.0389H86.2797C85.826 42.5807 85.2085 44.0695 84.4381 45.4801L87.3284 48.3703C88.0038 49.0456 88.098 50.1078 87.5516 50.891C85.6572 53.6091 83.2963 55.9701 80.5782 57.8645C79.7948 58.4102 78.7332 58.3166 78.0575 57.6423L75.1672 54.752C73.756 55.5225 72.2666 56.1399 70.7241 56.5936V60.6797C70.7235 61.6343 70.0395 62.4511 69.1 62.6194C65.8375 63.1978 62.4988 63.1978 59.2363 62.6194C58.2968 62.4511 57.6128 61.6341 57.6122 60.6797V56.5936C56.0697 56.1399 54.5803 55.5227 53.1691 54.752L50.2788 57.6423C49.6029 58.3164 48.5413 58.4099 47.7581 57.8645C45.04 55.9701 42.6791 53.6091 40.7847 50.891C40.2383 50.1076 40.3323 49.0453 41.0079 48.3703L43.8982 45.4801C43.1278 44.0695 42.5105 42.5807 42.0566 41.0389H37.9715C37.0168 41.0391 36.1996 40.3547 36.0319 39.4148C35.4522 36.1519 35.4522 32.8122 36.0319 29.5491C36.1996 28.6093 37.0168 27.925 37.9715 27.925H42.0566C42.5103 26.3832 43.1278 24.8944 43.8982 23.4839L41.0079 20.5936C40.3325 19.9184 40.2383 18.8561 40.7847 18.0729C42.6791 15.3548 45.04 12.9938 47.7581 11.0994C48.5409 10.5514 49.604 10.6451 50.2788 11.3216L53.1691 14.2119C54.5803 13.4415 56.0697 12.824 57.6122 12.3703V8.28438C57.6126 7.33007 58.2968 6.51305 59.2363 6.34473C62.499 5.76931 65.8373 5.76931 69.1 6.34473C70.0395 6.51305 70.7235 7.33007 70.7241 8.28438V12.3706C72.2666 12.8242 73.756 13.4415 75.1672 14.2121L78.0575 11.3219C78.7321 10.6451 79.7956 10.5514 80.5782 11.0997C83.2963 12.994 85.6572 15.355 87.5516 18.0731C88.098 18.8565 88.004 19.9188 87.3284 20.5938L84.4381 23.4841C85.2085 24.8946 85.8258 26.3834 86.2797 27.9252H90.3648C91.3195 27.925 92.1367 28.6095 92.3044 29.5493C92.8844 32.8122 92.8844 36.1519 92.3044 39.4148Z" fill="#315CD5"/>
<path d="M84.7516 31.8663C83.8264 31.8665 83.0258 31.2228 82.8273 30.3191C82.3549 28.1584 81.5012 26.0989 80.3066 24.2375C79.8043 23.4584 79.9142 22.4343 80.5702 21.7793L83.3353 19.0142C82.2398 17.6513 80.9997 16.4112 79.6368 15.3158L76.8717 18.08C76.2168 18.7349 75.1942 18.8455 74.4144 18.3455C72.5524 17.1494 70.492 16.2951 68.33 15.8229C67.4265 15.6242 66.783 14.8237 66.7828 13.8985V9.99252C65.0444 9.80588 63.291 9.80588 61.5527 9.99252V13.8987C61.5527 14.8237 60.9089 15.6242 60.0055 15.8231C57.8434 16.2955 55.7831 17.1498 53.921 18.3457C53.1417 18.8476 52.1178 18.7369 51.4637 18.0802L48.6986 15.3162C47.3357 16.4117 46.0956 17.6517 45.0002 19.0147L47.7652 21.7797C48.4213 22.4347 48.5312 23.4588 48.0288 24.2379C46.8342 26.0993 45.9806 28.1588 45.5081 30.3196C45.3096 31.2232 44.509 31.867 43.5838 31.8667H39.6776C39.4903 33.6057 39.4903 35.3598 39.6776 37.0988H43.5838C44.509 37.0986 45.3096 37.7424 45.5081 38.646C45.9806 40.8068 46.8342 42.8662 48.0288 44.7277C48.5312 45.5067 48.4213 46.5309 47.7652 47.1858L45.0002 49.9507C46.0956 51.3136 47.3357 52.5537 48.6986 53.6492L51.4637 50.8849C52.1176 50.2278 53.1417 50.1173 53.921 50.6194C55.7831 51.8155 57.8434 52.6698 60.0055 53.142C60.9089 53.3407 61.5524 54.1412 61.5527 55.0664V58.9726C63.291 59.1592 65.0444 59.1592 66.7828 58.9726V55.0664C66.7828 54.1414 67.4265 53.341 68.3298 53.142C70.4918 52.6696 72.5524 51.8153 74.4142 50.6194C75.1939 50.1192 76.2166 50.2298 76.8715 50.8849L79.6366 53.6492C80.9995 52.5537 82.2396 51.3136 83.3351 49.9507L80.57 47.1856C79.914 46.5307 79.804 45.5065 80.3064 44.7274C81.501 42.866 82.3547 40.8066 82.8271 38.6458C83.0256 37.7421 83.8262 37.0984 84.7514 37.0986H88.6577C88.8449 35.3596 88.8449 33.6055 88.6577 31.8665H84.7516V31.8663ZM64.1679 47.2901C57.0945 47.2901 51.36 41.5559 51.36 34.4822C51.36 27.4088 57.0943 21.6743 64.1679 21.6743C71.2416 21.6743 76.9758 27.4086 76.9758 34.4822C76.9674 41.5525 71.2379 47.2819 64.1679 47.2901Z" fill="#315CD5"/>
</svg>
