<?xml version="1.0" encoding="utf-8"?>
<!-- Generator: Adobe Illustrator 24.0.1, SVG Export Plug-In . SVG Version: 6.00 Build 0)  -->
<svg version="1.1" id="Layer_1" xmlns="http://www.w3.org/2000/svg" xmlns:xlink="http://www.w3.org/1999/xlink" x="0px" y="0px"
	 viewBox="0 0 40 42" style="enable-background:new 0 0 40 42;" xml:space="preserve">
<style type="text/css">
	.st0{fill:#5B94E3;}
	.st1{fill:#FFFFFF;}
</style>
<path class="st0" d="M0.4,38.7c0.5-2.8,1.2-5.5,2.6-8c1.5-2.7,3.5-5,6-6.8c0.5-0.4,0.9-0.4,1.4,0c5.7,4.7,13.9,4.7,19.6,0
	c0.5-0.4,0.9-0.4,1.4-0.1c5.5,4.2,8.3,9.8,8.6,16.6c0,0.8-0.2,1.2-1.1,1.2c-12.6,0-25.2,0-37.8,0c-0.2,0-0.5,0-0.7,0
	C0.4,40.6,0.4,39.6,0.4,38.7z"/>
<path class="st0" d="M22,0.4c1.7,0.4,3.4,1,4.9,2c4,2.7,5.9,7.6,4.7,12.4c-1.1,4.7-5,8.3-9.8,8.9c-6.2,0.8-11.9-3.3-13.1-9.4
	C7.5,8.1,11.3,2.1,17.4,0.6c0.3-0.1,0.6-0.2,1-0.2C19.6,0.4,20.8,0.4,22,0.4z"/>
<path class="st1" d="M23,26c-1,0.1-2,0.2-3,0.2s-2-0.1-3-0.2v3.5h1.1l-1,9.5l2.9,2l2.9-2l-1-9.5H23V26z"/>
</svg>
