<svg width="34" height="34" viewBox="0 0 34 34" fill="none" xmlns="http://www.w3.org/2000/svg">
<g clip-path="url(#clip0)">
<path d="M28.9173 13.0577H20.5029C19.5824 13.0577 18.8363 12.3115 18.8363 11.3911V10.4078V1.91656C18.8362 0.996192 18.09 0.25 17.1696 0.25H5.0705C3.77024 0.25 2.71622 1.30402 2.71622 2.60434V31.1957C2.71622 32.4959 3.77024 33.5501 5.0705 33.5501H28.2297C29.5299 33.5501 30.5839 32.496 30.5839 31.1959V14.7242C30.5839 13.8039 29.8377 13.0577 28.9173 13.0577ZM9.12008 5.46138H13.3183C14.0341 5.46138 14.6519 6.01128 14.6834 6.72632C14.7169 7.48532 14.1114 8.11119 13.3598 8.11119H9.16158C8.44582 8.11119 7.82802 7.56129 7.79647 6.84625C7.76298 6.08731 8.36843 5.46138 9.12008 5.46138ZM24.1359 27.4553H9.16164C8.44589 27.4553 7.82795 26.9054 7.79641 26.1903C7.76291 25.4313 8.36843 24.8055 9.12002 24.8055H24.0944C24.8101 24.8055 25.4279 25.3554 25.4595 26.0704C25.493 26.8293 24.8875 27.4553 24.1359 27.4553ZM24.1359 22.9505H9.16164C8.44589 22.9505 7.82795 22.4006 7.79641 21.6855C7.76291 20.9265 8.36843 20.3006 9.12002 20.3006H24.0944C24.8101 20.3006 25.4279 20.8506 25.4595 21.5655C25.493 22.3246 24.8875 22.9505 24.1359 22.9505ZM24.1359 18.6224H9.16164C8.44589 18.6224 7.82795 18.0725 7.79641 17.3575C7.76291 16.5984 8.36843 15.9725 9.12002 15.9725H24.0944C24.8101 15.9725 25.4279 16.5224 25.4595 17.2375C25.493 17.9965 24.8875 18.6224 24.1359 18.6224Z" fill="#5B94E3"/>
<path d="M29.5962 9.66035L23.5775 1.23417C23.1374 0.61786 22.4226 0.25 21.6653 0.25C21.5663 0.25 21.4861 0.330258 21.4861 0.429247V9.55967C21.4861 10.0281 21.8658 10.4078 22.3341 10.4078H29.2116C29.5961 10.4078 29.8197 9.97326 29.5962 9.66035Z" fill="#5B94E3"/>
</g>
<defs>
<clipPath id="clip0">
<rect x="3.05176e-05" y="0.25" width="33.3" height="33.3" fill="white"/>
</clipPath>
</defs>
</svg>
