<svg width="117" height="94" viewBox="0 0 117 94" fill="none" xmlns="http://www.w3.org/2000/svg">
<path d="M0 25.3516V93.8004H116.617V25.3516H0ZM13.6767 83.5332V49.3137H73.3062V83.5332H13.6767ZM102.943 63.0042V69.8436H80.1472V63.0042H102.943ZM80.1472 56.1531V49.3137H102.943V56.1531H80.1472ZM102.943 76.6938V83.5332H80.1472V76.6938H102.943ZM13.674 35.6241H102.943V42.4636H13.674V35.6241Z" fill="#315CD5"/>
<path d="M116.618 17.746V0.000159224L0.000976562 0V17.746H116.618ZM20.5133 11.9377H13.675V5.67671H20.5133V11.9377ZM34.1909 11.9377H27.3526V5.67671H34.1909V11.9377ZM47.8676 11.9377H41.0292V5.67671H47.8676V11.9377Z" fill="#315CD5"/>
<path d="M20.2812 55.7725H65.9138V76.0536H20.2812V55.7725Z" fill="#315CD5"/>
</svg>
