<svg width="28" height="28" viewBox="0 0 28 28" fill="none" xmlns="http://www.w3.org/2000/svg">
<rect width="28" height="28" rx="5" fill="#315CD5"/>
<g clip-path="url(#clip0_347_197)">
<path d="M14 8.63516C10.5609 8.63516 7.44216 10.5167 5.14084 13.5729C4.95305 13.8233 4.95305 14.1731 5.14084 14.4234C7.44216 17.4833 10.5609 19.3648 14 19.3648C17.4391 19.3648 20.5578 17.4833 22.8592 14.4271C23.0469 14.1767 23.0469 13.8269 22.8592 13.5766C20.5578 10.5167 17.4391 8.63516 14 8.63516ZM14.2467 17.7778C11.9638 17.9214 10.0786 16.0399 10.2222 13.7533C10.34 11.8681 11.8681 10.34 13.7533 10.2222C16.0362 10.0785 17.9214 11.9601 17.7778 14.2467C17.6563 16.1283 16.1283 17.6563 14.2467 17.7778ZM14.1326 16.0325C12.9027 16.1098 11.8865 15.0973 11.9675 13.8674C12.0301 12.8512 12.8549 12.0301 13.8711 11.9638C15.101 11.8865 16.1172 12.899 16.0362 14.1289C15.9699 15.1488 15.1451 15.9699 14.1326 16.0325Z" fill="white"/>
</g>
<defs>
<clipPath id="clip0_347_197">
<rect width="18" height="18" fill="white" transform="translate(5 5)"/>
</clipPath>
</defs>
</svg>
