<svg width="28" height="28" viewBox="0 0 28 28" fill="none" xmlns="http://www.w3.org/2000/svg">
<rect width="28" height="28" rx="5" fill="#315CD5"/>
<g clip-path="url(#clip0_347_202)">
<path d="M16.8617 14.5648V16.8242C16.8617 18.0513 17.8546 19.046 19.0836 19.046C20.3108 19.046 21.3055 18.0531 21.3055 16.8242V14.5648C21.3055 13.3377 20.3126 12.343 19.0836 12.343C17.8563 12.343 16.8617 13.3359 16.8617 14.5648Z" fill="white"/>
<path d="M22.4727 15.732C22.1814 15.732 21.9453 15.9682 21.9453 16.2593V16.8242C21.9453 18.4044 20.6668 19.686 19.0836 19.686C17.5034 19.686 16.2218 18.4074 16.2218 16.8242V16.2593C16.2218 15.9682 15.9858 15.732 15.6945 15.732C15.4032 15.732 15.1672 15.9682 15.1672 16.2593V16.8242C15.1672 18.8167 16.6492 20.4503 18.5563 20.7054V21.9453H17.389C17.0979 21.9453 16.8617 22.1814 16.8617 22.4727C16.8617 22.7639 17.0979 23 17.389 23H20.7782C21.0694 23 21.3055 22.7639 21.3055 22.4727C21.3055 22.1814 21.0694 21.9453 20.7782 21.9453H19.611V20.7054C21.5155 20.4506 23 18.8189 23 16.8242V16.2593C23 15.9681 22.7639 15.732 22.4727 15.732Z" fill="white"/>
<path d="M15.6945 14.6773C15.7324 14.6773 15.7698 14.6792 15.807 14.6818V14.5648C15.807 12.7581 17.2769 11.2883 19.0836 11.2883C20.2592 11.2883 21.2922 11.9108 21.8703 12.8434V8.06917C21.8703 6.35475 20.4741 5 18.8012 5H8.06917C6.39719 5 5 6.35393 5 8.06917V20.2133C5 20.6543 5.51704 20.9085 5.8649 20.6184L9.10738 17.9164H14.2337C14.1538 17.5607 14.1125 17.1946 14.1125 16.8243V16.2595C14.1125 15.387 14.8222 14.6773 15.6945 14.6773ZM8.35152 8.38901H18.5187C18.81 8.38901 19.046 8.62508 19.046 8.91635C19.046 9.20763 18.81 9.4437 18.5187 9.4437H8.35152C8.06038 9.4437 7.82417 9.20763 7.82417 8.91635C7.82417 8.62508 8.06038 8.38901 8.35152 8.38901ZM12.9078 15.0922H8.35152C8.06038 15.0922 7.82417 14.8561 7.82417 14.5648C7.82417 14.2736 8.06038 14.0375 8.35152 14.0375H12.9078C13.1991 14.0375 13.4352 14.2736 13.4352 14.5648C13.4352 14.8561 13.1991 15.0922 12.9078 15.0922ZM8.35152 12.2679C8.06038 12.2679 7.82417 12.0318 7.82417 11.7405C7.82417 11.4494 8.06038 11.2132 8.35152 11.2132H15.1297C15.4209 11.2132 15.657 11.4494 15.657 11.7405C15.657 12.0318 15.4209 12.2679 15.1297 12.2679H8.35152Z" fill="white"/>
</g>
<defs>
<clipPath id="clip0_347_202">
<rect width="18" height="18" fill="white" transform="translate(5 5)"/>
</clipPath>
</defs>
</svg>
