<svg width="532" height="233" viewBox="0 0 532 233" fill="none" xmlns="http://www.w3.org/2000/svg">
<rect width="532" height="233" rx="5" fill="#292C35"/>
<path d="M24.2433 46V43.58H28.0033V34.22H27.8233L24.9833 37.94L23.0633 36.44L26.4033 32.04H31.0033V43.58H33.9633V46H24.2433ZM195.714 37.56C196.487 37.56 197.047 37.4133 197.394 37.12C197.754 36.8267 197.934 36.4667 197.934 36.04V35.9C197.934 35.3933 197.761 34.9933 197.414 34.7C197.081 34.3933 196.601 34.24 195.974 34.24C195.401 34.24 194.861 34.3867 194.354 34.68C193.861 34.96 193.441 35.3667 193.094 35.9L191.194 34.14C191.461 33.7933 191.754 33.48 192.074 33.2C192.394 32.9067 192.747 32.66 193.134 32.46C193.521 32.2467 193.954 32.0867 194.434 31.98C194.927 31.86 195.481 31.8 196.094 31.8C196.854 31.8 197.541 31.8867 198.154 32.06C198.767 32.2333 199.287 32.4867 199.714 32.82C200.154 33.14 200.494 33.5267 200.734 33.98C200.974 34.4333 201.094 34.94 201.094 35.5C201.094 35.94 201.021 36.34 200.874 36.7C200.727 37.06 200.527 37.3733 200.274 37.64C200.034 37.9067 199.747 38.1267 199.414 38.3C199.094 38.46 198.747 38.5733 198.374 38.64V38.76C199.227 38.9067 199.934 39.2667 200.494 39.84C201.067 40.4 201.354 41.16 201.354 42.12C201.354 42.7467 201.221 43.3133 200.954 43.82C200.701 44.3267 200.334 44.76 199.854 45.12C199.387 45.48 198.814 45.76 198.134 45.96C197.467 46.1467 196.721 46.24 195.894 46.24C195.187 46.24 194.561 46.1667 194.014 46.02C193.481 45.8733 193.007 45.68 192.594 45.44C192.181 45.1867 191.821 44.9 191.514 44.58C191.221 44.2467 190.961 43.9067 190.734 43.56L192.954 41.84C193.261 42.4133 193.641 42.8867 194.094 43.26C194.561 43.62 195.181 43.8 195.954 43.8C196.674 43.8 197.227 43.6333 197.614 43.3C198.001 42.9667 198.194 42.5067 198.194 41.92V41.78C198.194 41.2067 197.974 40.78 197.534 40.5C197.094 40.2067 196.481 40.06 195.694 40.06H194.394V37.56H195.714ZM267.667 37.56C268.44 37.56 269 37.4133 269.347 37.12C269.707 36.8267 269.887 36.4667 269.887 36.04V35.9C269.887 35.3933 269.714 34.9933 269.367 34.7C269.034 34.3933 268.554 34.24 267.927 34.24C267.354 34.24 266.814 34.3867 266.307 34.68C265.814 34.96 265.394 35.3667 265.047 35.9L263.147 34.14C263.414 33.7933 263.707 33.48 264.027 33.2C264.347 32.9067 264.7 32.66 265.087 32.46C265.474 32.2467 265.907 32.0867 266.387 31.98C266.88 31.86 267.434 31.8 268.047 31.8C268.807 31.8 269.494 31.8867 270.107 32.06C270.72 32.2333 271.24 32.4867 271.667 32.82C272.107 33.14 272.447 33.5267 272.687 33.98C272.927 34.4333 273.047 34.94 273.047 35.5C273.047 35.94 272.974 36.34 272.827 36.7C272.68 37.06 272.48 37.3733 272.227 37.64C271.987 37.9067 271.7 38.1267 271.367 38.3C271.047 38.46 270.7 38.5733 270.327 38.64V38.76C271.18 38.9067 271.887 39.2667 272.447 39.84C273.02 40.4 273.307 41.16 273.307 42.12C273.307 42.7467 273.174 43.3133 272.907 43.82C272.654 44.3267 272.287 44.76 271.807 45.12C271.34 45.48 270.767 45.76 270.087 45.96C269.42 46.1467 268.674 46.24 267.847 46.24C267.14 46.24 266.514 46.1667 265.967 46.02C265.434 45.8733 264.96 45.68 264.547 45.44C264.134 45.1867 263.774 44.9 263.467 44.58C263.174 44.2467 262.914 43.9067 262.687 43.56L264.907 41.84C265.214 42.4133 265.594 42.8867 266.047 43.26C266.514 43.62 267.134 43.8 267.907 43.8C268.627 43.8 269.18 43.6333 269.567 43.3C269.954 42.9667 270.147 42.5067 270.147 41.92V41.78C270.147 41.2067 269.927 40.78 269.487 40.5C269.047 40.2067 268.434 40.06 267.647 40.06H266.347V37.56H267.667ZM333.268 46H323.228V43.26L327.628 39.6C328.388 38.9467 328.935 38.38 329.268 37.9C329.601 37.42 329.768 36.9133 329.768 36.38V36.18C329.768 35.5933 329.595 35.1533 329.248 34.86C328.901 34.5533 328.435 34.4 327.848 34.4C327.181 34.4 326.668 34.5933 326.308 34.98C325.948 35.3667 325.695 35.8267 325.548 36.36L322.928 35.36C323.088 34.88 323.308 34.4267 323.588 34C323.868 33.56 324.221 33.18 324.648 32.86C325.088 32.54 325.595 32.2867 326.168 32.1C326.741 31.9 327.401 31.8 328.148 31.8C328.908 31.8 329.588 31.9067 330.188 32.12C330.788 32.3333 331.295 32.6267 331.708 33C332.121 33.3733 332.435 33.82 332.648 34.34C332.861 34.8467 332.968 35.4 332.968 36C332.968 36.5867 332.868 37.1267 332.668 37.62C332.481 38.1 332.215 38.5533 331.868 38.98C331.535 39.4067 331.135 39.82 330.668 40.22C330.215 40.62 329.728 41.02 329.208 41.42L326.548 43.48H333.268V46ZM407.993 46V43.58H411.753V34.22H411.573L408.733 37.94L406.813 36.44L410.153 32.04H414.753V43.58H417.713V46H407.993ZM48.8566 88.76L42.4366 70.8H45.0966L51.5166 88.76H48.8566ZM174.351 88.76L180.771 70.8H183.431L177.011 88.76H174.351ZM246.304 88.76L252.724 70.8H255.384L248.964 88.76H246.304ZM306.265 88.76L312.685 70.8H315.345L308.925 88.76H306.265ZM348.661 88.76L342.241 70.8H344.901L351.321 88.76H348.661ZM432.607 88.76L426.187 70.8H428.847L435.267 88.76H432.607ZM58.4288 117.56C59.2021 117.56 59.7621 117.413 60.1088 117.12C60.4688 116.827 60.6488 116.467 60.6488 116.04V115.9C60.6488 115.393 60.4754 114.993 60.1288 114.7C59.7954 114.393 59.3154 114.24 58.6888 114.24C58.1154 114.24 57.5754 114.387 57.0688 114.68C56.5754 114.96 56.1554 115.367 55.8088 115.9L53.9088 114.14C54.1754 113.793 54.4688 113.48 54.7888 113.2C55.1088 112.907 55.4621 112.66 55.8488 112.46C56.2354 112.247 56.6688 112.087 57.1488 111.98C57.6421 111.86 58.1954 111.8 58.8088 111.8C59.5688 111.8 60.2554 111.887 60.8688 112.06C61.4821 112.233 62.0021 112.487 62.4288 112.82C62.8688 113.14 63.2088 113.527 63.4488 113.98C63.6888 114.433 63.8088 114.94 63.8088 115.5C63.8088 115.94 63.7354 116.34 63.5888 116.7C63.4421 117.06 63.2421 117.373 62.9888 117.64C62.7488 117.907 62.4621 118.127 62.1288 118.3C61.8088 118.46 61.4621 118.573 61.0888 118.64V118.76C61.9421 118.907 62.6488 119.267 63.2088 119.84C63.7821 120.4 64.0688 121.16 64.0688 122.12C64.0688 122.747 63.9354 123.313 63.6688 123.82C63.4154 124.327 63.0488 124.76 62.5688 125.12C62.1021 125.48 61.5288 125.76 60.8488 125.96C60.1821 126.147 59.4354 126.24 58.6088 126.24C57.9021 126.24 57.2754 126.167 56.7288 126.02C56.1954 125.873 55.7221 125.68 55.3088 125.44C54.8954 125.187 54.5354 124.9 54.2288 124.58C53.9354 124.247 53.6754 123.907 53.4488 123.56L55.6688 121.84C55.9754 122.413 56.3554 122.887 56.8088 123.26C57.2754 123.62 57.8954 123.8 58.6688 123.8C59.3888 123.8 59.9421 123.633 60.3288 123.3C60.7154 122.967 60.9088 122.507 60.9088 121.92V121.78C60.9088 121.207 60.6888 120.78 60.2488 120.5C59.8088 120.207 59.1954 120.06 58.4088 120.06H57.1088V117.56H58.4288ZM160.006 126H149.966V123.26L154.366 119.6C155.126 118.947 155.673 118.38 156.006 117.9C156.34 117.42 156.506 116.913 156.506 116.38V116.18C156.506 115.593 156.333 115.153 155.986 114.86C155.64 114.553 155.173 114.4 154.586 114.4C153.92 114.4 153.406 114.593 153.046 114.98C152.686 115.367 152.433 115.827 152.286 116.36L149.666 115.36C149.826 114.88 150.046 114.427 150.326 114C150.606 113.56 150.96 113.18 151.386 112.86C151.826 112.54 152.333 112.287 152.906 112.1C153.48 111.9 154.14 111.8 154.886 111.8C155.646 111.8 156.326 111.907 156.926 112.12C157.526 112.333 158.033 112.627 158.446 113C158.86 113.373 159.173 113.82 159.386 114.34C159.6 114.847 159.706 115.4 159.706 116C159.706 116.587 159.606 117.127 159.406 117.62C159.22 118.1 158.953 118.553 158.606 118.98C158.273 119.407 157.873 119.82 157.406 120.22C156.953 120.62 156.466 121.02 155.946 121.42L153.286 123.48H160.006V126ZM222.739 126V123.58H226.499V114.22H226.319L223.479 117.94L221.559 116.44L224.899 112.04H229.499V123.58H232.459V126H222.739ZM282.7 126V123.58H286.46V114.22H286.28L283.44 117.94L281.52 116.44L284.86 112.04H289.46V123.58H292.42V126H282.7ZM370.226 117.56C370.999 117.56 371.559 117.413 371.906 117.12C372.266 116.827 372.446 116.467 372.446 116.04V115.9C372.446 115.393 372.272 114.993 371.926 114.7C371.592 114.393 371.112 114.24 370.486 114.24C369.912 114.24 369.372 114.387 368.866 114.68C368.372 114.96 367.952 115.367 367.606 115.9L365.706 114.14C365.972 113.793 366.266 113.48 366.586 113.2C366.906 112.907 367.259 112.66 367.646 112.46C368.032 112.247 368.466 112.087 368.946 111.98C369.439 111.86 369.992 111.8 370.606 111.8C371.366 111.8 372.052 111.887 372.666 112.06C373.279 112.233 373.799 112.487 374.226 112.82C374.666 113.14 375.006 113.527 375.246 113.98C375.486 114.433 375.606 114.94 375.606 115.5C375.606 115.94 375.532 116.34 375.386 116.7C375.239 117.06 375.039 117.373 374.786 117.64C374.546 117.907 374.259 118.127 373.926 118.3C373.606 118.46 373.259 118.573 372.886 118.64V118.76C373.739 118.907 374.446 119.267 375.006 119.84C375.579 120.4 375.866 121.16 375.866 122.12C375.866 122.747 375.732 123.313 375.466 123.82C375.212 124.327 374.846 124.76 374.366 125.12C373.899 125.48 373.326 125.76 372.646 125.96C371.979 126.147 371.232 126.24 370.406 126.24C369.699 126.24 369.072 126.167 368.526 126.02C367.992 125.873 367.519 125.68 367.106 125.44C366.692 125.187 366.332 124.9 366.026 124.58C365.732 124.247 365.472 123.907 365.246 123.56L367.466 121.84C367.772 122.413 368.152 122.887 368.606 123.26C369.072 123.62 369.692 123.8 370.466 123.8C371.186 123.8 371.739 123.633 372.126 123.3C372.512 122.967 372.706 122.507 372.706 121.92V121.78C372.706 121.207 372.486 120.78 372.046 120.5C371.606 120.207 370.992 120.06 370.206 120.06H368.906V117.56H370.226ZM459.811 126H449.771V123.26L454.171 119.6C454.931 118.947 455.478 118.38 455.811 117.9C456.144 117.42 456.311 116.913 456.311 116.38V116.18C456.311 115.593 456.138 115.153 455.791 114.86C455.444 114.553 454.978 114.4 454.391 114.4C453.724 114.4 453.211 114.593 452.851 114.98C452.491 115.367 452.238 115.827 452.091 116.36L449.471 115.36C449.631 114.88 449.851 114.427 450.131 114C450.411 113.56 450.764 113.18 451.191 112.86C451.631 112.54 452.138 112.287 452.711 112.1C453.284 111.9 453.944 111.8 454.691 111.8C455.451 111.8 456.131 111.907 456.731 112.12C457.331 112.333 457.838 112.627 458.251 113C458.664 113.373 458.978 113.82 459.191 114.34C459.404 114.847 459.511 115.4 459.511 116C459.511 116.587 459.411 117.127 459.211 117.62C459.024 118.1 458.758 118.553 458.411 118.98C458.078 119.407 457.678 119.82 457.211 120.22C456.758 120.62 456.271 121.02 455.751 121.42L453.091 123.48H459.811V126ZM42.4366 168.76L48.8566 150.8H51.5166L45.0966 168.76H42.4366ZM126.382 168.76L132.802 150.8H135.462L129.042 168.76H126.382ZM240.732 168.76L234.312 150.8H236.972L243.392 168.76H240.732ZM480.575 168.76L474.155 150.8H476.815L483.235 168.76H480.575ZM40.0844 206H30.0444V203.26L34.4444 199.6C35.2044 198.947 35.751 198.38 36.0844 197.9C36.4177 197.42 36.5844 196.913 36.5844 196.38V196.18C36.5844 195.593 36.411 195.153 36.0644 194.86C35.7177 194.553 35.251 194.4 34.6644 194.4C33.9977 194.4 33.4844 194.593 33.1244 194.98C32.7644 195.367 32.511 195.827 32.3644 196.36L29.7444 195.36C29.9044 194.88 30.1244 194.427 30.4044 194C30.6844 193.56 31.0377 193.18 31.4644 192.86C31.9044 192.54 32.411 192.287 32.9844 192.1C33.5577 191.9 34.2177 191.8 34.9644 191.8C35.7244 191.8 36.4044 191.907 37.0044 192.12C37.6044 192.333 38.111 192.627 38.5244 193C38.9377 193.373 39.251 193.82 39.4644 194.34C39.6777 194.847 39.7844 195.4 39.7844 196C39.7844 196.587 39.6844 197.127 39.4844 197.62C39.2977 198.1 39.031 198.553 38.6844 198.98C38.351 199.407 37.951 199.82 37.4844 200.22C37.031 200.62 36.5444 201.02 36.0244 201.42L33.3644 203.48H40.0844V206ZM102.818 206V203.58H106.578V194.22H106.398L103.558 197.94L101.638 196.44L104.978 192.04H109.578V203.58H112.538V206H102.818ZM255.944 206H245.904V203.26L250.304 199.6C251.064 198.947 251.61 198.38 251.944 197.9C252.277 197.42 252.444 196.913 252.444 196.38V196.18C252.444 195.593 252.27 195.153 251.924 194.86C251.577 194.553 251.11 194.4 250.524 194.4C249.857 194.4 249.344 194.593 248.984 194.98C248.624 195.367 248.37 195.827 248.224 196.36L245.604 195.36C245.764 194.88 245.984 194.427 246.264 194C246.544 193.56 246.897 193.18 247.324 192.86C247.764 192.54 248.27 192.287 248.844 192.1C249.417 191.9 250.077 191.8 250.824 191.8C251.584 191.8 252.264 191.907 252.864 192.12C253.464 192.333 253.97 192.627 254.384 193C254.797 193.373 255.11 193.82 255.324 194.34C255.537 194.847 255.644 195.4 255.644 196C255.644 196.587 255.544 197.127 255.344 197.62C255.157 198.1 254.89 198.553 254.544 198.98C254.21 199.407 253.81 199.82 253.344 200.22C252.89 200.62 252.404 201.02 251.884 201.42L249.224 203.48H255.944V206ZM502.14 197.56C502.913 197.56 503.473 197.413 503.82 197.12C504.18 196.827 504.36 196.467 504.36 196.04V195.9C504.36 195.393 504.186 194.993 503.84 194.7C503.506 194.393 503.026 194.24 502.4 194.24C501.826 194.24 501.286 194.387 500.78 194.68C500.286 194.96 499.866 195.367 499.52 195.9L497.62 194.14C497.886 193.793 498.18 193.48 498.5 193.2C498.82 192.907 499.173 192.66 499.56 192.46C499.946 192.247 500.38 192.087 500.86 191.98C501.353 191.86 501.906 191.8 502.52 191.8C503.28 191.8 503.966 191.887 504.58 192.06C505.193 192.233 505.713 192.487 506.14 192.82C506.58 193.14 506.92 193.527 507.16 193.98C507.4 194.433 507.52 194.94 507.52 195.5C507.52 195.94 507.446 196.34 507.3 196.7C507.153 197.06 506.953 197.373 506.7 197.64C506.46 197.907 506.173 198.127 505.84 198.3C505.52 198.46 505.173 198.573 504.8 198.64V198.76C505.653 198.907 506.36 199.267 506.92 199.84C507.493 200.4 507.78 201.16 507.78 202.12C507.78 202.747 507.646 203.313 507.38 203.82C507.126 204.327 506.76 204.76 506.28 205.12C505.813 205.48 505.24 205.76 504.56 205.96C503.893 206.147 503.146 206.24 502.32 206.24C501.613 206.24 500.986 206.167 500.44 206.02C499.906 205.873 499.433 205.68 499.02 205.44C498.606 205.187 498.246 204.9 497.94 204.58C497.646 204.247 497.386 203.907 497.16 203.56L499.38 201.84C499.686 202.413 500.066 202.887 500.52 203.26C500.986 203.62 501.606 203.8 502.38 203.8C503.1 203.8 503.653 203.633 504.04 203.3C504.426 202.967 504.62 202.507 504.62 201.92V201.78C504.62 201.207 504.4 200.78 503.96 200.5C503.52 200.207 502.906 200.06 502.12 200.06H500.82V197.56H502.14Z" fill="#E0E0E0"/>
</svg>
