<svg width="813" height="700" viewBox="0 0 813 700" fill="none" xmlns="http://www.w3.org/2000/svg">
<rect width="813" height="700" rx="5" fill="#292C35"/>
<path d="M35.2433 500V497.58H39.0033V488.22H38.8233L35.9833 491.94L34.0633 490.44L37.4033 486.04H42.0033V497.58H44.9633V500H35.2433ZM206.714 491.56C207.487 491.56 208.047 491.413 208.394 491.12C208.754 490.827 208.934 490.467 208.934 490.04V489.9C208.934 489.393 208.761 488.993 208.414 488.7C208.081 488.393 207.601 488.24 206.974 488.24C206.401 488.24 205.861 488.387 205.354 488.68C204.861 488.96 204.441 489.367 204.094 489.9L202.194 488.14C202.461 487.793 202.754 487.48 203.074 487.2C203.394 486.907 203.747 486.66 204.134 486.46C204.521 486.247 204.954 486.087 205.434 485.98C205.927 485.86 206.481 485.8 207.094 485.8C207.854 485.8 208.541 485.887 209.154 486.06C209.767 486.233 210.287 486.487 210.714 486.82C211.154 487.14 211.494 487.527 211.734 487.98C211.974 488.433 212.094 488.94 212.094 489.5C212.094 489.94 212.021 490.34 211.874 490.7C211.727 491.06 211.527 491.373 211.274 491.64C211.034 491.907 210.747 492.127 210.414 492.3C210.094 492.46 209.747 492.573 209.374 492.64V492.76C210.227 492.907 210.934 493.267 211.494 493.84C212.067 494.4 212.354 495.16 212.354 496.12C212.354 496.747 212.221 497.313 211.954 497.82C211.701 498.327 211.334 498.76 210.854 499.12C210.387 499.48 209.814 499.76 209.134 499.96C208.467 500.147 207.721 500.24 206.894 500.24C206.187 500.24 205.561 500.167 205.014 500.02C204.481 499.873 204.007 499.68 203.594 499.44C203.181 499.187 202.821 498.9 202.514 498.58C202.221 498.247 201.961 497.907 201.734 497.56L203.954 495.84C204.261 496.413 204.641 496.887 205.094 497.26C205.561 497.62 206.181 497.8 206.954 497.8C207.674 497.8 208.227 497.633 208.614 497.3C209.001 496.967 209.194 496.507 209.194 495.92V495.78C209.194 495.207 208.974 494.78 208.534 494.5C208.094 494.207 207.481 494.06 206.694 494.06H205.394V491.56H206.714ZM278.667 491.56C279.44 491.56 280 491.413 280.347 491.12C280.707 490.827 280.887 490.467 280.887 490.04V489.9C280.887 489.393 280.714 488.993 280.367 488.7C280.034 488.393 279.554 488.24 278.927 488.24C278.354 488.24 277.814 488.387 277.307 488.68C276.814 488.96 276.394 489.367 276.047 489.9L274.147 488.14C274.414 487.793 274.707 487.48 275.027 487.2C275.347 486.907 275.7 486.66 276.087 486.46C276.474 486.247 276.907 486.087 277.387 485.98C277.88 485.86 278.434 485.8 279.047 485.8C279.807 485.8 280.494 485.887 281.107 486.06C281.72 486.233 282.24 486.487 282.667 486.82C283.107 487.14 283.447 487.527 283.687 487.98C283.927 488.433 284.047 488.94 284.047 489.5C284.047 489.94 283.974 490.34 283.827 490.7C283.68 491.06 283.48 491.373 283.227 491.64C282.987 491.907 282.7 492.127 282.367 492.3C282.047 492.46 281.7 492.573 281.327 492.64V492.76C282.18 492.907 282.887 493.267 283.447 493.84C284.02 494.4 284.307 495.16 284.307 496.12C284.307 496.747 284.174 497.313 283.907 497.82C283.654 498.327 283.287 498.76 282.807 499.12C282.34 499.48 281.767 499.76 281.087 499.96C280.42 500.147 279.674 500.24 278.847 500.24C278.14 500.24 277.514 500.167 276.967 500.02C276.434 499.873 275.96 499.68 275.547 499.44C275.134 499.187 274.774 498.9 274.467 498.58C274.174 498.247 273.914 497.907 273.687 497.56L275.907 495.84C276.214 496.413 276.594 496.887 277.047 497.26C277.514 497.62 278.134 497.8 278.907 497.8C279.627 497.8 280.18 497.633 280.567 497.3C280.954 496.967 281.147 496.507 281.147 495.92V495.78C281.147 495.207 280.927 494.78 280.487 494.5C280.047 494.207 279.434 494.06 278.647 494.06H277.347V491.56H278.667ZM344.268 500H334.228V497.26L338.628 493.6C339.388 492.947 339.935 492.38 340.268 491.9C340.601 491.42 340.768 490.913 340.768 490.38V490.18C340.768 489.593 340.595 489.153 340.248 488.86C339.901 488.553 339.435 488.4 338.848 488.4C338.181 488.4 337.668 488.593 337.308 488.98C336.948 489.367 336.695 489.827 336.548 490.36L333.928 489.36C334.088 488.88 334.308 488.427 334.588 488C334.868 487.56 335.221 487.18 335.648 486.86C336.088 486.54 336.595 486.287 337.168 486.1C337.741 485.9 338.401 485.8 339.148 485.8C339.908 485.8 340.588 485.907 341.188 486.12C341.788 486.333 342.295 486.627 342.708 487C343.121 487.373 343.435 487.82 343.648 488.34C343.861 488.847 343.968 489.4 343.968 490C343.968 490.587 343.868 491.127 343.668 491.62C343.481 492.1 343.215 492.553 342.868 492.98C342.535 493.407 342.135 493.82 341.668 494.22C341.215 494.62 340.728 495.02 340.208 495.42L337.548 497.48H344.268V500ZM418.993 500V497.58H422.753V488.22H422.573L419.733 491.94L417.813 490.44L421.153 486.04H425.753V497.58H428.713V500H418.993ZM59.8566 542.76L53.4366 524.8H56.0966L62.5166 542.76H59.8566ZM185.351 542.76L191.771 524.8H194.431L188.011 542.76H185.351ZM257.304 542.76L263.724 524.8H266.384L259.964 542.76H257.304ZM317.265 542.76L323.685 524.8H326.345L319.925 542.76H317.265ZM359.661 542.76L353.241 524.8H355.901L362.321 542.76H359.661ZM443.607 542.76L437.187 524.8H439.847L446.267 542.76H443.607ZM69.4288 571.56C70.2021 571.56 70.7621 571.413 71.1088 571.12C71.4688 570.827 71.6488 570.467 71.6488 570.04V569.9C71.6488 569.393 71.4754 568.993 71.1288 568.7C70.7954 568.393 70.3154 568.24 69.6888 568.24C69.1154 568.24 68.5754 568.387 68.0688 568.68C67.5754 568.96 67.1554 569.367 66.8088 569.9L64.9088 568.14C65.1754 567.793 65.4688 567.48 65.7888 567.2C66.1088 566.907 66.4621 566.66 66.8488 566.46C67.2354 566.247 67.6688 566.087 68.1488 565.98C68.6421 565.86 69.1954 565.8 69.8088 565.8C70.5688 565.8 71.2554 565.887 71.8688 566.06C72.4821 566.233 73.0021 566.487 73.4288 566.82C73.8688 567.14 74.2088 567.527 74.4488 567.98C74.6888 568.433 74.8088 568.94 74.8088 569.5C74.8088 569.94 74.7354 570.34 74.5888 570.7C74.4421 571.06 74.2421 571.373 73.9888 571.64C73.7488 571.907 73.4621 572.127 73.1288 572.3C72.8088 572.46 72.4621 572.573 72.0888 572.64V572.76C72.9421 572.907 73.6488 573.267 74.2088 573.84C74.7821 574.4 75.0688 575.16 75.0688 576.12C75.0688 576.747 74.9354 577.313 74.6688 577.82C74.4154 578.327 74.0488 578.76 73.5688 579.12C73.1021 579.48 72.5288 579.76 71.8488 579.96C71.1821 580.147 70.4354 580.24 69.6088 580.24C68.9021 580.24 68.2754 580.167 67.7288 580.02C67.1954 579.873 66.7221 579.68 66.3088 579.44C65.8954 579.187 65.5354 578.9 65.2288 578.58C64.9354 578.247 64.6754 577.907 64.4488 577.56L66.6688 575.84C66.9754 576.413 67.3554 576.887 67.8088 577.26C68.2754 577.62 68.8954 577.8 69.6688 577.8C70.3888 577.8 70.9421 577.633 71.3288 577.3C71.7154 576.967 71.9088 576.507 71.9088 575.92V575.78C71.9088 575.207 71.6888 574.78 71.2488 574.5C70.8088 574.207 70.1954 574.06 69.4088 574.06H68.1088V571.56H69.4288ZM171.006 580H160.966V577.26L165.366 573.6C166.126 572.947 166.673 572.38 167.006 571.9C167.34 571.42 167.506 570.913 167.506 570.38V570.18C167.506 569.593 167.333 569.153 166.986 568.86C166.64 568.553 166.173 568.4 165.586 568.4C164.92 568.4 164.406 568.593 164.046 568.98C163.686 569.367 163.433 569.827 163.286 570.36L160.666 569.36C160.826 568.88 161.046 568.427 161.326 568C161.606 567.56 161.96 567.18 162.386 566.86C162.826 566.54 163.333 566.287 163.906 566.1C164.48 565.9 165.14 565.8 165.886 565.8C166.646 565.8 167.326 565.907 167.926 566.12C168.526 566.333 169.033 566.627 169.446 567C169.86 567.373 170.173 567.82 170.386 568.34C170.6 568.847 170.706 569.4 170.706 570C170.706 570.587 170.606 571.127 170.406 571.62C170.22 572.1 169.953 572.553 169.606 572.98C169.273 573.407 168.873 573.82 168.406 574.22C167.953 574.62 167.466 575.02 166.946 575.42L164.286 577.48H171.006V580ZM233.739 580V577.58H237.499V568.22H237.319L234.479 571.94L232.559 570.44L235.899 566.04H240.499V577.58H243.459V580H233.739ZM293.7 580V577.58H297.46V568.22H297.28L294.44 571.94L292.52 570.44L295.86 566.04H300.46V577.58H303.42V580H293.7ZM381.226 571.56C381.999 571.56 382.559 571.413 382.906 571.12C383.266 570.827 383.446 570.467 383.446 570.04V569.9C383.446 569.393 383.272 568.993 382.926 568.7C382.592 568.393 382.112 568.24 381.486 568.24C380.912 568.24 380.372 568.387 379.866 568.68C379.372 568.96 378.952 569.367 378.606 569.9L376.706 568.14C376.972 567.793 377.266 567.48 377.586 567.2C377.906 566.907 378.259 566.66 378.646 566.46C379.032 566.247 379.466 566.087 379.946 565.98C380.439 565.86 380.992 565.8 381.606 565.8C382.366 565.8 383.052 565.887 383.666 566.06C384.279 566.233 384.799 566.487 385.226 566.82C385.666 567.14 386.006 567.527 386.246 567.98C386.486 568.433 386.606 568.94 386.606 569.5C386.606 569.94 386.532 570.34 386.386 570.7C386.239 571.06 386.039 571.373 385.786 571.64C385.546 571.907 385.259 572.127 384.926 572.3C384.606 572.46 384.259 572.573 383.886 572.64V572.76C384.739 572.907 385.446 573.267 386.006 573.84C386.579 574.4 386.866 575.16 386.866 576.12C386.866 576.747 386.732 577.313 386.466 577.82C386.212 578.327 385.846 578.76 385.366 579.12C384.899 579.48 384.326 579.76 383.646 579.96C382.979 580.147 382.232 580.24 381.406 580.24C380.699 580.24 380.072 580.167 379.526 580.02C378.992 579.873 378.519 579.68 378.106 579.44C377.692 579.187 377.332 578.9 377.026 578.58C376.732 578.247 376.472 577.907 376.246 577.56L378.466 575.84C378.772 576.413 379.152 576.887 379.606 577.26C380.072 577.62 380.692 577.8 381.466 577.8C382.186 577.8 382.739 577.633 383.126 577.3C383.512 576.967 383.706 576.507 383.706 575.92V575.78C383.706 575.207 383.486 574.78 383.046 574.5C382.606 574.207 381.992 574.06 381.206 574.06H379.906V571.56H381.226ZM470.811 580H460.771V577.26L465.171 573.6C465.931 572.947 466.478 572.38 466.811 571.9C467.144 571.42 467.311 570.913 467.311 570.38V570.18C467.311 569.593 467.138 569.153 466.791 568.86C466.444 568.553 465.978 568.4 465.391 568.4C464.724 568.4 464.211 568.593 463.851 568.98C463.491 569.367 463.238 569.827 463.091 570.36L460.471 569.36C460.631 568.88 460.851 568.427 461.131 568C461.411 567.56 461.764 567.18 462.191 566.86C462.631 566.54 463.138 566.287 463.711 566.1C464.284 565.9 464.944 565.8 465.691 565.8C466.451 565.8 467.131 565.907 467.731 566.12C468.331 566.333 468.838 566.627 469.251 567C469.664 567.373 469.978 567.82 470.191 568.34C470.404 568.847 470.511 569.4 470.511 570C470.511 570.587 470.411 571.127 470.211 571.62C470.024 572.1 469.758 572.553 469.411 572.98C469.078 573.407 468.678 573.82 468.211 574.22C467.758 574.62 467.271 575.02 466.751 575.42L464.091 577.48H470.811V580ZM53.4366 622.76L59.8566 604.8H62.5166L56.0966 622.76H53.4366ZM137.382 622.76L143.802 604.8H146.462L140.042 622.76H137.382ZM251.732 622.76L245.312 604.8H247.972L254.392 622.76H251.732ZM491.575 622.76L485.155 604.8H487.815L494.235 622.76H491.575ZM51.0844 660H41.0444V657.26L45.4444 653.6C46.2044 652.947 46.751 652.38 47.0844 651.9C47.4177 651.42 47.5844 650.913 47.5844 650.38V650.18C47.5844 649.593 47.411 649.153 47.0644 648.86C46.7177 648.553 46.251 648.4 45.6644 648.4C44.9977 648.4 44.4844 648.593 44.1244 648.98C43.7644 649.367 43.511 649.827 43.3644 650.36L40.7444 649.36C40.9044 648.88 41.1244 648.427 41.4044 648C41.6844 647.56 42.0377 647.18 42.4644 646.86C42.9044 646.54 43.411 646.287 43.9844 646.1C44.5577 645.9 45.2177 645.8 45.9644 645.8C46.7244 645.8 47.4044 645.907 48.0044 646.12C48.6044 646.333 49.111 646.627 49.5244 647C49.9377 647.373 50.251 647.82 50.4644 648.34C50.6777 648.847 50.7844 649.4 50.7844 650C50.7844 650.587 50.6844 651.127 50.4844 651.62C50.2977 652.1 50.031 652.553 49.6844 652.98C49.351 653.407 48.951 653.82 48.4844 654.22C48.031 654.62 47.5444 655.02 47.0244 655.42L44.3644 657.48H51.0844V660ZM113.818 660V657.58H117.578V648.22H117.398L114.558 651.94L112.638 650.44L115.978 646.04H120.578V657.58H123.538V660H113.818ZM266.944 660H256.904V657.26L261.304 653.6C262.064 652.947 262.61 652.38 262.944 651.9C263.277 651.42 263.444 650.913 263.444 650.38V650.18C263.444 649.593 263.27 649.153 262.924 648.86C262.577 648.553 262.11 648.4 261.524 648.4C260.857 648.4 260.344 648.593 259.984 648.98C259.624 649.367 259.37 649.827 259.224 650.36L256.604 649.36C256.764 648.88 256.984 648.427 257.264 648C257.544 647.56 257.897 647.18 258.324 646.86C258.764 646.54 259.27 646.287 259.844 646.1C260.417 645.9 261.077 645.8 261.824 645.8C262.584 645.8 263.264 645.907 263.864 646.12C264.464 646.333 264.97 646.627 265.384 647C265.797 647.373 266.11 647.82 266.324 648.34C266.537 648.847 266.644 649.4 266.644 650C266.644 650.587 266.544 651.127 266.344 651.62C266.157 652.1 265.89 652.553 265.544 652.98C265.21 653.407 264.81 653.82 264.344 654.22C263.89 654.62 263.404 655.02 262.884 655.42L260.224 657.48H266.944V660ZM513.14 651.56C513.913 651.56 514.473 651.413 514.82 651.12C515.18 650.827 515.36 650.467 515.36 650.04V649.9C515.36 649.393 515.186 648.993 514.84 648.7C514.506 648.393 514.026 648.24 513.4 648.24C512.826 648.24 512.286 648.387 511.78 648.68C511.286 648.96 510.866 649.367 510.52 649.9L508.62 648.14C508.886 647.793 509.18 647.48 509.5 647.2C509.82 646.907 510.173 646.66 510.56 646.46C510.946 646.247 511.38 646.087 511.86 645.98C512.353 645.86 512.906 645.8 513.52 645.8C514.28 645.8 514.966 645.887 515.58 646.06C516.193 646.233 516.713 646.487 517.14 646.82C517.58 647.14 517.92 647.527 518.16 647.98C518.4 648.433 518.52 648.94 518.52 649.5C518.52 649.94 518.446 650.34 518.3 650.7C518.153 651.06 517.953 651.373 517.7 651.64C517.46 651.907 517.173 652.127 516.84 652.3C516.52 652.46 516.173 652.573 515.8 652.64V652.76C516.653 652.907 517.36 653.267 517.92 653.84C518.493 654.4 518.78 655.16 518.78 656.12C518.78 656.747 518.646 657.313 518.38 657.82C518.126 658.327 517.76 658.76 517.28 659.12C516.813 659.48 516.24 659.76 515.56 659.96C514.893 660.147 514.146 660.24 513.32 660.24C512.613 660.24 511.986 660.167 511.44 660.02C510.906 659.873 510.433 659.68 510.02 659.44C509.606 659.187 509.246 658.9 508.94 658.58C508.646 658.247 508.386 657.907 508.16 657.56L510.38 655.84C510.686 656.413 511.066 656.887 511.52 657.26C511.986 657.62 512.606 657.8 513.38 657.8C514.1 657.8 514.653 657.633 515.04 657.3C515.426 656.967 515.62 656.507 515.62 655.92V655.78C515.62 655.207 515.4 654.78 514.96 654.5C514.52 654.207 513.906 654.06 513.12 654.06H511.82V651.56H513.14Z" fill="#E0E0E0"/>
<path d="M33.5 46V43.78H36.5V34.26H33.5V32.04H42.5V34.26H39.5V43.78H42.5V46H33.5ZM45.2922 46V35.68H48.2522V37.56H48.3722C48.4922 37.2667 48.6389 36.9933 48.8122 36.74C48.9855 36.4867 49.1922 36.2667 49.4322 36.08C49.6855 35.88 49.9722 35.7267 50.2922 35.62C50.6255 35.5 50.9989 35.44 51.4122 35.44C51.9055 35.44 52.3589 35.5267 52.7722 35.7C53.1855 35.86 53.5389 36.1067 53.8322 36.44C54.1255 36.7733 54.3522 37.18 54.5122 37.66C54.6855 38.14 54.7722 38.6933 54.7722 39.32V46H51.8122V39.72C51.8122 38.3867 51.2322 37.72 50.0722 37.72C49.8455 37.72 49.6189 37.7533 49.3922 37.82C49.1789 37.8733 48.9855 37.9667 48.8122 38.1C48.6389 38.22 48.4989 38.3733 48.3922 38.56C48.2989 38.7467 48.2522 38.9667 48.2522 39.22V46H45.2922ZM57.1644 35.68H60.1244V37.56H60.2644C60.5177 36.9467 60.8844 36.44 61.3644 36.04C61.8444 35.64 62.4977 35.44 63.3244 35.44C63.8977 35.44 64.4177 35.5467 64.8844 35.76C65.3644 35.9733 65.771 36.3 66.1044 36.74C66.451 37.18 66.7177 37.74 66.9044 38.42C67.1044 39.1 67.2044 39.9067 67.2044 40.84C67.2044 41.7733 67.1044 42.58 66.9044 43.26C66.7177 43.94 66.451 44.5 66.1044 44.94C65.771 45.38 65.3644 45.7067 64.8844 45.92C64.4177 46.1333 63.8977 46.24 63.3244 46.24C62.4977 46.24 61.8444 46.0467 61.3644 45.66C60.8844 45.26 60.5177 44.7467 60.2644 44.12H60.1244V50H57.1644V35.68ZM62.0444 43.94C62.711 43.94 63.2244 43.74 63.5844 43.34C63.9444 42.9267 64.1244 42.36 64.1244 41.64V40.04C64.1244 39.32 63.9444 38.76 63.5844 38.36C63.2244 37.9467 62.711 37.74 62.0444 37.74C61.5244 37.74 61.071 37.8667 60.6844 38.12C60.311 38.3733 60.1244 38.7733 60.1244 39.32V42.36C60.1244 42.9067 60.311 43.3067 60.6844 43.56C61.071 43.8133 61.5244 43.94 62.0444 43.94ZM75.7166 44.12H75.5966C75.3699 44.7067 75.0099 45.2067 74.5166 45.62C74.0366 46.0333 73.3832 46.24 72.5566 46.24C72.0632 46.24 71.6099 46.16 71.1966 46C70.7832 45.8267 70.4299 45.5733 70.1366 45.24C69.8432 44.9067 69.6099 44.5 69.4366 44.02C69.2766 43.54 69.1966 42.9867 69.1966 42.36V35.68H72.1566V41.96C72.1566 43.2933 72.7366 43.96 73.8966 43.96C74.1232 43.96 74.3432 43.9333 74.5566 43.88C74.7832 43.8133 74.9766 43.72 75.1366 43.6C75.3099 43.4667 75.4499 43.3067 75.5566 43.12C75.6632 42.9333 75.7166 42.7133 75.7166 42.46V35.68H78.6766V46H75.7166V44.12ZM86.7688 46C85.7021 46 84.9088 45.72 84.3888 45.16C83.8688 44.6 83.6088 43.8867 83.6088 43.02V37.98H80.8088V35.68H82.6288C83.0688 35.68 83.3821 35.5933 83.5688 35.42C83.7554 35.2467 83.8488 34.9267 83.8488 34.46V32.04H86.5688V35.68H90.5888V37.98H86.5688V43.7H90.5888V46H86.7688ZM97.9609 46.24C97.2143 46.24 96.6743 46.08 96.3409 45.76C96.0209 45.4267 95.8609 45.0333 95.8609 44.58V43.88C95.8609 43.4267 96.0209 43.04 96.3409 42.72C96.6743 42.3867 97.2143 42.22 97.9609 42.22C98.7076 42.22 99.2409 42.3867 99.5609 42.72C99.8943 43.04 100.061 43.4267 100.061 43.88V44.58C100.061 45.0333 99.8943 45.4267 99.5609 45.76C99.2409 46.08 98.7076 46.24 97.9609 46.24ZM97.9609 39.46C97.2143 39.46 96.6743 39.3 96.3409 38.98C96.0209 38.6467 95.8609 38.2533 95.8609 37.8V37.1C95.8609 36.6467 96.0209 36.26 96.3409 35.94C96.6743 35.6067 97.2143 35.44 97.9609 35.44C98.7076 35.44 99.2409 35.6067 99.5609 35.94C99.8943 36.26 100.061 36.6467 100.061 37.1V37.8C100.061 38.2533 99.8943 38.6467 99.5609 38.98C99.2409 39.3 98.7076 39.46 97.9609 39.46ZM121.345 37.96C122.319 37.96 123.045 37.7467 123.525 37.32C124.019 36.88 124.265 36.32 124.265 35.64V35.5C124.265 34.7533 124.025 34.1933 123.545 33.82C123.079 33.4467 122.465 33.26 121.705 33.26C120.959 33.26 120.352 33.4267 119.885 33.76C119.432 34.08 119.059 34.5067 118.765 35.04L117.505 34.08C117.679 33.8 117.892 33.5267 118.145 33.26C118.399 32.98 118.692 32.7333 119.025 32.52C119.372 32.3067 119.765 32.1333 120.205 32C120.659 31.8667 121.172 31.8 121.745 31.8C122.345 31.8 122.905 31.88 123.425 32.04C123.945 32.1867 124.399 32.4133 124.785 32.72C125.172 33.0133 125.472 33.38 125.685 33.82C125.912 34.26 126.025 34.76 126.025 35.32C126.025 35.7733 125.952 36.18 125.805 36.54C125.672 36.9 125.479 37.2133 125.225 37.48C124.985 37.7467 124.699 37.9733 124.365 38.16C124.032 38.3467 123.679 38.4867 123.305 38.58V38.66C123.692 38.74 124.065 38.8733 124.425 39.06C124.785 39.2333 125.105 39.4667 125.385 39.76C125.665 40.04 125.885 40.3867 126.045 40.8C126.219 41.2 126.305 41.66 126.305 42.18C126.305 42.78 126.185 43.3333 125.945 43.84C125.719 44.3333 125.392 44.76 124.965 45.12C124.552 45.4667 124.045 45.74 123.445 45.94C122.859 46.14 122.205 46.24 121.485 46.24C120.872 46.24 120.325 46.1733 119.845 46.04C119.379 45.9067 118.959 45.7267 118.585 45.5C118.225 45.2733 117.905 45.02 117.625 44.74C117.359 44.46 117.119 44.1667 116.905 43.86L118.165 42.9C118.352 43.18 118.545 43.4333 118.745 43.66C118.945 43.8867 119.172 44.0867 119.425 44.26C119.692 44.42 119.992 44.5467 120.325 44.64C120.659 44.7333 121.045 44.78 121.485 44.78C122.472 44.78 123.225 44.5533 123.745 44.1C124.279 43.6467 124.545 43 124.545 42.16V42C124.545 41.1733 124.285 40.5333 123.765 40.08C123.259 39.6267 122.492 39.4 121.465 39.4H119.805V37.96H121.345ZM38 86.24C36.1333 86.24 34.7533 85.6067 33.86 84.34C32.98 83.0733 32.54 81.3 32.54 79.02C32.54 76.74 32.98 74.9667 33.86 73.7C34.7533 72.4333 36.1333 71.8 38 71.8C39.8667 71.8 41.24 72.4333 42.12 73.7C43.0133 74.9667 43.46 76.74 43.46 79.02C43.46 81.3 43.0133 83.0733 42.12 84.34C41.24 85.6067 39.8667 86.24 38 86.24ZM38 83.82C38.8533 83.82 39.44 83.5067 39.76 82.88C40.0933 82.24 40.26 81.3533 40.26 80.22V77.8C40.26 76.68 40.0933 75.8067 39.76 75.18C39.44 74.54 38.8533 74.22 38 74.22C37.1467 74.22 36.5533 74.54 36.22 75.18C35.9 75.8067 35.74 76.68 35.74 77.8V80.24C35.74 81.36 35.9 82.24 36.22 82.88C36.5533 83.5067 37.1467 83.82 38 83.82ZM51.7322 84.12H51.6122C51.3855 84.7067 51.0255 85.2067 50.5322 85.62C50.0522 86.0333 49.3989 86.24 48.5722 86.24C48.0789 86.24 47.6255 86.16 47.2122 86C46.7989 85.8267 46.4455 85.5733 46.1522 85.24C45.8589 84.9067 45.6255 84.5 45.4522 84.02C45.2922 83.54 45.2122 82.9867 45.2122 82.36V75.68H48.1722V81.96C48.1722 83.2933 48.7522 83.96 49.9122 83.96C50.1389 83.96 50.3589 83.9333 50.5722 83.88C50.7989 83.8133 50.9922 83.72 51.1522 83.6C51.3255 83.4667 51.4655 83.3067 51.5722 83.12C51.6789 82.9333 51.7322 82.7133 51.7322 82.46V75.68H54.6922V86H51.7322V84.12ZM62.7844 86C61.7177 86 60.9244 85.72 60.4044 85.16C59.8844 84.6 59.6244 83.8867 59.6244 83.02V77.98H56.8244V75.68H58.6444C59.0844 75.68 59.3977 75.5933 59.5844 75.42C59.771 75.2467 59.8644 74.9267 59.8644 74.46V72.04H62.5844V75.68H66.6044V77.98H62.5844V83.7H66.6044V86H62.7844ZM69.1566 75.68H72.1166V77.56H72.2566C72.5099 76.9467 72.8766 76.44 73.3566 76.04C73.8366 75.64 74.4899 75.44 75.3166 75.44C75.8899 75.44 76.4099 75.5467 76.8766 75.76C77.3566 75.9733 77.7632 76.3 78.0966 76.74C78.4432 77.18 78.7099 77.74 78.8966 78.42C79.0966 79.1 79.1966 79.9067 79.1966 80.84C79.1966 81.7733 79.0966 82.58 78.8966 83.26C78.7099 83.94 78.4432 84.5 78.0966 84.94C77.7632 85.38 77.3566 85.7067 76.8766 85.92C76.4099 86.1333 75.8899 86.24 75.3166 86.24C74.4899 86.24 73.8366 86.0467 73.3566 85.66C72.8766 85.26 72.5099 84.7467 72.2566 84.12H72.1166V90H69.1566V75.68ZM74.0366 83.94C74.7032 83.94 75.2166 83.74 75.5766 83.34C75.9366 82.9267 76.1166 82.36 76.1166 81.64V80.04C76.1166 79.32 75.9366 78.76 75.5766 78.36C75.2166 77.9467 74.7032 77.74 74.0366 77.74C73.5166 77.74 73.0632 77.8667 72.6766 78.12C72.3032 78.3733 72.1166 78.7733 72.1166 79.32V82.36C72.1166 82.9067 72.3032 83.3067 72.6766 83.56C73.0632 83.8133 73.5166 83.94 74.0366 83.94ZM87.7088 84.12H87.5888C87.3621 84.7067 87.0021 85.2067 86.5088 85.62C86.0288 86.0333 85.3754 86.24 84.5488 86.24C84.0554 86.24 83.6021 86.16 83.1888 86C82.7754 85.8267 82.4221 85.5733 82.1288 85.24C81.8354 84.9067 81.6021 84.5 81.4288 84.02C81.2688 83.54 81.1888 82.9867 81.1888 82.36V75.68H84.1488V81.96C84.1488 83.2933 84.7288 83.96 85.8888 83.96C86.1154 83.96 86.3354 83.9333 86.5488 83.88C86.7754 83.8133 86.9688 83.72 87.1288 83.6C87.3021 83.4667 87.4421 83.3067 87.5488 83.12C87.6554 82.9333 87.7088 82.7133 87.7088 82.46V75.68H90.6688V86H87.7088V84.12ZM98.7609 86C97.6943 86 96.9009 85.72 96.3809 85.16C95.8609 84.6 95.6009 83.8867 95.6009 83.02V77.98H92.8009V75.68H94.6209C95.0609 75.68 95.3743 75.5933 95.5609 75.42C95.7476 75.2467 95.8409 74.9267 95.8409 74.46V72.04H98.5609V75.68H102.581V77.98H98.5609V83.7H102.581V86H98.7609ZM109.953 86.24C109.206 86.24 108.666 86.08 108.333 85.76C108.013 85.4267 107.853 85.0333 107.853 84.58V83.88C107.853 83.4267 108.013 83.04 108.333 82.72C108.666 82.3867 109.206 82.22 109.953 82.22C110.7 82.22 111.233 82.3867 111.553 82.72C111.886 83.04 112.053 83.4267 112.053 83.88V84.58C112.053 85.0333 111.886 85.4267 111.553 85.76C111.233 86.08 110.7 86.24 109.953 86.24ZM109.953 79.46C109.206 79.46 108.666 79.3 108.333 78.98C108.013 78.6467 107.853 78.2533 107.853 77.8V77.1C107.853 76.6467 108.013 76.26 108.333 75.94C108.666 75.6067 109.206 75.44 109.953 75.44C110.7 75.44 111.233 75.6067 111.553 75.94C111.886 76.26 112.053 76.6467 112.053 77.1V77.8C112.053 78.2533 111.886 78.6467 111.553 78.98C111.233 79.3 110.7 79.46 109.953 79.46ZM36.5 128.76V110.8H42.1V112.04H37.88V127.52H42.1V128.76H36.5ZM60.4844 168.76V150.8H66.0844V152.04H61.8644V167.52H66.0844V168.76H60.4844ZM69.6766 166V164.54H73.6766V153.28H73.5366L70.0166 156.56L69.0366 155.5L72.7366 152.04H75.3566V164.54H79.0366V166H69.6766ZM85.1087 163.28H87.6888L85.3888 168.82H84.0488L85.1087 163.28ZM93.9209 166V155.68H95.5209V157.36H95.6009C95.7076 157.107 95.8409 156.867 96.0009 156.64C96.1609 156.4 96.3543 156.193 96.5809 156.02C96.8209 155.847 97.1009 155.707 97.4209 155.6C97.7409 155.493 98.1143 155.44 98.5409 155.44C99.6209 155.44 100.488 155.787 101.141 156.48C101.794 157.16 102.121 158.127 102.121 159.38V166H100.521V159.66C100.521 158.713 100.314 158.013 99.9009 157.56C99.4876 157.093 98.8809 156.86 98.0809 156.86C97.7609 156.86 97.4476 156.9 97.1409 156.98C96.8343 157.06 96.5609 157.18 96.3209 157.34C96.0809 157.5 95.8876 157.707 95.7409 157.96C95.5943 158.213 95.5209 158.507 95.5209 158.84V166H93.9209ZM112.393 164.32H112.313C112.206 164.573 112.073 164.82 111.913 165.06C111.753 165.287 111.553 165.487 111.313 165.66C111.086 165.833 110.813 165.973 110.493 166.08C110.173 166.187 109.8 166.24 109.373 166.24C108.293 166.24 107.426 165.9 106.773 165.22C106.12 164.527 105.793 163.553 105.793 162.3V155.68H107.393V162.02C107.393 162.967 107.6 163.673 108.013 164.14C108.426 164.593 109.033 164.82 109.833 164.82C110.153 164.82 110.466 164.78 110.773 164.7C111.08 164.62 111.353 164.5 111.593 164.34C111.833 164.18 112.026 163.98 112.173 163.74C112.32 163.487 112.393 163.187 112.393 162.84V155.68H113.993V166H112.393V164.32ZM117.545 164.64H121.145V152.56H117.545V151.2H122.745V164.64H126.345V166H117.545V164.64ZM129.538 164.64H133.138V152.56H129.538V151.2H134.738V164.64H138.338V166H129.538V164.64ZM145.07 163.28H147.65L145.35 168.82H144.01L145.07 163.28ZM157.322 157.96C158.295 157.96 159.022 157.747 159.502 157.32C159.995 156.88 160.242 156.32 160.242 155.64V155.5C160.242 154.753 160.002 154.193 159.522 153.82C159.055 153.447 158.442 153.26 157.682 153.26C156.935 153.26 156.329 153.427 155.862 153.76C155.409 154.08 155.035 154.507 154.742 155.04L153.482 154.08C153.655 153.8 153.869 153.527 154.122 153.26C154.375 152.98 154.669 152.733 155.002 152.52C155.349 152.307 155.742 152.133 156.182 152C156.635 151.867 157.149 151.8 157.722 151.8C158.322 151.8 158.882 151.88 159.402 152.04C159.922 152.187 160.375 152.413 160.762 152.72C161.149 153.013 161.449 153.38 161.662 153.82C161.889 154.26 162.002 154.76 162.002 155.32C162.002 155.773 161.929 156.18 161.782 156.54C161.649 156.9 161.455 157.213 161.202 157.48C160.962 157.747 160.675 157.973 160.342 158.16C160.009 158.347 159.655 158.487 159.282 158.58V158.66C159.669 158.74 160.042 158.873 160.402 159.06C160.762 159.233 161.082 159.467 161.362 159.76C161.642 160.04 161.862 160.387 162.022 160.8C162.195 161.2 162.282 161.66 162.282 162.18C162.282 162.78 162.162 163.333 161.922 163.84C161.695 164.333 161.369 164.76 160.942 165.12C160.529 165.467 160.022 165.74 159.422 165.94C158.835 166.14 158.182 166.24 157.462 166.24C156.849 166.24 156.302 166.173 155.822 166.04C155.355 165.907 154.935 165.727 154.562 165.5C154.202 165.273 153.882 165.02 153.602 164.74C153.335 164.46 153.095 164.167 152.882 163.86L154.142 162.9C154.329 163.18 154.522 163.433 154.722 163.66C154.922 163.887 155.149 164.087 155.402 164.26C155.669 164.42 155.969 164.547 156.302 164.64C156.635 164.733 157.022 164.78 157.462 164.78C158.449 164.78 159.202 164.553 159.722 164.1C160.255 163.647 160.522 163 160.522 162.16V162C160.522 161.173 160.262 160.533 159.742 160.08C159.235 159.627 158.469 159.4 157.442 159.4H155.782V157.96H157.322ZM169.054 163.28H171.634L169.334 168.82H167.994L169.054 163.28ZM186.646 166H177.326V164.28L181.986 160.08C182.666 159.467 183.226 158.84 183.666 158.2C184.106 157.547 184.326 156.86 184.326 156.14V155.9C184.326 155.06 184.106 154.413 183.666 153.96C183.226 153.493 182.573 153.26 181.706 153.26C180.853 153.26 180.193 153.48 179.726 153.92C179.273 154.347 178.933 154.92 178.706 155.64L177.206 155.08C177.34 154.667 177.52 154.267 177.746 153.88C177.986 153.48 178.286 153.127 178.646 152.82C179.006 152.513 179.44 152.267 179.946 152.08C180.466 151.893 181.066 151.8 181.746 151.8C182.44 151.8 183.053 151.9 183.586 152.1C184.133 152.3 184.586 152.58 184.946 152.94C185.32 153.3 185.6 153.727 185.786 154.22C185.986 154.713 186.086 155.253 186.086 155.84C186.086 156.373 186.006 156.873 185.846 157.34C185.7 157.807 185.486 158.253 185.206 158.68C184.94 159.107 184.613 159.527 184.226 159.94C183.853 160.34 183.433 160.74 182.966 161.14L179.066 164.54H186.646V166ZM195.398 150.8V168.76H189.798V167.52H194.018V152.04H189.798V150.8H195.398ZM205.031 163.28H207.611L205.311 168.82H203.971L205.031 163.28ZM60.4844 208.76V190.8H66.0844V192.04H61.8644V207.52H66.0844V208.76H60.4844ZM73.3766 197.96C74.3499 197.96 75.0766 197.747 75.5566 197.32C76.0499 196.88 76.2966 196.32 76.2966 195.64V195.5C76.2966 194.753 76.0566 194.193 75.5766 193.82C75.1099 193.447 74.4966 193.26 73.7366 193.26C72.9899 193.26 72.3832 193.427 71.9166 193.76C71.4632 194.08 71.0899 194.507 70.7966 195.04L69.5366 194.08C69.7099 193.8 69.9232 193.527 70.1766 193.26C70.4299 192.98 70.7232 192.733 71.0566 192.52C71.4032 192.307 71.7966 192.133 72.2366 192C72.6899 191.867 73.2032 191.8 73.7766 191.8C74.3766 191.8 74.9366 191.88 75.4566 192.04C75.9766 192.187 76.4299 192.413 76.8166 192.72C77.2032 193.013 77.5032 193.38 77.7166 193.82C77.9432 194.26 78.0566 194.76 78.0566 195.32C78.0566 195.773 77.9832 196.18 77.8366 196.54C77.7032 196.9 77.5099 197.213 77.2566 197.48C77.0166 197.747 76.7299 197.973 76.3966 198.16C76.0632 198.347 75.7099 198.487 75.3366 198.58V198.66C75.7232 198.74 76.0966 198.873 76.4566 199.06C76.8166 199.233 77.1366 199.467 77.4166 199.76C77.6966 200.04 77.9166 200.387 78.0766 200.8C78.2499 201.2 78.3366 201.66 78.3366 202.18C78.3366 202.78 78.2166 203.333 77.9766 203.84C77.7499 204.333 77.4232 204.76 76.9966 205.12C76.5832 205.467 76.0766 205.74 75.4766 205.94C74.8899 206.14 74.2366 206.24 73.5166 206.24C72.9032 206.24 72.3566 206.173 71.8766 206.04C71.4099 205.907 70.9899 205.727 70.6166 205.5C70.2566 205.273 69.9366 205.02 69.6566 204.74C69.3899 204.46 69.1499 204.167 68.9366 203.86L70.1966 202.9C70.3832 203.18 70.5766 203.433 70.7766 203.66C70.9766 203.887 71.2032 204.087 71.4566 204.26C71.7232 204.42 72.0232 204.547 72.3566 204.64C72.6899 204.733 73.0766 204.78 73.5166 204.78C74.5032 204.78 75.2566 204.553 75.7766 204.1C76.3099 203.647 76.5766 203 76.5766 202.16V202C76.5766 201.173 76.3166 200.533 75.7966 200.08C75.2899 199.627 74.5232 199.4 73.4966 199.4H71.8366V197.96H73.3766ZM85.1087 203.28H87.6888L85.3888 208.82H84.0488L85.1087 203.28ZM102.701 206H93.3809V204.28L98.0409 200.08C98.7209 199.467 99.2809 198.84 99.7209 198.2C100.161 197.547 100.381 196.86 100.381 196.14V195.9C100.381 195.06 100.161 194.413 99.7209 193.96C99.2809 193.493 98.6276 193.26 97.7609 193.26C96.9076 193.26 96.2476 193.48 95.7809 193.92C95.3276 194.347 94.9876 194.92 94.7609 195.64L93.2609 195.08C93.3943 194.667 93.5743 194.267 93.8009 193.88C94.0409 193.48 94.3409 193.127 94.7009 192.82C95.0609 192.513 95.4943 192.267 96.0009 192.08C96.5209 191.893 97.1209 191.8 97.8009 191.8C98.4943 191.8 99.1076 191.9 99.6409 192.1C100.188 192.3 100.641 192.58 101.001 192.94C101.374 193.3 101.654 193.727 101.841 194.22C102.041 194.713 102.141 195.253 102.141 195.84C102.141 196.373 102.061 196.873 101.901 197.34C101.754 197.807 101.541 198.253 101.261 198.68C100.994 199.107 100.668 199.527 100.281 199.94C99.9076 200.34 99.4876 200.74 99.0209 201.14L95.1209 204.54H102.701V206ZM109.093 203.28H111.673L109.373 208.82H108.033L109.093 203.28ZM117.905 206V195.68H119.505V197.36H119.585C119.692 197.107 119.825 196.867 119.985 196.64C120.145 196.4 120.339 196.193 120.565 196.02C120.805 195.847 121.085 195.707 121.405 195.6C121.725 195.493 122.099 195.44 122.525 195.44C123.605 195.44 124.472 195.787 125.125 196.48C125.779 197.16 126.105 198.127 126.105 199.38V206H124.505V199.66C124.505 198.713 124.299 198.013 123.885 197.56C123.472 197.093 122.865 196.86 122.065 196.86C121.745 196.86 121.432 196.9 121.125 196.98C120.819 197.06 120.545 197.18 120.305 197.34C120.065 197.5 119.872 197.707 119.725 197.96C119.579 198.213 119.505 198.507 119.505 198.84V206H117.905ZM136.378 204.32H136.298C136.191 204.573 136.058 204.82 135.898 205.06C135.738 205.287 135.538 205.487 135.298 205.66C135.071 205.833 134.798 205.973 134.478 206.08C134.158 206.187 133.784 206.24 133.358 206.24C132.278 206.24 131.411 205.9 130.758 205.22C130.104 204.527 129.778 203.553 129.778 202.3V195.68H131.378V202.02C131.378 202.967 131.584 203.673 131.998 204.14C132.411 204.593 133.018 204.82 133.817 204.82C134.138 204.82 134.451 204.78 134.758 204.7C135.064 204.62 135.338 204.5 135.578 204.34C135.818 204.18 136.011 203.98 136.158 203.74C136.304 203.487 136.378 203.187 136.378 202.84V195.68H137.978V206H136.378V204.32ZM141.53 204.64H145.13V192.56H141.53V191.2H146.73V204.64H150.33V206H141.53V204.64ZM153.522 204.64H157.122V192.56H153.522V191.2H158.722V204.64H162.322V206H153.522V204.64ZM169.054 203.28H171.634L169.334 208.82H167.994L169.054 203.28ZM177.606 206V204.54H181.606V193.28H181.466L177.946 196.56L176.966 195.5L180.666 192.04H183.286V204.54H186.966V206H177.606ZM195.398 190.8V208.76H189.798V207.52H194.018V192.04H189.798V190.8H195.398ZM205.031 203.28H207.611L205.311 208.82H203.971L205.031 203.28ZM60.4844 248.76V230.8H66.0844V232.04H61.8644V247.52H66.0844V248.76H60.4844ZM73.3766 237.96C74.3499 237.96 75.0766 237.747 75.5566 237.32C76.0499 236.88 76.2966 236.32 76.2966 235.64V235.5C76.2966 234.753 76.0566 234.193 75.5766 233.82C75.1099 233.447 74.4966 233.26 73.7366 233.26C72.9899 233.26 72.3832 233.427 71.9166 233.76C71.4632 234.08 71.0899 234.507 70.7966 235.04L69.5366 234.08C69.7099 233.8 69.9232 233.527 70.1766 233.26C70.4299 232.98 70.7232 232.733 71.0566 232.52C71.4032 232.307 71.7966 232.133 72.2366 232C72.6899 231.867 73.2032 231.8 73.7766 231.8C74.3766 231.8 74.9366 231.88 75.4566 232.04C75.9766 232.187 76.4299 232.413 76.8166 232.72C77.2032 233.013 77.5032 233.38 77.7166 233.82C77.9432 234.26 78.0566 234.76 78.0566 235.32C78.0566 235.773 77.9832 236.18 77.8366 236.54C77.7032 236.9 77.5099 237.213 77.2566 237.48C77.0166 237.747 76.7299 237.973 76.3966 238.16C76.0632 238.347 75.7099 238.487 75.3366 238.58V238.66C75.7232 238.74 76.0966 238.873 76.4566 239.06C76.8166 239.233 77.1366 239.467 77.4166 239.76C77.6966 240.04 77.9166 240.387 78.0766 240.8C78.2499 241.2 78.3366 241.66 78.3366 242.18C78.3366 242.78 78.2166 243.333 77.9766 243.84C77.7499 244.333 77.4232 244.76 76.9966 245.12C76.5832 245.467 76.0766 245.74 75.4766 245.94C74.8899 246.14 74.2366 246.24 73.5166 246.24C72.9032 246.24 72.3566 246.173 71.8766 246.04C71.4099 245.907 70.9899 245.727 70.6166 245.5C70.2566 245.273 69.9366 245.02 69.6566 244.74C69.3899 244.46 69.1499 244.167 68.9366 243.86L70.1966 242.9C70.3832 243.18 70.5766 243.433 70.7766 243.66C70.9766 243.887 71.2032 244.087 71.4566 244.26C71.7232 244.42 72.0232 244.547 72.3566 244.64C72.6899 244.733 73.0766 244.78 73.5166 244.78C74.5032 244.78 75.2566 244.553 75.7766 244.1C76.3099 243.647 76.5766 243 76.5766 242.16V242C76.5766 241.173 76.3166 240.533 75.7966 240.08C75.2899 239.627 74.5232 239.4 73.4966 239.4H71.8366V237.96H73.3766ZM85.1087 243.28H87.6888L85.3888 248.82H84.0488L85.1087 243.28ZM93.6609 246V244.54H97.6609V233.28H97.5209L94.0009 236.56L93.0209 235.5L96.7209 232.04H99.3409V244.54H103.021V246H93.6609ZM109.093 243.28H111.673L109.373 248.82H108.033L109.093 243.28ZM117.905 246V235.68H119.505V237.36H119.585C119.692 237.107 119.825 236.867 119.985 236.64C120.145 236.4 120.339 236.193 120.565 236.02C120.805 235.847 121.085 235.707 121.405 235.6C121.725 235.493 122.099 235.44 122.525 235.44C123.605 235.44 124.472 235.787 125.125 236.48C125.779 237.16 126.105 238.127 126.105 239.38V246H124.505V239.66C124.505 238.713 124.299 238.013 123.885 237.56C123.472 237.093 122.865 236.86 122.065 236.86C121.745 236.86 121.432 236.9 121.125 236.98C120.819 237.06 120.545 237.18 120.305 237.34C120.065 237.5 119.872 237.707 119.725 237.96C119.579 238.213 119.505 238.507 119.505 238.84V246H117.905ZM136.378 244.32H136.298C136.191 244.573 136.058 244.82 135.898 245.06C135.738 245.287 135.538 245.487 135.298 245.66C135.071 245.833 134.798 245.973 134.478 246.08C134.158 246.187 133.784 246.24 133.358 246.24C132.278 246.24 131.411 245.9 130.758 245.22C130.104 244.527 129.778 243.553 129.778 242.3V235.68H131.378V242.02C131.378 242.967 131.584 243.673 131.998 244.14C132.411 244.593 133.018 244.82 133.817 244.82C134.138 244.82 134.451 244.78 134.758 244.7C135.064 244.62 135.338 244.5 135.578 244.34C135.818 244.18 136.011 243.98 136.158 243.74C136.304 243.487 136.378 243.187 136.378 242.84V235.68H137.978V246H136.378V244.32ZM141.53 244.64H145.13V232.56H141.53V231.2H146.73V244.64H150.33V246H141.53V244.64ZM153.522 244.64H157.122V232.56H153.522V231.2H158.722V244.64H162.322V246H153.522V244.64ZM169.054 243.28H171.634L169.334 248.82H167.994L169.054 243.28ZM177.866 246V235.68H179.466V237.36H179.546C179.653 237.107 179.786 236.867 179.946 236.64C180.106 236.4 180.3 236.193 180.526 236.02C180.766 235.847 181.046 235.707 181.366 235.6C181.686 235.493 182.06 235.44 182.486 235.44C183.566 235.44 184.433 235.787 185.086 236.48C185.74 237.16 186.066 238.127 186.066 239.38V246H184.466V239.66C184.466 238.713 184.26 238.013 183.846 237.56C183.433 237.093 182.826 236.86 182.026 236.86C181.706 236.86 181.393 236.9 181.086 236.98C180.78 237.06 180.506 237.18 180.266 237.34C180.026 237.5 179.833 237.707 179.686 237.96C179.54 238.213 179.466 238.507 179.466 238.84V246H177.866ZM196.338 244.32H196.258C196.152 244.573 196.018 244.82 195.858 245.06C195.698 245.287 195.498 245.487 195.258 245.66C195.032 245.833 194.758 245.973 194.438 246.08C194.118 246.187 193.745 246.24 193.318 246.24C192.238 246.24 191.372 245.9 190.718 245.22C190.065 244.527 189.738 243.553 189.738 242.3V235.68H191.338V242.02C191.338 242.967 191.545 243.673 191.958 244.14C192.372 244.593 192.978 244.82 193.778 244.82C194.098 244.82 194.412 244.78 194.718 244.7C195.025 244.62 195.298 244.5 195.538 244.34C195.778 244.18 195.972 243.98 196.118 243.74C196.265 243.487 196.338 243.187 196.338 242.84V235.68H197.938V246H196.338V244.32ZM201.491 244.64H205.091V232.56H201.491V231.2H206.691V244.64H210.291V246H201.491V244.64ZM213.483 244.64H217.083V232.56H213.483V231.2H218.683V244.64H222.283V246H213.483V244.64ZM229.015 243.28H231.595L229.295 248.82H227.955L229.015 243.28ZM246.607 246H237.287V244.28L241.947 240.08C242.627 239.467 243.187 238.84 243.627 238.2C244.067 237.547 244.287 236.86 244.287 236.14V235.9C244.287 235.06 244.067 234.413 243.627 233.96C243.187 233.493 242.534 233.26 241.667 233.26C240.814 233.26 240.154 233.48 239.687 233.92C239.234 234.347 238.894 234.92 238.667 235.64L237.167 235.08C237.301 234.667 237.481 234.267 237.707 233.88C237.947 233.48 238.247 233.127 238.607 232.82C238.967 232.513 239.401 232.267 239.907 232.08C240.427 231.893 241.027 231.8 241.707 231.8C242.401 231.8 243.014 231.9 243.547 232.1C244.094 232.3 244.547 232.58 244.907 232.94C245.281 233.3 245.561 233.727 245.747 234.22C245.947 234.713 246.047 235.253 246.047 235.84C246.047 236.373 245.967 236.873 245.807 237.34C245.661 237.807 245.447 238.253 245.167 238.68C244.901 239.107 244.574 239.527 244.187 239.94C243.814 240.34 243.394 240.74 242.927 241.14L239.027 244.54H246.607V246ZM255.359 230.8V248.76H249.759V247.52H253.979V232.04H249.759V230.8H255.359ZM264.992 243.28H267.572L265.272 248.82H263.932L264.992 243.28ZM60.4844 288.76V270.8H66.0844V272.04H61.8644V287.52H66.0844V288.76H60.4844ZM78.7166 286H69.3966V284.28L74.0566 280.08C74.7366 279.467 75.2966 278.84 75.7366 278.2C76.1766 277.547 76.3966 276.86 76.3966 276.14V275.9C76.3966 275.06 76.1766 274.413 75.7366 273.96C75.2966 273.493 74.6432 273.26 73.7766 273.26C72.9232 273.26 72.2632 273.48 71.7966 273.92C71.3432 274.347 71.0032 274.92 70.7766 275.64L69.2766 275.08C69.4099 274.667 69.5899 274.267 69.8166 273.88C70.0566 273.48 70.3566 273.127 70.7166 272.82C71.0766 272.513 71.5099 272.267 72.0166 272.08C72.5366 271.893 73.1366 271.8 73.8166 271.8C74.5099 271.8 75.1232 271.9 75.6566 272.1C76.2032 272.3 76.6566 272.58 77.0166 272.94C77.3899 273.3 77.6699 273.727 77.8566 274.22C78.0566 274.713 78.1566 275.253 78.1566 275.84C78.1566 276.373 78.0766 276.873 77.9166 277.34C77.7699 277.807 77.5566 278.253 77.2766 278.68C77.0099 279.107 76.6832 279.527 76.2966 279.94C75.9232 280.34 75.5032 280.74 75.0366 281.14L71.1366 284.54H78.7166V286ZM85.1087 283.28H87.6888L85.3888 288.82H84.0488L85.1087 283.28ZM93.6609 286V284.54H97.6609V273.28H97.5209L94.0009 276.56L93.0209 275.5L96.7209 272.04H99.3409V284.54H103.021V286H93.6609ZM109.093 283.28H111.673L109.373 288.82H108.033L109.093 283.28ZM121.345 277.96C122.319 277.96 123.045 277.747 123.525 277.32C124.019 276.88 124.265 276.32 124.265 275.64V275.5C124.265 274.753 124.025 274.193 123.545 273.82C123.079 273.447 122.465 273.26 121.705 273.26C120.959 273.26 120.352 273.427 119.885 273.76C119.432 274.08 119.059 274.507 118.765 275.04L117.505 274.08C117.679 273.8 117.892 273.527 118.145 273.26C118.399 272.98 118.692 272.733 119.025 272.52C119.372 272.307 119.765 272.133 120.205 272C120.659 271.867 121.172 271.8 121.745 271.8C122.345 271.8 122.905 271.88 123.425 272.04C123.945 272.187 124.399 272.413 124.785 272.72C125.172 273.013 125.472 273.38 125.685 273.82C125.912 274.26 126.025 274.76 126.025 275.32C126.025 275.773 125.952 276.18 125.805 276.54C125.672 276.9 125.479 277.213 125.225 277.48C124.985 277.747 124.699 277.973 124.365 278.16C124.032 278.347 123.679 278.487 123.305 278.58V278.66C123.692 278.74 124.065 278.873 124.425 279.06C124.785 279.233 125.105 279.467 125.385 279.76C125.665 280.04 125.885 280.387 126.045 280.8C126.219 281.2 126.305 281.66 126.305 282.18C126.305 282.78 126.185 283.333 125.945 283.84C125.719 284.333 125.392 284.76 124.965 285.12C124.552 285.467 124.045 285.74 123.445 285.94C122.859 286.14 122.205 286.24 121.485 286.24C120.872 286.24 120.325 286.173 119.845 286.04C119.379 285.907 118.959 285.727 118.585 285.5C118.225 285.273 117.905 285.02 117.625 284.74C117.359 284.46 117.119 284.167 116.905 283.86L118.165 282.9C118.352 283.18 118.545 283.433 118.745 283.66C118.945 283.887 119.172 284.087 119.425 284.26C119.692 284.42 119.992 284.547 120.325 284.64C120.659 284.733 121.045 284.78 121.485 284.78C122.472 284.78 123.225 284.553 123.745 284.1C124.279 283.647 124.545 283 124.545 282.16V282C124.545 281.173 124.285 280.533 123.765 280.08C123.259 279.627 122.492 279.4 121.465 279.4H119.805V277.96H121.345ZM135.438 270.8V288.76H129.838V287.52H134.058V272.04H129.838V270.8H135.438ZM145.07 283.28H147.65L145.35 288.82H144.01L145.07 283.28ZM60.4844 328.76V310.8H66.0844V312.04H61.8644V327.52H66.0844V328.76H60.4844ZM69.6766 326V324.54H73.6766V313.28H73.5366L70.0166 316.56L69.0366 315.5L72.7366 312.04H75.3566V324.54H79.0366V326H69.6766ZM85.1087 323.28H87.6888L85.3888 328.82H84.0488L85.1087 323.28ZM93.9209 326V315.68H95.5209V317.36H95.6009C95.7076 317.107 95.8409 316.867 96.0009 316.64C96.1609 316.4 96.3543 316.193 96.5809 316.02C96.8209 315.847 97.1009 315.707 97.4209 315.6C97.7409 315.493 98.1143 315.44 98.5409 315.44C99.6209 315.44 100.488 315.787 101.141 316.48C101.794 317.16 102.121 318.127 102.121 319.38V326H100.521V319.66C100.521 318.713 100.314 318.013 99.9009 317.56C99.4876 317.093 98.8809 316.86 98.0809 316.86C97.7609 316.86 97.4476 316.9 97.1409 316.98C96.8343 317.06 96.5609 317.18 96.3209 317.34C96.0809 317.5 95.8876 317.707 95.7409 317.96C95.5943 318.213 95.5209 318.507 95.5209 318.84V326H93.9209ZM112.393 324.32H112.313C112.206 324.573 112.073 324.82 111.913 325.06C111.753 325.287 111.553 325.487 111.313 325.66C111.086 325.833 110.813 325.973 110.493 326.08C110.173 326.187 109.8 326.24 109.373 326.24C108.293 326.24 107.426 325.9 106.773 325.22C106.12 324.527 105.793 323.553 105.793 322.3V315.68H107.393V322.02C107.393 322.967 107.6 323.673 108.013 324.14C108.426 324.593 109.033 324.82 109.833 324.82C110.153 324.82 110.466 324.78 110.773 324.7C111.08 324.62 111.353 324.5 111.593 324.34C111.833 324.18 112.026 323.98 112.173 323.74C112.32 323.487 112.393 323.187 112.393 322.84V315.68H113.993V326H112.393V324.32ZM117.545 324.64H121.145V312.56H117.545V311.2H122.745V324.64H126.345V326H117.545V324.64ZM129.538 324.64H133.138V312.56H129.538V311.2H134.738V324.64H138.338V326H129.538V324.64ZM145.07 323.28H147.65L145.35 328.82H144.01L145.07 323.28ZM162.662 326H153.342V324.28L158.002 320.08C158.682 319.467 159.242 318.84 159.682 318.2C160.122 317.547 160.342 316.86 160.342 316.14V315.9C160.342 315.06 160.122 314.413 159.682 313.96C159.242 313.493 158.589 313.26 157.722 313.26C156.869 313.26 156.209 313.48 155.742 313.92C155.289 314.347 154.949 314.92 154.722 315.64L153.222 315.08C153.355 314.667 153.535 314.267 153.762 313.88C154.002 313.48 154.302 313.127 154.662 312.82C155.022 312.513 155.455 312.267 155.962 312.08C156.482 311.893 157.082 311.8 157.762 311.8C158.455 311.8 159.069 311.9 159.602 312.1C160.149 312.3 160.602 312.58 160.962 312.94C161.335 313.3 161.615 313.727 161.802 314.22C162.002 314.713 162.102 315.253 162.102 315.84C162.102 316.373 162.022 316.873 161.862 317.34C161.715 317.807 161.502 318.253 161.222 318.68C160.955 319.107 160.629 319.527 160.242 319.94C159.869 320.34 159.449 320.74 158.982 321.14L155.082 324.54H162.662V326ZM169.054 323.28H171.634L169.334 328.82H167.994L169.054 323.28ZM177.866 326V315.68H179.466V317.36H179.546C179.653 317.107 179.786 316.867 179.946 316.64C180.106 316.4 180.3 316.193 180.526 316.02C180.766 315.847 181.046 315.707 181.366 315.6C181.686 315.493 182.06 315.44 182.486 315.44C183.566 315.44 184.433 315.787 185.086 316.48C185.74 317.16 186.066 318.127 186.066 319.38V326H184.466V319.66C184.466 318.713 184.26 318.013 183.846 317.56C183.433 317.093 182.826 316.86 182.026 316.86C181.706 316.86 181.393 316.9 181.086 316.98C180.78 317.06 180.506 317.18 180.266 317.34C180.026 317.5 179.833 317.707 179.686 317.96C179.54 318.213 179.466 318.507 179.466 318.84V326H177.866ZM196.338 324.32H196.258C196.152 324.573 196.018 324.82 195.858 325.06C195.698 325.287 195.498 325.487 195.258 325.66C195.032 325.833 194.758 325.973 194.438 326.08C194.118 326.187 193.745 326.24 193.318 326.24C192.238 326.24 191.372 325.9 190.718 325.22C190.065 324.527 189.738 323.553 189.738 322.3V315.68H191.338V322.02C191.338 322.967 191.545 323.673 191.958 324.14C192.372 324.593 192.978 324.82 193.778 324.82C194.098 324.82 194.412 324.78 194.718 324.7C195.025 324.62 195.298 324.5 195.538 324.34C195.778 324.18 195.972 323.98 196.118 323.74C196.265 323.487 196.338 323.187 196.338 322.84V315.68H197.938V326H196.338V324.32ZM201.491 324.64H205.091V312.56H201.491V311.2H206.691V324.64H210.291V326H201.491V324.64ZM213.483 324.64H217.083V312.56H213.483V311.2H218.683V324.64H222.283V326H213.483V324.64ZM229.015 323.28H231.595L229.295 328.82H227.955L229.015 323.28ZM241.267 317.96C242.241 317.96 242.967 317.747 243.447 317.32C243.941 316.88 244.187 316.32 244.187 315.64V315.5C244.187 314.753 243.947 314.193 243.467 313.82C243.001 313.447 242.387 313.26 241.627 313.26C240.881 313.26 240.274 313.427 239.807 313.76C239.354 314.08 238.981 314.507 238.687 315.04L237.427 314.08C237.601 313.8 237.814 313.527 238.067 313.26C238.321 312.98 238.614 312.733 238.947 312.52C239.294 312.307 239.687 312.133 240.127 312C240.581 311.867 241.094 311.8 241.667 311.8C242.267 311.8 242.827 311.88 243.347 312.04C243.867 312.187 244.321 312.413 244.707 312.72C245.094 313.013 245.394 313.38 245.607 313.82C245.834 314.26 245.947 314.76 245.947 315.32C245.947 315.773 245.874 316.18 245.727 316.54C245.594 316.9 245.401 317.213 245.147 317.48C244.907 317.747 244.621 317.973 244.287 318.16C243.954 318.347 243.601 318.487 243.227 318.58V318.66C243.614 318.74 243.987 318.873 244.347 319.06C244.707 319.233 245.027 319.467 245.307 319.76C245.587 320.04 245.807 320.387 245.967 320.8C246.141 321.2 246.227 321.66 246.227 322.18C246.227 322.78 246.107 323.333 245.867 323.84C245.641 324.333 245.314 324.76 244.887 325.12C244.474 325.467 243.967 325.74 243.367 325.94C242.781 326.14 242.127 326.24 241.407 326.24C240.794 326.24 240.247 326.173 239.767 326.04C239.301 325.907 238.881 325.727 238.507 325.5C238.147 325.273 237.827 325.02 237.547 324.74C237.281 324.46 237.041 324.167 236.827 323.86L238.087 322.9C238.274 323.18 238.467 323.433 238.667 323.66C238.867 323.887 239.094 324.087 239.347 324.26C239.614 324.42 239.914 324.547 240.247 324.64C240.581 324.733 240.967 324.78 241.407 324.78C242.394 324.78 243.147 324.553 243.667 324.1C244.201 323.647 244.467 323 244.467 322.16V322C244.467 321.173 244.207 320.533 243.687 320.08C243.181 319.627 242.414 319.4 241.387 319.4H239.727V317.96H241.267ZM255.359 310.8V328.76H249.759V327.52H253.979V312.04H249.759V310.8H255.359ZM39.5 350.8V368.76H33.9V367.52H38.12V352.04H33.9V350.8H39.5ZM33.6 406V392.04H42.52V394.5H36.6V397.7H42.32V400.16H36.6V403.54H42.52V406H33.6ZM44.4522 406L48.3122 400.76L44.7122 395.68H48.0922L49.1922 397.34L50.0322 398.68H50.1922L51.0522 397.34L52.1722 395.68H55.2722L51.6722 400.6L55.5322 406H52.1322L50.8322 404.06L49.9322 402.68H49.7722L48.8922 404.06L47.5722 406H44.4522ZM57.1644 395.68H60.1244V397.56H60.2644C60.5177 396.947 60.8844 396.44 61.3644 396.04C61.8444 395.64 62.4977 395.44 63.3244 395.44C63.8977 395.44 64.4177 395.547 64.8844 395.76C65.3644 395.973 65.771 396.3 66.1044 396.74C66.451 397.18 66.7177 397.74 66.9044 398.42C67.1044 399.1 67.2044 399.907 67.2044 400.84C67.2044 401.773 67.1044 402.58 66.9044 403.26C66.7177 403.94 66.451 404.5 66.1044 404.94C65.771 405.38 65.3644 405.707 64.8844 405.92C64.4177 406.133 63.8977 406.24 63.3244 406.24C62.4977 406.24 61.8444 406.047 61.3644 405.66C60.8844 405.26 60.5177 404.747 60.2644 404.12H60.1244V410H57.1644V395.68ZM62.0444 403.94C62.711 403.94 63.2244 403.74 63.5844 403.34C63.9444 402.927 64.1244 402.36 64.1244 401.64V400.04C64.1244 399.32 63.9444 398.76 63.5844 398.36C63.2244 397.947 62.711 397.74 62.0444 397.74C61.5244 397.74 61.071 397.867 60.6844 398.12C60.311 398.373 60.1244 398.773 60.1244 399.32V402.36C60.1244 402.907 60.311 403.307 60.6844 403.56C61.071 403.813 61.5244 403.94 62.0444 403.94ZM69.3366 403.7H72.4966V393.5H69.3366V391.2H75.4566V403.7H78.6166V406H69.3366V403.7ZM89.7088 406C89.0954 406 88.6021 405.847 88.2288 405.54C87.8554 405.22 87.6354 404.767 87.5688 404.18H87.4688C87.2821 404.86 86.9088 405.373 86.3488 405.72C85.8021 406.067 85.1288 406.24 84.3288 406.24C83.3288 406.24 82.5221 405.973 81.9088 405.44C81.3088 404.893 81.0088 404.133 81.0088 403.16C81.0088 402.08 81.4021 401.28 82.1888 400.76C82.9754 400.24 84.1288 399.98 85.6488 399.98H87.3088V399.46C87.3088 398.847 87.1621 398.387 86.8688 398.08C86.5888 397.76 86.1088 397.6 85.4288 397.6C84.8021 397.6 84.2954 397.72 83.9088 397.96C83.5221 398.2 83.1888 398.513 82.9087 398.9L81.2887 397.46C81.6354 396.873 82.1754 396.393 82.9087 396.02C83.6554 395.633 84.6088 395.44 85.7688 395.44C87.1821 395.44 88.2821 395.767 89.0688 396.42C89.8688 397.06 90.2688 398.033 90.2688 399.34V403.86H91.4088V406H89.7088ZM85.4488 404.3C85.9688 404.3 86.4088 404.173 86.7688 403.92C87.1288 403.667 87.3088 403.3 87.3088 402.82V401.58H85.7288C84.5154 401.58 83.9088 401.987 83.9088 402.8V403.2C83.9088 403.56 84.0488 403.833 84.3288 404.02C84.6088 404.207 84.9821 404.3 85.4488 404.3ZM93.2609 406V395.68H96.2209V397.56H96.3409C96.4609 397.267 96.6076 396.993 96.7809 396.74C96.9543 396.487 97.1609 396.267 97.4009 396.08C97.6543 395.88 97.9409 395.727 98.2609 395.62C98.5943 395.5 98.9676 395.44 99.3809 395.44C99.8743 395.44 100.328 395.527 100.741 395.7C101.154 395.86 101.508 396.107 101.801 396.44C102.094 396.773 102.321 397.18 102.481 397.66C102.654 398.14 102.741 398.693 102.741 399.32V406H99.7809V399.72C99.7809 398.387 99.2009 397.72 98.0409 397.72C97.8143 397.72 97.5876 397.753 97.3609 397.82C97.1476 397.873 96.9543 397.967 96.7809 398.1C96.6076 398.22 96.4676 398.373 96.3609 398.56C96.2676 398.747 96.2209 398.967 96.2209 399.22V406H93.2609ZM113.693 406C113.08 406 112.586 405.847 112.213 405.54C111.84 405.22 111.62 404.767 111.553 404.18H111.453C111.266 404.86 110.893 405.373 110.333 405.72C109.786 406.067 109.113 406.24 108.313 406.24C107.313 406.24 106.506 405.973 105.893 405.44C105.293 404.893 104.993 404.133 104.993 403.16C104.993 402.08 105.386 401.28 106.173 400.76C106.96 400.24 108.113 399.98 109.633 399.98H111.293V399.46C111.293 398.847 111.146 398.387 110.853 398.08C110.573 397.76 110.093 397.6 109.413 397.6C108.786 397.6 108.28 397.72 107.893 397.96C107.506 398.2 107.173 398.513 106.893 398.9L105.273 397.46C105.62 396.873 106.16 396.393 106.893 396.02C107.64 395.633 108.593 395.44 109.753 395.44C111.166 395.44 112.266 395.767 113.053 396.42C113.853 397.06 114.253 398.033 114.253 399.34V403.86H115.393V406H113.693ZM109.433 404.3C109.953 404.3 110.393 404.173 110.753 403.92C111.113 403.667 111.293 403.3 111.293 402.82V401.58H109.713C108.5 401.58 107.893 401.987 107.893 402.8V403.2C107.893 403.56 108.033 403.833 108.313 404.02C108.593 404.207 108.966 404.3 109.433 404.3ZM122.745 406C121.679 406 120.885 405.72 120.365 405.16C119.845 404.6 119.585 403.887 119.585 403.02V397.98H116.785V395.68H118.605C119.045 395.68 119.359 395.593 119.545 395.42C119.732 395.247 119.825 394.927 119.825 394.46V392.04H122.545V395.68H126.565V397.98H122.545V403.7H126.565V406H122.745ZM134.578 394.36C133.911 394.36 133.444 394.227 133.178 393.96C132.924 393.68 132.798 393.347 132.798 392.96V392.38C132.798 391.98 132.924 391.647 133.178 391.38C133.444 391.113 133.911 390.98 134.578 390.98C135.244 390.98 135.704 391.113 135.958 391.38C136.224 391.647 136.358 391.98 136.358 392.38V392.96C136.358 393.347 136.224 393.68 135.958 393.96C135.704 394.227 135.244 394.36 134.578 394.36ZM129.818 403.7H133.098V397.98H129.818V395.68H136.058V403.7H139.098V406H129.818V403.7ZM145.93 406.24C145.13 406.24 144.41 406.12 143.77 405.88C143.13 405.627 142.583 405.267 142.13 404.8C141.69 404.333 141.35 403.767 141.11 403.1C140.87 402.433 140.75 401.68 140.75 400.84C140.75 400 140.87 399.247 141.11 398.58C141.35 397.913 141.69 397.347 142.13 396.88C142.583 396.413 143.13 396.06 143.77 395.82C144.41 395.567 145.13 395.44 145.93 395.44C146.73 395.44 147.45 395.567 148.09 395.82C148.73 396.06 149.27 396.413 149.71 396.88C150.163 397.347 150.51 397.913 150.75 398.58C150.99 399.247 151.11 400 151.11 400.84C151.11 401.68 150.99 402.433 150.75 403.1C150.51 403.767 150.163 404.333 149.71 404.8C149.27 405.267 148.73 405.627 148.09 405.88C147.45 406.12 146.73 406.24 145.93 406.24ZM145.93 404.04C146.596 404.04 147.116 403.833 147.49 403.42C147.863 403.007 148.05 402.42 148.05 401.66V400.02C148.05 399.26 147.863 398.673 147.49 398.26C147.116 397.847 146.596 397.64 145.93 397.64C145.263 397.64 144.743 397.847 144.37 398.26C143.996 398.673 143.81 399.26 143.81 400.02V401.66C143.81 402.42 143.996 403.007 144.37 403.42C144.743 403.833 145.263 404.04 145.93 404.04ZM153.222 406V395.68H156.182V397.56H156.302C156.422 397.267 156.569 396.993 156.742 396.74C156.915 396.487 157.122 396.267 157.362 396.08C157.615 395.88 157.902 395.727 158.222 395.62C158.555 395.5 158.929 395.44 159.342 395.44C159.835 395.44 160.289 395.527 160.702 395.7C161.115 395.86 161.469 396.107 161.762 396.44C162.055 396.773 162.282 397.18 162.442 397.66C162.615 398.14 162.702 398.693 162.702 399.32V406H159.742V399.72C159.742 398.387 159.162 397.72 158.002 397.72C157.775 397.72 157.549 397.753 157.322 397.82C157.109 397.873 156.915 397.967 156.742 398.1C156.569 398.22 156.429 398.373 156.322 398.56C156.229 398.747 156.182 398.967 156.182 399.22V406H153.222ZM169.914 406.24C169.167 406.24 168.627 406.08 168.294 405.76C167.974 405.427 167.814 405.033 167.814 404.58V403.88C167.814 403.427 167.974 403.04 168.294 402.72C168.627 402.387 169.167 402.22 169.914 402.22C170.661 402.22 171.194 402.387 171.514 402.72C171.847 403.04 172.014 403.427 172.014 403.88V404.58C172.014 405.033 171.847 405.427 171.514 405.76C171.194 406.08 170.661 406.24 169.914 406.24ZM169.914 399.46C169.167 399.46 168.627 399.3 168.294 398.98C167.974 398.647 167.814 398.253 167.814 397.8V397.1C167.814 396.647 167.974 396.26 168.294 395.94C168.627 395.607 169.167 395.44 169.914 395.44C170.661 395.44 171.194 395.607 171.514 395.94C171.847 396.26 172.014 396.647 172.014 397.1V397.8C172.014 398.253 171.847 398.647 171.514 398.98C171.194 399.3 170.661 399.46 169.914 399.46ZM39.5 434.5V446H36.5V434.5H32.48V432.04H43.52V434.5H39.5ZM45.2922 431.2H48.2522V437.56H48.3722C48.4922 437.267 48.6389 436.993 48.8122 436.74C48.9855 436.487 49.1922 436.267 49.4322 436.08C49.6855 435.88 49.9722 435.727 50.2922 435.62C50.6255 435.5 50.9989 435.44 51.4122 435.44C51.9055 435.44 52.3589 435.527 52.7722 435.7C53.1855 435.86 53.5389 436.107 53.8322 436.44C54.1255 436.773 54.3522 437.18 54.5122 437.66C54.6855 438.14 54.7722 438.693 54.7722 439.32V446H51.8122V439.72C51.8122 438.387 51.2322 437.72 50.0722 437.72C49.8455 437.72 49.6189 437.753 49.3922 437.82C49.1789 437.873 48.9855 437.967 48.8122 438.1C48.6389 438.22 48.4989 438.373 48.3922 438.56C48.2989 438.747 48.2522 438.967 48.2522 439.22V446H45.2922V431.2ZM62.2644 446.24C60.531 446.24 59.2177 445.76 58.3244 444.8C57.431 443.84 56.9844 442.533 56.9844 440.88C56.9844 440.04 57.0977 439.287 57.3244 438.62C57.5644 437.94 57.8977 437.367 58.3244 436.9C58.7644 436.42 59.291 436.06 59.9044 435.82C60.531 435.567 61.231 435.44 62.0044 435.44C62.7777 435.44 63.471 435.567 64.0844 435.82C64.6977 436.06 65.2177 436.407 65.6444 436.86C66.071 437.313 66.3977 437.867 66.6244 438.52C66.8644 439.16 66.9844 439.88 66.9844 440.68V441.56H59.9244V441.74C59.9244 442.407 60.131 442.947 60.5444 443.36C60.9577 443.76 61.5644 443.96 62.3644 443.96C62.9777 443.96 63.5044 443.847 63.9444 443.62C64.3844 443.38 64.7644 443.067 65.0844 442.68L66.6844 444.42C66.2844 444.913 65.7244 445.34 65.0044 445.7C64.2844 446.06 63.371 446.24 62.2644 446.24ZM62.0244 437.56C61.3844 437.56 60.871 437.76 60.4844 438.16C60.111 438.547 59.9244 439.073 59.9244 439.74V439.9H64.0844V439.74C64.0844 439.06 63.8977 438.527 63.5244 438.14C63.1644 437.753 62.6644 437.56 62.0244 437.56ZM89.7088 446C89.0954 446 88.6021 445.847 88.2288 445.54C87.8554 445.22 87.6354 444.767 87.5688 444.18H87.4688C87.2821 444.86 86.9088 445.373 86.3488 445.72C85.8021 446.067 85.1288 446.24 84.3288 446.24C83.3288 446.24 82.5221 445.973 81.9088 445.44C81.3088 444.893 81.0088 444.133 81.0088 443.16C81.0088 442.08 81.4021 441.28 82.1888 440.76C82.9754 440.24 84.1288 439.98 85.6488 439.98H87.3088V439.46C87.3088 438.847 87.1621 438.387 86.8688 438.08C86.5888 437.76 86.1088 437.6 85.4288 437.6C84.8021 437.6 84.2954 437.72 83.9088 437.96C83.5221 438.2 83.1888 438.513 82.9087 438.9L81.2887 437.46C81.6354 436.873 82.1754 436.393 82.9087 436.02C83.6554 435.633 84.6088 435.44 85.7688 435.44C87.1821 435.44 88.2821 435.767 89.0688 436.42C89.8688 437.06 90.2688 438.033 90.2688 439.34V443.86H91.4088V446H89.7088ZM85.4488 444.3C85.9688 444.3 86.4088 444.173 86.7688 443.92C87.1288 443.667 87.3088 443.3 87.3088 442.82V441.58H85.7288C84.5154 441.58 83.9088 441.987 83.9088 442.8V443.2C83.9088 443.56 84.0488 443.833 84.3288 444.02C84.6088 444.207 84.9821 444.3 85.4488 444.3ZM93.1409 431.2H96.1009V437.56H96.2409C96.4943 436.947 96.8609 436.44 97.3409 436.04C97.8209 435.64 98.4743 435.44 99.3009 435.44C99.8743 435.44 100.394 435.547 100.861 435.76C101.341 435.973 101.748 436.3 102.081 436.74C102.428 437.18 102.694 437.74 102.881 438.42C103.081 439.1 103.181 439.907 103.181 440.84C103.181 441.773 103.081 442.58 102.881 443.26C102.694 443.94 102.428 444.5 102.081 444.94C101.748 445.38 101.341 445.707 100.861 445.92C100.394 446.133 99.8743 446.24 99.3009 446.24C98.4743 446.24 97.8209 446.047 97.3409 445.66C96.8609 445.26 96.4943 444.747 96.2409 444.12H96.1009V446H93.1409V431.2ZM98.0209 443.94C98.6876 443.94 99.2009 443.74 99.5609 443.34C99.9209 442.927 100.101 442.36 100.101 441.64V440.04C100.101 439.32 99.9209 438.76 99.5609 438.36C99.2009 437.947 98.6876 437.74 98.0209 437.74C97.5009 437.74 97.0476 437.867 96.6609 438.12C96.2876 438.373 96.1009 438.773 96.1009 439.32V442.36C96.1009 442.907 96.2876 443.307 96.6609 443.56C97.0476 443.813 97.5009 443.94 98.0209 443.94ZM109.953 446.24C109.153 446.24 108.433 446.12 107.793 445.88C107.153 445.627 106.606 445.267 106.153 444.8C105.713 444.333 105.373 443.767 105.133 443.1C104.893 442.433 104.773 441.68 104.773 440.84C104.773 440 104.893 439.247 105.133 438.58C105.373 437.913 105.713 437.347 106.153 436.88C106.606 436.413 107.153 436.06 107.793 435.82C108.433 435.567 109.153 435.44 109.953 435.44C110.753 435.44 111.473 435.567 112.113 435.82C112.753 436.06 113.293 436.413 113.733 436.88C114.186 437.347 114.533 437.913 114.773 438.58C115.013 439.247 115.133 440 115.133 440.84C115.133 441.68 115.013 442.433 114.773 443.1C114.533 443.767 114.186 444.333 113.733 444.8C113.293 445.267 112.753 445.627 112.113 445.88C111.473 446.12 110.753 446.24 109.953 446.24ZM109.953 444.04C110.62 444.04 111.14 443.833 111.513 443.42C111.886 443.007 112.073 442.42 112.073 441.66V440.02C112.073 439.26 111.886 438.673 111.513 438.26C111.14 437.847 110.62 437.64 109.953 437.64C109.286 437.64 108.766 437.847 108.393 438.26C108.02 438.673 107.833 439.26 107.833 440.02V441.66C107.833 442.42 108.02 443.007 108.393 443.42C108.766 443.833 109.286 444.04 109.953 444.04ZM120.185 446L116.485 435.68H119.605L120.945 440.1L121.925 443.54H122.085L123.065 440.1L124.405 435.68H127.405L123.705 446H120.185ZM134.218 446.24C132.484 446.24 131.171 445.76 130.278 444.8C129.384 443.84 128.938 442.533 128.938 440.88C128.938 440.04 129.051 439.287 129.278 438.62C129.518 437.94 129.851 437.367 130.278 436.9C130.718 436.42 131.244 436.06 131.858 435.82C132.484 435.567 133.184 435.44 133.958 435.44C134.731 435.44 135.424 435.567 136.038 435.82C136.651 436.06 137.171 436.407 137.598 436.86C138.024 437.313 138.351 437.867 138.578 438.52C138.818 439.16 138.938 439.88 138.938 440.68V441.56H131.878V441.74C131.878 442.407 132.084 442.947 132.498 443.36C132.911 443.76 133.518 443.96 134.318 443.96C134.931 443.96 135.458 443.847 135.898 443.62C136.338 443.38 136.718 443.067 137.038 442.68L138.638 444.42C138.238 444.913 137.678 445.34 136.958 445.7C136.238 446.06 135.324 446.24 134.218 446.24ZM133.978 437.56C133.338 437.56 132.824 437.76 132.438 438.16C132.064 438.547 131.878 439.073 131.878 439.74V439.9H136.038V439.74C136.038 439.06 135.851 438.527 135.478 438.14C135.118 437.753 134.618 437.56 133.978 437.56ZM157.922 446.24C157.122 446.24 156.402 446.12 155.762 445.88C155.122 445.627 154.575 445.267 154.122 444.8C153.682 444.333 153.342 443.767 153.102 443.1C152.862 442.433 152.742 441.68 152.742 440.84C152.742 440 152.862 439.247 153.102 438.58C153.342 437.913 153.682 437.347 154.122 436.88C154.575 436.413 155.122 436.06 155.762 435.82C156.402 435.567 157.122 435.44 157.922 435.44C158.722 435.44 159.442 435.567 160.082 435.82C160.722 436.06 161.262 436.413 161.702 436.88C162.155 437.347 162.502 437.913 162.742 438.58C162.982 439.247 163.102 440 163.102 440.84C163.102 441.68 162.982 442.433 162.742 443.1C162.502 443.767 162.155 444.333 161.702 444.8C161.262 445.267 160.722 445.627 160.082 445.88C159.442 446.12 158.722 446.24 157.922 446.24ZM157.922 444.04C158.589 444.04 159.109 443.833 159.482 443.42C159.855 443.007 160.042 442.42 160.042 441.66V440.02C160.042 439.26 159.855 438.673 159.482 438.26C159.109 437.847 158.589 437.64 157.922 437.64C157.255 437.64 156.735 437.847 156.362 438.26C155.989 438.673 155.802 439.26 155.802 440.02V441.66C155.802 442.42 155.989 443.007 156.362 443.42C156.735 443.833 157.255 444.04 157.922 444.04ZM171.654 444.12H171.534C171.307 444.707 170.947 445.207 170.454 445.62C169.974 446.033 169.321 446.24 168.494 446.24C168.001 446.24 167.547 446.16 167.134 446C166.721 445.827 166.367 445.573 166.074 445.24C165.781 444.907 165.547 444.5 165.374 444.02C165.214 443.54 165.134 442.987 165.134 442.36V435.68H168.094V441.96C168.094 443.293 168.674 443.96 169.834 443.96C170.061 443.96 170.281 443.933 170.494 443.88C170.721 443.813 170.914 443.72 171.074 443.6C171.247 443.467 171.387 443.307 171.494 443.12C171.601 442.933 171.654 442.713 171.654 442.46V435.68H174.614V446H171.654V444.12ZM182.706 446C181.64 446 180.846 445.72 180.326 445.16C179.806 444.6 179.546 443.887 179.546 443.02V437.98H176.746V435.68H178.566C179.006 435.68 179.32 435.593 179.506 435.42C179.693 435.247 179.786 434.927 179.786 434.46V432.04H182.506V435.68H186.526V437.98H182.506V443.7H186.526V446H182.706ZM189.078 435.68H192.038V437.56H192.178C192.432 436.947 192.798 436.44 193.278 436.04C193.758 435.64 194.412 435.44 195.238 435.44C195.812 435.44 196.332 435.547 196.798 435.76C197.278 435.973 197.685 436.3 198.018 436.74C198.365 437.18 198.632 437.74 198.818 438.42C199.018 439.1 199.118 439.907 199.118 440.84C199.118 441.773 199.018 442.58 198.818 443.26C198.632 443.94 198.365 444.5 198.018 444.94C197.685 445.38 197.278 445.707 196.798 445.92C196.332 446.133 195.812 446.24 195.238 446.24C194.412 446.24 193.758 446.047 193.278 445.66C192.798 445.26 192.432 444.747 192.178 444.12H192.038V450H189.078V435.68ZM193.958 443.94C194.625 443.94 195.138 443.74 195.498 443.34C195.858 442.927 196.038 442.36 196.038 441.64V440.04C196.038 439.32 195.858 438.76 195.498 438.36C195.138 437.947 194.625 437.74 193.958 437.74C193.438 437.74 192.985 437.867 192.598 438.12C192.225 438.373 192.038 438.773 192.038 439.32V442.36C192.038 442.907 192.225 443.307 192.598 443.56C192.985 443.813 193.438 443.94 193.958 443.94ZM207.631 444.12H207.511C207.284 444.707 206.924 445.207 206.431 445.62C205.951 446.033 205.297 446.24 204.471 446.24C203.977 446.24 203.524 446.16 203.111 446C202.697 445.827 202.344 445.573 202.051 445.24C201.757 444.907 201.524 444.5 201.351 444.02C201.191 443.54 201.111 442.987 201.111 442.36V435.68H204.071V441.96C204.071 443.293 204.651 443.96 205.811 443.96C206.037 443.96 206.257 443.933 206.471 443.88C206.697 443.813 206.891 443.72 207.051 443.6C207.224 443.467 207.364 443.307 207.471 443.12C207.577 442.933 207.631 442.713 207.631 442.46V435.68H210.591V446H207.631V444.12ZM218.683 446C217.616 446 216.823 445.72 216.303 445.16C215.783 444.6 215.523 443.887 215.523 443.02V437.98H212.723V435.68H214.543C214.983 435.68 215.296 435.593 215.483 435.42C215.669 435.247 215.763 434.927 215.763 434.46V432.04H218.483V435.68H222.503V437.98H218.483V443.7H222.503V446H218.683ZM242.287 446.24C241.474 446.24 240.741 446.12 240.087 445.88C239.447 445.627 238.901 445.267 238.447 444.8C238.007 444.333 237.667 443.767 237.427 443.1C237.187 442.433 237.067 441.68 237.067 440.84C237.067 440 237.187 439.247 237.427 438.58C237.667 437.913 238.007 437.347 238.447 436.88C238.901 436.413 239.447 436.06 240.087 435.82C240.741 435.567 241.467 435.44 242.267 435.44C243.401 435.44 244.307 435.673 244.987 436.14C245.681 436.593 246.207 437.2 246.567 437.96L244.287 439.2C244.101 438.8 243.854 438.467 243.547 438.2C243.254 437.933 242.827 437.8 242.267 437.8C241.587 437.8 241.061 438 240.687 438.4C240.327 438.787 240.147 439.32 240.147 440V441.68C240.147 442.36 240.327 442.9 240.687 443.3C241.061 443.687 241.601 443.88 242.307 443.88C242.881 443.88 243.327 443.747 243.647 443.48C243.981 443.213 244.261 442.867 244.487 442.44L246.727 443.72C246.354 444.48 245.807 445.093 245.087 445.56C244.381 446.013 243.447 446.24 242.287 446.24ZM253.859 446.24C253.059 446.24 252.339 446.12 251.699 445.88C251.059 445.627 250.513 445.267 250.059 444.8C249.619 444.333 249.279 443.767 249.039 443.1C248.799 442.433 248.679 441.68 248.679 440.84C248.679 440 248.799 439.247 249.039 438.58C249.279 437.913 249.619 437.347 250.059 436.88C250.513 436.413 251.059 436.06 251.699 435.82C252.339 435.567 253.059 435.44 253.859 435.44C254.659 435.44 255.379 435.567 256.019 435.82C256.659 436.06 257.199 436.413 257.639 436.88C258.093 437.347 258.439 437.913 258.679 438.58C258.919 439.247 259.039 440 259.039 440.84C259.039 441.68 258.919 442.433 258.679 443.1C258.439 443.767 258.093 444.333 257.639 444.8C257.199 445.267 256.659 445.627 256.019 445.88C255.379 446.12 254.659 446.24 253.859 446.24ZM253.859 444.04C254.526 444.04 255.046 443.833 255.419 443.42C255.793 443.007 255.979 442.42 255.979 441.66V440.02C255.979 439.26 255.793 438.673 255.419 438.26C255.046 437.847 254.526 437.64 253.859 437.64C253.193 437.64 252.673 437.847 252.299 438.26C251.926 438.673 251.739 439.26 251.739 440.02V441.66C251.739 442.42 251.926 443.007 252.299 443.42C252.673 443.833 253.193 444.04 253.859 444.04ZM261.332 443.7H263.712V437.98H261.332V435.68H266.672V438.6H266.812C266.905 438.227 267.032 437.867 267.192 437.52C267.365 437.16 267.578 436.847 267.832 436.58C268.098 436.3 268.418 436.08 268.792 435.92C269.165 435.76 269.605 435.68 270.112 435.68H271.092V438.4H268.892C268.158 438.4 267.605 438.62 267.232 439.06C266.858 439.487 266.672 440.013 266.672 440.64V443.7H270.072V446H261.332V443.7ZM273.324 443.7H275.704V437.98H273.324V435.68H278.664V438.6H278.804C278.897 438.227 279.024 437.867 279.184 437.52C279.357 437.16 279.57 436.847 279.824 436.58C280.09 436.3 280.41 436.08 280.784 435.92C281.157 435.76 281.597 435.68 282.104 435.68H283.084V438.4H280.884C280.15 438.4 279.597 438.62 279.224 439.06C278.85 439.487 278.664 440.013 278.664 440.64V443.7H282.064V446H273.324V443.7ZM290.116 446.24C288.383 446.24 287.069 445.76 286.176 444.8C285.283 443.84 284.836 442.533 284.836 440.88C284.836 440.04 284.949 439.287 285.176 438.62C285.416 437.94 285.749 437.367 286.176 436.9C286.616 436.42 287.143 436.06 287.756 435.82C288.383 435.567 289.083 435.44 289.856 435.44C290.629 435.44 291.323 435.567 291.936 435.82C292.549 436.06 293.069 436.407 293.496 436.86C293.923 437.313 294.249 437.867 294.476 438.52C294.716 439.16 294.836 439.88 294.836 440.68V441.56H287.776V441.74C287.776 442.407 287.983 442.947 288.396 443.36C288.809 443.76 289.416 443.96 290.216 443.96C290.829 443.96 291.356 443.847 291.796 443.62C292.236 443.38 292.616 443.067 292.936 442.68L294.536 444.42C294.136 444.913 293.576 445.34 292.856 445.7C292.136 446.06 291.223 446.24 290.116 446.24ZM289.876 437.56C289.236 437.56 288.723 437.76 288.336 438.16C287.963 438.547 287.776 439.073 287.776 439.74V439.9H291.936V439.74C291.936 439.06 291.749 438.527 291.376 438.14C291.016 437.753 290.516 437.56 289.876 437.56ZM301.708 446.24C300.561 446.24 299.561 446.067 298.708 445.72C297.868 445.373 297.235 444.9 296.808 444.3L298.468 442.76C298.868 443.2 299.335 443.547 299.868 443.8C300.415 444.04 301.035 444.16 301.728 444.16C302.315 444.16 302.775 444.073 303.108 443.9C303.441 443.713 303.608 443.433 303.608 443.06C303.608 442.767 303.495 442.567 303.268 442.46C303.041 442.34 302.728 442.247 302.328 442.18L300.668 441.92C300.201 441.853 299.768 441.753 299.368 441.62C298.968 441.473 298.621 441.28 298.328 441.04C298.035 440.8 297.801 440.507 297.628 440.16C297.455 439.813 297.368 439.393 297.368 438.9C297.368 437.82 297.781 436.973 298.608 436.36C299.435 435.747 300.595 435.44 302.088 435.44C303.101 435.44 303.961 435.58 304.668 435.86C305.388 436.127 305.961 436.513 306.388 437.02L304.908 438.7C304.601 438.367 304.208 438.087 303.728 437.86C303.248 437.633 302.668 437.52 301.988 437.52C300.841 437.52 300.268 437.867 300.268 438.56C300.268 438.867 300.381 439.08 300.608 439.2C300.835 439.307 301.148 439.393 301.548 439.46L303.188 439.72C303.655 439.787 304.088 439.893 304.488 440.04C304.888 440.173 305.235 440.36 305.528 440.6C305.835 440.84 306.075 441.133 306.248 441.48C306.421 441.827 306.508 442.247 306.508 442.74C306.508 443.82 306.088 444.673 305.248 445.3C304.421 445.927 303.241 446.24 301.708 446.24ZM309 435.68H311.96V437.56H312.1C312.354 436.947 312.72 436.44 313.2 436.04C313.68 435.64 314.334 435.44 315.16 435.44C315.734 435.44 316.254 435.547 316.72 435.76C317.2 435.973 317.607 436.3 317.94 436.74C318.287 437.18 318.554 437.74 318.74 438.42C318.94 439.1 319.04 439.907 319.04 440.84C319.04 441.773 318.94 442.58 318.74 443.26C318.554 443.94 318.287 444.5 317.94 444.94C317.607 445.38 317.2 445.707 316.72 445.92C316.254 446.133 315.734 446.24 315.16 446.24C314.334 446.24 313.68 446.047 313.2 445.66C312.72 445.26 312.354 444.747 312.1 444.12H311.96V450H309V435.68ZM313.88 443.94C314.547 443.94 315.06 443.74 315.42 443.34C315.78 442.927 315.96 442.36 315.96 441.64V440.04C315.96 439.32 315.78 438.76 315.42 438.36C315.06 437.947 314.547 437.74 313.88 437.74C313.36 437.74 312.907 437.867 312.52 438.12C312.147 438.373 311.96 438.773 311.96 439.32V442.36C311.96 442.907 312.147 443.307 312.52 443.56C312.907 443.813 313.36 443.94 313.88 443.94ZM325.813 446.24C325.013 446.24 324.293 446.12 323.653 445.88C323.013 445.627 322.466 445.267 322.013 444.8C321.573 444.333 321.233 443.767 320.993 443.1C320.753 442.433 320.633 441.68 320.633 440.84C320.633 440 320.753 439.247 320.993 438.58C321.233 437.913 321.573 437.347 322.013 436.88C322.466 436.413 323.013 436.06 323.653 435.82C324.293 435.567 325.013 435.44 325.813 435.44C326.613 435.44 327.333 435.567 327.973 435.82C328.613 436.06 329.153 436.413 329.593 436.88C330.046 437.347 330.393 437.913 330.633 438.58C330.873 439.247 330.993 440 330.993 440.84C330.993 441.68 330.873 442.433 330.633 443.1C330.393 443.767 330.046 444.333 329.593 444.8C329.153 445.267 328.613 445.627 327.973 445.88C327.333 446.12 326.613 446.24 325.813 446.24ZM325.813 444.04C326.479 444.04 326.999 443.833 327.373 443.42C327.746 443.007 327.933 442.42 327.933 441.66V440.02C327.933 439.26 327.746 438.673 327.373 438.26C326.999 437.847 326.479 437.64 325.813 437.64C325.146 437.64 324.626 437.847 324.253 438.26C323.879 438.673 323.693 439.26 323.693 440.02V441.66C323.693 442.42 323.879 443.007 324.253 443.42C324.626 443.833 325.146 444.04 325.813 444.04ZM333.105 446V435.68H336.065V437.56H336.185C336.305 437.267 336.451 436.993 336.625 436.74C336.798 436.487 337.005 436.267 337.245 436.08C337.498 435.88 337.785 435.727 338.105 435.62C338.438 435.5 338.811 435.44 339.225 435.44C339.718 435.44 340.171 435.527 340.585 435.7C340.998 435.86 341.351 436.107 341.645 436.44C341.938 436.773 342.165 437.18 342.325 437.66C342.498 438.14 342.585 438.693 342.585 439.32V446H339.625V439.72C339.625 438.387 339.045 437.72 337.885 437.72C337.658 437.72 337.431 437.753 337.205 437.82C336.991 437.873 336.798 437.967 336.625 438.1C336.451 438.22 336.311 438.373 336.205 438.56C336.111 438.747 336.065 438.967 336.065 439.22V446H333.105ZM351.657 444.12H351.517C351.25 444.747 350.877 445.26 350.397 445.66C349.93 446.047 349.284 446.24 348.457 446.24C347.884 446.24 347.357 446.133 346.877 445.92C346.41 445.707 346.004 445.38 345.657 444.94C345.324 444.5 345.057 443.94 344.857 443.26C344.67 442.58 344.577 441.773 344.577 440.84C344.577 439.907 344.67 439.1 344.857 438.42C345.057 437.74 345.324 437.18 345.657 436.74C346.004 436.3 346.41 435.973 346.877 435.76C347.357 435.547 347.884 435.44 348.457 435.44C348.87 435.44 349.237 435.493 349.557 435.6C349.877 435.707 350.157 435.853 350.397 436.04C350.65 436.227 350.864 436.453 351.037 436.72C351.224 436.973 351.384 437.253 351.517 437.56H351.657V431.2H354.617V446H351.657V444.12ZM349.737 443.94C350.257 443.94 350.704 443.813 351.077 443.56C351.464 443.307 351.657 442.907 351.657 442.36V439.32C351.657 438.773 351.464 438.373 351.077 438.12C350.704 437.867 350.257 437.74 349.737 437.74C349.07 437.74 348.557 437.947 348.197 438.36C347.837 438.76 347.657 439.32 347.657 440.04V441.64C347.657 442.36 347.837 442.927 348.197 443.34C348.557 443.74 349.07 443.94 349.737 443.94ZM361.669 446.24C360.522 446.24 359.522 446.067 358.669 445.72C357.829 445.373 357.196 444.9 356.769 444.3L358.429 442.76C358.829 443.2 359.296 443.547 359.829 443.8C360.376 444.04 360.996 444.16 361.689 444.16C362.276 444.16 362.736 444.073 363.069 443.9C363.402 443.713 363.569 443.433 363.569 443.06C363.569 442.767 363.456 442.567 363.229 442.46C363.002 442.34 362.689 442.247 362.289 442.18L360.629 441.92C360.162 441.853 359.729 441.753 359.329 441.62C358.929 441.473 358.582 441.28 358.289 441.04C357.996 440.8 357.762 440.507 357.589 440.16C357.416 439.813 357.329 439.393 357.329 438.9C357.329 437.82 357.742 436.973 358.569 436.36C359.396 435.747 360.556 435.44 362.049 435.44C363.062 435.44 363.922 435.58 364.629 435.86C365.349 436.127 365.922 436.513 366.349 437.02L364.869 438.7C364.562 438.367 364.169 438.087 363.689 437.86C363.209 437.633 362.629 437.52 361.949 437.52C360.802 437.52 360.229 437.867 360.229 438.56C360.229 438.867 360.342 439.08 360.569 439.2C360.796 439.307 361.109 439.393 361.509 439.46L363.149 439.72C363.616 439.787 364.049 439.893 364.449 440.04C364.849 440.173 365.196 440.36 365.489 440.6C365.796 440.84 366.036 441.133 366.209 441.48C366.382 441.827 366.469 442.247 366.469 442.74C366.469 443.82 366.049 444.673 365.209 445.3C364.382 445.927 363.202 446.24 361.669 446.24ZM386.573 446C385.507 446 384.713 445.72 384.193 445.16C383.673 444.6 383.413 443.887 383.413 443.02V437.98H380.613V435.68H382.433C382.873 435.68 383.187 435.593 383.373 435.42C383.56 435.247 383.653 434.927 383.653 434.46V432.04H386.373V435.68H390.393V437.98H386.373V443.7H390.393V446H386.573ZM397.766 446.24C396.966 446.24 396.246 446.12 395.606 445.88C394.966 445.627 394.419 445.267 393.966 444.8C393.526 444.333 393.186 443.767 392.946 443.1C392.706 442.433 392.586 441.68 392.586 440.84C392.586 440 392.706 439.247 392.946 438.58C393.186 437.913 393.526 437.347 393.966 436.88C394.419 436.413 394.966 436.06 395.606 435.82C396.246 435.567 396.966 435.44 397.766 435.44C398.566 435.44 399.286 435.567 399.926 435.82C400.566 436.06 401.106 436.413 401.546 436.88C401.999 437.347 402.346 437.913 402.586 438.58C402.826 439.247 402.946 440 402.946 440.84C402.946 441.68 402.826 442.433 402.586 443.1C402.346 443.767 401.999 444.333 401.546 444.8C401.106 445.267 400.566 445.627 399.926 445.88C399.286 446.12 398.566 446.24 397.766 446.24ZM397.766 444.04C398.432 444.04 398.952 443.833 399.326 443.42C399.699 443.007 399.886 442.42 399.886 441.66V440.02C399.886 439.26 399.699 438.673 399.326 438.26C398.952 437.847 398.432 437.64 397.766 437.64C397.099 437.64 396.579 437.847 396.206 438.26C395.832 438.673 395.646 439.26 395.646 440.02V441.66C395.646 442.42 395.832 443.007 396.206 443.42C396.579 443.833 397.099 444.04 397.766 444.04ZM422.55 446C421.483 446 420.69 445.72 420.17 445.16C419.65 444.6 419.39 443.887 419.39 443.02V437.98H416.59V435.68H418.41C418.85 435.68 419.163 435.593 419.35 435.42C419.537 435.247 419.63 434.927 419.63 434.46V432.04H422.35V435.68H426.37V437.98H422.35V443.7H426.37V446H422.55ZM429.042 431.2H432.002V437.56H432.122C432.242 437.267 432.389 436.993 432.562 436.74C432.736 436.487 432.942 436.267 433.182 436.08C433.436 435.88 433.722 435.727 434.042 435.62C434.376 435.5 434.749 435.44 435.162 435.44C435.656 435.44 436.109 435.527 436.522 435.7C436.936 435.86 437.289 436.107 437.582 436.44C437.876 436.773 438.102 437.18 438.262 437.66C438.436 438.14 438.522 438.693 438.522 439.32V446H435.562V439.72C435.562 438.387 434.982 437.72 433.822 437.72C433.596 437.72 433.369 437.753 433.142 437.82C432.929 437.873 432.736 437.967 432.562 438.1C432.389 438.22 432.249 438.373 432.142 438.56C432.049 438.747 432.002 438.967 432.002 439.22V446H429.042V431.2ZM446.014 446.24C444.281 446.24 442.968 445.76 442.074 444.8C441.181 443.84 440.734 442.533 440.734 440.88C440.734 440.04 440.848 439.287 441.074 438.62C441.314 437.94 441.648 437.367 442.074 436.9C442.514 436.42 443.041 436.06 443.654 435.82C444.281 435.567 444.981 435.44 445.754 435.44C446.528 435.44 447.221 435.567 447.834 435.82C448.448 436.06 448.968 436.407 449.394 436.86C449.821 437.313 450.148 437.867 450.374 438.52C450.614 439.16 450.734 439.88 450.734 440.68V441.56H443.674V441.74C443.674 442.407 443.881 442.947 444.294 443.36C444.708 443.76 445.314 443.96 446.114 443.96C446.728 443.96 447.254 443.847 447.694 443.62C448.134 443.38 448.514 443.067 448.834 442.68L450.434 444.42C450.034 444.913 449.474 445.34 448.754 445.7C448.034 446.06 447.121 446.24 446.014 446.24ZM445.774 437.56C445.134 437.56 444.621 437.76 444.234 438.16C443.861 438.547 443.674 439.073 443.674 439.74V439.9H447.834V439.74C447.834 439.06 447.648 438.527 447.274 438.14C446.914 437.753 446.414 437.56 445.774 437.56ZM474.219 434.66H467.759L467.439 439.08H467.619C467.765 438.76 467.932 438.467 468.119 438.2C468.305 437.92 468.525 437.687 468.779 437.5C469.032 437.3 469.325 437.147 469.659 437.04C469.992 436.933 470.372 436.88 470.799 436.88C471.372 436.88 471.912 436.98 472.419 437.18C472.939 437.38 473.392 437.673 473.779 438.06C474.179 438.433 474.492 438.9 474.719 439.46C474.945 440.007 475.059 440.627 475.059 441.32C475.059 442.027 474.939 442.68 474.699 443.28C474.459 443.88 474.105 444.4 473.639 444.84C473.185 445.28 472.619 445.627 471.939 445.88C471.259 446.12 470.485 446.24 469.619 446.24C468.939 446.24 468.332 446.167 467.799 446.02C467.265 445.873 466.792 445.68 466.379 445.44C465.979 445.187 465.625 444.9 465.319 444.58C465.025 444.247 464.772 443.907 464.559 443.56L466.739 441.84C466.899 442.107 467.065 442.36 467.239 442.6C467.425 442.84 467.632 443.053 467.859 443.24C468.099 443.413 468.359 443.553 468.639 443.66C468.932 443.753 469.265 443.8 469.639 443.8C470.385 443.8 470.945 443.6 471.319 443.2C471.705 442.787 471.899 442.24 471.899 441.56V441.4C471.899 440.747 471.705 440.233 471.319 439.86C470.932 439.487 470.399 439.3 469.719 439.3C469.159 439.3 468.692 439.413 468.319 439.64C467.959 439.853 467.685 440.067 467.499 440.28L465.039 439.94L465.559 432.04H474.219V434.66ZM495.443 444.12H495.323C495.096 444.707 494.736 445.207 494.243 445.62C493.763 446.033 493.11 446.24 492.283 446.24C491.79 446.24 491.336 446.16 490.923 446C490.51 445.827 490.156 445.573 489.863 445.24C489.57 444.907 489.336 444.5 489.163 444.02C489.003 443.54 488.923 442.987 488.923 442.36V435.68H491.883V441.96C491.883 443.293 492.463 443.96 493.623 443.96C493.85 443.96 494.07 443.933 494.283 443.88C494.51 443.813 494.703 443.72 494.863 443.6C495.036 443.467 495.176 443.307 495.283 443.12C495.39 442.933 495.443 442.713 495.443 442.46V435.68H498.403V446H495.443V444.12ZM500.995 446V435.68H503.955V437.56H504.075C504.195 437.267 504.342 436.993 504.515 436.74C504.689 436.487 504.895 436.267 505.135 436.08C505.389 435.88 505.675 435.727 505.995 435.62C506.329 435.5 506.702 435.44 507.115 435.44C507.609 435.44 508.062 435.527 508.475 435.7C508.889 435.86 509.242 436.107 509.535 436.44C509.829 436.773 510.055 437.18 510.215 437.66C510.389 438.14 510.475 438.693 510.475 439.32V446H507.515V439.72C507.515 438.387 506.935 437.72 505.775 437.72C505.549 437.72 505.322 437.753 505.095 437.82C504.882 437.873 504.689 437.967 504.515 438.1C504.342 438.22 504.202 438.373 504.095 438.56C504.002 438.747 503.955 438.967 503.955 439.22V446H500.995ZM518.328 434.36C517.661 434.36 517.194 434.227 516.928 433.96C516.674 433.68 516.548 433.347 516.548 432.96V432.38C516.548 431.98 516.674 431.647 516.928 431.38C517.194 431.113 517.661 430.98 518.328 430.98C518.994 430.98 519.454 431.113 519.708 431.38C519.974 431.647 520.108 431.98 520.108 432.38V432.96C520.108 433.347 519.974 433.68 519.708 433.96C519.454 434.227 518.994 434.36 518.328 434.36ZM513.568 443.7H516.848V437.98H513.568V435.68H519.808V443.7H522.848V446H513.568V443.7ZM531.54 444.12H531.4C531.133 444.747 530.76 445.26 530.28 445.66C529.813 446.047 529.166 446.24 528.34 446.24C527.766 446.24 527.24 446.133 526.76 445.92C526.293 445.707 525.886 445.38 525.54 444.94C525.206 444.5 524.94 443.94 524.74 443.26C524.553 442.58 524.46 441.773 524.46 440.84C524.46 439.907 524.553 439.1 524.74 438.42C524.94 437.74 525.206 437.18 525.54 436.74C525.886 436.3 526.293 435.973 526.76 435.76C527.24 435.547 527.766 435.44 528.34 435.44C528.753 435.44 529.12 435.493 529.44 435.6C529.76 435.707 530.04 435.853 530.28 436.04C530.533 436.227 530.746 436.453 530.92 436.72C531.106 436.973 531.266 437.253 531.4 437.56H531.54V435.68H534.5V450H531.54V444.12ZM529.62 443.94C530.14 443.94 530.586 443.813 530.96 443.56C531.346 443.307 531.54 442.907 531.54 442.36V439.32C531.54 438.773 531.346 438.373 530.96 438.12C530.586 437.867 530.14 437.74 529.62 437.74C528.953 437.74 528.44 437.947 528.08 438.36C527.72 438.76 527.54 439.32 527.54 440.04V441.64C527.54 442.36 527.72 442.927 528.08 443.34C528.44 443.74 528.953 443.94 529.62 443.94ZM543.412 444.12H543.292C543.065 444.707 542.705 445.207 542.212 445.62C541.732 446.033 541.079 446.24 540.252 446.24C539.759 446.24 539.305 446.16 538.892 446C538.479 445.827 538.125 445.573 537.832 445.24C537.539 444.907 537.305 444.5 537.132 444.02C536.972 443.54 536.892 442.987 536.892 442.36V435.68H539.852V441.96C539.852 443.293 540.432 443.96 541.592 443.96C541.819 443.96 542.039 443.933 542.252 443.88C542.479 443.813 542.672 443.72 542.832 443.6C543.005 443.467 543.145 443.307 543.252 443.12C543.359 442.933 543.412 442.713 543.412 442.46V435.68H546.372V446H543.412V444.12ZM553.944 446.24C552.211 446.24 550.897 445.76 550.004 444.8C549.111 443.84 548.664 442.533 548.664 440.88C548.664 440.04 548.777 439.287 549.004 438.62C549.244 437.94 549.577 437.367 550.004 436.9C550.444 436.42 550.971 436.06 551.584 435.82C552.211 435.567 552.911 435.44 553.684 435.44C554.457 435.44 555.151 435.567 555.764 435.82C556.377 436.06 556.897 436.407 557.324 436.86C557.751 437.313 558.077 437.867 558.304 438.52C558.544 439.16 558.664 439.88 558.664 440.68V441.56H551.604V441.74C551.604 442.407 551.811 442.947 552.224 443.36C552.637 443.76 553.244 443.96 554.044 443.96C554.657 443.96 555.184 443.847 555.624 443.62C556.064 443.38 556.444 443.067 556.764 442.68L558.364 444.42C557.964 444.913 557.404 445.34 556.684 445.7C555.964 446.06 555.051 446.24 553.944 446.24ZM553.704 437.56C553.064 437.56 552.551 437.76 552.164 438.16C551.791 438.547 551.604 439.073 551.604 439.74V439.9H555.764V439.74C555.764 439.06 555.577 438.527 555.204 438.14C554.844 437.753 554.344 437.56 553.704 437.56ZM573.188 432.04H578.088C579.462 432.04 580.508 432.373 581.228 433.04C581.962 433.707 582.328 434.613 582.328 435.76C582.328 436.56 582.128 437.2 581.728 437.68C581.342 438.147 580.782 438.487 580.048 438.7V438.82C580.915 439.033 581.582 439.407 582.048 439.94C582.528 440.473 582.768 441.213 582.768 442.16C582.768 443.333 582.395 444.267 581.648 444.96C580.915 445.653 579.882 446 578.548 446H573.188V432.04ZM577.628 443.9C578.348 443.9 578.875 443.78 579.208 443.54C579.542 443.3 579.708 442.86 579.708 442.22V441.64C579.708 441 579.542 440.56 579.208 440.32C578.875 440.08 578.348 439.96 577.628 439.96H576.108V443.9H577.628ZM577.248 437.96C577.955 437.96 578.468 437.847 578.788 437.62C579.108 437.38 579.268 436.953 579.268 436.34V435.74C579.268 435.127 579.108 434.707 578.788 434.48C578.468 434.253 577.955 434.14 577.248 434.14H576.108V437.96H577.248ZM589.421 446.24C588.247 446.24 587.227 446.047 586.361 445.66C585.494 445.273 584.794 444.747 584.261 444.08L586.001 442.16C586.507 442.72 587.061 443.133 587.661 443.4C588.274 443.667 588.894 443.8 589.521 443.8C590.241 443.8 590.787 443.64 591.161 443.32C591.534 443 591.721 442.54 591.721 441.94C591.721 441.447 591.574 441.073 591.281 440.82C591.001 440.567 590.521 440.387 589.841 440.28L588.381 440.04C587.127 439.827 586.221 439.367 585.661 438.66C585.101 437.94 584.821 437.067 584.821 436.04C584.821 434.693 585.261 433.653 586.141 432.92C587.021 432.173 588.254 431.8 589.841 431.8C590.921 431.8 591.861 431.967 592.661 432.3C593.461 432.633 594.107 433.087 594.601 433.66L592.901 435.56C592.527 435.147 592.087 434.827 591.581 434.6C591.074 434.36 590.501 434.24 589.861 434.24C588.514 434.24 587.841 434.793 587.841 435.9C587.841 436.38 587.987 436.74 588.281 436.98C588.587 437.22 589.081 437.4 589.761 437.52L591.221 437.78C592.354 437.98 593.227 438.407 593.841 439.06C594.454 439.713 594.761 440.593 594.761 441.7C594.761 442.353 594.647 442.96 594.421 443.52C594.194 444.067 593.854 444.547 593.401 444.96C592.947 445.36 592.387 445.673 591.721 445.9C591.067 446.127 590.301 446.24 589.421 446.24ZM603.133 434.5V446H600.133V434.5H596.113V432.04H607.153V434.5H603.133ZM612.305 437.72V431.2H614.945V437.72H612.305ZM625.497 446.24C624.351 446.24 623.351 446.067 622.497 445.72C621.657 445.373 621.024 444.9 620.597 444.3L622.257 442.76C622.657 443.2 623.124 443.547 623.657 443.8C624.204 444.04 624.824 444.16 625.517 444.16C626.104 444.16 626.564 444.073 626.897 443.9C627.231 443.713 627.397 443.433 627.397 443.06C627.397 442.767 627.284 442.567 627.057 442.46C626.831 442.34 626.517 442.247 626.117 442.18L624.457 441.92C623.991 441.853 623.557 441.753 623.157 441.62C622.757 441.473 622.411 441.28 622.117 441.04C621.824 440.8 621.591 440.507 621.417 440.16C621.244 439.813 621.157 439.393 621.157 438.9C621.157 437.82 621.571 436.973 622.397 436.36C623.224 435.747 624.384 435.44 625.877 435.44C626.891 435.44 627.751 435.58 628.457 435.86C629.177 436.127 629.751 436.513 630.177 437.02L628.697 438.7C628.391 438.367 627.997 438.087 627.517 437.86C627.037 437.633 626.457 437.52 625.777 437.52C624.631 437.52 624.057 437.867 624.057 438.56C624.057 438.867 624.171 439.08 624.397 439.2C624.624 439.307 624.937 439.393 625.337 439.46L626.977 439.72C627.444 439.787 627.877 439.893 628.277 440.04C628.677 440.173 629.024 440.36 629.317 440.6C629.624 440.84 629.864 441.133 630.037 441.48C630.211 441.827 630.297 442.247 630.297 442.74C630.297 443.82 629.877 444.673 629.037 445.3C628.211 445.927 627.031 446.24 625.497 446.24ZM649.482 446.24C648.335 446.24 647.335 446.067 646.482 445.72C645.642 445.373 645.008 444.9 644.582 444.3L646.242 442.76C646.642 443.2 647.108 443.547 647.642 443.8C648.188 444.04 648.808 444.16 649.502 444.16C650.088 444.16 650.548 444.073 650.882 443.9C651.215 443.713 651.382 443.433 651.382 443.06C651.382 442.767 651.268 442.567 651.042 442.46C650.815 442.34 650.502 442.247 650.102 442.18L648.442 441.92C647.975 441.853 647.542 441.753 647.142 441.62C646.742 441.473 646.395 441.28 646.102 441.04C645.808 440.8 645.575 440.507 645.402 440.16C645.228 439.813 645.142 439.393 645.142 438.9C645.142 437.82 645.555 436.973 646.382 436.36C647.208 435.747 648.368 435.44 649.862 435.44C650.875 435.44 651.735 435.58 652.442 435.86C653.162 436.127 653.735 436.513 654.162 437.02L652.682 438.7C652.375 438.367 651.982 438.087 651.502 437.86C651.022 437.633 650.442 437.52 649.762 437.52C648.615 437.52 648.042 437.867 648.042 438.56C648.042 438.867 648.155 439.08 648.382 439.2C648.608 439.307 648.922 439.393 649.322 439.46L650.962 439.72C651.428 439.787 651.862 439.893 652.262 440.04C652.662 440.173 653.008 440.36 653.302 440.6C653.608 440.84 653.848 441.133 654.022 441.48C654.195 441.827 654.282 442.247 654.282 442.74C654.282 443.82 653.862 444.673 653.022 445.3C652.195 445.927 651.015 446.24 649.482 446.24ZM656.894 431.2H659.854V437.56H659.974C660.094 437.267 660.24 436.993 660.414 436.74C660.587 436.487 660.794 436.267 661.034 436.08C661.287 435.88 661.574 435.727 661.894 435.62C662.227 435.5 662.6 435.44 663.014 435.44C663.507 435.44 663.96 435.527 664.374 435.7C664.787 435.86 665.14 436.107 665.434 436.44C665.727 436.773 665.954 437.18 666.114 437.66C666.287 438.14 666.374 438.693 666.374 439.32V446H663.414V439.72C663.414 438.387 662.834 437.72 661.674 437.72C661.447 437.72 661.22 437.753 660.994 437.82C660.78 437.873 660.587 437.967 660.414 438.1C660.24 438.22 660.1 438.373 659.994 438.56C659.9 438.747 659.854 438.967 659.854 439.22V446H656.894V431.2ZM673.586 446.24C672.786 446.24 672.066 446.12 671.426 445.88C670.786 445.627 670.239 445.267 669.786 444.8C669.346 444.333 669.006 443.767 668.766 443.1C668.526 442.433 668.406 441.68 668.406 440.84C668.406 440 668.526 439.247 668.766 438.58C669.006 437.913 669.346 437.347 669.786 436.88C670.239 436.413 670.786 436.06 671.426 435.82C672.066 435.567 672.786 435.44 673.586 435.44C674.386 435.44 675.106 435.567 675.746 435.82C676.386 436.06 676.926 436.413 677.366 436.88C677.819 437.347 678.166 437.913 678.406 438.58C678.646 439.247 678.766 440 678.766 440.84C678.766 441.68 678.646 442.433 678.406 443.1C678.166 443.767 677.819 444.333 677.366 444.8C676.926 445.267 676.386 445.627 675.746 445.88C675.106 446.12 674.386 446.24 673.586 446.24ZM673.586 444.04C674.253 444.04 674.773 443.833 675.146 443.42C675.519 443.007 675.706 442.42 675.706 441.66V440.02C675.706 439.26 675.519 438.673 675.146 438.26C674.773 437.847 674.253 437.64 673.586 437.64C672.919 437.64 672.399 437.847 672.026 438.26C671.653 438.673 671.466 439.26 671.466 440.02V441.66C671.466 442.42 671.653 443.007 672.026 443.42C672.399 443.833 672.919 444.04 673.586 444.04ZM679.718 435.68H682.178L682.918 444.04H683.118L684.338 435.68H686.938L688.138 444.04H688.338L689.098 435.68H691.438L690.218 446H686.698L685.678 438.88H685.478L684.458 446H680.938L679.718 435.68ZM692.87 446V435.68H695.83V437.56H695.95C696.07 437.267 696.217 436.993 696.39 436.74C696.564 436.487 696.77 436.267 697.01 436.08C697.264 435.88 697.55 435.727 697.87 435.62C698.204 435.5 698.577 435.44 698.99 435.44C699.484 435.44 699.937 435.527 700.35 435.7C700.764 435.86 701.117 436.107 701.41 436.44C701.704 436.773 701.93 437.18 702.09 437.66C702.264 438.14 702.35 438.693 702.35 439.32V446H699.39V439.72C699.39 438.387 698.81 437.72 697.65 437.72C697.424 437.72 697.197 437.753 696.97 437.82C696.757 437.873 696.564 437.967 696.39 438.1C696.217 438.22 696.077 438.373 695.97 438.56C695.877 438.747 695.83 438.967 695.83 439.22V446H692.87ZM716.735 431.2H719.695V437.56H719.835C720.088 436.947 720.455 436.44 720.935 436.04C721.415 435.64 722.068 435.44 722.895 435.44C723.468 435.44 723.988 435.547 724.455 435.76C724.935 435.973 725.341 436.3 725.675 436.74C726.021 437.18 726.288 437.74 726.475 438.42C726.675 439.1 726.775 439.907 726.775 440.84C726.775 441.773 726.675 442.58 726.475 443.26C726.288 443.94 726.021 444.5 725.675 444.94C725.341 445.38 724.935 445.707 724.455 445.92C723.988 446.133 723.468 446.24 722.895 446.24C722.068 446.24 721.415 446.047 720.935 445.66C720.455 445.26 720.088 444.747 719.835 444.12H719.695V446H716.735V431.2ZM721.615 443.94C722.281 443.94 722.795 443.74 723.155 443.34C723.515 442.927 723.695 442.36 723.695 441.64V440.04C723.695 439.32 723.515 438.76 723.155 438.36C722.795 437.947 722.281 437.74 721.615 437.74C721.095 437.74 720.641 437.867 720.255 438.12C719.881 438.373 719.695 438.773 719.695 439.32V442.36C719.695 442.907 719.881 443.307 720.255 443.56C720.641 443.813 721.095 443.94 721.615 443.94ZM733.827 446.24C732.094 446.24 730.78 445.76 729.887 444.8C728.994 443.84 728.547 442.533 728.547 440.88C728.547 440.04 728.66 439.287 728.887 438.62C729.127 437.94 729.46 437.367 729.887 436.9C730.327 436.42 730.854 436.06 731.467 435.82C732.094 435.567 732.794 435.44 733.567 435.44C734.34 435.44 735.034 435.567 735.647 435.82C736.26 436.06 736.78 436.407 737.207 436.86C737.634 437.313 737.96 437.867 738.187 438.52C738.427 439.16 738.547 439.88 738.547 440.68V441.56H731.487V441.74C731.487 442.407 731.694 442.947 732.107 443.36C732.52 443.76 733.127 443.96 733.927 443.96C734.54 443.96 735.067 443.847 735.507 443.62C735.947 443.38 736.327 443.067 736.647 442.68L738.247 444.42C737.847 444.913 737.287 445.34 736.567 445.7C735.847 446.06 734.934 446.24 733.827 446.24ZM733.587 437.56C732.947 437.56 732.434 437.76 732.047 438.16C731.674 438.547 731.487 439.073 731.487 439.74V439.9H735.647V439.74C735.647 439.06 735.46 438.527 735.087 438.14C734.727 437.753 734.227 437.56 733.587 437.56ZM740.899 443.7H744.059V433.5H740.899V431.2H747.019V443.7H750.179V446H740.899V443.7ZM757.531 446.24C756.731 446.24 756.011 446.12 755.371 445.88C754.731 445.627 754.185 445.267 753.731 444.8C753.291 444.333 752.951 443.767 752.711 443.1C752.471 442.433 752.351 441.68 752.351 440.84C752.351 440 752.471 439.247 752.711 438.58C752.951 437.913 753.291 437.347 753.731 436.88C754.185 436.413 754.731 436.06 755.371 435.82C756.011 435.567 756.731 435.44 757.531 435.44C758.331 435.44 759.051 435.567 759.691 435.82C760.331 436.06 760.871 436.413 761.311 436.88C761.765 437.347 762.111 437.913 762.351 438.58C762.591 439.247 762.711 440 762.711 440.84C762.711 441.68 762.591 442.433 762.351 443.1C762.111 443.767 761.765 444.333 761.311 444.8C760.871 445.267 760.331 445.627 759.691 445.88C759.051 446.12 758.331 446.24 757.531 446.24ZM757.531 444.04C758.198 444.04 758.718 443.833 759.091 443.42C759.465 443.007 759.651 442.42 759.651 441.66V440.02C759.651 439.26 759.465 438.673 759.091 438.26C758.718 437.847 758.198 437.64 757.531 437.64C756.865 437.64 756.345 437.847 755.971 438.26C755.598 438.673 755.411 439.26 755.411 440.02V441.66C755.411 442.42 755.598 443.007 755.971 443.42C756.345 443.833 756.865 444.04 757.531 444.04ZM763.663 435.68H766.123L766.863 444.04H767.063L768.283 435.68H770.883L772.083 444.04H772.283L773.043 435.68H775.383L774.163 446H770.643L769.623 438.88H769.423L768.403 446H764.883L763.663 435.68ZM781.516 446.24C780.769 446.24 780.229 446.08 779.896 445.76C779.576 445.427 779.416 445.033 779.416 444.58V443.88C779.416 443.427 779.576 443.04 779.896 442.72C780.229 442.387 780.769 442.22 781.516 442.22C782.262 442.22 782.796 442.387 783.116 442.72C783.449 443.04 783.616 443.427 783.616 443.88V444.58C783.616 445.033 783.449 445.427 783.116 445.76C782.796 446.08 782.262 446.24 781.516 446.24ZM781.516 439.46C780.769 439.46 780.229 439.3 779.896 438.98C779.576 438.647 779.416 438.253 779.416 437.8V437.1C779.416 436.647 779.576 436.26 779.896 435.94C780.229 435.607 780.769 435.44 781.516 435.44C782.262 435.44 782.796 435.607 783.116 435.94C783.449 436.26 783.616 436.647 783.616 437.1V437.8C783.616 438.253 783.449 438.647 783.116 438.98C782.796 439.3 782.262 439.46 781.516 439.46Z" fill="#E0E0E0"/>
</svg>
