<svg width="52" height="54" viewBox="0 0 52 54" fill="none" xmlns="http://www.w3.org/2000/svg">
<path d="M51.993 27.0095C51.993 27.5807 52.006 28.1583 51.993 28.7295C51.954 29.9758 51.0255 31.0922 49.8372 31.3259C49.6554 31.3583 49.4736 31.3648 49.2918 31.3648C48.2334 31.3713 47.1685 31.3713 46.1101 31.3648C45.8764 31.3648 45.7595 31.4427 45.7075 31.6764C45.2076 33.7859 44.3959 35.7721 43.2401 37.6155C43.1037 37.8297 43.1492 37.953 43.3115 38.1152C44.0388 38.8292 44.7335 39.5692 45.4738 40.2637C46.7594 41.4775 46.5127 43.217 45.5127 44.275C44.7985 45.0409 44.0453 45.7744 43.2856 46.5014C42.37 47.3841 40.9999 47.5789 39.9545 47.0012C39.6558 46.8389 39.4156 46.5987 39.1753 46.3651C38.4935 45.69 37.8053 45.0085 37.1365 44.3205C36.9546 44.1387 36.8248 44.0933 36.5845 44.2361C34.7405 45.385 32.76 46.2028 30.6432 46.6896C30.4095 46.7415 30.364 46.8778 30.364 47.0856C30.3705 48.1436 30.3315 49.208 30.377 50.266C30.4289 51.7005 29.2147 52.9013 27.7732 52.9727C26.6044 53.0246 25.4356 53.0246 24.2669 52.9727C22.8968 52.9143 21.5851 51.8044 21.6371 50.2206C21.6696 49.1951 21.6371 48.163 21.6501 47.1375C21.6566 46.8649 21.5722 46.735 21.293 46.6701C19.1891 46.1768 17.2217 45.3525 15.3906 44.2101C15.1893 44.0803 15.0659 44.1322 14.9166 44.288C14.1894 45.028 13.4491 45.7614 12.7154 46.4949C11.7544 47.4555 10.4168 47.6827 9.31293 46.9038C8.07272 46.034 6.98186 44.9566 6.11826 43.7038C5.34556 42.5874 5.55984 41.2957 6.52084 40.3351C7.25457 39.6016 7.98831 38.8617 8.72854 38.1347C8.90385 37.9595 8.92983 37.8232 8.79347 37.6025C7.65715 35.7786 6.8455 33.8183 6.34552 31.7283C6.28059 31.4557 6.16371 31.3583 5.8845 31.3648C4.85857 31.3778 3.82614 31.3388 2.80021 31.3778C1.23534 31.4362 0.0990219 30.151 0.0340895 28.6906C-0.0113632 27.5677 -0.0113632 26.4383 0.0340895 25.3154C0.0925287 23.9263 1.18339 22.5763 2.8067 22.6412C3.81965 22.6801 4.83909 22.6412 5.85853 22.6541C6.14423 22.6606 6.28059 22.5698 6.34552 22.2777C6.839 20.2006 7.65066 18.2469 8.77399 16.4295C8.91035 16.2088 8.87788 16.0725 8.70256 15.9037C7.97532 15.1897 7.26107 14.4692 6.54032 13.7488C5.46893 12.6713 5.34556 11.2108 6.30007 10.0165C7.09873 9.02344 8.00779 8.11473 9.00125 7.31636C10.2025 6.35572 11.657 6.48554 12.7543 7.57599C13.4621 8.277 14.1699 8.97801 14.8646 9.692C15.053 9.88672 15.1958 9.92567 15.4425 9.76989C17.2412 8.65996 19.1697 7.84861 21.2345 7.3618C21.5462 7.2904 21.6566 7.15409 21.6501 6.83604C21.6306 5.82997 21.6696 4.82389 21.6371 3.81782C21.5851 2.1302 22.9487 1.10466 24.2798 1.03975C25.4227 0.981332 26.572 0.987822 27.7213 1.03326C29.1887 1.09168 30.4549 2.30546 30.3835 3.79185C30.3315 4.83038 30.377 5.86891 30.3705 6.90744C30.3705 7.12813 30.416 7.26444 30.6627 7.32285C32.7925 7.82914 34.8054 8.64049 36.6625 9.81532C36.8702 9.94514 36.9936 9.87374 37.1365 9.73094C37.8442 9.01695 38.5909 8.33542 39.2597 7.58898C40.4285 6.28432 42.2012 6.49203 43.3115 7.53705C44.0518 8.23806 44.7595 8.96503 45.4673 9.692C45.9153 10.1528 46.1945 10.7046 46.3049 11.3472C46.3504 11.5873 46.2854 11.7366 46.0906 11.8664C44.1621 13.223 42.2401 14.5926 40.3117 15.9491C38.6364 17.137 36.9482 18.3183 35.2794 19.5191C35.0002 19.7203 34.8703 19.6749 34.6495 19.4347C32.6626 17.2148 30.2017 15.8907 27.2278 15.5857C24.0461 15.2611 21.1956 16.0984 18.7281 18.1236C16.3126 20.1097 14.9101 22.6801 14.5854 25.7957C14.2608 28.8853 15.0594 31.6829 16.9879 34.1169C18.9684 36.6159 21.5657 38.0893 24.7474 38.4138C28.5978 38.8098 31.8639 37.5506 34.5067 34.7335C35.7729 33.3835 36.6235 31.7867 37.104 30.0017C37.1754 29.7226 37.3118 29.5279 37.5455 29.3591C40.6233 27.1912 43.6946 25.0103 46.7659 22.8359C46.9542 22.7061 47.1425 22.6412 47.3698 22.6412C47.9996 22.6477 48.6295 22.6671 49.2528 22.6412C50.7203 22.5698 51.9281 23.8355 51.9865 25.3219C52.0125 25.8801 51.993 26.4448 51.993 27.0095Z" fill="#E25252"/>
<path d="M20.6954 22.6997C21.6759 22.7127 22.2668 23.0502 22.7148 23.6474C23.7343 25.0234 24.7537 26.393 25.7601 27.7755C25.929 28.0092 26.0458 28.0222 26.2796 27.8599C32.5975 23.3812 38.9219 18.9091 45.2399 14.4304C46.1879 13.7619 47.493 13.9176 48.2203 14.8263C48.6488 15.3651 49.0514 15.9363 49.4215 16.514C50.0643 17.5265 49.8241 18.8182 48.8501 19.5192C46.6294 21.1159 44.3892 22.6932 42.1556 24.2705C37.9025 27.2822 33.6494 30.3004 29.3899 33.3122C28.3315 34.0651 27.2731 34.8115 26.2017 35.5515C25.1498 36.2785 24.0654 36.0837 23.3122 35.0517C21.4486 32.4878 19.5851 29.924 17.7215 27.3601C16.9423 26.2826 17.1501 24.9131 18.2215 24.1147C18.6695 23.7772 19.1306 23.4461 19.5851 23.1151C19.9747 22.836 20.4227 22.6867 20.6954 22.6997Z" fill="#315CD5"/>
</svg>
