<svg width="41" height="57" viewBox="0 0 41 57" fill="none" xmlns="http://www.w3.org/2000/svg">
<path d="M37.9507 10.2179C37.8919 10.4348 37.8213 10.7087 37.7271 10.9826C37.3742 12.0897 37.033 13.2082 36.6566 14.3039C36.4095 15.0115 36.5742 15.5594 37.1389 16.0387C38.0566 16.8377 38.9507 17.6708 39.8683 18.4698C40.7507 19.2459 40.7624 19.5883 39.9036 20.3644C38.9977 21.1747 38.1036 22.0079 37.1742 22.7954C36.5624 23.3204 36.433 23.9025 36.6801 24.633C37.0801 25.8199 37.4566 27.0298 37.833 28.2282C38.0919 29.0499 37.9036 29.3809 37.0213 29.5863C35.7507 29.8831 34.4683 30.1798 33.186 30.4309C32.3742 30.5907 31.986 31.0473 31.833 31.8005C31.5742 33.0332 31.2801 34.2544 30.9742 35.4756C30.7624 36.3316 30.4448 36.4914 29.5742 36.2403C28.3389 35.8751 27.1036 35.5099 25.8683 35.1332C25.1154 34.905 24.5036 35.0077 23.9624 35.6126C23.1154 36.5599 22.2213 37.473 21.3389 38.386C20.7036 39.048 20.3154 39.0366 19.6801 38.3746C18.786 37.4387 17.8801 36.5142 17.0095 35.5669C16.5154 35.0305 15.9389 34.905 15.2566 35.1104C13.9624 35.487 12.6683 35.8865 11.3742 36.2631C10.6095 36.4914 10.233 36.286 10.0448 35.5213C9.75068 34.3001 9.45656 33.0788 9.19774 31.8462C9.03304 31.0473 8.60951 30.5793 7.75068 30.4195C6.50362 30.1913 5.26833 29.8831 4.02127 29.6092C3.11539 29.4037 2.91539 29.107 3.17421 28.2282C3.55068 26.9841 3.93892 25.7515 4.35068 24.5188C4.57421 23.8569 4.43304 23.3433 3.90363 22.8753C2.90363 21.9965 1.90363 21.1062 0.927155 20.2046C0.303625 19.6339 0.303625 19.2459 0.938919 18.6638C1.92715 17.7621 2.91539 16.8719 3.91539 15.9931C4.4448 15.5251 4.57421 15.0001 4.35068 14.3495C3.95068 13.1397 3.56245 11.9185 3.18598 10.6973C2.90362 9.78421 3.09186 9.48746 4.03304 9.27061C5.31539 8.98528 6.58598 8.67712 7.86833 8.42602C8.63304 8.27765 8.99774 7.82112 9.16245 7.12491C9.4448 5.88085 9.73892 4.6368 10.033 3.39275C10.233 2.53675 10.5507 2.36555 11.4213 2.62805C12.633 2.99328 13.8566 3.34709 15.0683 3.72373C15.8566 3.96341 16.5036 3.86069 17.0801 3.22155C17.8919 2.31989 18.7389 1.45248 19.586 0.573652C20.3036 -0.179628 20.6683 -0.191042 21.3742 0.539412C22.2566 1.45248 23.1389 2.36555 24.0095 3.30144C24.5036 3.83787 25.0566 3.98624 25.7507 3.76939C27.0448 3.36992 28.3271 2.99328 29.633 2.61664C30.4213 2.38837 30.8095 2.62805 30.9977 3.41557C31.2801 4.65963 31.5742 5.90368 31.8566 7.14773C32.0095 7.85536 32.3977 8.28906 33.1507 8.43744C34.4919 8.71136 35.8213 9.03093 37.1624 9.31627C37.633 9.40757 37.9389 9.64725 37.9507 10.2179ZM33.2213 19.4513C33.3977 12.9457 27.7624 7.01077 20.3977 7.06784C13.2566 7.12491 7.6801 12.9343 7.78598 19.6339C7.89186 26.2308 13.5977 32.006 20.9389 31.7777C27.9272 31.5723 33.3507 25.8656 33.2213 19.4513Z" fill="#E25252"/>
<path d="M8.82128 36.3887C9.7154 37.8382 10.8919 37.9637 12.2919 37.4273C12.8919 37.199 13.5272 37.0506 14.1389 36.868C14.5742 36.7425 14.9977 36.6169 15.4213 36.4686C15.7272 36.3658 15.9389 36.4343 16.1507 36.6626C16.8448 37.4159 17.5272 38.1692 18.2566 38.8882C18.5977 39.2192 18.6448 39.5273 18.5272 39.961C17.4683 43.7617 16.4095 47.5509 15.3625 51.3516C14.9272 52.9494 14.4919 54.5473 14.0448 56.1451C13.9977 56.3163 14.0095 56.5674 13.7742 56.6131C13.586 56.6473 13.4919 56.4419 13.3742 56.3163C12.2448 55.0723 11.1154 53.8397 10.0095 52.5842C9.77422 52.3217 9.56246 52.3445 9.29187 52.4358C7.7154 52.9608 6.13893 53.4858 4.56246 53.9994C4.38599 54.0565 4.17422 54.2049 4.00951 54.0565C3.84481 53.8967 3.99775 53.6913 4.04481 53.5201C5.56246 48.0074 7.0801 42.5062 8.60952 37.005C8.65657 36.8338 8.7154 36.6854 8.82128 36.3887Z" fill="#315CD5"/>
<path d="M32.2566 36.4684C32.4213 37.0391 32.5977 37.5755 32.7507 38.1234C34.1624 43.248 35.5742 48.3611 36.986 53.4857C37.033 53.6683 37.1977 53.8738 37.0566 54.0221C36.8801 54.2162 36.6566 54.0221 36.4566 53.9651C34.8919 53.4629 33.3272 52.9607 31.7742 52.4471C31.433 52.333 31.2213 52.3672 30.9624 52.6525C29.8683 53.8966 28.7507 55.1178 27.633 56.339C27.5272 56.4646 27.433 56.67 27.2213 56.613C27.0213 56.5559 27.033 56.3391 26.9977 56.1793C25.5742 51.0204 24.186 45.8616 22.7036 40.7142C22.4213 39.7441 22.4448 39.0364 23.2683 38.3631C23.8448 37.8837 24.3154 37.2902 24.8213 36.7309C25.0801 36.4456 25.3389 36.4 25.7036 36.5141C26.8213 36.8679 27.9507 37.1875 29.0683 37.5299C30.4566 37.9636 31.1977 37.7467 32.0683 36.6168C32.0801 36.5597 32.1389 36.5369 32.2566 36.4684Z" fill="#315CD5"/>
<path d="M14.8801 26.8585C15.1742 25.1922 15.4448 23.5829 15.7625 21.9736C15.8683 21.403 15.7977 21.0149 15.3036 20.5926C14.0448 19.4969 12.8801 18.3214 11.6919 17.1686C11.5977 17.0773 11.4448 16.9974 11.5036 16.849C11.5625 16.6892 11.7389 16.7349 11.8683 16.7235C13.6095 16.4724 15.3507 16.1985 17.1036 15.9816C17.5625 15.9246 17.786 15.7191 17.9625 15.3425C18.6919 13.8702 19.4566 12.4093 20.2095 10.9483C20.2919 10.7886 20.3272 10.5375 20.5742 10.5603C20.7625 10.5717 20.8095 10.8 20.8801 10.9483C21.6566 12.4663 22.433 13.9843 23.186 15.5023C23.3272 15.7876 23.5154 15.9131 23.8566 15.9588C25.6448 16.1985 27.4213 16.461 29.2095 16.7235C29.3389 16.7463 29.5154 16.7007 29.5625 16.8605C29.6095 17.0088 29.4566 17.0887 29.3625 17.18C28.186 18.2985 27.033 19.4399 25.8095 20.5127C25.3154 20.9464 25.1625 21.3573 25.2919 21.9965C25.6095 23.503 25.8448 25.0324 26.1036 26.5504C26.1389 26.7444 26.3036 27.0069 26.1036 27.1439C25.8801 27.2922 25.6683 27.064 25.4683 26.9727C24.0448 26.2536 22.6213 25.5346 21.2095 24.7699C20.7272 24.5074 20.3625 24.496 19.8566 24.7699C18.3742 25.5802 16.8448 26.3221 15.3389 27.0982C14.9977 27.2352 14.833 27.2009 14.8801 26.8585Z" fill="#315CD5"/>
</svg>
