<svg width="49" height="54" viewBox="0 0 49 54" fill="none" xmlns="http://www.w3.org/2000/svg">
<path d="M0.501099 46.5021C0.501099 45.9986 0.501099 45.5247 0.501099 45.0212C1.61256 43.3625 3.30901 42.622 5.06396 42C8.72009 40.6968 12.5517 40.2525 16.3834 39.897C16.7928 39.8674 17.3778 40.1044 17.5826 39.6009C17.7581 39.1269 17.2316 38.8308 17.0268 38.4753C16.8513 38.1791 16.6173 37.9126 16.4126 37.646C13.1075 32.9958 9.9778 28.2271 7.95961 22.8364C6.38016 18.5712 6.73115 14.3949 8.51535 10.3371C11.0015 4.67983 15.4181 1.3921 21.2679 0C23.2276 0 25.1581 0 27.1178 0C27.5273 0.118477 27.9367 0.266573 28.3755 0.385049C34.3715 2.07334 38.3202 5.98308 40.4553 11.8477C42.064 16.3202 41.5668 20.6446 39.6364 24.9097C37.4427 29.7377 34.5763 34.1213 31.4759 38.3865C31.1834 38.7715 30.6277 39.127 30.8324 39.6305C31.0371 40.1932 31.6806 39.9267 32.1486 39.9563C36.3312 40.3117 40.4846 40.7856 44.4332 42.2666C46.0127 42.859 47.4459 43.6587 48.4988 45.0508C48.4988 45.5543 48.4988 46.0282 48.4988 46.5317C47.8846 47.7165 47.0071 48.5755 45.8957 49.2567C44.1407 50.3822 42.2395 51.0635 40.2506 51.6559C37.2087 52.5741 34.0498 52.8999 30.9201 53.3442C26.8253 53.3442 22.7304 53.3442 18.6355 53.3442C18.1675 53.2849 17.6703 53.1961 17.2023 53.1368C12.932 52.6629 8.72009 51.9817 4.80071 50.1453C3.04577 49.316 1.46632 48.2793 0.501099 46.5021ZM24.4561 49.3456C26.1233 49.4937 27.7612 49.1975 29.3992 48.9901C31.5636 48.6939 33.7573 48.3089 35.6 47.0057C36.9162 46.0875 37.0625 45.0212 35.9217 44.103C34.079 42.5924 31.7976 42.0889 29.5162 41.9408C27.9952 41.8223 27.6735 43.6291 26.7083 44.4584C26.679 44.488 26.6498 44.5473 26.6205 44.5769C24.6901 46.8279 23.6371 46.7983 21.7359 44.5176C19.279 41.5557 19.279 41.5557 15.6521 42.7701C15.4181 42.859 15.1841 42.9182 14.9794 43.0367C13.8387 43.5698 12.3762 43.9253 12.3762 45.4655C12.3762 47.0057 13.8679 47.4203 15.0086 47.8646C18.0213 49.0494 21.2387 49.2863 24.4561 49.3456ZM30.5399 40.5191C31.0079 40.6079 31.4759 40.6968 31.9731 40.7856C34.5763 41.2595 37.1502 41.8223 39.4024 43.2736C42.0348 44.9619 42.0056 47.1241 39.3439 48.8124C38.1739 49.5529 36.9162 50.0564 35.6 50.4415C29.1067 52.2186 22.5257 52.3667 15.9154 51.1523C13.3707 50.6784 10.8553 50.0564 8.69084 48.4866C6.61416 46.976 6.64341 45.11 8.69084 43.5402C9.9193 42.622 11.3233 42.0296 12.7857 41.6446C14.4529 41.2003 16.1494 40.8449 17.9921 40.4302C16.9098 40.2229 16.0031 40.5783 15.0964 40.6968C12.2592 41.0818 9.39282 41.5854 6.8189 42.9775C3.95249 44.5177 3.83549 47.0945 6.49716 48.9901C7.78412 49.9083 9.24657 50.4415 10.7675 50.8858C16.4711 52.4556 22.2917 52.9295 28.1415 52.5741C32.1779 52.3371 36.185 51.804 40.0166 50.2934C41.3328 49.7602 42.6198 49.1382 43.5558 48.0127C44.755 46.5614 44.5795 44.9027 43.1463 43.7179C42.3273 43.0663 41.3913 42.622 40.4261 42.2962C37.2672 41.1114 33.9328 40.756 30.5399 40.5191ZM19.279 14.4542C19.279 17.031 21.3264 19.134 23.7834 19.1044C26.211 19.0748 28.2 17.031 28.2292 14.543C28.2585 11.9069 26.3573 9.89281 23.7834 9.89281C21.2387 9.86319 19.3083 11.8477 19.279 14.4542Z" fill="#E25252"/>
</svg>
