<svg width="67" height="61" viewBox="0 0 67 61" fill="none" xmlns="http://www.w3.org/2000/svg">
<path d="M30.4231 54.2553H30.4664C31.4296 51.8957 32.366 48.838 33.157 45.7783C32.7558 43.1723 32.1144 40.9097 31.7576 39.7639C32.0638 38.8925 32.7661 37.9737 32.8992 37.1363C33.0384 36.2628 32.7445 35.6667 32.2959 35.1119C32.1092 34.884 31.8081 34.7932 31.5936 34.9552L30.8294 35.4883C30.6159 35.6502 30.2705 35.6502 30.057 35.4883L29.2918 34.9552C29.0804 34.7943 28.7772 34.885 28.5926 35.1119C28.1419 35.6667 27.848 36.2628 27.9893 37.1363C28.1244 37.9737 28.8246 38.8925 29.1299 39.766C28.7731 40.9117 28.1306 43.1702 27.7305 45.7752C28.5235 48.836 29.4568 51.8947 30.4231 54.2553Z" fill="#5B94E3"/>
<path d="M29.5849 60.0002C29.9314 60.0002 30.9555 60.0002 31.302 60.0002C35.7694 60.0002 52.7482 58.9246 54.2229 53.661C57.031 42.3965 50.4196 39.6966 44.5867 37.3093C43.7112 36.9504 42.054 36.3089 42.054 36.3089C41.3692 36.046 40.3936 35.3983 39.8811 34.8724L38.3857 33.5544C37.8681 33.0336 37.3122 33.1945 37.1503 33.9102L30.8194 54.4912C30.6141 55.1945 30.2749 55.1945 30.0676 54.4932L23.6686 33.9082C23.5025 33.1945 22.9364 33.0254 22.4073 33.5338L20.8945 34.9178C20.384 35.4427 19.4074 36.0903 18.7247 36.3533C18.7247 36.3533 17.1685 36.9545 16.3023 37.3103C10.4705 39.6977 3.85902 42.3986 6.66612 53.662C8.13877 58.9246 25.1165 60.0002 29.5849 60.0002Z" fill="#5B94E3"/>
<path d="M39.5677 23.519C39.7915 22.7084 39.9514 21.8432 40.0535 21.1925C40.7609 20.8532 41.3075 20.2705 41.6065 19.5373C42.0263 18.4823 42.2531 16.2053 42.2604 16.1094C42.4367 14.3047 41.8056 13.2724 41.7468 13.2115C42.4852 5.90605 40.1483 4.46228 38.5932 4.20446C38.0404 4.11371 37.203 3.9054 36.8297 3.49186C35.9583 2.52969 35.5716 1.46027 34.067 1.5469C33.508 1.5768 32.7562 1.40149 32.3283 1.04364C31.7528 0.56204 30.9598 0 30.3719 0C29.7934 0 29.0653 0.539351 28.5332 1.01683C28.1166 1.38808 27.3803 1.5768 26.8234 1.5469C25.3177 1.46027 24.932 2.52969 24.0606 3.49186C23.6852 3.9054 22.8489 4.11474 22.2951 4.20446C20.741 4.46228 18.4031 5.90605 19.1404 13.2146C19.0765 13.2775 18.4526 14.3212 18.6289 16.1073C18.6372 16.2053 18.863 18.4823 19.2848 19.5373C19.5818 20.2716 20.1263 20.8532 20.8348 21.1925C20.94 21.8432 21.0988 22.7095 21.3205 23.519C21.9775 25.9177 25.361 31.3422 29.7635 31.4866C29.88 31.4938 30.1275 31.4958 30.3854 31.4958L30.9577 31.4917C35.3798 31.4484 38.916 25.9105 39.5677 23.519Z" fill="#5B94E3"/>
<path d="M18.7307 52.1535C19.6941 52.1535 20.5995 51.9007 21.3845 51.4583V53.6535C21.3845 53.771 21.325 53.8804 21.2263 53.9442C21.1277 54.0079 21.0035 54.0173 20.8963 53.9692L18.7307 52.9946L16.565 53.9692C16.5197 53.9895 16.4713 53.9996 16.423 53.9996C16.3573 53.9996 16.2919 53.9809 16.235 53.9442C16.1364 53.8804 16.0768 53.7709 16.0768 53.6535V51.4583C16.8618 51.9006 17.7672 52.1535 18.7307 52.1535Z" fill="white"/>
<path d="M17.3748 46.5677L16.8985 45.6724L17.912 45.6372C18.027 45.6333 18.1326 45.5723 18.1936 45.4746L18.7307 44.6145L19.2679 45.4747C19.3289 45.5723 19.4345 45.6333 19.5495 45.6373L20.563 45.6724L20.0867 46.5677C20.0326 46.6693 20.0326 46.7912 20.0867 46.8928L20.563 47.7881L19.5495 47.8232C19.4345 47.8272 19.3289 47.8882 19.2679 47.9858L18.7307 48.846L18.1936 47.9858C18.1326 47.8882 18.027 47.8272 17.912 47.8232L16.8985 47.7881L17.3748 46.8928C17.4289 46.7912 17.4289 46.6693 17.3748 46.5677Z" fill="white"/>
<path d="M18.7307 42C21.3392 42 23.4614 44.1222 23.4614 46.7308C23.4614 48.376 22.617 49.8275 21.3391 50.6754C21.3264 50.6838 21.3137 50.6922 21.301 50.7005C21.2855 50.7105 21.27 50.7205 21.2545 50.7303C21.2416 50.7385 21.2286 50.7465 21.2157 50.7545C21.2002 50.7641 21.1848 50.7737 21.1693 50.7831C21.1486 50.7956 21.1278 50.8079 21.1069 50.82C21.0874 50.8314 21.0678 50.8426 21.0481 50.8537C21.034 50.8617 21.0199 50.8696 21.0057 50.8774C20.9901 50.886 20.9745 50.8945 20.9589 50.9029C20.9444 50.9107 20.9298 50.9183 20.9152 50.9259C20.9 50.9339 20.8848 50.9419 20.8695 50.9497C20.8452 50.962 20.8208 50.9742 20.7963 50.9861C20.7795 50.9943 20.7625 51.0023 20.7456 51.0104C20.7292 51.0181 20.7129 51.0258 20.6965 51.0333C20.6814 51.0403 20.6661 51.0471 20.6509 51.0539C20.6343 51.0613 20.6177 51.0685 20.6011 51.0757C20.5865 51.082 20.5719 51.0884 20.5573 51.0945C20.5287 51.1065 20.5 51.1183 20.4711 51.1298C20.4584 51.1348 20.4456 51.1396 20.4328 51.1445C20.4135 51.152 20.3941 51.1594 20.3747 51.1667C20.3603 51.172 20.3459 51.1773 20.3314 51.1825C20.3125 51.1893 20.2934 51.196 20.2743 51.2026C20.2608 51.2073 20.2473 51.2121 20.2337 51.2167C20.2031 51.2269 20.1724 51.2369 20.1416 51.2466C20.1311 51.2499 20.1206 51.253 20.1101 51.2562C20.0873 51.2631 20.0644 51.27 20.0415 51.2766C20.0281 51.2805 20.0147 51.2842 20.0012 51.288C19.9798 51.294 19.9584 51.2998 19.9369 51.3054C19.9243 51.3087 19.9119 51.3121 19.8993 51.3153C19.8669 51.3236 19.8344 51.3316 19.8016 51.3392C19.7939 51.341 19.786 51.3426 19.7782 51.3444C19.7516 51.3505 19.725 51.3563 19.6982 51.3619C19.6859 51.3644 19.6735 51.3669 19.6611 51.3694C19.6374 51.3742 19.6137 51.3787 19.5899 51.3831C19.5783 51.3852 19.5668 51.3874 19.5552 51.3894C19.521 51.3955 19.4868 51.4012 19.4524 51.4065C19.4474 51.4073 19.4424 51.4079 19.4374 51.4087C19.407 51.4133 19.3766 51.4175 19.3462 51.4215C19.3346 51.423 19.3231 51.4244 19.3115 51.4258C19.2861 51.429 19.2606 51.4319 19.235 51.4346C19.2239 51.4358 19.2129 51.437 19.2019 51.4381C19.1664 51.4416 19.1308 51.4449 19.0951 51.4476C19.0927 51.4478 19.0902 51.4479 19.0878 51.4481C19.0541 51.4506 19.0204 51.4527 18.9865 51.4545C18.9754 51.4552 18.9644 51.4556 18.9533 51.4561C18.9267 51.4574 18.9 51.4584 18.8732 51.4592C18.8623 51.4595 18.8514 51.4599 18.8405 51.4601C18.8039 51.4609 18.7674 51.4615 18.7306 51.4615C18.6939 51.4615 18.6573 51.4609 18.6208 51.4601C18.6098 51.4599 18.599 51.4595 18.5881 51.4592C18.5613 51.4584 18.5346 51.4574 18.5079 51.4561C18.4968 51.4556 18.4858 51.4552 18.4747 51.4545C18.4409 51.4527 18.4071 51.4506 18.3734 51.4481C18.371 51.4479 18.3686 51.4478 18.3661 51.4476C18.3304 51.4449 18.2948 51.4416 18.2593 51.4381C18.2483 51.437 18.2373 51.4358 18.2263 51.4346C18.2007 51.4319 18.1751 51.4289 18.1497 51.4258C18.1382 51.4244 18.1266 51.423 18.1151 51.4215C18.0846 51.4176 18.0542 51.4133 18.0239 51.4087C18.0188 51.4079 18.0138 51.4073 18.0088 51.4065C17.9744 51.4012 17.9402 51.3955 17.906 51.3894C17.8945 51.3874 17.8829 51.3852 17.8714 51.3831C17.8476 51.3787 17.8238 51.3741 17.8001 51.3694C17.7877 51.3669 17.7754 51.3644 17.763 51.3619C17.7363 51.3563 17.7097 51.3505 17.6831 51.3444C17.6752 51.3426 17.6674 51.341 17.6596 51.3392C17.6269 51.3316 17.5944 51.3235 17.5619 51.3153C17.5494 51.3121 17.5369 51.3087 17.5244 51.3054C17.5029 51.2998 17.4814 51.2939 17.46 51.288C17.4466 51.2842 17.4332 51.2805 17.4198 51.2766C17.3968 51.27 17.374 51.2631 17.3512 51.2562C17.3407 51.253 17.3301 51.2499 17.3197 51.2466C17.2888 51.2369 17.2582 51.2269 17.2276 51.2167C17.214 51.2121 17.2005 51.2073 17.1869 51.2026C17.1678 51.196 17.1488 51.1893 17.1298 51.1825C17.1154 51.1773 17.101 51.172 17.0866 51.1667C17.0671 51.1594 17.0478 51.152 17.0284 51.1445C17.0157 51.1396 17.0029 51.1348 16.9902 51.1298C16.9613 51.1183 16.9326 51.1065 16.904 51.0945C16.8893 51.0883 16.8747 51.082 16.8601 51.0757C16.8435 51.0685 16.8269 51.0612 16.8104 51.0539C16.7951 51.0471 16.7799 51.0402 16.7648 51.0333C16.7483 51.0258 16.732 51.018 16.7157 51.0103C16.6988 51.0023 16.6818 50.9943 16.665 50.9861C16.6404 50.9741 16.6161 50.962 16.5918 50.9497C16.5765 50.9419 16.5613 50.9339 16.5461 50.9259C16.5315 50.9183 16.5169 50.9106 16.5024 50.9028C16.4868 50.8945 16.4712 50.886 16.4556 50.8774C16.4414 50.8696 16.4273 50.8617 16.4132 50.8537C16.3935 50.8426 16.3739 50.8314 16.3544 50.82C16.3335 50.8078 16.3127 50.7956 16.292 50.7831C16.2765 50.7737 16.2611 50.7641 16.2456 50.7545C16.2327 50.7465 16.2197 50.7384 16.2068 50.7303C16.1913 50.7204 16.1758 50.7105 16.1603 50.7005C16.1476 50.6922 16.1349 50.6838 16.1222 50.6754C14.8443 49.8275 13.9999 48.376 13.9999 46.7307C13.9999 44.1222 16.1221 42 18.7307 42ZM16.0268 47.9528C15.9707 48.0582 15.973 48.1851 16.0327 48.2884C16.0924 48.3918 16.2011 48.4572 16.3204 48.4613L17.7038 48.5092L18.437 49.6833C18.5003 49.7846 18.6112 49.8461 18.7306 49.8461C18.85 49.8461 18.961 49.7846 19.0242 49.6833L19.7574 48.5092L21.1408 48.4613C21.2602 48.4572 21.3689 48.3918 21.4286 48.2884C21.4883 48.1851 21.4905 48.0582 21.4344 47.9528L20.7843 46.7308L21.4344 45.5087C21.4905 45.4033 21.4883 45.2765 21.4286 45.1731C21.3689 45.0697 21.2602 45.0043 21.1408 45.0002L19.7574 44.9523L19.0242 43.7782C18.961 43.677 18.85 43.6154 18.7306 43.6154C18.6112 43.6154 18.5003 43.677 18.437 43.7782L17.7038 44.9523L16.3204 45.0002C16.2011 45.0043 16.0924 45.0697 16.0327 45.1731C15.973 45.2765 15.9707 45.4033 16.0268 45.5087L16.677 46.7308L16.0268 47.9528Z" fill="white"/>
<path d="M62 35L36 49.625L44.3091 52.7024L57.125 40.6875L47.3768 53.8387L47.3847 53.8416L47.375 53.8387V61L52.0347 55.5637L57.9376 57.75L62 35Z" fill="#04B700"/>
</svg>
