<svg width="93" height="60" viewBox="0 0 93 60" fill="none" xmlns="http://www.w3.org/2000/svg">
<path d="M10.0257 16.9361C10.0298 17.0134 10.2093 18.8212 10.5444 19.6607C10.7827 20.2433 11.2137 20.7064 11.7747 20.9755C11.8583 21.4922 11.9831 22.178 12.1594 22.8205C12.6822 24.7252 15.3666 29.0297 18.8606 29.1473C18.9534 29.1483 19.1483 29.1524 19.3535 29.1524L19.8083 29.1483C23.3166 29.1143 26.1258 24.72 26.6435 22.8205C26.8209 22.1759 26.9457 21.4901 27.0271 20.9755C27.5892 20.7053 28.0244 20.2433 28.2585 19.6607C28.5947 18.8222 28.772 17.0144 28.7782 16.9381C28.9205 15.5067 28.4183 14.6848 28.3719 14.6405C28.9577 8.8396 27.1034 7.69593 25.868 7.49071C25.4276 7.41852 24.7645 7.25249 24.4686 6.92352C23.7776 6.16038 23.4713 5.30959 22.2761 5.37868C21.8316 5.40343 21.2366 5.26524 20.8963 4.98061C20.4404 4.59595 19.8114 4.14941 19.3411 4.14941C18.8832 4.14941 18.3057 4.57842 17.8819 4.95793C17.5539 5.25184 16.9692 5.40343 16.5247 5.37765C15.3316 5.30856 15.0242 6.15935 14.3333 6.92248C14.0353 7.25146 13.3711 7.41646 12.9349 7.48968C11.6995 7.69387 9.84421 8.84063 10.4289 14.6405C10.3774 14.692 9.88649 15.5201 10.0257 16.9361Z" fill="#315CD5"/>
<path d="M18.0487 43.3533C18.8078 41.5094 19.9391 40.0368 21.2508 38.8364C20.9693 37.4906 20.6486 36.3706 20.4433 35.7168C20.6877 35.0259 21.2426 34.2947 21.3509 33.6326C21.4602 32.9376 21.2261 32.4673 20.8703 32.0249C20.7218 31.8424 20.4846 31.7712 20.3144 31.9001L19.7091 32.3219C19.5389 32.4508 19.2636 32.4508 19.0944 32.3219L18.486 31.9001C18.3189 31.7712 18.0786 31.8424 17.9301 32.0249C17.5754 32.4673 17.3403 32.9376 17.4527 33.6326C17.5599 34.2957 18.1158 35.0269 18.3581 35.7178C18.0756 36.6274 17.5651 38.4218 17.2495 40.4885C17.498 41.4558 17.7672 42.4221 18.0487 43.3533Z" fill="#315CD5"/>
<path d="M77.6715 29.3117C88.2956 26.812 85.7773 8.46473 76.0834 4.90068C75.2821 4.6903 73.8837 4.51189 72.4894 5.13993C71.0931 4.51189 69.6978 4.68927 68.8944 4.90068C59.1933 8.46782 56.6791 26.8439 67.3341 29.3179C67.3321 29.3231 67.331 29.3282 67.331 29.3334C68.9089 30.7349 69.5771 36.6028 69.3502 39.8698C71.025 41.7519 72.2512 44.2094 72.5069 47.5187C74.686 41.59 74.554 42.3737 75.74 40.8836C75.2594 38.0063 75.8885 30.8854 77.653 29.3282C77.6622 29.3334 77.6756 29.3241 77.6715 29.3117Z" fill="#315CD5"/>
<path d="M80.562 32.6821C83.0267 36.6061 85.2718 42.3193 85.2718 42.3193C85.2718 42.3193 79.4575 42.1966 78.5449 39.6494C76.0028 44.6005 72.9698 47.2343 72.514 47.6117C72.5171 47.62 72.5171 47.6293 72.5171 47.6386C72.5202 47.6468 72.5243 47.6561 72.5274 47.6654C72.5274 47.6654 72.5202 47.6582 72.5171 47.6571C72.6006 48.9008 72.547 50.2672 72.3325 51.7615C72.3872 51.7605 72.447 51.7585 72.4924 51.7533C74.9581 51.9245 91.019 51.1325 92.2658 46.8001C95.1936 35.382 85.6616 35.45 80.562 32.6821Z" fill="#315CD5"/>
<path d="M60.478 34.3479C61.2319 34.6573 62.0445 34.9966 62.8819 35.3833C63.3491 34.4944 63.8389 33.6147 64.3432 32.8052C63.2057 33.4033 61.8558 33.8653 60.478 34.3479Z" fill="#315CD5"/>
<path d="M0.528673 46.7447C1.57334 50.4748 12.4212 51.5546 17.2609 51.7443C16.7886 48.4515 17.1104 45.8022 17.9354 43.6479L14.0238 31.0664C13.8939 30.4992 13.4422 30.3641 13.0214 30.7684L11.8221 31.8646C11.4147 32.2823 10.6413 32.7959 10.0978 33.0052C10.0978 33.0052 8.86541 33.4837 8.17756 33.7652C3.54615 35.6597 -1.69886 37.8026 0.528673 46.7447Z" fill="#315CD5"/>
<path d="M26.8921 31.832L25.7041 30.7832C25.2947 30.3707 24.8523 30.4986 24.7224 31.0647L22.6928 37.6689C24.9049 36.0715 27.3851 35.0526 29.3878 34.2328C29.7312 34.0915 30.1767 33.9151 30.5985 33.7501C29.8952 33.4655 28.6164 32.9695 28.6164 32.9695C28.0729 32.7622 27.2985 32.2486 26.8921 31.832Z" fill="#315CD5"/>
<path d="M44.7761 54.2558H44.8194C45.7826 51.8962 46.719 48.8385 47.5099 45.7788C47.1088 43.1728 46.4673 40.9102 46.1105 39.7644C46.4168 38.893 47.1191 37.9742 47.2521 37.1368C47.3914 36.2633 47.0974 35.6672 46.6488 35.1124C46.4622 34.8845 46.1611 34.7937 45.9466 34.9556L45.1824 35.4888C44.9689 35.6507 44.6234 35.6507 44.41 35.4888L43.6448 34.9556C43.4334 34.7948 43.1302 34.8855 42.9456 35.1124C42.4949 35.6672 42.201 36.2633 42.3423 37.1368C42.4774 37.9742 43.1776 38.893 43.4829 39.7665C43.126 40.9122 42.4836 43.1707 42.0834 45.7757C42.8765 48.8365 43.8098 51.8952 44.7761 54.2558Z" fill="#315CD5"/>
<path d="M43.9378 60.0002C44.2843 60.0002 45.3084 60.0002 45.6549 60.0002C50.1223 60.0002 67.101 58.9246 68.5758 53.661C71.3839 42.3965 64.7725 39.6966 58.9396 37.3093C58.0641 36.9504 56.4068 36.3089 56.4068 36.3089C55.7221 36.046 54.7465 35.3983 54.234 34.8724L52.7386 33.5544C52.2209 33.0336 51.6651 33.1945 51.5032 33.9102L45.1722 54.4912C44.967 55.1945 44.6277 55.1945 44.4204 54.4932L38.0215 33.9082C37.8554 33.1945 37.2893 33.0254 36.7602 33.5338L35.2474 34.9178C34.7369 35.4427 33.7603 36.0903 33.0776 36.3533C33.0776 36.3533 31.5214 36.9545 30.6551 37.3103C24.8233 39.6977 18.2119 42.3986 21.019 53.662C22.4916 58.9246 39.4693 60.0002 43.9378 60.0002ZM52.651 45.7997C52.685 45.7295 53.4729 45.6728 54.2051 45.6728H58.0641C58.7963 45.6728 59.4604 45.6976 59.5398 45.7295C59.6172 45.7584 59.6821 46.4927 59.6821 47.1867C59.6821 47.8808 59.6533 48.5067 59.6182 48.5758C59.5852 48.6439 58.7963 48.7006 58.0641 48.7006H54.2051C53.4729 48.7006 52.8088 48.6779 52.7293 48.6439C52.651 48.615 52.585 47.8808 52.585 47.1867C52.585 46.4927 52.6138 45.8688 52.651 45.7997Z" fill="#315CD5"/>
<path d="M53.9202 23.519C54.144 22.7084 54.3038 21.8432 54.4059 21.1925C55.1134 20.8532 55.6599 20.2705 55.959 19.5373C56.3787 18.4823 56.6056 16.2053 56.6128 16.1094C56.7892 14.3047 56.158 13.2724 56.0992 13.2115C56.8376 5.90605 54.5008 4.46228 52.9456 4.20446C52.3929 4.11371 51.5555 3.9054 51.1822 3.49186C50.3108 2.52969 49.924 1.46027 48.4194 1.5469C47.8605 1.5768 47.1087 1.40149 46.6807 1.04364C46.1053 0.56204 45.3122 0 44.7244 0C44.1459 0 43.4178 0.539351 42.8856 1.01683C42.469 1.38808 41.7327 1.5768 41.1758 1.5469C39.6702 1.46027 39.2845 2.52969 38.4131 3.49186C38.0377 3.9054 37.2013 4.11474 36.6475 4.20446C35.0934 4.46228 32.7555 5.90605 33.4929 13.2146C33.429 13.2775 32.805 14.3212 32.9814 16.1073C32.9896 16.2053 33.2155 18.4823 33.6373 19.5373C33.9343 20.2716 34.4788 20.8532 35.1873 21.1925C35.2924 21.8432 35.4513 22.7095 35.673 23.519C36.3299 25.9177 39.7135 31.3422 44.1159 31.4866C44.2325 31.4938 44.48 31.4958 44.7378 31.4958L45.3102 31.4917C49.7322 31.4484 53.2684 25.9105 53.9202 23.519Z" fill="#315CD5"/>
</svg>
