<svg width="88" height="98" viewBox="0 0 88 98" fill="none" xmlns="http://www.w3.org/2000/svg">
<path d="M56.7476 38.3395C61.0784 38.3395 64.5892 34.8287 64.5892 30.4979C64.5892 26.1671 61.0784 22.6562 56.7476 22.6562C52.4168 22.6562 48.906 26.1671 48.906 30.4979C48.906 34.8287 52.4168 38.3395 56.7476 38.3395Z" fill="url(#paint0_linear)"/>
<path d="M24.5106 52.279C26.4354 52.279 27.9958 50.7186 27.9958 48.7938C27.9958 46.869 26.4354 45.3086 24.5106 45.3086C22.5858 45.3086 21.0254 46.869 21.0254 48.7938C21.0254 50.7186 22.5858 52.279 24.5106 52.279Z" fill="url(#paint1_linear)"/>
<path d="M22.7506 29.6038C23.703 28.6507 23.7024 27.1061 22.7492 26.1535C21.7963 25.2011 20.2515 25.2015 19.2989 26.1543C18.3463 27.1072 18.3465 28.6518 19.2993 29.6046C20.2536 30.5547 21.7967 30.5543 22.7506 29.6038Z" fill="url(#paint2_linear)"/>
<path d="M85.6602 22.8674C84.1164 17.58 80.8798 12.9455 76.4471 9.67565C67.3241 2.51808 58.8631 -0.442991 48.9999 0.0531256C43.5012 0.437745 38.038 1.22147 32.653 2.3982C25.5209 3.83356 20.4124 6.26364 17.0361 9.82717C14.2797 12.768 12.1527 16.2407 10.7855 20.0325C10.1905 21.75 9.7062 23.5038 9.33568 25.2832L9.18759 25.9188C8.77438 27.4922 8.20851 29.0213 7.49778 30.4845C7.16596 31.229 6.8307 31.9727 6.54481 32.7324C6.36737 33.1168 6.27226 33.5342 6.26578 33.9577C6.34069 34.4922 7.00605 35.1013 7.71049 35.7463C9.15424 36.7604 10.0859 38.3523 10.2631 40.1078C10.2347 40.9398 10.0001 41.7517 9.58079 42.4708C7.40229 47.0609 4.73264 51.4013 1.61833 55.416C0.277314 57.0522 0.00514604 57.6896 0 57.9516C0.321151 58.2535 0.66403 58.5314 1.02616 58.783C1.48473 59.1022 1.96922 59.383 2.47429 59.622C3.96493 60.3826 6.00715 61.4233 6.41387 63.5599C6.66736 64.8761 6.50364 66.2386 5.94597 67.4577C5.64807 68.083 5.34178 68.6285 5.07476 69.1016C4.98289 69.2624 4.88245 69.4403 4.79401 69.6026C5.51046 70.1744 6.50593 70.9206 6.92467 71.2296C7.30319 71.5092 7.55229 71.93 7.61557 72.3962C7.67866 72.8624 7.55039 73.3345 7.25992 73.7046C7.00243 74.0416 6.77886 74.4033 6.59284 74.7843C6.71539 74.8566 6.84138 74.928 6.96545 74.9987C8.50469 75.6632 9.67723 76.966 10.1766 78.5665C10.4278 79.8019 10.3723 81.08 10.015 82.289C9.93491 82.6498 9.85334 83.0106 9.80569 83.3713C9.70505 84.4154 9.84895 85.4685 10.2259 86.4472C10.5984 88.0674 12.1879 89.1012 13.82 88.7844C18.8877 87.5484 23.8851 86.0397 28.7902 84.2647L28.8005 84.2612C30.4834 83.686 32.0219 83.1474 33.2709 82.7102C34.6237 82.2354 35.6464 81.8788 36.1605 81.7164C43.4013 79.4438 44.8699 76.8265 44.8274 75.0311C44.8049 74.0688 45.5667 73.2702 46.5292 73.2477C47.4915 73.2253 48.2901 73.9871 48.3126 74.9496C48.4147 79.3008 44.6777 82.6959 37.2072 85.0408C36.7121 85.1965 35.7284 85.542 34.4232 85.9989C34.0216 86.1401 33.5894 86.2916 33.1333 86.4508C36.0133 89.6377 38.1162 93.4486 39.2765 97.5845H78.9763C78.9542 97.5521 78.9304 97.5199 78.9065 97.4885C78.3073 96.7188 77.7782 95.897 77.3256 95.0329C76.4645 93.2668 75.7419 91.4363 75.1644 89.5584C74.1062 85.9941 73.3753 82.3406 72.9812 78.6435C72.2899 72.8153 73.1683 66.9082 75.5254 61.5335C76.9202 58.6315 78.6403 55.8974 80.6528 53.3838C81.6669 52.0173 82.7154 50.605 83.6257 49.1704C86.0294 45.4395 87.3215 41.1016 87.3508 36.6634C87.4499 32.007 86.8808 27.3613 85.6602 22.8674ZM12.8224 29.113C12.4955 28.7861 12.312 28.3428 12.3122 27.8806C12.312 27.4184 12.4955 26.9751 12.8224 26.6483C13.1493 26.3214 13.5926 26.1378 14.0548 26.138H15.3884C15.4959 25.7885 15.6362 25.4498 15.8075 25.1265L14.865 24.1835C14.4247 23.7432 14.253 23.1017 14.4141 22.5005C14.5751 21.8992 15.0449 21.4296 15.6461 21.2685C16.2474 21.1075 16.8889 21.2794 17.329 21.7195L18.2744 22.6654C18.5967 22.4952 18.9342 22.3553 19.2826 22.248V20.9104C19.2826 19.9481 20.0627 19.1678 21.0252 19.1678C21.9875 19.1678 22.7678 19.9479 22.7678 20.9104V22.2478C23.1162 22.3553 23.4538 22.495 23.776 22.6652L24.7214 21.7195C25.1615 21.2792 25.8032 21.1075 26.4043 21.2685C27.0057 21.4296 27.4753 21.8992 27.6363 22.5005C27.7974 23.1019 27.6255 23.7434 27.1854 24.1835L26.2429 25.1265C26.4143 25.4498 26.5545 25.7883 26.662 26.138H27.9956C28.9579 26.138 29.7382 26.9181 29.7382 27.8806C29.7382 28.8429 28.9581 29.6232 27.9956 29.6232H26.662C26.5545 29.9728 26.4143 30.3115 26.2429 30.6347L27.1854 31.5778C27.8658 32.2582 27.8658 33.3614 27.1854 34.042C26.505 34.7224 25.4016 34.7224 24.7212 34.042L23.7759 33.0964C23.4536 33.2668 23.116 33.4067 22.7676 33.5142V34.8512C22.7676 35.8135 21.9875 36.5938 21.025 36.5938C20.0627 36.5938 19.2824 35.8137 19.2824 34.8512V33.5142C18.934 33.4067 18.5963 33.2668 18.274 33.0964L17.3288 34.042C16.6484 34.7224 15.5452 34.7224 14.8646 34.042C14.1842 33.3615 14.1842 32.2584 14.8646 31.5778L15.8069 30.6349C15.6358 30.3117 15.4955 29.973 15.388 29.6234H14.0544C13.5926 29.6234 13.1493 29.4399 12.8224 29.113ZM33.223 50.5343H31.2329C31.0705 51.1581 30.8214 51.756 30.4926 52.3106L31.9024 53.7208C32.3427 54.1609 32.5144 54.8026 32.3534 55.4038C32.1923 56.0051 31.7225 56.4747 31.1214 56.6358C30.5202 56.7968 29.8785 56.6249 29.4384 56.1848L28.0286 54.7744C27.4741 55.1028 26.8764 55.3519 26.2528 55.5145V57.5045C26.2528 58.4668 25.4727 59.2471 24.5102 59.2471C23.5479 59.2471 22.7676 58.467 22.7676 57.5045V55.5145C22.144 55.3519 21.5463 55.1028 20.9918 54.7744L19.582 56.1848C19.1421 56.6262 18.4998 56.7991 17.8977 56.6382C17.2957 56.4774 16.8255 56.007 16.6644 55.4049C16.5034 54.8028 16.6764 54.1607 17.1178 53.7206L18.5277 52.3104C18.1989 51.756 17.9498 51.1581 17.7874 50.5343H15.7972C14.8349 50.5343 14.0546 49.7542 14.0546 48.7917C14.0546 47.8294 14.8347 47.0491 15.7972 47.0491H17.7874C17.9498 46.4253 18.1989 45.8274 18.5277 45.2727L17.1178 43.8625C16.6764 43.4226 16.5035 42.7803 16.6644 42.1782C16.8253 41.5762 17.2957 41.106 17.8977 40.9449C18.4998 40.784 19.1419 40.9569 19.582 41.3983L20.9918 42.8087C21.5463 42.4803 22.144 42.2312 22.7676 42.0686V40.0787C22.7676 39.1163 23.5477 38.3361 24.5102 38.3361C25.4725 38.3361 26.2528 39.1162 26.2528 40.0787V42.0686C26.8764 42.2312 27.4741 42.4803 28.0286 42.8087L29.4384 41.3983C29.8785 40.9582 30.5202 40.7863 31.1214 40.9474C31.7225 41.1084 32.1923 41.5783 32.3534 42.1794C32.5144 42.7807 32.3425 43.4222 31.9024 43.8623L30.4926 45.2725C30.8214 45.827 31.0705 46.4251 31.2329 47.0489H33.223C34.1853 47.0489 34.9656 47.829 34.9656 48.7915C34.9656 49.754 34.1855 50.5343 33.223 50.5343ZM81.6305 34.8569C81.4822 35.6881 80.7595 36.2933 79.9152 36.2933H76.3025C75.9013 37.6568 75.3552 38.9734 74.6738 40.2208L77.2299 42.7769C77.8272 43.374 77.9105 44.3135 77.4273 45.0061C75.752 47.4099 73.6641 49.4978 71.2603 51.1731C70.5675 51.6557 69.6286 51.573 69.0311 50.9766L66.475 48.4206C65.227 49.102 63.9098 49.648 62.5458 50.0492V53.6629C62.5452 54.507 61.9402 55.2294 61.1094 55.3782C58.2242 55.8898 55.2715 55.8898 52.3863 55.3782C51.5555 55.2294 50.9506 54.5068 50.95 53.6629V50.0492C49.5859 49.648 48.2687 49.1021 47.0207 48.4206L44.4647 50.9766C43.867 51.5728 42.9281 51.6555 42.2355 51.1731C39.8317 49.4978 37.7437 47.4099 36.0684 45.0061C35.5853 44.3133 35.6684 43.3738 36.2659 42.7769L38.8219 40.2208C38.1406 38.9734 37.5947 37.6568 37.1933 36.2933H33.5806C32.7363 36.2935 32.0135 35.6881 31.8652 34.8569C31.3525 31.9714 31.3525 29.0179 31.8652 26.1321C32.0135 25.3009 32.7363 24.6958 33.5806 24.6958H37.1933C37.5945 23.3323 38.1406 22.0157 38.8219 20.7682L36.2659 18.2122C35.6685 17.615 35.5853 16.6756 36.0684 15.983C37.7437 13.5792 39.8317 11.4913 42.2355 9.81593C42.9277 9.33125 43.8679 9.41416 44.4647 10.0124L47.0207 12.5685C48.2687 11.8871 49.5859 11.3411 50.95 10.9399V7.32639C50.9504 6.48244 51.5555 5.7599 52.3863 5.61104C55.2717 5.10215 58.224 5.10215 61.1094 5.61104C61.9402 5.7599 62.5452 6.48244 62.5458 7.32639V10.9401C63.9098 11.3413 65.227 11.8871 66.475 12.5687L69.0311 10.0126C69.6277 9.41416 70.5682 9.33125 71.2603 9.81612C73.6641 11.4914 75.752 13.5794 77.4273 15.9832C77.9105 16.676 77.8274 17.6154 77.2299 18.2124L74.6738 20.7684C75.3552 22.0159 75.9011 23.3325 76.3025 24.696H79.9152C80.7595 24.6958 81.4822 25.3011 81.6305 26.1323C82.1434 29.0179 82.1434 31.9714 81.6305 34.8569Z" fill="url(#paint3_linear)"/>
<path d="M74.9512 28.181C74.133 28.1812 73.425 27.6119 73.2494 26.8128C72.8316 24.9019 72.0767 23.0805 71.0202 21.4344C70.576 20.7454 70.6732 19.8397 71.2533 19.2605L73.6987 16.8151C72.7299 15.6098 71.6332 14.5131 70.4279 13.5444L67.9825 15.9889C67.4033 16.5681 66.499 16.6659 65.8094 16.2237C64.1627 15.1659 62.3406 14.4104 60.4285 13.9928C59.6296 13.8171 59.0605 13.1092 59.0603 12.291V8.83668C57.5229 8.67163 55.9723 8.67163 54.4349 8.83668V12.2912C54.4349 13.1092 53.8656 13.8171 53.0666 13.993C51.1546 14.4108 49.3325 15.1663 47.6858 16.2239C46.9966 16.6678 46.0911 16.5698 45.5126 15.9891L43.0673 13.5447C41.862 14.5135 40.7653 15.6102 39.7965 16.8155L42.2419 19.2608C42.822 19.8401 42.9192 20.7458 42.475 21.4348C41.4185 23.0809 40.6635 24.9022 40.2458 26.8131C40.0702 27.6123 39.3622 28.1816 38.5439 28.1814H35.0894C34.9238 29.7193 34.9238 31.2706 35.0894 32.8085H38.5439C39.3622 32.8083 40.0702 33.3776 40.2458 34.1767C40.6635 36.0876 41.4185 37.909 42.475 39.5551C42.9192 40.2441 42.822 41.1498 42.2419 41.729L39.7965 44.1742C40.7653 45.3795 41.862 46.4762 43.0673 47.445L45.5126 45.0004C46.0909 44.4193 46.9966 44.3215 47.6858 44.7656C49.3325 45.8234 51.1546 46.5789 53.0666 46.9965C53.8656 47.1722 54.4347 47.8801 54.4349 48.6983V52.1528C55.9723 52.3179 57.5229 52.3179 59.0603 52.1528V48.6983C59.0603 47.8803 59.6296 47.1724 60.4283 46.9965C62.3404 46.5787 64.1627 45.8232 65.8092 44.7656C66.4988 44.3232 67.4031 44.421 67.9824 45.0004L70.4277 47.445C71.633 46.4762 72.7297 45.3795 73.6985 44.1742L71.2531 41.7288C70.673 41.1496 70.5758 40.2439 71.02 39.5549C72.0765 37.9088 72.8315 36.0875 73.2492 34.1766C73.4248 33.3774 74.1328 32.8081 74.951 32.8083H78.4056C78.5712 31.2704 78.5712 29.7191 78.4056 28.1812H74.9512V28.181ZM56.7478 41.8213C50.4923 41.8213 45.421 36.7501 45.421 30.4945C45.421 24.239 50.4921 19.1676 56.7478 19.1676C63.0035 19.1676 68.0746 24.2388 68.0746 30.4945C68.0672 36.7471 63.0002 41.814 56.7478 41.8213Z" fill="url(#paint4_linear)"/>
<defs>
<linearGradient id="paint0_linear" x1="56.7476" y1="22.6562" x2="56.7476" y2="38.3395" gradientUnits="userSpaceOnUse">
<stop stop-color="#5B94E3"/>
<stop offset="1" stop-color="#315CD5"/>
</linearGradient>
<linearGradient id="paint1_linear" x1="24.5106" y1="45.3086" x2="24.5106" y2="52.279" gradientUnits="userSpaceOnUse">
<stop stop-color="#5B94E3"/>
<stop offset="1" stop-color="#315CD5"/>
</linearGradient>
<linearGradient id="paint2_linear" x1="21.0245" y1="25.4395" x2="21.0245" y2="30.3169" gradientUnits="userSpaceOnUse">
<stop stop-color="#5B94E3"/>
<stop offset="1" stop-color="#315CD5"/>
</linearGradient>
<linearGradient id="paint3_linear" x1="43.6809" y1="0" x2="43.6809" y2="97.5845" gradientUnits="userSpaceOnUse">
<stop stop-color="#5B94E3"/>
<stop offset="1" stop-color="#315CD5"/>
</linearGradient>
<linearGradient id="paint4_linear" x1="56.7475" y1="8.71289" x2="56.7475" y2="52.2766" gradientUnits="userSpaceOnUse">
<stop stop-color="#5B94E3"/>
<stop offset="1" stop-color="#315CD5"/>
</linearGradient>
</defs>
</svg>
