<svg width="524" height="344" viewBox="0 0 524 344" fill="none" xmlns="http://www.w3.org/2000/svg">
<g clip-path="url(#clip0)">
<path opacity="0.1" d="M485.924 282.272C484.289 283.708 482.617 285.103 480.908 286.457C480.621 286.689 480.325 286.912 480.033 287.149C473.939 291.869 467.541 296.184 460.881 300.066L459.636 300.79C459.335 300.972 459.039 301.141 458.724 301.309C451.765 305.321 444.547 309.013 437.242 312.51L437.164 312.551L436.612 312.811C430.721 315.631 424.741 318.329 418.673 320.906L418.527 320.961C415.791 322.111 413.055 323.232 410.319 324.321C409.202 324.777 408.08 325.2 406.959 325.633C404.847 326.439 402.732 327.231 400.598 327.991L400.333 328.091L399.877 328.251L399.307 328.46C393.741 330.445 388.1 332.279 382.385 333.96L382.284 333.988C378.299 335.147 374.288 336.22 370.251 337.207L369.699 337.343C363.771 338.773 357.747 340.003 351.687 340.986L350.291 341.209C345.859 341.904 341.396 342.472 336.903 342.912C311.645 345.348 286.086 343.367 260.984 339.971C210.295 333.104 160.276 320.232 114.657 300.057C105.902 296.187 97.3172 292.044 88.9025 287.627C88.8341 287.59 88.7748 287.554 88.7064 287.522C83.6691 284.878 78.7002 282.124 73.7997 279.258C72.3633 278.429 70.9361 277.582 69.5179 276.731C67.7729 275.681 66.0356 274.618 64.3058 273.544C62.0258 272.123 59.7458 270.666 57.4658 269.177L56.3987 268.467L55.9883 268.189C55.4092 267.802 54.8392 267.415 54.2646 267.024C32.8326 252.453 13.7216 234.796 4.69277 212.699C-5.74054 187.201 0.935322 154.873 26.7769 139.802C35.6598 134.612 45.9837 131.793 56.417 129.466L57.484 129.23C59.2487 128.843 61.0135 128.469 62.7691 128.096C68.9205 126.794 75.1039 125.501 81.228 124.057C84.42 123.306 87.5801 122.518 90.7219 121.667L92.0079 121.312C99.585 119.282 106.995 116.676 114.174 113.516H114.22C114.99 113.175 115.752 112.82 116.5 112.456C116.983 112.228 117.466 112 117.95 111.75C125.702 107.898 133.91 102.557 140.225 96.1915C140.732 95.6815 141.224 95.1625 141.703 94.6434C142.072 94.2381 142.437 93.8284 142.788 93.4186C147.216 88.2643 150.28 82.5409 150.864 76.4669C151.06 74.4259 150.968 72.3674 150.59 70.352C149.874 66.5318 149.181 62.7936 148.671 59.1465C147.718 52.2939 147.394 45.7418 148.716 39.4265C150.061 32.9883 153.112 26.7914 158.935 20.7811C159.814 19.8705 160.761 18.9598 161.776 18.0492C166.485 13.9238 171.814 10.562 177.567 8.08674C178.279 7.78319 178.995 7.47965 179.715 7.1761C195.712 0.710531 214.932 -0.637219 232.889 0.255211C249.666 1.11731 266.337 3.43297 282.712 7.1761C284.012 7.4675 285.311 7.77257 286.602 8.08674C300.532 11.4562 314.238 15.6882 327.642 20.7583C362.471 33.8397 395.344 52.0025 426.056 72.0458C426.357 72.2416 426.658 72.4373 426.968 72.6377C428.251 73.4724 429.526 74.3102 430.794 75.1511C433.247 76.775 435.679 78.4096 438.09 80.0549L439.718 81.1613C440.52 81.7077 441.318 82.2556 442.112 82.805L444.556 84.4943C444.671 84.5633 444.781 84.641 444.884 84.7265L446.964 86.1653C448.168 87.0031 449.362 87.8454 450.562 88.6923L453.133 90.5136C453.667 90.8961 454.205 91.274 454.738 91.661L457.475 93.6553L458.086 94.1106C458.213 94.2017 458.341 94.2928 458.464 94.3929L458.542 94.443C465.956 99.875 473.193 105.507 479.974 111.477L480.849 112.251L480.94 112.333C481.679 112.988 482.418 113.653 483.143 114.322C491.998 122.372 499.933 131.024 506.417 140.585C536.203 184.752 527.361 245.906 485.924 282.272Z" fill="#315CD5"/>
<path d="M370.072 161.075C370.072 161.075 372.726 147.188 381.253 147.115L387.491 159.928L383.296 162.774C383.296 162.774 374.285 163.061 370.072 161.075Z" fill="#65617D"/>
<path opacity="0.1" d="M387.473 159.91L383.296 162.774C383.296 162.774 376.939 162.974 372.398 161.863C371.598 161.678 370.819 161.414 370.072 161.075C370.072 161.075 370.072 160.998 370.118 160.852C370.116 160.834 370.116 160.816 370.118 160.798C370.51 159.055 371.05 157.349 371.732 155.698C371.992 155.074 372.293 154.432 372.612 153.79C373.861 151.391 375.617 149.037 378.02 147.871C378.908 147.437 379.874 147.184 380.861 147.129H381.116H381.239L381.381 147.411L383.488 151.741L387.473 159.91Z" fill="black"/>
<path d="M458.299 217.602C458.299 217.602 467.26 216.746 468.048 217.388C468.837 218.03 473.926 221.327 476.94 219.251C479.955 217.174 477.944 209.944 477.944 209.657C477.944 209.37 477.656 199.135 477.656 199.135L472.28 191.904L465.54 179.237L451.778 177.871L452.134 197.987L452.066 208.296L458.299 217.602Z" fill="#65617D"/>
<path opacity="0.1" d="M458.299 217.602C458.299 217.602 467.26 216.746 468.048 217.388C468.837 218.03 473.926 221.327 476.94 219.251C479.955 217.174 477.944 209.944 477.944 209.657C477.944 209.37 477.656 199.135 477.656 199.135L472.28 191.904L465.54 179.237L451.778 177.871L452.134 197.987L452.066 208.296L458.299 217.602Z" fill="black"/>
<path d="M379.443 146.741C379.443 146.741 378.736 155.474 373.264 155.611C373.264 155.611 371.722 154.7 369.643 153.129C364.855 149.555 357.263 142.68 359.36 136.282C362.37 127.121 376.994 144.023 376.994 144.023L378.12 145.28L379.443 146.741Z" fill="#A5636D"/>
<path opacity="0.1" d="M379.443 146.74C379.443 146.74 378.737 155.473 373.265 155.61C373.265 155.61 371.723 154.699 369.644 153.128L369.188 152.532C370.112 153.016 371.132 153.291 372.175 153.338C373.543 153.365 375.084 152.882 376.074 150.884C376.645 149.76 377.149 148.603 377.583 147.419C377.841 146.724 378.025 146.003 378.13 145.27L379.443 146.74Z" fill="black"/>
<path d="M377.076 162.559L375.849 160.984L371.745 155.679L369.616 152.97C370.539 153.452 371.557 153.725 372.598 153.771C373.966 153.803 375.508 153.316 376.497 151.317C377.071 150.194 377.575 149.037 378.006 147.852C378.686 145.922 378.672 144.929 378.43 144.592C378.189 144.255 379.954 145.89 380.802 146.696L380.834 146.723L381.226 147.096L381.376 147.388L383.451 151.536C383.451 151.536 383.451 151.595 383.451 151.709C383.643 153.025 384.34 161.375 377.076 162.559Z" fill="#E7EFFD"/>
<path d="M456.293 105.794L445.682 117.109C445.682 117.109 432.066 111.645 433.498 109.824C434.054 109.105 433.953 106.832 433.643 104.324C433.142 100.358 432.066 95.7909 432.066 95.7909C432.066 95.7909 455.864 91.9253 453.853 95.9366C453.124 97.3982 453.247 99.1239 453.703 100.69C454.289 102.518 455.163 104.242 456.293 105.794Z" fill="#A5636D"/>
<path opacity="0.1" d="M453.853 95.9178C453.124 97.3794 452.773 97.5206 453.229 99.1051C450.119 102.438 446.161 106.085 441.24 106.085C438.604 106.09 436.003 105.482 433.643 104.309C433.142 100.344 432.066 95.7767 432.066 95.7767C432.066 95.7767 455.864 91.9065 453.853 95.9178Z" fill="black"/>
<path d="M458.303 88.6143C458.303 93.1331 456.506 97.4668 453.306 100.662C450.106 103.857 445.765 105.652 441.24 105.652C436.714 105.652 432.374 103.857 429.174 100.662C425.974 97.4668 424.176 93.1331 424.176 88.6143C424.176 88.5323 424.176 88.4504 424.176 88.3684C424.274 83.894 426.132 79.6377 429.347 76.5195C432.562 73.4012 436.877 71.6713 441.359 71.7036C445.841 71.7359 450.13 73.5278 453.3 76.6921C456.47 79.8563 458.265 84.1389 458.299 88.6143H458.303Z" fill="#A5636D"/>
<path opacity="0.1" d="M460.771 201.005C458.491 201.005 450.985 201.087 442.577 201.219H442.472L439.695 201.265H439.608C429.635 201.424 419.809 199.48 415.864 199.849C407.474 200.636 418.874 192.108 418.874 192.108C425.124 193.622 431.553 194.272 437.98 194.039L440.393 193.911C448.012 193.483 455.673 192.768 459.677 191.566C459.955 193.788 460.361 197.007 460.771 201.005Z" fill="black"/>
<path d="M460.771 200.578C458.491 200.578 450.985 200.655 442.577 200.792H442.472L439.695 200.837H439.608C429.635 200.996 419.809 199.052 415.864 199.421C407.474 200.204 418.874 191.681 418.874 191.681C425.124 193.195 431.553 193.843 437.98 193.607L440.393 193.484C448.012 193.056 455.673 192.336 459.677 191.139C459.955 193.361 460.361 196.589 460.771 200.578Z" fill="#5F5D7E"/>
<path opacity="0.1" d="M436.648 110.533L423.456 116.689L413.283 195.269C413.283 195.269 419.302 192.537 422.745 194.267C426.188 195.997 436.794 194.413 436.794 194.413C436.794 194.413 444.546 193.957 445.682 194.841C446.817 195.724 460.31 191.262 460.31 191.262C460.31 191.262 462.745 185.821 460.88 184.965C459.015 184.109 461.455 175.644 461.455 175.644L460.31 118.952L458.03 111.667L451.865 107.947L445.558 112.956L442.549 113.388L436.648 110.533Z" fill="black"/>
<path d="M436.648 109.659L423.461 115.815L413.283 194.413C413.283 194.413 419.302 191.681 422.745 193.411C426.188 195.141 436.794 193.552 436.794 193.552C436.794 193.552 444.546 193.124 445.682 193.98C446.817 194.836 460.31 190.401 460.31 190.401C460.31 190.401 462.745 184.965 460.88 184.104C459.015 183.244 461.455 174.797 461.455 174.797L460.31 118.105L458.03 110.82L451.865 107.096L445.558 112.104L442.549 112.532L436.648 109.659Z" fill="#E7EFFD"/>
<path opacity="0.1" d="M436.434 113.311C436.434 113.311 440.237 117.819 440.164 118.753C440.091 119.686 439.95 121.899 439.95 121.899L437.104 127.7C437.104 127.7 435.526 134.93 435.526 136.433C435.526 137.935 433.018 150.962 433.018 150.962L430.009 170.996L426.206 197.268L430.077 203.925L434.665 200.059L440.752 153.252L442.043 144.018C442.043 144.018 443.411 127.413 443.411 125.696C443.411 123.98 442.622 119.467 442.622 119.467C442.622 119.467 443.557 115.174 447.428 114.172C451.3 113.17 447.141 113.953 447.141 113.953L444.92 112.164L442.982 112.952C442.982 112.952 437.583 111.308 436.434 113.311Z" fill="black"/>
<path d="M436.005 112.884C436.005 112.884 439.804 117.391 439.736 118.32C439.667 119.249 439.517 121.471 439.517 121.471L436.648 127.272C436.648 127.272 435.071 134.498 435.071 136C435.071 137.503 432.563 150.534 432.563 150.534L429.548 170.568L425.75 196.836L429.621 203.493L434.209 199.627L440.296 152.825L441.587 143.591C441.587 143.591 442.955 126.985 442.955 125.264C442.955 123.543 442.166 119.04 442.166 119.04C442.166 119.04 443.078 114.741 446.968 113.74C450.857 112.738 446.685 113.526 446.685 113.526L444.46 111.736L442.526 112.524C442.526 112.524 437.155 110.876 436.005 112.884Z" fill="#315CD5"/>
<path opacity="0.1" d="M433.498 105.365C433.498 105.365 432.923 105.793 432.782 108.657C432.64 111.521 430.629 117.964 430.629 117.964C430.629 117.964 438.085 112.81 441.815 113.383L433.498 105.365Z" fill="black"/>
<path d="M433.498 104.506C433.498 104.506 432.923 104.938 432.782 107.798C432.64 110.657 430.629 117.105 430.629 117.105C430.629 117.105 438.085 111.95 441.815 112.524L433.498 104.506Z" fill="#E7EFFD"/>
<path opacity="0.1" d="M453.858 103.076L442.12 113.385C442.12 113.385 452.015 119.254 453.306 120.67C454.596 122.086 455.887 106.641 455.887 106.641L453.858 103.076Z" fill="black"/>
<path d="M454.286 102.215L442.53 112.523C442.53 112.523 452.421 118.392 453.711 119.808C455.002 121.225 456.292 105.775 456.292 105.775L454.286 102.215Z" fill="#E7EFFD"/>
<path opacity="0.1" d="M433.912 105.366C433.912 105.366 432.622 104.72 431.404 106.582C430.186 108.444 427.893 109.314 427.893 109.314C427.893 109.314 414.842 111.39 414.34 113.107L408.248 113.462C408.248 113.462 406.096 113.722 405.895 118.275C405.695 122.828 404.527 123.21 404.527 123.21C404.527 123.21 402.015 127.65 402.247 129.94C402.48 132.23 400.309 133.378 400.309 133.378L409.288 156.617C409.288 156.617 409.575 166.211 407.92 169.717C406.265 173.223 403.187 188.759 403.187 188.759C403.187 188.759 404.477 188.472 404.404 189.332C404.331 190.193 402.826 199.568 402.826 199.568C402.826 199.568 402.398 203.288 401.682 204.576C400.966 205.865 400.893 212.595 400.893 212.595L399.712 217.462C399.712 217.462 402.448 223.545 406.598 222.685C410.747 221.824 418.28 205.578 418.28 205.578L423.082 188.044L426.812 170.719L427.888 158.981L429.607 132.995L432.115 115.816C432.115 115.816 434.929 106.582 433.912 105.366Z" fill="black"/>
<path d="M433.497 104.505C433.497 104.505 432.207 103.863 430.989 105.726C429.772 107.588 427.474 108.458 427.474 108.458C427.474 108.458 414.427 110.534 413.926 112.25L407.834 112.61C407.834 112.61 405.681 112.897 405.467 117.405C405.253 121.912 404.099 122.345 404.099 122.345C404.099 122.345 401.591 126.784 401.819 129.075C402.047 131.365 399.885 132.508 399.885 132.508L408.832 155.756C408.832 155.756 409.119 165.35 407.464 168.856C405.809 172.362 402.735 187.897 402.735 187.897C402.735 187.897 404.026 187.611 403.953 188.471C403.88 189.332 402.375 198.707 402.375 198.707C402.375 198.707 401.947 202.427 401.231 203.715C400.515 205.004 400.442 211.734 400.442 211.734L399.302 216.624C399.302 216.624 402.038 222.707 406.183 221.851C410.328 220.995 417.87 204.74 417.87 204.74L422.672 187.205L426.402 169.903L427.474 158.165L429.197 132.184L431.705 115.005C431.705 115.005 434.501 105.726 433.497 104.505Z" fill="#65617D"/>
<path opacity="0.1" d="M387.473 159.908L383.296 162.772C383.296 162.772 376.939 162.972 372.398 161.861L370.081 160.837L369.625 160.632L370.104 160.782C372.503 161.493 374.377 161.479 375.841 160.987C381.728 159.011 381.075 149.308 380.857 147.114C380.857 146.895 380.82 146.754 380.811 146.699C380.81 146.69 380.81 146.681 380.811 146.672L380.847 146.727C380.926 146.86 381.016 146.987 381.116 147.104C381.199 147.203 381.287 147.295 381.381 147.382L383.456 151.53C383.456 151.53 383.456 151.589 383.456 151.703L387.473 159.908Z" fill="black"/>
<path d="M401.883 131.934L399.877 132.507L399.589 136.605C399.589 136.605 397.223 136.25 396.58 139.041C395.937 141.832 394.788 143.139 394.788 143.139C394.788 143.139 390.843 146.431 390.629 149.222L388.189 150.725C388.189 150.725 382.526 149.436 381.235 147.146C381.235 147.146 383.816 165.614 370.054 161.106C370.054 161.106 385.467 167.836 386.183 168.765C386.899 169.693 391.632 172.407 395.932 170.131C400.232 167.854 401.167 164.261 401.167 164.261C401.167 164.261 405.326 158.465 405.467 157.605C405.609 156.744 408.837 155.742 408.837 155.742L415.002 140.858L401.883 131.934Z" fill="#65617D"/>
<path opacity="0.1" d="M452.207 111.663L454.286 102.215C454.286 102.215 455.198 105.293 456.151 106.008C457.104 106.723 459.234 108.371 459.234 108.371C459.234 108.371 462.316 109.805 463.388 109.805C464.46 109.805 470.274 111.308 470.99 112.082C471.706 112.856 474.574 112.296 474.574 112.296C474.574 112.296 476.94 113.083 479.02 113.584C481.099 114.085 482.102 117.523 481.669 118.88C481.496 119.556 481.498 120.265 481.673 120.941C481.848 121.617 482.192 122.238 482.672 122.745C483.534 123.606 483.963 126.388 483.963 126.388C485.019 126.731 485.896 127.478 486.402 128.464C487.118 130.04 486.904 133.473 486.904 133.473L476.225 148.498C476.225 148.498 476.366 154.295 475.937 155.583C475.509 156.872 477.442 178.777 477.442 178.777L479.663 216.428C479.663 216.428 476.726 218.932 476.079 219.219C475.431 219.506 474.788 205.905 474.788 205.404C474.788 204.904 458.231 180.635 458.231 180.635C458.231 180.635 456.005 177.056 456.005 176.268C456.005 175.481 453.926 168.255 453.926 168.255L450.784 154.326L452.207 111.663Z" fill="black"/>
<path d="M487.794 132.676C487.794 133.168 487.766 133.496 487.766 133.496L477.091 148.522C477.091 148.522 477.237 154.322 476.809 155.611C476.558 156.358 477.105 164.062 477.611 170.386C477.971 174.939 478.313 178.801 478.313 178.801L479.253 194.773L480.53 216.456C480.53 216.456 477.593 218.96 476.95 219.247C476.307 219.534 475.66 205.933 475.66 205.428C475.66 204.922 459.088 180.654 459.088 180.654C459.088 180.654 456.868 177.07 456.868 176.283C456.868 175.495 454.788 168.264 454.788 168.264L451.637 154.309L453.069 111.645L454.287 102.197C454.287 102.197 456.079 105.28 457.023 105.99C457.967 106.7 460.101 108.353 460.101 108.353C460.101 108.353 463.183 109.787 464.26 109.787C465.336 109.787 471.141 111.29 471.861 112.064C472.582 112.838 475.445 112.278 475.445 112.278C475.445 112.278 477.807 113.066 479.887 113.567C481.966 114.067 482.969 117.505 482.541 118.862C482.366 119.538 482.367 120.248 482.543 120.924C482.718 121.6 483.062 122.221 483.544 122.728C484.401 123.584 484.834 126.37 484.834 126.37C485.889 126.715 486.766 127.461 487.274 128.447C487.762 129.576 487.807 131.561 487.794 132.676Z" fill="#65617D"/>
<path opacity="0.1" d="M410.323 324.322C409.206 324.777 408.084 325.201 406.962 325.633C403.447 324.609 400.163 323.402 400.163 323.402C403.564 323.524 406.956 323.831 410.323 324.322Z" fill="black"/>
<path opacity="0.1" d="M444.25 286.105C444.25 286.105 452.782 288.109 453.283 289.47L444.25 286.105Z" fill="black"/>
<path opacity="0.1" d="M411.345 292.262C411.345 292.262 406.899 293.55 411.204 296.127C415.509 298.705 411.345 292.262 411.345 292.262Z" fill="black"/>
<path opacity="0.1" d="M431.057 223.453C431.559 223.453 439.375 220.875 442.097 222.023C444.82 223.17 448.194 223.166 448.194 223.166L431.057 223.453Z" fill="black"/>
<path opacity="0.1" d="M432.088 231.649L432.011 232.36L425.326 249.817C425.326 249.817 424.25 255.112 423.315 258.117C422.729 260.16 422.263 262.235 421.92 264.332L427.848 227.697L432.088 231.649Z" fill="black"/>
<path d="M442.471 200.793L439.694 200.839H439.608L437.98 193.622C438.778 193.585 439.585 193.544 440.392 193.494L442.471 200.793Z" fill="#3F3D56"/>
<path d="M476.293 192.036L474.51 193.507L468.569 198.411C468.569 198.411 452.44 207.003 447.998 198.839C444.081 191.649 462.367 186.518 466.772 185.398C467.369 185.247 467.711 185.17 467.711 185.17L476.293 192.036Z" fill="#A5636D"/>
<path opacity="0.1" d="M407.405 121.686C407.405 121.686 410.556 123.12 411.272 125.123C411.988 127.127 407.405 121.686 407.405 121.686Z" fill="black"/>
<path opacity="0.1" d="M397.652 143.162C397.652 143.162 393.064 148.744 394.916 150.903C396.767 153.061 397.652 143.162 397.652 143.162Z" fill="black"/>
<path opacity="0.1" d="M479.663 124.836C479.663 124.836 475.363 125.264 475.217 128.988L479.663 124.836Z" fill="black"/>
<path opacity="0.1" d="M439.804 183.531C440.26 183.103 450.128 168.505 452.421 169.789L439.804 183.531Z" fill="black"/>
<path opacity="0.1" d="M458.303 88.6156C458.306 91.4214 457.612 94.1841 456.283 96.6566H456.156C455.075 96.4289 454.514 95.1722 453.689 94.38C453.181 93.8978 452.534 93.5863 451.84 93.4892C451.146 93.392 450.439 93.514 449.817 93.8381C449.189 94.2128 448.678 94.7553 448.342 95.4046C448.006 96.0539 447.858 96.784 447.916 97.5126C447.368 95.236 447.542 92.7818 447.004 90.487C446.466 88.1922 444.865 85.8655 442.667 85.8245C441.719 85.8245 440.615 86.1751 439.931 85.4648C439.516 85.0368 439.434 84.3629 439.124 83.8438C437.551 81.3077 432.772 82.5917 430.82 83.8939C428.868 85.1961 426.602 87.2724 424.176 88.3879C424.274 83.9135 426.132 79.6573 429.347 76.539C432.562 73.4207 436.877 71.6908 441.359 71.7231C445.841 71.7554 450.13 73.5473 453.3 76.7116C456.47 79.8759 458.265 84.1584 458.299 88.6338L458.303 88.6156Z" fill="black"/>
<path d="M439.129 83.3966C439.439 83.9156 439.521 84.5895 439.936 85.0175C440.62 85.7233 441.723 85.359 442.672 85.3772C444.87 85.4136 446.475 87.7403 447.008 90.0352C447.542 92.33 447.369 94.7705 447.92 97.0608C447.864 96.3329 448.012 95.6038 448.348 94.9554C448.684 94.307 449.194 93.7651 449.822 93.3909C450.442 93.0665 451.149 92.9442 451.842 93.0414C452.536 93.1386 453.182 93.4503 453.689 93.9327C454.514 94.7159 455.057 95.9726 456.16 96.2093C457.264 96.4461 458.285 95.3988 458.677 94.2605C459.07 93.1222 459.038 91.8747 459.293 90.6954C459.781 88.4597 461.24 86.6294 462.029 84.5076C462.991 81.9242 462.965 79.0775 461.956 76.5121C461.418 75.1461 460.62 73.9578 460.073 72.6146C459.252 70.5747 459.033 68.2753 458.03 66.3311C456.343 63.0756 452.366 61.4501 449.101 62.6885C447.542 63.2759 446.188 64.4097 444.605 64.9151C442.489 65.5935 440.223 65.0835 438.03 64.7785C435.836 64.4734 433.41 64.4461 431.646 65.8849C429.617 67.5423 429.06 70.6567 427.154 72.478C426.352 73.2429 425.357 73.7301 424.514 74.4358C423.67 75.1416 422.941 76.1934 423.036 77.3408C423.164 78.8251 424.619 80.1729 424.081 81.5434C423.887 81.9422 423.616 82.2982 423.283 82.5907C421.687 84.2636 420.5 86.2814 419.812 88.4871C423.652 89.6846 427.802 85.4592 430.807 83.4785C432.781 82.1444 437.56 80.8559 439.129 83.3966Z" fill="#4C3E42"/>
<path opacity="0.1" d="M476.293 192.037L474.51 193.507C472.937 190.889 466.475 185.662 466.475 185.662L466.753 185.394C467.351 185.243 467.693 185.166 467.693 185.166L476.293 192.037Z" fill="black"/>
<path d="M478.017 189.4C478.017 189.4 477.374 190.994 476.713 192.374C476.051 193.753 475.345 195.001 475.29 193.986C475.217 191.978 466.904 185.248 466.904 185.248L468.03 184.155L469.339 182.885L478.017 189.4Z" fill="#E7EFFD"/>
<path opacity="0.1" d="M478.304 178.806L479.243 194.778C477.018 191.322 470.903 182.457 466.972 182.744L476.507 171.816C476.906 171.376 477.271 170.907 477.602 170.414C477.962 174.958 478.304 178.806 478.304 178.806Z" fill="black"/>
<path opacity="0.1" d="M478.017 189.4C478.017 189.4 477.374 190.994 476.713 192.374C474.214 188.95 470.785 184.911 468.049 184.155L469.358 182.885L478.017 189.4Z" fill="black"/>
<path d="M485.185 131.479L487.766 133.482C487.766 133.482 492.066 133.555 492.495 137.125C492.924 140.694 496.868 142.352 496.868 142.352C496.868 142.352 499.809 145.284 499.809 146.645C499.809 148.007 502.03 150.438 502.03 150.652C502.03 150.866 504.182 155.233 503.895 156.02C503.608 156.808 506.175 160.246 505.4 161.534C504.752 162.69 504.178 163.885 503.681 165.113C503.681 165.113 500.311 171.556 498.587 172.772C496.863 173.987 488.984 184.223 488.984 184.223C488.984 184.223 480.525 193.958 480.525 196.972C480.525 196.972 472.28 183.226 467.406 183.586L476.941 172.635C476.941 172.635 478.587 170.846 478.66 169.771C478.733 168.697 483.247 163.756 485.4 163.542C485.4 163.542 485.755 160.605 484.825 160.537C483.895 160.469 483.106 158.174 483.106 158.174C483.106 158.174 476.795 150.73 476.722 146.003C476.649 141.277 485.185 131.479 485.185 131.479Z" fill="#65617D"/>
<path opacity="0.1" d="M488.984 138.309C488.984 138.309 482.96 142.743 484.25 144.178C485.541 145.612 488.984 138.309 488.984 138.309Z" fill="black"/>
<path opacity="0.1" d="M489.271 156.618C489.271 156.618 500.452 153.039 501.583 156.618H489.271Z" fill="black"/>
<path opacity="0.1" d="M410.379 137.434C410.379 137.434 410.379 153.752 408.979 155.364C407.579 156.976 410.379 137.434 410.379 137.434Z" fill="black"/>
<path opacity="0.1" d="M475.003 142.693L477.082 148.526C477.082 148.526 477.907 142.803 475.003 142.693Z" fill="black"/>
<g opacity="0.1">
<path opacity="0.1" d="M424.337 80.1272C424.861 78.784 423.489 77.4681 423.306 76.0293C423.126 76.4354 423.048 76.8793 423.078 77.3224C423.169 78.4106 423.99 79.4214 424.186 80.4277C424.246 80.3324 424.296 80.2318 424.337 80.1272Z" fill="black"/>
<path opacity="0.1" d="M448.108 95.5444C447.593 93.2678 447.743 90.8955 447.223 88.6417C446.703 86.3879 445.085 84.0156 442.887 83.9792C441.938 83.9792 440.835 84.3253 440.151 83.6195C439.736 83.1915 439.654 82.5176 439.344 81.9986C437.775 79.4624 432.996 80.7464 431.04 82.0486C428.108 83.9929 424.081 88.0634 420.319 87.1437C420.141 87.5763 419.973 88.0134 419.831 88.4641C423.671 89.6616 427.82 85.4362 430.825 83.4556C432.782 82.1579 437.556 80.8694 439.129 83.4101C439.439 83.9291 439.521 84.603 439.936 85.031C440.62 85.7367 441.724 85.3725 442.672 85.3907C444.87 85.4271 446.475 87.7538 447.009 90.0486C447.542 92.3435 447.369 94.784 447.921 97.0743C447.88 96.5569 447.944 96.0368 448.108 95.5444Z" fill="black"/>
<path opacity="0.1" d="M458.887 92.8585C458.495 93.9969 457.474 95.0395 456.37 94.8073C455.267 94.5751 454.729 93.323 453.903 92.5307C453.394 92.0499 452.748 91.7396 452.054 91.6433C451.36 91.547 450.653 91.6694 450.032 91.9934C449.434 92.349 448.942 92.8579 448.608 93.4672C448.274 94.0765 448.109 94.764 448.13 95.4585C448.418 94.584 449.019 93.8463 449.817 93.3867C450.438 93.0623 451.145 92.9401 451.838 93.0373C452.532 93.1345 453.177 93.4461 453.684 93.9286C454.51 94.7117 455.052 95.9684 456.156 96.2052C457.259 96.4419 458.281 95.3947 458.673 94.2564C458.875 93.5859 459.007 92.8962 459.065 92.1983C459.018 92.4214 458.958 92.6418 458.887 92.8585Z" fill="black"/>
<path opacity="0.1" d="M462.258 83.1099C461.45 85.2317 459.978 87.0621 459.522 89.2932C459.421 89.7485 459.366 90.2038 459.312 90.6591C459.8 88.4372 461.254 86.6113 462.048 84.4941C462.407 83.5406 462.63 82.5411 462.709 81.5254C462.601 82.0647 462.45 82.5945 462.258 83.1099Z" fill="black"/>
</g>
<path d="M358.658 134.939C358.756 134.939 358.836 134.86 358.836 134.762C358.836 134.663 358.756 134.584 358.658 134.584C358.56 134.584 358.48 134.663 358.48 134.762C358.48 134.86 358.56 134.939 358.658 134.939Z" fill="#E6E8EC"/>
<path d="M215.351 234.668C215.351 234.668 220.367 231.076 225.579 233.302C225.579 233.302 224.12 236.389 217.645 236.348L215.351 234.668Z" fill="#315CD5"/>
<path d="M214.726 234.877C214.726 234.877 213.386 240.901 217.462 244.808C217.462 244.808 219.742 242.258 217.157 236.325L214.726 234.877Z" fill="#315CD5"/>
<path d="M208.078 229.396C208.078 229.396 208.265 224.31 219.797 225.553C219.797 225.553 219.979 228.827 216.012 230.53C212.045 232.233 210.152 230.999 208.078 229.396Z" fill="#315CD5"/>
<path d="M207.372 229.373C207.372 229.373 202.584 231.112 207.317 241.689C207.317 241.689 210.509 240.852 210.892 236.558C211.275 232.264 209.533 230.867 207.372 229.373Z" fill="#315CD5"/>
<path d="M200.604 222.443C200.604 222.443 199.628 214.125 211.384 214.53C211.384 214.53 212.505 222.052 202.752 224.369L200.604 222.443Z" fill="#315CD5"/>
<path d="M192.496 213.319C192.496 213.319 193.741 203.798 205.565 206.171C205.565 206.171 205.921 214.366 194.493 215.5L192.496 213.319Z" fill="#315CD5"/>
<path d="M186.463 203.793C186.463 203.793 188.798 194.459 200.513 196.795C200.513 196.795 198.069 205.182 187.289 205.446L186.463 203.793Z" fill="#315CD5"/>
<path d="M180.722 194.486C180.722 194.486 183.002 184.824 194.297 187.27C194.297 187.27 190.905 196.494 181.529 196.089L180.722 194.486Z" fill="#315CD5"/>
<path d="M176.906 185.584C176.906 185.584 178.479 173.823 189.04 175.999C189.04 175.999 186.414 186.754 177.75 187.255L176.906 185.584Z" fill="#315CD5"/>
<path d="M173.239 174.788C173.239 174.788 175.214 162.909 185.907 165.932C185.907 165.932 182.191 177.229 174.051 176.405L173.239 174.788Z" fill="#315CD5"/>
<path d="M170.836 164.717C170.836 164.717 174.238 152.783 182.427 152.787C182.427 152.787 178.962 165.386 171.611 167.052L170.836 164.717Z" fill="#315CD5"/>
<path d="M169.181 154.842C169.181 154.842 172.829 140.494 179.523 141.332C179.523 141.332 177.038 152.287 169.491 157.041L169.181 154.842Z" fill="#315CD5"/>
<path d="M168 143.026C168 143.026 171.475 131.051 178.032 130.332C178.032 130.332 175.802 142.066 168.269 146.091L168 143.026Z" fill="#315CD5"/>
<path d="M166.782 132.029C166.782 132.029 171.228 120.009 175.56 119.576C175.56 119.576 173.878 131.31 167.289 133.955L166.782 132.029Z" fill="#315CD5"/>
<path d="M165.843 121.785C165.843 121.785 168.365 108.813 172.656 107.584C172.656 107.584 172.469 118.12 166.318 122.728L165.843 121.785Z" fill="#315CD5"/>
<path d="M163.695 108.411C163.695 108.411 166.472 98.0434 169.924 96.3496C169.924 96.3496 169.692 108.452 164.607 110.883L163.695 108.411Z" fill="#315CD5"/>
<path d="M162.004 99.6381L160.672 81.5938C160.672 81.5938 167.745 94.9802 162.592 102.794L162.004 99.6381Z" fill="#315CD5"/>
<path d="M156.244 81.8764C156.244 81.8764 151.018 68.8679 149.86 68.1758C149.86 68.1758 159.436 76.3716 158.98 87.4222L156.244 81.8764Z" fill="#315CD5"/>
<path d="M200.28 222.393C200.28 222.393 191.926 221.628 192.623 233.348C192.623 233.348 200.184 234.259 202.263 224.488L200.28 222.393Z" fill="#315CD5"/>
<path d="M192.09 213.018C192.09 213.018 182.482 213.355 183.727 225.311C183.727 225.311 191.844 226.44 194.074 215.194L192.09 213.018Z" fill="#315CD5"/>
<path d="M186.4 204.575C186.4 204.575 177.522 200.824 172.346 211.574C172.346 211.574 180.531 214.67 187.234 206.246L186.4 204.575Z" fill="#315CD5"/>
<path d="M180.531 194.581C180.531 194.581 171.433 190.579 166.586 201.074C166.586 201.074 176.012 203.915 181.329 196.184L180.531 194.581Z" fill="#315CD5"/>
<path d="M177.029 185.834C177.029 185.834 168.123 177.966 161.584 186.517C161.584 186.517 170.622 192.924 177.494 187.642L177.029 185.834Z" fill="#315CD5"/>
<path d="M173.719 174.493C173.719 174.493 164.749 166.439 158.283 175.468C158.283 175.468 168.251 181.974 174.092 176.237L173.719 174.493Z" fill="#315CD5"/>
<path d="M171.712 164.338C171.712 164.338 164.648 154.13 156.901 156.762C156.901 156.762 164.233 167.58 171.73 166.779L171.712 164.338Z" fill="#315CD5"/>
<path d="M169.372 154.769C169.372 154.769 162.154 141.838 155.897 144.37C155.897 144.37 161.123 154.318 169.632 156.977L169.372 154.769Z" fill="#315CD5"/>
<path d="M168.433 142.333C168.433 142.333 161.137 132.221 154.725 133.737C154.725 133.737 160.763 144.041 169.217 145.311L168.433 142.333Z" fill="#315CD5"/>
<path d="M167.503 131.77C167.503 131.77 161.712 120.332 157.357 120.387C157.357 120.387 160.371 131.852 167.216 133.732L167.503 131.77Z" fill="#315CD5"/>
<path d="M166.048 121.522C166.048 121.522 159.664 109.957 155.186 110.107C155.186 110.107 158.615 120.074 165.888 122.569L166.048 121.522Z" fill="#315CD5"/>
<path d="M164.675 109.095C164.675 109.095 159.855 99.5057 156.135 98.5449C156.135 98.5449 158.811 110.351 164.288 111.704L164.675 109.095Z" fill="#315CD5"/>
<path d="M161.461 99.3143L150.946 84.5801C150.946 84.5801 154.065 99.3871 163.021 102.133L161.461 99.3143Z" fill="#315CD5"/>
<path d="M154.014 83.1777C154.014 83.1777 142.158 75.6603 141.702 74.3945C141.702 74.3945 148.023 85.3222 158.985 86.8658L154.014 83.1777Z" fill="#315CD5"/>
<path d="M153.185 79.6271C153.185 79.6271 139.441 67.4108 136.058 67.552C136.058 67.552 147.002 67.634 153.477 78.935L153.185 79.6271Z" fill="#315CD5"/>
<path d="M164.621 110.99L164.137 111.072C160.9 91.6979 156.841 80.3285 152.669 79.0627L152.81 78.6074C157.22 79.937 161.301 91.1424 164.621 110.99Z" fill="#444053"/>
<path d="M170.066 157.405L169.341 157.496C169.117 155.675 168.93 153.826 168.775 151.978C167.462 135.887 165.816 121.13 163.973 110.088L164.375 109.551C166.199 120.611 168.191 135.805 169.509 151.896C169.655 153.758 169.847 155.611 170.066 157.405Z" fill="#444053"/>
<path d="M229.323 243.419C229.191 243.365 216.126 238.133 202.268 224.979C194.155 217.282 187.313 208.35 181.999 198.515C175.355 186.222 171.005 170.959 169.172 156.043L169.947 156.371C174.051 189.846 190.257 212.221 202.911 224.241C216.632 237.277 229.551 242.454 229.678 242.513L229.323 243.419Z" fill="#444053"/>
<g opacity="0.7">
<path opacity="0.7" d="M238.403 228.566C238.403 228.566 244.267 226.631 248.571 230.291C248.571 230.291 246.259 232.809 240.09 230.842L238.403 228.566Z" fill="#315CD5"/>
<path opacity="0.7" d="M237.741 228.576C237.741 228.576 234.668 233.931 237.404 238.876C237.404 238.876 240.336 237.113 239.638 230.68L237.741 228.576Z" fill="#315CD5"/>
<path opacity="0.7" d="M233.026 221.373C233.026 221.373 234.722 216.569 245.338 221.186C245.338 221.186 244.535 224.374 240.24 224.829C235.944 225.284 234.531 223.518 233.026 221.373Z" fill="#315CD5"/>
<path opacity="0.7" d="M232.36 221.176C232.36 221.176 227.267 221.417 228.639 232.918C228.639 232.918 231.913 233.064 233.578 229.085C235.242 225.105 233.979 223.207 232.36 221.176Z" fill="#315CD5"/>
<path opacity="0.7" d="M227.959 212.525C227.959 212.525 229.51 204.293 240.609 208.172C240.609 208.172 239.437 215.685 229.437 215.002L227.959 212.525Z" fill="#315CD5"/>
<path opacity="0.7" d="M222.94 201.392C222.94 201.392 226.966 192.673 237.532 198.451C237.532 198.451 235.439 206.36 224.185 204.065L222.94 201.392Z" fill="#315CD5"/>
<path opacity="0.7" d="M220.017 190.506C220.017 190.506 225.033 182.287 235.521 187.997C235.521 187.997 230.687 195.282 220.318 192.35L220.017 190.506Z" fill="#315CD5"/>
<path opacity="0.7" d="M217.312 179.915C217.312 179.915 222.356 171.364 232.429 177.056C232.429 177.056 226.442 184.856 217.6 181.682L217.312 179.915Z" fill="#315CD5"/>
<path opacity="0.7" d="M216.323 170.282C216.323 170.282 221.339 159.514 230.751 164.736C230.751 164.736 225.037 174.22 216.615 172.126L216.323 170.282Z" fill="#315CD5"/>
<path opacity="0.7" d="M216.035 158.888C216.035 158.888 221.462 148.133 230.769 154.198C230.769 154.198 223.851 163.878 216.322 160.65L216.035 158.888Z" fill="#315CD5"/>
<path opacity="0.7" d="M216.747 148.548C216.747 148.548 223.551 138.167 231.367 140.603C231.367 140.603 224.303 151.603 216.775 151.011L216.747 148.548Z" fill="#315CD5"/>
<path opacity="0.7" d="M218.106 138.636C218.106 138.636 225.858 126.019 232.004 128.815C232.004 128.815 226.364 138.531 217.754 140.83L218.106 138.636Z" fill="#315CD5"/>
<path opacity="0.7" d="M220.504 127.003C220.504 127.003 227.39 116.608 233.856 117.865C233.856 117.865 228.233 128.406 219.838 130.013L220.504 127.003Z" fill="#315CD5"/>
<path opacity="0.7" d="M222.612 116.148C222.612 116.148 230.441 105.99 234.705 106.864C234.705 106.864 229.602 117.564 222.525 118.138L222.612 116.148Z" fill="#315CD5"/>
<path opacity="0.7" d="M224.767 106.085C224.767 106.085 231.037 94.4513 235.506 94.5514C235.506 94.5514 232.186 104.568 224.936 107.127L224.767 106.085Z" fill="#315CD5"/>
<path opacity="0.7" d="M226.705 92.6801C226.705 92.6801 232.442 83.6101 236.245 83.0137C236.245 83.0137 232.414 94.5014 226.838 95.3073L226.705 92.6801Z" fill="#315CD5"/>
<path opacity="0.7" d="M227.7 83.798L231.804 66.1816C231.804 66.1816 234.572 81.057 227.335 87.0035L227.7 83.798Z" fill="#315CD5"/>
<path opacity="0.7" d="M227.495 65.1344C227.495 65.1344 226.382 51.1606 225.475 50.1543C225.475 50.1543 232.192 60.8361 228.439 71.2357L227.495 65.1344Z" fill="#315CD5"/>
<path opacity="0.7" d="M227.668 212.372C227.668 212.372 219.916 209.153 217.097 220.568C217.097 220.568 224.033 223.705 228.953 214.972L227.668 212.372Z" fill="#315CD5"/>
<path opacity="0.7" d="M222.643 200.982C222.643 200.982 213.372 198.45 210.992 210.252C210.992 210.252 218.402 213.745 223.888 203.668L222.643 200.982Z" fill="#315CD5"/>
<path opacity="0.7" d="M219.724 191.236C219.724 191.236 212.369 185.016 204.22 193.745C204.22 193.745 211.11 199.131 220.021 193.08L219.724 191.236Z" fill="#315CD5"/>
<path opacity="0.7" d="M217.097 179.952C217.097 179.952 209.61 173.428 201.853 182.02C201.853 182.02 210.002 187.529 217.385 181.724L217.097 179.952Z" fill="#315CD5"/>
<path opacity="0.7" d="M216.364 170.558C216.364 170.558 210.203 160.4 201.416 166.619C201.416 166.619 208.133 175.425 216.268 172.42L216.364 170.558Z" fill="#315CD5"/>
<path opacity="0.7" d="M216.583 158.744C216.583 158.744 210.418 148.394 201.535 155.101C201.535 155.101 209.113 164.276 216.4 160.533L216.583 158.744Z" fill="#315CD5"/>
<path opacity="0.7" d="M217.687 148.453C217.687 148.453 213.988 136.614 205.803 136.819C205.803 136.819 209.583 149.331 216.975 150.811L217.687 148.453Z" fill="#315CD5"/>
<path opacity="0.7" d="M218.31 138.622C218.31 138.622 215.269 124.134 208.543 124.694C208.543 124.694 210.567 135.744 217.9 140.807L218.31 138.622Z" fill="#315CD5"/>
<path opacity="0.7" d="M221.12 126.469C221.12 126.469 217.167 114.631 210.591 114.176C210.591 114.176 213.291 125.814 220.979 129.534L221.12 126.469Z" fill="#315CD5"/>
<path opacity="0.7" d="M223.377 116.112C223.377 116.112 221.257 103.472 217.08 102.238C217.08 102.238 216.542 114.077 222.52 117.91L223.377 116.112Z" fill="#315CD5"/>
<path opacity="0.7" d="M225.064 105.894C225.064 105.894 222.406 92.954 218.096 91.7793C218.096 91.7793 218.397 102.311 224.604 106.855L225.064 105.894Z" fill="#315CD5"/>
<path opacity="0.7" d="M227.435 93.6267C227.435 93.6267 225.689 83.0405 222.419 81.0098C222.419 81.0098 221.457 93.0803 226.282 95.9989L227.435 93.6267Z" fill="#315CD5"/>
<path opacity="0.7" d="M227.28 83.3329L221.63 66.1445C221.63 66.1445 220.194 81.2111 227.928 86.4929L227.28 83.3329Z" fill="#315CD5"/>
<path opacity="0.7" d="M224.978 65.7158C224.978 65.7158 215.899 55.0157 215.858 53.668C215.858 53.668 218.635 65.9616 228.626 70.7061L224.978 65.7158Z" fill="#315CD5"/>
<path opacity="0.7" d="M225.242 62.0782C225.242 62.0782 215.762 46.3286 212.474 45.459C212.474 45.459 222.907 48.7919 225.698 61.5045L225.242 62.0782Z" fill="#315CD5"/>
<path opacity="0.7" d="M226.816 95.4165L226.332 95.3482C229.014 75.8923 228.512 63.8262 224.919 61.3812L225.197 60.9805C229.004 63.5712 229.565 75.4734 226.816 95.4165Z" fill="#444053"/>
<path opacity="0.7" d="M218.188 141.349L217.468 141.217C217.796 139.419 218.165 137.575 218.576 135.781C222.114 120.031 224.96 105.452 226.469 94.3467L227.012 93.9551C225.48 105.06 222.835 120.154 219.287 135.922C218.886 137.743 218.512 139.56 218.188 141.349Z" fill="#444053"/>
<path opacity="0.7" d="M249.132 241.069C249.022 240.983 238.105 232.1 228.798 215.43C223.336 205.673 219.459 195.112 217.312 184.141C214.631 170.426 215.032 154.545 217.718 139.783L218.361 140.325C212.319 173.509 221.097 199.681 229.61 214.916C238.826 231.435 249.615 240.223 249.724 240.309L249.132 241.069Z" fill="#444053"/>
</g>
<path d="M140.157 199.125C139.085 199.566 137.971 199.899 136.833 200.118C134.843 200.49 132.824 200.68 130.8 200.687C130.859 201.22 130.905 201.716 130.95 202.167C131.06 203.405 131.124 204.257 131.124 204.257L128.985 204.111L111.347 202.909L101.032 201.384C101.53 202.051 102.071 202.685 102.651 203.282C103.252 203.917 103.947 204.456 104.712 204.88C104.712 204.88 114.019 212.407 115.629 212.475C115.857 212.475 115.93 212.703 115.893 213.063C119.81 213.063 131.99 213.632 128.611 220.402C128.052 221.609 127.066 222.568 125.843 223.093C121.935 224.746 116.039 221.773 113.002 219.947C112.706 220.525 112.423 221.063 112.172 221.522C111.657 222.492 111.297 223.134 111.297 223.134L110.991 222.916L95.3411 211.788L91.912 208.883C90.9047 208.837 89.9073 208.664 88.9434 208.368L88.4874 208.223C88.4676 208.262 88.4508 208.303 88.4372 208.345C88.3124 208.701 88.2193 209.066 88.1591 209.438C88.1591 209.493 88.1591 209.548 88.1591 209.602C88.0951 210.026 88.0525 210.453 88.0314 210.882C88.0314 211.173 88.0086 211.483 88.0086 211.792C87.9812 217.994 90.471 227.961 90.471 227.961C90.471 227.961 96.9234 244.393 94.6343 248.186C94.5163 248.378 94.3613 248.546 94.1783 248.678C93.3712 249.261 92.8878 250.299 92.637 251.533C91.7843 255.558 93.28 261.7 93.28 261.7C93.28 261.7 93.1432 261.928 92.9106 262.283C92.4074 263.086 91.8401 263.847 91.2143 264.559C91.1185 264.669 91.0182 264.783 90.9133 264.887C90.631 265.184 90.326 265.458 90.0013 265.707C90.0606 265.884 90.1244 266.067 90.1883 266.262C90.2521 266.458 90.3342 266.763 90.398 267.036C90.9058 269.274 90.7067 271.614 89.828 273.734C89.2304 275.28 88.8439 276.898 88.6789 278.547C88.3824 281.565 88.4605 284.609 88.9115 287.608C88.8431 287.571 88.7838 287.535 88.7154 287.503C83.672 284.871 78.7001 282.123 73.7996 279.257C72.3632 278.429 70.9359 277.582 69.5177 276.73C67.7728 275.68 66.0354 274.617 64.3057 273.543C62.0257 272.122 59.7456 270.665 57.4656 269.176L56.3986 268.466L55.9882 268.188C55.4091 267.801 54.8391 267.414 54.2645 267.023C51.907 263.981 49.753 260.786 47.8167 257.461C47.4929 256.883 47.201 256.332 46.9594 255.826V255.799L46.8043 255.467L46.1614 255.239C44.953 254.816 44.1869 254.52 44.1869 254.52C44.7446 252.488 45.0117 250.388 44.9803 248.282C44.9438 244.184 43.8084 238.72 39.1298 234.34C32.2169 227.815 31.2638 221.372 31.1635 218.9C31.1635 218.727 31.1635 218.572 31.1635 218.444C31.1612 218.236 31.1703 218.028 31.1908 217.821L31.7198 217.315C30.3792 217.047 29.1206 216.924 29.1206 216.924C29.1206 216.924 33.708 200.35 41.4326 194.818C45.263 192.086 48.4505 187.533 50.7031 183.626C54.8125 176.566 59.427 169.811 64.5109 163.414L65.9017 161.661L66.3075 161.147L66.3941 161.042L66.5036 160.896C66.3151 160.611 66.1236 160.329 65.929 160.049L65.8013 159.863C65.1949 158.952 64.675 158.042 64.7571 156.953C64.7571 156.953 64.7571 156.931 64.7571 156.921C64.7571 156.844 64.7571 156.771 64.7571 156.689C64.7764 156.508 64.81 156.328 64.8574 156.152C64.873 156.181 64.8913 156.208 64.9121 156.234C65.5642 154.34 68.0768 153.502 69.9281 152.455C74.2921 150.005 76.1526 144.646 77.0874 139.66C77.8124 135.781 78.4143 131.433 81.4239 128.942C83.3665 127.339 85.984 126.811 87.9493 125.222C89.0864 124.219 90.0266 123.013 90.7218 121.666C91.1778 120.892 91.57 120.09 91.994 119.316C93.9366 115.81 96.4902 112.55 99.8692 110.451C103.248 108.352 107.535 107.537 111.237 108.949C112.665 109.491 113.973 110.315 115.341 110.92C116.186 111.264 117.059 111.535 117.95 111.731C120.736 112.382 123.668 112.55 126.285 113.711C130.54 115.596 133.308 119.767 135.834 123.729C137.143 125.777 139.199 128.773 140.367 131.788C140.367 131.678 140.367 131.578 140.367 131.474C140.93 132.801 141.239 134.222 141.279 135.662C141.301 136.276 141.235 136.889 141.083 137.484C140.663 139.032 139.591 140.011 138.246 140.73L138.032 140.835C137.744 140.983 137.449 141.115 137.147 141.231C137.102 141.481 137.052 141.736 136.997 141.982C136.974 142.087 136.947 142.196 136.919 142.301C136.86 142.556 136.792 142.806 136.719 143.057C135.744 146.311 133.843 149.212 131.247 151.407C129.449 152.943 127.371 154.118 125.127 154.868C124.967 154.923 124.799 154.964 124.639 155.014C124.504 155.395 124.31 155.753 124.065 156.075C123.887 156.301 123.678 156.502 123.444 156.671C123.299 156.77 123.146 156.858 122.988 156.935C122.95 156.959 122.908 156.979 122.865 156.994C121.224 157.732 118.976 157.154 117.393 156.052C117.311 155.997 117.234 155.933 117.156 155.874C117.156 156.134 117.115 156.407 117.07 156.689C117.024 156.972 116.992 157.145 116.942 157.381C116.892 157.618 116.873 157.732 116.842 157.9C116.81 158.069 116.787 158.183 116.759 158.315L116.705 158.547C115.801 162.942 114.078 167.128 111.625 170.886C111.269 171.424 110.884 171.943 110.471 172.439L109.34 174.16V174.392C109.555 178.353 108.25 182.046 106.408 185.224C105.791 186.278 105.114 187.295 104.379 188.27L104.634 188.421C107.188 189.873 112.222 192.455 115.405 192.236C115.405 192.236 127.444 193.789 128.839 193.01C129.03 192.901 129.217 193.051 129.391 193.374C131.338 192.191 135.816 189.682 139.35 189.349C141.821 189.113 143.832 189.937 144.206 192.992C144.58 196.047 142.738 198.019 140.157 199.125Z" fill="url(#paint0_linear)"/>
<path d="M74.2594 261.737C75.0301 263.05 75.49 264.522 75.6038 266.039C75.7176 267.557 75.4824 269.08 74.916 270.493C73.808 273.266 73.6848 276.722 73.7988 279.258C72.3624 278.429 70.9352 277.582 69.517 276.731C67.772 275.681 66.0347 274.618 64.3049 273.544C62.0249 272.123 59.7449 270.666 57.4649 269.177L56.3978 268.467L55.9874 268.189C55.9516 268.123 55.9071 268.062 55.8552 268.007C55.2442 267.361 51.6828 262.261 49.5669 258.391C49.1839 257.68 48.851 257.025 48.5865 256.424V256.392C48.1305 255.381 47.9162 254.571 48.053 254.202C48.2188 253.621 48.5001 253.08 48.8801 252.611C49.2601 252.141 49.731 251.753 50.2646 251.47C52.8912 250.104 57.1046 251.365 61.2725 253.373C64.8585 255.183 68.2953 257.273 71.5508 259.625L71.9201 259.893L71.9566 259.921C73.3246 260.89 74.118 261.532 74.118 261.532C74.118 261.532 74.1773 261.605 74.2594 261.737Z" fill="#FBBEBE"/>
<path opacity="0.05" d="M73.5667 261.131C74.3389 262.445 74.7995 263.918 74.9133 265.438C75.0271 266.957 74.7911 268.482 74.2233 269.896C73.1153 272.669 72.9921 276.125 73.1061 278.666C71.6712 277.831 70.244 276.987 68.8243 276.134C67.0763 275.084 65.3389 274.021 63.6122 272.947C61.3322 271.522 59.0522 270.065 56.795 268.576L55.7279 267.865L55.3175 267.588C55.2805 267.522 55.2362 267.461 55.1853 267.406C54.5742 266.764 51.0129 261.664 48.897 257.789C48.514 257.079 48.1811 256.423 47.9166 255.822V255.795C47.4606 254.78 47.2463 253.974 47.3831 253.6C47.5496 253.02 47.8312 252.479 48.2111 252.01C48.591 251.541 49.0616 251.152 49.5947 250.868C52.2213 249.502 56.4347 250.764 60.6026 252.772C64.1885 254.581 67.6254 256.672 70.8808 259.023L71.2502 259.292L71.2867 259.319C72.6547 260.289 73.4481 260.931 73.4481 260.931C73.4481 260.931 73.4846 260.999 73.5667 261.131Z" fill="black"/>
<path d="M90.3561 272.173C90.2234 272.952 90.0079 273.715 89.7131 274.449C89.2081 275.77 88.8607 277.145 88.678 278.547C88.3189 281.523 88.3311 284.531 88.7145 287.503C83.6711 284.872 78.6992 282.123 73.7987 279.258C72.3623 278.429 70.935 277.582 69.5168 276.73C69.1976 274.308 68.7416 272.177 68.2263 271.654C67.5514 270.943 63.6982 265.443 61.3042 261.104C60.9942 260.557 60.7251 260.029 60.4743 259.528V259.506C60.3786 259.305 60.2874 259.114 60.2007 258.923C59.5851 257.602 59.2568 256.573 59.4209 256.077C59.7409 254.998 60.3995 254.05 61.2997 253.372C65.3444 250.422 73.7531 254.415 80.21 258.381L80.3696 258.477C81.5917 259.237 82.75 259.988 83.7896 260.689L84.3961 261.099C87.0683 262.921 88.8421 264.337 88.8421 264.337C89.2828 265.015 89.6367 265.747 89.8955 266.513C90.0478 266.945 90.1742 267.386 90.274 267.833C90.5895 269.26 90.6174 270.735 90.3561 272.173Z" fill="#FBBEBE"/>
<path opacity="0.1" d="M49.5899 258.391C52.905 259.548 57.7979 261.082 60.4609 261.123C60.7367 261.131 61.0127 261.118 61.2863 261.082C63.1605 260.827 68.938 261.237 74.2413 261.715C76.3663 261.902 78.4137 262.097 80.1055 262.27L84.3554 262.726V261.087C83.1744 260.276 81.8018 259.374 80.3335 258.464C73.8537 254.466 65.3401 250.382 61.2635 253.355C55.5224 250.587 49.6947 249.257 48.0395 254.184C47.8479 254.826 48.5456 256.456 49.5899 258.391Z" fill="black"/>
<path d="M33.6617 220.23C33.7529 222.685 34.674 229.054 41.2724 235.488C49.6902 243.684 46.1014 255.468 46.1014 255.468C46.1014 255.468 56.1335 259.402 60.4609 259.506C60.7367 259.515 61.0127 259.501 61.2863 259.465C63.8809 259.106 74.1957 260.057 80.1237 260.654L84.3736 261.109V226.268L37.8889 214.994L33.68 219.183C33.6515 219.531 33.6454 219.881 33.6617 220.23Z" fill="#5C5C8E"/>
<g opacity="0.1">
<path opacity="0.1" d="M83.6129 260.676L84.3744 260.753V261.126L80.1244 260.671C75.87 260.243 69.3674 259.633 65.0764 259.455C68.045 259.191 77.8718 260.097 83.6129 260.676Z" fill="black"/>
<path opacity="0.1" d="M33.6806 219.205L37.8895 215.016L40.6985 215.694L37.1918 219.205C37.1695 219.553 37.1695 219.903 37.1918 220.252C37.283 222.706 38.2041 229.071 44.8025 235.51C53.2203 243.705 49.6315 255.485 49.6315 255.485C49.6315 255.485 57.9308 258.74 62.6869 259.409C62.2297 259.408 61.7729 259.433 61.3188 259.487C61.0453 259.523 60.7693 259.536 60.4935 259.528C56.166 259.419 46.134 255.485 46.134 255.485C46.134 255.485 49.7227 243.705 41.305 235.51C34.6747 229.071 33.7536 222.706 33.6624 220.265C33.6455 219.912 33.6516 219.557 33.6806 219.205Z" fill="black"/>
</g>
<path d="M126.567 195.625C126.567 195.625 140.626 185.89 141.652 194.65C142.678 203.411 126.567 202.181 126.567 202.181V195.625Z" fill="#FBBEBE"/>
<path d="M102.327 189.168C102.327 189.168 109.928 194.176 114.137 193.881C114.137 193.881 125.628 195.42 126.964 194.65C128.3 193.881 129.121 205.769 129.121 205.769L110.238 204.435L98.1267 202.591C98.1267 202.591 92.071 198.903 92.071 195.725C92.071 192.546 102.327 189.168 102.327 189.168Z" fill="#F7CDDD"/>
<path d="M102.327 189.168C102.327 189.168 109.928 194.176 114.137 193.881C114.137 193.881 125.628 195.42 126.964 194.65C128.3 193.881 129.121 205.769 129.121 205.769L110.238 204.435L98.1267 202.591C98.1267 202.591 92.071 198.903 92.071 195.725C92.071 192.546 102.327 189.168 102.327 189.168Z" fill="#315CD5"/>
<path d="M113.471 214.502C113.471 214.502 130.566 213.797 126.736 221.747C122.905 229.696 109.955 220.044 109.955 220.044L113.471 214.502Z" fill="#FBBEBE"/>
<path d="M96.2798 197.568C96.2798 197.568 110.133 187.218 108.186 174.615C106.239 162.012 96.2798 184.25 96.2798 184.25V197.568Z" fill="#5C5C8E"/>
<path d="M100.119 140.429C100.122 144.963 101.888 149.319 105.044 152.577C106.747 154.333 108.797 155.714 111.063 156.634C111.794 156.94 112.547 157.189 113.316 157.381C114.133 157.592 114.963 157.744 115.801 157.836C116.403 157.896 117.01 157.927 117.625 157.927C119.585 157.923 121.529 157.586 123.375 156.93C126.412 155.877 129.1 154.009 131.145 151.531C133.189 149.054 134.511 146.062 134.965 142.884C135.419 139.706 134.988 136.464 133.719 133.515C132.451 130.565 130.393 128.021 127.773 126.162C125.152 124.302 122.069 123.199 118.862 122.973C115.655 122.747 112.448 123.407 109.591 124.881C106.735 126.355 104.34 128.585 102.67 131.328C100.999 134.07 100.117 137.219 100.119 140.429Z" fill="#FBBEBE"/>
<path opacity="0.1" d="M33.6617 220.23C35.2304 220.517 37.1684 221.045 37.1684 221.856C37.1684 223.222 59.0564 230.603 59.0564 230.603C59.0564 230.603 58.2356 232.51 60.4244 235.793C62.6132 239.076 80.411 257.926 80.411 257.926L80.3517 258.482L80.1237 260.654L79.0384 271.04C79.0384 271.04 85.8784 268.581 88.0672 268.854C88.774 268.941 89.5447 268.49 90.2515 267.834C89.9913 266.593 89.5077 265.41 88.8242 264.342C88.8242 264.342 87.0503 262.949 84.3736 261.105V226.268L37.8889 214.994L33.68 219.183C33.6515 219.531 33.6454 219.881 33.6617 220.23Z" fill="black"/>
<path d="M31.6921 218.304C31.6921 218.304 37.1642 218.845 37.1642 220.216C37.1642 221.586 59.0522 228.963 59.0522 228.963C59.0522 228.963 58.2314 230.87 60.4202 234.153C62.609 237.436 80.4067 256.286 80.4067 256.286L79.0387 269.4C79.0387 269.4 85.8787 266.941 88.0676 267.214C89.048 267.337 90.1287 266.431 91.0224 265.393C91.7638 264.518 92.4247 263.577 92.9969 262.584C92.9969 262.584 90.5299 252.193 93.8177 249.734C97.1055 247.276 90.2609 229.245 90.2609 229.245C90.2609 229.245 87.1647 216.423 88.0767 210.923C88.1347 210.556 88.2232 210.195 88.3411 209.844C88.3411 209.803 88.3639 209.762 88.3822 209.721C90.3339 204.466 111.328 160.387 111.328 160.387C111.315 159.136 111.226 157.888 111.064 156.648C111.023 156.302 110.968 155.943 110.9 155.583C110.794 154.928 110.652 154.279 110.475 153.639C110.357 153.22 110.229 152.819 110.079 152.437C109.431 150.77 108.437 149.491 106.951 149.459C106.951 149.459 105.309 147.638 101.479 147.155C98.6513 146.786 94.6385 147.155 89.1665 149.459C76.3073 154.923 73.2977 155.196 73.2977 155.196L66.8316 163.651L65.5001 165.391C60.6334 171.729 56.2278 178.408 52.3171 185.375C50.1647 189.236 47.1187 193.739 43.4661 196.444C36.0743 201.912 31.6921 218.304 31.6921 218.304Z" fill="#315CD5"/>
<path opacity="0.1" d="M79.6543 186.709C79.6543 186.709 61.3869 191.217 54.3052 202.591L79.6543 186.709Z" fill="black"/>
<path opacity="0.1" d="M74.0096 206.688C74.0096 206.688 70.5577 229.845 71.5153 231.589C72.4729 233.333 74.0096 206.688 74.0096 206.688Z" fill="black"/>
<path opacity="0.1" d="M75.2448 218.576C76.5764 220.315 81.9709 233.743 81.9709 233.743L80.4113 256.286L79.0433 269.399C79.0433 269.399 85.8833 266.94 88.0767 267.214C89.0526 267.337 90.1378 266.435 91.0316 265.392C89.6089 257.711 86.5719 241.643 86.0156 241.333C85.2906 240.923 81.5969 228.01 81.4009 224.422C81.2048 220.835 76.0611 212.748 76.0611 212.748C76.0611 212.748 73.9088 216.837 75.2448 218.576Z" fill="black"/>
<path opacity="0.1" d="M80.411 196.444C80.7439 197.468 81.2728 203.41 81.2728 203.41C81.6468 208.651 85.614 210.363 88.0764 210.909C88.1344 210.543 88.2229 210.182 88.3409 209.83C89.9825 205.19 111.328 160.373 111.328 160.373C111.306 158.098 111.02 155.834 110.475 153.625C105.829 152.259 98.4687 154.363 98.4687 154.363C96.3437 154.085 89.4079 167.859 89.4079 167.859C89.4079 167.859 84.7841 178.408 84.2779 179.843C83.7717 181.277 84.2779 183.64 84.0727 184.46C83.8675 185.279 81.706 185.989 81.4005 187.123C81.095 188.257 81.2957 190.497 81.0905 190.907C80.8852 191.317 80.0553 195.419 80.411 196.444Z" fill="black"/>
<path d="M82.0526 195.625C82.39 196.649 82.9144 202.591 82.9144 202.591C83.2245 206.953 86.0334 208.87 88.3864 209.708C89.4431 210.085 90.5491 210.305 91.6696 210.363L94.9711 213.223L110.206 224.447C110.206 224.447 115.888 213.974 114.347 213.906C112.805 213.838 103.918 206.393 103.918 206.393C101.182 204.945 98.4732 200.1 97.21 197.614C97.2846 197.315 97.3394 197.011 97.3742 196.704C97.926 192.064 109.417 174.302 109.417 174.302C109.417 174.302 113.859 169.079 115.591 159.404C115.642 159.185 115.674 158.949 115.715 158.725C115.764 158.424 115.794 158.12 115.806 157.815C116.011 154.095 113.302 152.743 110.083 152.419C108.41 152.289 106.728 152.341 105.067 152.574C103.405 152.781 101.759 153.104 100.142 153.539C98.7741 153.362 95.3724 159.076 93.1471 163.124C91.9478 165.318 91.0859 167.035 91.0859 167.035C91.0859 167.035 86.4393 177.589 85.9194 179.024C85.3996 180.458 85.9194 182.816 85.7142 183.641C85.509 184.465 83.3476 185.171 83.0466 186.304C82.7457 187.438 82.9372 189.678 82.732 190.088C82.5268 190.498 81.706 194.6 82.0526 195.625Z" fill="#315CD5"/>
<path opacity="0.1" d="M64.3738 172.002C67.2648 174.97 71.9799 174.979 75.7465 173.472C79.513 171.965 82.7096 169.215 86.2071 167.098C88.4871 165.732 90.8766 164.58 93.111 163.155C93.4393 162.941 93.7585 162.727 94.0686 162.508C96.6495 160.687 98.8794 158.351 101.547 156.68C103.335 155.499 105.415 154.834 107.557 154.759C108.546 154.749 109.524 154.954 110.425 155.36C110.583 155.428 110.735 155.507 110.881 155.596C111.758 156.103 112.57 156.715 113.298 157.418C114.051 158.096 114.776 158.82 115.578 159.448C115.628 159.23 115.66 158.993 115.701 158.77C115.75 158.469 115.781 158.165 115.792 157.859C116.394 157.919 117.001 157.95 117.616 157.95C119.58 157.94 121.528 157.595 123.376 156.931C123.376 156.858 123.403 156.78 123.417 156.707C124.073 153.265 125.241 149.618 128.032 147.683C129.641 146.558 132.213 146.103 134.438 145.247C135.21 142.562 135.327 139.732 134.778 136.994C134.23 134.255 133.032 131.687 131.286 129.505C129.539 127.324 127.295 125.591 124.74 124.454C122.186 123.316 119.395 122.806 116.603 122.966C113.81 123.127 111.097 123.953 108.69 125.375C106.282 126.798 104.252 128.775 102.767 131.142C101.283 133.51 100.388 136.197 100.157 138.981C99.9265 141.764 100.367 144.563 101.442 147.141C98.6149 146.772 94.6021 147.141 89.1301 149.445C76.2708 154.909 73.2612 155.182 73.2612 155.182L66.8316 163.651C67.5293 164.717 68.3182 165.768 68.3911 167.011C68.5371 169.315 66.3118 170.904 64.3738 172.002Z" fill="black"/>
<path d="M128.054 146.049C125.277 147.989 124.096 151.632 123.44 155.069C123.234 156.144 123.038 157.278 122.382 158.129C120.909 160.037 117.945 159.495 116.021 158.129C114.096 156.763 112.582 154.687 110.435 153.717C107.58 152.433 104.228 153.371 101.561 155.042C98.8931 156.713 96.6587 159.049 94.0778 160.866C91.5834 162.623 88.8018 163.875 86.2026 165.455C82.7097 167.582 79.5177 170.327 75.7465 171.83C71.9754 173.332 67.2649 173.332 64.3784 170.364C66.3164 169.289 68.5417 167.7 68.3912 165.401C68.2407 163.101 65.5549 161.376 65.7373 159.026C65.9197 156.677 68.6968 155.739 70.6895 154.582C74.8619 152.16 76.6175 146.842 77.5295 141.924C78.2226 138.086 78.7926 133.792 81.67 131.329C83.5213 129.74 86.0339 129.221 87.899 127.65C89.6682 126.156 90.635 123.894 91.7658 121.813C93.6218 118.339 96.0568 115.115 99.2807 113.039C102.505 110.962 106.604 110.161 110.143 111.559C111.511 112.092 112.733 112.925 114.073 113.503C117.402 114.942 121.219 114.751 124.52 116.262C128.583 118.129 131.224 122.254 133.64 126.17C135.706 129.517 139.746 135.44 138.615 139.766C137.462 144.178 131.069 143.941 128.054 146.049Z" fill="#7C5C5C"/>
<g opacity="0.1">
<path opacity="0.1" d="M65.7363 158.74C65.7511 158.56 65.7832 158.381 65.8321 158.207C66.5662 159.364 67.4828 160.484 67.5694 161.85C67.5904 162.163 67.5642 162.477 67.4919 162.783C66.6757 161.472 65.6223 160.247 65.7363 158.74Z" fill="black"/>
<path opacity="0.1" d="M74.9252 168.273C78.6963 166.761 81.8883 164.016 85.3813 161.899C87.9805 160.319 90.7621 159.067 93.2564 157.309C95.8374 155.488 98.0718 153.152 100.739 151.485C103.407 149.819 106.759 148.876 109.613 150.16C111.761 151.13 113.261 153.184 115.199 154.573C117.137 155.961 120.088 156.503 121.56 154.595C122.222 153.744 122.413 152.615 122.618 151.54C123.275 148.098 124.442 144.455 127.233 142.516C130.252 140.412 136.64 140.649 137.799 136.209C137.992 135.422 138.043 134.606 137.949 133.801C138.692 135.772 139.071 137.758 138.624 139.488C137.461 143.927 131.073 143.69 128.054 145.794C125.281 147.734 124.096 151.376 123.439 154.818C123.234 155.893 123.042 157.027 122.386 157.874C120.908 159.781 117.944 159.24 116.002 157.851C114.059 156.462 112.563 154.409 110.416 153.439C107.561 152.155 104.21 153.097 101.542 154.764C98.8743 156.43 96.6399 158.771 94.059 160.587C91.5647 162.349 88.783 163.597 86.1838 165.177C82.6909 167.308 79.4989 170.049 75.7277 171.551C71.9566 173.054 67.2461 173.049 64.3596 170.081C65.1055 169.677 65.8136 169.208 66.4755 168.678C69.1112 169.639 72.2576 169.339 74.9252 168.273Z" fill="black"/>
</g>
<path d="M371.896 123.575L353.2 104.802C352.284 103.866 351.19 103.121 349.984 102.609C348.777 102.097 347.481 101.829 346.17 101.821C344.859 101.812 343.56 102.062 342.346 102.557C341.133 103.053 340.03 103.783 339.101 104.706L221.699 220.941L172.058 170.988C170.215 169.121 167.705 168.061 165.079 168.043C162.454 168.024 159.929 169.047 158.059 170.887L139.162 189.556C137.295 191.418 136.238 193.94 136.22 196.575C136.202 199.21 137.225 201.747 139.067 203.634L214.453 279.5C216.317 281.365 218.843 282.422 221.482 282.44C224.121 282.459 226.661 281.439 228.552 279.6L371.791 137.649C372.728 136.734 373.475 135.644 373.988 134.44C374.501 133.236 374.77 131.942 374.779 130.634C374.789 129.325 374.539 128.028 374.045 126.816C373.55 125.605 372.82 124.503 371.896 123.575Z" fill="#3ACC6C"/>
<g opacity="0.5">
<path opacity="0.5" d="M343.724 274.108C343.724 274.108 329.78 273.27 331.412 283.028C331.329 283.522 331.403 284.031 331.626 284.48C331.849 284.93 332.208 285.298 332.653 285.532C332.653 285.532 332.653 284.808 334.08 285.054C334.581 285.139 335.091 285.164 335.599 285.127C336.282 285.082 336.933 284.815 337.45 284.366C337.45 284.366 341.367 282.75 342.895 276.348C342.895 276.348 344.021 274.955 343.975 274.595L341.622 275.601C341.622 275.601 342.429 277.295 341.796 278.702C341.796 278.702 341.718 275.66 341.267 275.733C341.175 275.733 340.045 276.321 340.045 276.321C340.045 276.321 341.413 279.271 340.382 281.42C340.382 281.42 340.779 277.778 339.611 276.535L337.956 277.5C337.956 277.5 339.57 280.551 338.476 283.037C338.476 283.037 338.759 279.221 337.605 277.737L336.105 278.902C336.105 278.902 337.623 281.907 336.698 283.975C336.698 283.975 336.579 279.531 335.786 279.194C335.786 279.194 334.472 280.35 334.272 280.828C334.272 280.828 335.311 283.009 334.668 284.161C334.668 284.161 334.272 281.197 333.948 281.188C333.948 281.188 332.639 283.146 332.502 284.489C332.565 283.247 332.954 282.043 333.629 280.997C332.874 281.141 332.179 281.502 331.627 282.035C331.627 282.035 331.827 280.669 333.952 280.523C333.952 280.523 335.033 279.039 335.32 278.948C335.32 278.948 333.209 278.77 331.928 279.339C331.928 279.339 333.054 278.028 335.703 278.625L337.185 277.418C337.185 277.418 334.408 277.036 333.227 277.454C333.227 277.454 334.595 276.298 337.587 277.14L339.201 276.18C339.201 276.18 336.83 275.67 335.416 275.852C335.416 275.852 336.907 275.05 339.675 275.92L340.829 275.401C340.829 275.401 339.092 275.059 338.581 275.009C338.07 274.959 338.047 274.814 338.047 274.814C339.147 274.632 340.275 274.758 341.308 275.178C341.308 275.178 343.766 274.263 343.724 274.108Z" fill="#315CD5"/>
</g>
<g opacity="0.5">
<path opacity="0.5" d="M318.704 205.965C318.704 205.965 311.622 217.99 321.08 220.959C321.483 221.258 321.971 221.423 322.474 221.429C322.976 221.436 323.468 221.284 323.879 220.995C323.879 220.995 323.246 220.644 324.098 219.506C324.401 219.098 324.655 218.657 324.855 218.19C325.122 217.56 325.177 216.861 325.015 216.196C325.015 216.196 325.348 211.975 320.332 207.713C320.332 207.713 319.598 206.074 319.26 205.951L319.087 208.501C319.087 208.501 320.961 208.556 321.932 209.758C321.932 209.758 319.196 208.446 319.041 208.879C319.014 208.97 319.009 210.245 319.009 210.245C319.009 210.245 322.274 210.354 323.715 212.257C323.715 212.257 320.651 210.254 319.005 210.727L319.114 212.64C319.114 212.64 322.571 212.585 324.294 214.689C324.294 214.689 321.016 212.704 319.169 213.054L319.529 214.921C319.529 214.921 322.904 214.921 324.322 216.692C324.322 216.692 320.304 214.784 319.643 215.326C319.643 215.326 320.099 217.02 320.409 217.416C320.409 217.416 322.831 217.48 323.565 218.577C323.565 218.577 320.742 217.585 320.583 217.867C320.583 217.867 321.741 219.92 322.863 220.653C321.783 220.032 320.885 219.138 320.259 218.063C320.034 218.805 320.034 219.597 320.259 220.339C320.259 220.339 319.114 219.529 319.972 217.607C319.972 217.607 319.133 215.973 319.183 215.672C319.183 215.672 318.07 217.471 317.992 218.86C317.992 218.86 317.336 217.261 319.069 215.171L318.667 213.305C318.667 213.305 317.067 215.609 316.903 216.847C316.903 216.847 316.488 215.112 318.604 212.827L318.476 210.955C318.476 210.955 316.944 212.831 316.469 214.17C316.469 214.17 316.428 212.48 318.458 210.413L318.521 209.152C318.521 209.152 317.427 210.545 317.153 210.973C316.88 211.401 316.738 211.36 316.738 211.36C317.073 210.3 317.697 209.355 318.54 208.628C318.54 208.628 318.859 205.997 318.704 205.965Z" fill="#315CD5"/>
</g>
<g opacity="0.5">
<path opacity="0.5" d="M274.412 110.025C274.412 110.025 267.335 122.054 276.788 125.018C277.191 125.319 277.679 125.485 278.182 125.491C278.685 125.498 279.177 125.345 279.588 125.055C279.588 125.055 278.954 124.704 279.811 123.566C280.113 123.158 280.365 122.717 280.564 122.25C280.832 121.62 280.888 120.92 280.723 120.256C280.723 120.256 281.061 116.035 276.04 111.773C276.04 111.773 275.306 110.139 274.968 110.016L274.795 112.561C274.795 112.561 276.674 112.616 277.641 113.818C277.641 113.818 274.905 112.506 274.754 112.939C274.722 113.03 274.722 114.305 274.722 114.305C274.722 114.305 277.983 114.414 279.424 116.317C279.424 116.317 276.359 114.314 274.713 114.787L274.827 116.7C274.827 116.7 278.279 116.645 280.003 118.749C280.003 118.749 276.724 116.768 274.877 117.114L275.237 118.981C275.237 118.981 278.612 118.981 280.035 120.757C280.035 120.757 276.013 118.844 275.351 119.391C275.351 119.391 275.807 121.08 276.122 121.476C276.122 121.476 278.539 121.54 279.273 122.637C279.273 122.637 276.45 121.645 276.295 121.927C276.295 121.927 277.449 123.985 278.575 124.713C277.495 124.093 276.596 123.202 275.967 122.127C275.749 122.861 275.749 123.643 275.967 124.376C275.967 124.376 274.823 123.566 275.68 121.622C275.68 121.622 274.841 119.987 274.891 119.687C274.891 119.687 273.778 121.485 273.701 122.874C273.701 122.874 273.044 121.276 274.781 119.186L274.376 117.319C274.376 117.319 272.775 119.623 272.615 120.861C272.615 120.861 272.196 119.127 274.312 116.841L274.184 114.97C274.184 114.97 272.652 116.845 272.178 118.184C272.178 118.184 272.137 116.495 274.166 114.432L274.23 113.166C274.23 113.166 273.135 114.56 272.862 114.988C272.588 115.416 272.447 115.375 272.447 115.375C272.789 114.313 273.421 113.367 274.271 112.643C274.271 112.643 274.567 110.079 274.412 110.025Z" fill="#315CD5"/>
</g>
<g opacity="0.5">
<path opacity="0.5" d="M121.944 18.918C121.944 18.918 95.5875 38.0415 113.034 53.19C113.034 53.19 115.009 56.778 118.989 55.8719C118.989 55.8719 117.959 54.5332 120.855 52.8941C121.881 52.3052 122.833 51.596 123.691 50.7814C124.851 49.6903 125.624 48.2519 125.893 46.6835C125.893 46.6835 130.554 37.9686 123.8 24.1906C123.8 24.1906 123.759 20.0062 123.144 19.4279L120.408 24.7188C120.408 24.7188 124.37 26.581 125.323 30.0551C125.323 30.0551 120.668 24.6869 119.961 25.5019C119.819 25.6613 118.629 28.3704 118.629 28.3704C118.629 28.3704 125.51 31.6397 126.814 37.0489C126.814 37.0489 122.127 29.9094 118.15 29.3904L116.605 33.5839C116.605 33.5839 124.042 36.6846 125.766 42.7859C125.766 42.7859 120.604 35.5008 116.326 34.5218L115.36 38.8519C115.36 38.8519 122.555 42.0164 123.955 47.1024C123.955 47.1024 117.115 39.2799 115.205 39.8582C115.205 39.8582 114.557 43.8832 114.899 45.0352C114.899 45.0352 120.015 47.4257 120.563 50.4535C120.563 50.4535 115.451 45.7091 114.849 46.1644C114.849 46.1644 115.405 51.6283 117.156 54.2555C117.156 54.2555 114.288 50.5719 113.996 46.2965C113.996 46.2965 112.04 48.5731 111.931 51.1274C111.931 51.1274 110.234 48.3272 113.878 44.9669C113.878 44.9669 113.618 40.6869 114.005 40.095C114.005 40.095 109.938 42.9043 108.474 45.8184C108.474 45.8184 108.561 41.7933 114.22 38.9385L115.095 34.5719C115.095 34.5719 109.527 38.0005 108.027 40.4911C108.027 40.4911 108.752 36.3932 115.405 33.47L116.883 29.3494C116.883 29.3494 111.867 31.9402 109.587 34.3579C109.587 34.3579 111.078 30.7154 117.339 28.1792L118.647 25.5383C118.647 25.5383 114.999 27.4962 114.019 28.1519C113.039 28.8076 112.765 28.6072 112.765 28.6072C114.473 26.6488 116.693 25.2032 119.176 24.4319C119.176 24.4319 122.25 19.132 121.944 18.918Z" fill="#315CD5"/>
</g>
<g opacity="0.5">
<path opacity="0.5" d="M96.34 82.0215C96.34 82.0215 62.2448 67.7062 57.776 93.5183C57.776 93.5183 55.4458 97.5434 58.688 100.867C58.688 100.867 59.3856 99.0823 62.6825 100.926C63.8585 101.576 65.1076 102.083 66.4035 102.438C68.1537 102.92 70.0134 102.821 71.7022 102.156C71.7022 102.156 82.9107 101.55 92.3454 86.9025C92.3454 86.9025 96.3856 84.4073 96.5908 83.4694L89.8283 83.9247C89.8283 83.9247 90.3481 88.8649 87.5483 91.8291C87.5483 91.8291 90.0335 84.1615 88.8388 83.9475C88.5971 83.9019 85.2683 84.339 85.2683 84.339C85.2683 84.339 86.1301 92.931 81.6203 97.3749C81.6203 97.3749 85.8064 88.6373 83.9823 84.4939L78.9983 85.4546C78.9983 85.4546 80.3663 94.4927 75.4323 99.7471C75.4323 99.7471 79.4862 90.4586 77.9221 85.7414L73.1432 87.3442C73.1432 87.3442 74.2969 96.182 70.1701 100.548C70.1701 100.548 73.7725 89.343 72.0762 87.7995C72.0762 87.7995 67.7806 89.5388 66.8595 90.5314C66.8595 90.5314 67.5435 96.9059 64.9169 99.2053C64.9169 99.2053 66.5312 91.4648 65.7332 91.1461C65.7332 91.1461 60.74 94.8979 59.2169 98.1353C59.2169 98.1353 61.1185 93.1905 65.1039 90.3948C65.1039 90.3948 61.7569 89.8257 59.1759 91.2281C59.1759 91.2281 60.9041 87.9452 66.3123 89.5024C66.3123 89.5024 70.3206 86.7295 71.1231 86.7705C71.1231 86.7705 66.0068 84.4939 62.3086 84.7761C62.3086 84.7761 66.2713 82.4995 72.3726 86.3015L77.1287 84.5804C77.1287 84.5804 70.5212 81.1973 67.2061 81.211C67.2061 81.211 71.611 79.5081 78.369 84.2434L83.2482 83.2372C83.2482 83.2372 77.7762 79.8906 74.0826 79.1165C74.0826 79.1165 78.5103 78.4153 84.6527 83.0095L87.9906 82.7318C87.9906 82.7318 83.9504 80.355 82.7283 79.7767C81.5063 79.1985 81.561 78.8251 81.561 78.8251C84.4697 79.3294 87.1805 80.6315 89.3905 82.5861C89.3905 82.5861 96.3081 82.4449 96.34 82.0215Z" fill="#315CD5"/>
</g>
<g opacity="0.5">
<path opacity="0.5" d="M75.9246 45.8784C75.9246 45.8784 63.836 17.9808 46.4578 30.7754C46.4578 30.7754 42.7779 31.8408 42.8098 35.6473C42.8098 35.6473 44.2416 34.9825 45.1445 37.9558C45.4811 39.009 45.9403 40.0191 46.5125 40.9655C47.2764 42.2486 48.4388 43.2477 49.8231 43.8112C49.8231 43.8112 56.8273 49.8306 70.7991 46.4931C70.7991 46.4931 74.625 47.3081 75.2816 46.871L71.0089 43.2876C71.0089 43.2876 68.5009 46.5204 65.1356 46.6752C65.1356 46.6752 70.9861 43.5335 70.3979 42.7276C70.2793 42.5636 68.054 40.9336 68.054 40.9336C68.054 40.9336 63.6627 46.5249 58.478 46.6114C58.478 46.6114 65.9518 43.7976 67.2286 40.3052L63.7174 38.0286C63.7174 38.0286 59.3079 44.1891 53.3844 44.5124C53.3844 44.5124 61.0909 41.3024 62.8556 37.6052L59.1027 35.8613C59.1027 35.8613 54.7433 41.7805 49.814 42.0036C49.814 42.0036 58.3457 37.3957 58.2135 35.5153C58.2135 35.5153 54.6704 34.1038 53.5486 34.1857C53.5486 34.1857 50.3247 38.3519 47.4473 38.2335C47.4473 38.2335 52.8236 34.55 52.5272 33.908C52.5272 33.908 47.42 33.2978 44.6703 34.3633C44.6703 34.3633 48.6192 32.5056 52.5819 33.1157C52.5819 33.1157 50.9175 30.871 48.5919 30.2472C48.5919 30.2472 51.4966 29.2774 53.8176 33.2751C53.8176 33.2751 57.7803 33.9125 58.2409 34.3861C58.2409 34.3861 56.5081 30.1106 54.1368 28.1846C54.1368 28.1846 57.7849 29.0952 59.2486 34.8186L63.0562 36.5079C63.0562 36.5079 61.0635 30.7344 59.0845 28.863C59.0845 28.863 62.6732 30.3565 63.9865 37.0133L67.4475 39.1943C67.4475 39.1943 66.1069 34.0947 64.3604 31.5312C64.3604 31.5312 67.3882 33.6348 68.4188 39.859L70.562 41.5892C70.562 41.5892 69.5132 37.8829 69.1165 36.8448C68.7198 35.8067 68.9706 35.6154 68.9706 35.6154C70.4089 37.569 71.2756 39.883 71.474 42.2995C71.474 42.2995 75.6692 46.1197 75.9246 45.8784Z" fill="#315CD5"/>
</g>
<g opacity="0.5">
<path opacity="0.5" d="M311.531 60.3935C311.531 60.3935 308.681 46.7338 299.675 50.8818C299.174 50.9296 298.701 51.1348 298.324 51.4677C297.947 51.8007 297.686 52.2443 297.577 52.7349C297.577 52.7349 298.284 52.5665 298.416 53.9871C298.466 54.4912 298.575 54.9878 298.74 55.4669C298.968 56.1129 299.398 56.6685 299.967 57.0514C299.967 57.0514 302.557 60.4026 309.137 60.1931C309.137 60.1931 310.783 60.9125 311.12 60.7759L309.529 58.7725C309.529 58.7725 308.102 59.9928 306.579 59.7515C306.579 59.7515 309.497 58.8818 309.315 58.4629C309.274 58.3764 308.425 57.4384 308.425 57.4384C308.425 57.4384 305.936 59.5466 303.587 59.1049C303.587 59.1049 307.203 58.5312 308.106 57.0787L306.738 55.7355C306.738 55.7355 304.212 58.0941 301.522 57.6889C301.522 57.6889 305.284 56.9603 306.419 55.4623L304.896 54.324C304.896 54.324 302.388 56.5733 300.149 56.2227C300.149 56.2227 304.413 54.9387 304.527 54.0827C304.527 54.0827 303.067 53.122 302.552 53.0537C302.552 53.0537 300.728 54.6291 299.438 54.3104C299.438 54.3104 302.174 53.1538 302.123 52.8351C302.123 52.8351 299.885 52.0884 298.548 52.3115C299.766 52.048 301.031 52.1061 302.219 52.48C301.884 51.7897 301.353 51.2133 300.692 50.8226C300.692 50.8226 302.087 50.6541 302.762 52.6439C302.762 52.6439 304.481 53.295 304.645 53.5545C304.645 53.5545 304.262 51.4737 303.377 50.3673C303.377 50.3673 304.937 51.1094 305.06 53.8232L306.615 54.9342C306.615 54.9342 306.255 52.1567 305.539 51.1277C305.539 51.1277 307.012 52.1339 306.984 55.2256L308.352 56.5278C308.352 56.5278 308.225 54.11 307.678 52.7987C307.678 52.7987 308.84 54.0235 308.726 56.8966L309.529 57.8755C309.529 57.8755 309.406 56.1134 309.324 55.5989C309.242 55.0844 309.369 55.0298 309.369 55.0298C309.835 56.0428 310.011 57.1651 309.876 58.2717C309.876 58.2717 311.394 60.4754 311.531 60.3935Z" fill="#315CD5"/>
</g>
<g opacity="0.5">
<path opacity="0.5" d="M262.457 313.608C262.457 313.608 259.611 299.949 250.6 304.097C250.099 304.144 249.625 304.349 249.248 304.682C248.87 305.015 248.608 305.459 248.498 305.95C248.498 305.95 249.205 305.781 249.337 307.202C249.387 307.707 249.497 308.203 249.666 308.682C249.892 309.327 250.321 309.883 250.888 310.266C250.888 310.266 253.478 313.617 260.063 313.408C260.063 313.408 261.709 314.127 262.042 313.991L260.455 311.987C260.455 311.987 259.027 313.208 257.5 312.966C257.5 312.966 260.418 312.097 260.236 311.678C260.199 311.591 259.347 310.653 259.347 310.653C259.347 310.653 256.857 312.761 254.508 312.32C254.508 312.32 258.129 311.746 259.027 310.294L257.659 308.928C257.659 308.928 255.16 311.295 252.461 310.876C252.461 310.876 256.223 310.148 257.358 308.65L255.835 307.512C255.835 307.512 253.332 309.761 251.093 309.41C251.093 309.41 255.357 308.131 255.471 307.27C255.471 307.27 254.007 306.31 253.496 306.241C253.496 306.241 251.672 307.817 250.377 307.498C250.377 307.498 253.113 306.341 253.063 306.023C253.063 306.023 250.824 305.276 249.488 305.499C250.707 305.235 251.974 305.293 253.163 305.667C252.826 304.978 252.296 304.402 251.636 304.01C251.636 304.01 253.026 303.842 253.701 305.831C253.701 305.831 255.425 306.483 255.589 306.742C255.589 306.742 255.206 304.661 254.321 303.555C254.321 303.555 255.881 304.297 256 307.011L257.559 308.122C257.559 308.122 257.194 305.344 256.478 304.315C256.478 304.315 257.956 305.321 257.928 308.413L259.296 309.715C259.296 309.715 259.169 307.298 258.617 305.986C258.617 305.986 259.784 307.211 259.67 310.084L260.473 311.063C260.473 311.063 260.345 309.301 260.263 308.786C260.181 308.272 260.309 308.222 260.309 308.222C260.775 309.233 260.95 310.354 260.815 311.459C260.815 311.459 262.329 313.677 262.457 313.608Z" fill="#315CD5"/>
</g>
</g>
<defs>
<linearGradient id="paint0_linear" x1="24846.2" y1="126373" x2="24846.2" y2="55705.6" gradientUnits="userSpaceOnUse">
<stop stop-color="#808080" stop-opacity="0.25"/>
<stop offset="0.54" stop-color="#808080" stop-opacity="0.12"/>
<stop offset="1" stop-color="#808080" stop-opacity="0.1"/>
</linearGradient>
<clipPath id="clip0">
<rect width="524" height="344" fill="white"/>
</clipPath>
</defs>
</svg>
