<svg width="282" height="235" viewBox="0 0 282 235" fill="none" xmlns="http://www.w3.org/2000/svg">
<g clip-path="url(#clip0)">
<path d="M136.435 200.974C75.7376 196.314 3.35376 148.864 7.03893 100.008C10.7241 51.151 80.8287 5.66951 141.526 10.3297C202.222 14.9899 237.162 106.295 233.477 155.152C229.791 204.008 197.131 205.634 136.435 200.974Z" fill="#F2F2F2"/>
<path d="M141.525 208.821C211.501 208.821 268.228 205.315 268.228 200.989C268.228 196.664 211.501 193.158 141.525 193.158C71.5489 193.158 14.8221 196.664 14.8221 200.989C14.8221 205.315 71.5489 208.821 141.525 208.821Z" fill="#3F3D56"/>
<path opacity="0.1" d="M141.525 206.042C201.129 206.042 249.448 203.723 249.448 200.863C249.448 198.003 201.129 195.684 141.525 195.684C81.9208 195.684 33.6021 198.003 33.6021 200.863C33.6021 203.723 81.9208 206.042 141.525 206.042Z" fill="black"/>
<path d="M53.1335 226C82.4783 226 106.267 223.908 106.267 221.326C106.267 218.745 82.4783 216.653 53.1335 216.653C23.7887 216.653 0 218.745 0 221.326C0 223.908 23.7887 226 53.1335 226Z" fill="#3F3D56"/>
<path opacity="0.1" d="M53.1334 224.342C78.1287 224.342 98.3914 222.958 98.3914 221.252C98.3914 219.545 78.1287 218.161 53.1334 218.161C28.1382 218.161 7.87548 219.545 7.87548 221.252C7.87548 222.958 28.1382 224.342 53.1334 224.342Z" fill="black"/>
<path d="M237.429 50.9263H49.127V199.979H237.429V50.9263Z" fill="#3F3D56"/>
<path d="M141.136 71.2954H94.6817C94.6076 71.2955 94.5341 71.2809 94.4656 71.2524C94.3971 71.2239 94.3348 71.182 94.2823 71.1292C94.2298 71.0764 94.1882 71.0136 94.1598 70.9445C94.1314 70.8754 94.1168 70.8014 94.1168 70.7266C94.1168 70.6518 94.1314 70.5777 94.1598 70.5086C94.1882 70.4395 94.2298 70.3768 94.2823 70.3239C94.3348 70.2711 94.3971 70.2292 94.4656 70.2007C94.5341 70.1722 94.6076 70.1576 94.6817 70.1578H141.136C141.285 70.1581 141.428 70.2182 141.533 70.3248C141.639 70.4314 141.698 70.5759 141.698 70.7266C141.698 70.8772 141.639 71.0217 141.533 71.1283C141.428 71.235 141.285 71.295 141.136 71.2954Z" fill="#F2F2F2"/>
<path d="M191.987 77.5519H118.923C118.774 77.5519 118.63 77.492 118.525 77.3853C118.419 77.2786 118.36 77.134 118.36 76.9831C118.36 76.8322 118.419 76.6876 118.525 76.5809C118.63 76.4742 118.774 76.4143 118.923 76.4143H191.987C192.061 76.4143 192.134 76.429 192.202 76.4576C192.271 76.4862 192.333 76.5281 192.385 76.5809C192.438 76.6337 192.479 76.6964 192.507 76.7654C192.536 76.8344 192.55 76.9084 192.55 76.9831C192.55 77.0578 192.536 77.1318 192.507 77.2008C192.479 77.2698 192.438 77.3325 192.385 77.3853C192.333 77.4381 192.271 77.48 192.202 77.5086C192.134 77.5372 192.061 77.5519 191.987 77.5519Z" fill="#F2F2F2"/>
<path d="M141.361 83.8087H94.9072C94.7577 83.8087 94.6143 83.7488 94.5086 83.6421C94.4029 83.5354 94.3435 83.3908 94.3435 83.2399C94.3435 83.0891 94.4029 82.9444 94.5086 82.8377C94.6143 82.7311 94.7577 82.6711 94.9072 82.6711H141.361C141.511 82.6711 141.654 82.7311 141.76 82.8377C141.865 82.9444 141.925 83.0891 141.925 83.2399C141.925 83.3908 141.865 83.5354 141.76 83.6421C141.654 83.7488 141.511 83.8087 141.361 83.8087Z" fill="#F2F2F2"/>
<path d="M191.987 83.9232H145.533C145.383 83.9232 145.24 83.8633 145.134 83.7566C145.029 83.6499 144.969 83.5053 144.969 83.3544C144.969 83.2036 145.029 83.0589 145.134 82.9522C145.24 82.8456 145.383 82.7856 145.533 82.7856H191.987C192.136 82.7856 192.28 82.8456 192.385 82.9522C192.491 83.0589 192.55 83.2036 192.55 83.3544C192.55 83.5053 192.491 83.6499 192.385 83.7566C192.28 83.8633 192.136 83.9232 191.987 83.9232Z" fill="#F2F2F2"/>
<path d="M141.474 90.0653H95.0201C94.8705 90.0653 94.7271 90.0054 94.6214 89.8987C94.5157 89.792 94.4563 89.6474 94.4563 89.4965C94.4563 89.3457 94.5157 89.201 94.6214 89.0943C94.7271 88.9877 94.8705 88.9277 95.0201 88.9277H141.474C141.623 88.9277 141.767 88.9877 141.873 89.0943C141.978 89.201 142.038 89.3457 142.038 89.4965C142.038 89.6474 141.978 89.792 141.873 89.8987C141.767 90.0054 141.623 90.0653 141.474 90.0653Z" fill="#F2F2F2"/>
<path d="M141.586 96.3219H95.1327C94.9832 96.3219 94.8398 96.262 94.734 96.1553C94.6283 96.0486 94.5689 95.904 94.5689 95.7531C94.5689 95.6023 94.6283 95.4576 94.734 95.3509C94.8398 95.2443 94.9832 95.1843 95.1327 95.1843H141.586C141.736 95.1843 141.879 95.2443 141.985 95.3509C142.091 95.4576 142.15 95.6023 142.15 95.7531C142.15 95.904 142.091 96.0486 141.985 96.1553C141.879 96.262 141.736 96.3219 141.586 96.3219Z" fill="#F2F2F2"/>
<path d="M162.671 71.4098H149.366C149.217 71.4098 149.073 71.3499 148.968 71.2433C148.862 71.1366 148.803 70.9919 148.803 70.8411C148.803 70.6902 148.862 70.5455 148.968 70.4389C149.073 70.3322 149.217 70.2723 149.366 70.2723H162.671C162.821 70.2723 162.964 70.3322 163.07 70.4389C163.176 70.5455 163.235 70.6902 163.235 70.8411C163.235 70.9919 163.176 71.1366 163.07 71.2433C162.964 71.3499 162.821 71.4098 162.671 71.4098Z" fill="#F2F2F2"/>
<path d="M162.671 90.0653H149.366C149.217 90.0653 149.073 90.0054 148.968 89.8987C148.862 89.792 148.803 89.6474 148.803 89.4965C148.803 89.3457 148.862 89.201 148.968 89.0943C149.073 88.9877 149.217 88.9277 149.366 88.9277H162.671C162.821 88.9277 162.964 88.9877 163.07 89.0943C163.176 89.201 163.235 89.3457 163.235 89.4965C163.235 89.6474 163.176 89.792 163.07 89.8987C162.964 90.0054 162.821 90.0653 162.671 90.0653Z" fill="#F2F2F2"/>
<path d="M162.671 96.2089H149.366C149.292 96.209 149.219 96.1944 149.15 96.1659C149.082 96.1374 149.02 96.0955 148.967 96.0427C148.915 95.9899 148.873 95.9271 148.845 95.858C148.816 95.7889 148.802 95.7149 148.802 95.6401C148.802 95.5653 148.816 95.4912 148.845 95.4221C148.873 95.353 148.915 95.2903 148.967 95.2375C149.02 95.1846 149.082 95.1428 149.15 95.1142C149.219 95.0857 149.292 95.0711 149.366 95.0713H162.671C162.745 95.0711 162.819 95.0857 162.887 95.1142C162.956 95.1428 163.018 95.1846 163.071 95.2375C163.123 95.2903 163.165 95.353 163.193 95.4221C163.222 95.4912 163.236 95.5653 163.236 95.6401C163.236 95.7149 163.222 95.7889 163.193 95.858C163.165 95.9271 163.123 95.9899 163.071 96.0427C163.018 96.0955 162.956 96.1374 162.887 96.1659C162.819 96.1944 162.745 96.209 162.671 96.2089Z" fill="#F2F2F2"/>
<path d="M184.996 96.2089H171.691C171.542 96.2085 171.399 96.1485 171.293 96.0418C171.188 95.9352 171.129 95.7907 171.129 95.6401C171.129 95.4894 171.188 95.3449 171.293 95.2383C171.399 95.1317 171.542 95.0716 171.691 95.0713H184.996C185.07 95.0711 185.144 95.0857 185.212 95.1142C185.281 95.1428 185.343 95.1846 185.395 95.2375C185.448 95.2903 185.49 95.353 185.518 95.4221C185.546 95.4912 185.561 95.5653 185.561 95.6401C185.561 95.7149 185.546 95.7889 185.518 95.858C185.49 95.9271 185.448 95.9899 185.395 96.0427C185.343 96.0955 185.281 96.1374 185.212 96.1659C185.144 96.1944 185.07 96.209 184.996 96.2089Z" fill="#F2F2F2"/>
<path d="M107.874 77.5519H94.569C94.4195 77.5519 94.2761 77.492 94.1703 77.3853C94.0646 77.2786 94.0052 77.134 94.0052 76.9831C94.0052 76.8322 94.0646 76.6876 94.1703 76.5809C94.2761 76.4742 94.4195 76.4143 94.569 76.4143H107.874C108.023 76.4143 108.167 76.4742 108.272 76.5809C108.378 76.6876 108.437 76.8322 108.437 76.9831C108.437 77.134 108.378 77.2786 108.272 77.3853C108.167 77.492 108.023 77.5519 107.874 77.5519Z" fill="#F2F2F2"/>
<path d="M141.192 163.439H94.738C94.5885 163.439 94.4451 163.379 94.3394 163.272C94.2337 163.165 94.1743 163.021 94.1743 162.87C94.1743 162.719 94.2337 162.574 94.3394 162.468C94.4451 162.361 94.5885 162.301 94.738 162.301H141.192C141.341 162.301 141.485 162.361 141.59 162.468C141.696 162.574 141.756 162.719 141.756 162.87C141.756 163.021 141.696 163.165 141.59 163.272C141.485 163.379 141.341 163.439 141.192 163.439Z" fill="#F2F2F2"/>
<path d="M140.966 175.952H94.5126C94.363 175.952 94.2197 175.892 94.1139 175.785C94.0082 175.679 93.9488 175.534 93.9488 175.383C93.9488 175.232 94.0082 175.088 94.1139 174.981C94.2197 174.874 94.363 174.814 94.5126 174.814H140.966C141.116 174.814 141.259 174.874 141.365 174.981C141.471 175.088 141.53 175.232 141.53 175.383C141.53 175.534 141.471 175.679 141.365 175.785C141.259 175.892 141.116 175.952 140.966 175.952Z" fill="#F2F2F2"/>
<path d="M141.079 182.209H94.6253C94.5512 182.209 94.4777 182.194 94.4092 182.166C94.3407 182.137 94.2784 182.095 94.2259 182.042C94.1734 181.99 94.1318 181.927 94.1034 181.858C94.075 181.789 94.0604 181.715 94.0604 181.64C94.0604 181.565 94.075 181.491 94.1034 181.422C94.1318 181.353 94.1734 181.29 94.2259 181.237C94.2784 181.184 94.3407 181.143 94.4092 181.114C94.4777 181.085 94.5512 181.071 94.6253 181.071H141.079C141.153 181.071 141.227 181.085 141.295 181.114C141.364 181.143 141.426 181.184 141.479 181.237C141.531 181.29 141.573 181.353 141.601 181.422C141.629 181.491 141.644 181.565 141.644 181.64C141.644 181.715 141.629 181.789 141.601 181.858C141.573 181.927 141.531 181.99 141.479 182.042C141.426 182.095 141.364 182.137 141.295 182.166C141.227 182.194 141.153 182.209 141.079 182.209Z" fill="#F2F2F2"/>
<path d="M160.924 176.065H147.619C147.469 176.065 147.326 176.005 147.22 175.899C147.114 175.792 147.055 175.647 147.055 175.496C147.055 175.345 147.114 175.201 147.22 175.094C147.326 174.987 147.469 174.928 147.619 174.928H160.924C161.073 174.928 161.216 174.987 161.322 175.094C161.428 175.201 161.487 175.345 161.487 175.496C161.487 175.647 161.428 175.792 161.322 175.899C161.216 176.005 161.073 176.065 160.924 176.065Z" fill="#F2F2F2"/>
<path d="M160.924 182.209H147.619C147.469 182.209 147.326 182.149 147.22 182.042C147.114 181.935 147.055 181.791 147.055 181.64C147.055 181.489 147.114 181.344 147.22 181.238C147.326 181.131 147.469 181.071 147.619 181.071H160.924C161.073 181.071 161.216 181.131 161.322 181.238C161.428 181.344 161.487 181.489 161.487 181.64C161.487 181.791 161.428 181.935 161.322 182.042C161.216 182.149 161.073 182.209 160.924 182.209Z" fill="#F2F2F2"/>
<path d="M183.248 176.065H169.944C169.794 176.065 169.651 176.005 169.545 175.899C169.439 175.792 169.38 175.647 169.38 175.496C169.38 175.345 169.439 175.201 169.545 175.094C169.651 174.987 169.794 174.928 169.944 174.928H183.248C183.398 174.928 183.541 174.987 183.647 175.094C183.753 175.201 183.812 175.345 183.812 175.496C183.812 175.647 183.753 175.792 183.647 175.899C183.541 176.005 183.398 176.065 183.248 176.065Z" fill="#F2F2F2"/>
<path d="M192.043 169.695H118.98C118.83 169.695 118.687 169.635 118.581 169.529C118.475 169.422 118.416 169.277 118.416 169.127C118.416 168.976 118.475 168.831 118.581 168.724C118.687 168.618 118.83 168.558 118.98 168.558H192.043C192.193 168.558 192.336 168.618 192.442 168.724C192.547 168.831 192.607 168.976 192.607 169.127C192.607 169.277 192.547 169.422 192.442 169.529C192.336 169.635 192.193 169.695 192.043 169.695Z" fill="#F2F2F2"/>
<path d="M107.93 169.695H94.6254C94.4759 169.695 94.3325 169.635 94.2267 169.529C94.121 169.422 94.0616 169.277 94.0616 169.127C94.0616 168.976 94.121 168.831 94.2267 168.724C94.3325 168.618 94.4759 168.558 94.6254 168.558H107.93C108.08 168.558 108.223 168.618 108.329 168.724C108.434 168.831 108.494 168.976 108.494 169.127C108.494 169.277 108.434 169.422 108.329 169.529C108.223 169.635 108.08 169.695 107.93 169.695Z" fill="#F2F2F2"/>
<path d="M192.043 188.578H118.98C118.906 188.579 118.832 188.564 118.764 188.536C118.695 188.507 118.633 188.465 118.58 188.412C118.528 188.359 118.486 188.297 118.458 188.228C118.429 188.159 118.415 188.084 118.415 188.01C118.415 187.935 118.429 187.861 118.458 187.792C118.486 187.723 118.528 187.66 118.58 187.607C118.633 187.554 118.695 187.512 118.764 187.484C118.832 187.455 118.906 187.441 118.98 187.441H192.043C192.193 187.441 192.336 187.501 192.442 187.608C192.547 187.714 192.607 187.859 192.607 188.01C192.607 188.161 192.547 188.305 192.442 188.412C192.336 188.519 192.193 188.578 192.043 188.578Z" fill="#F2F2F2"/>
<path d="M107.93 188.578H94.6253C94.5512 188.579 94.4777 188.564 94.4092 188.536C94.3407 188.507 94.2784 188.465 94.2259 188.412C94.1734 188.359 94.1318 188.297 94.1034 188.228C94.075 188.159 94.0604 188.084 94.0604 188.01C94.0604 187.935 94.075 187.861 94.1034 187.792C94.1318 187.723 94.1734 187.66 94.2259 187.607C94.2784 187.554 94.3407 187.512 94.4092 187.484C94.4777 187.455 94.5512 187.441 94.6253 187.441H107.93C108.004 187.441 108.078 187.455 108.146 187.484C108.215 187.512 108.277 187.554 108.329 187.607C108.382 187.66 108.424 187.723 108.452 187.792C108.48 187.861 108.495 187.935 108.495 188.01C108.495 188.084 108.48 188.159 108.452 188.228C108.424 188.297 108.382 188.359 108.329 188.412C108.277 188.465 108.215 188.507 108.146 188.536C108.078 188.564 108.004 188.579 107.93 188.578Z" fill="#F2F2F2"/>
<path d="M129.973 111.338L111.933 129.311L129.973 147.284L134.032 143.189L120.389 129.425L134.145 115.546L129.973 111.338Z" fill="#5B94E3"/>
<path d="M156.583 111.338L174.623 129.311L156.583 147.284L152.524 143.189L166.167 129.425L152.411 115.546L156.583 111.338Z" fill="#5B94E3"/>
<path d="M54.135 56.9894C55.3797 56.9894 56.3886 55.9715 56.3886 54.7158C56.3886 53.46 55.3797 52.4421 54.135 52.4421C52.8904 52.4421 51.8814 53.46 51.8814 54.7158C51.8814 55.9715 52.8904 56.9894 54.135 56.9894Z" fill="#5B94E3"/>
<path d="M60.1447 56.9894C61.3893 56.9894 62.3983 55.9715 62.3983 54.7158C62.3983 53.46 61.3893 52.4421 60.1447 52.4421C58.9 52.4421 57.8911 53.46 57.8911 54.7158C57.8911 55.9715 58.9 56.9894 60.1447 56.9894Z" fill="#5B94E3"/>
<path d="M66.1543 56.9894C67.3989 56.9894 68.4079 55.9715 68.4079 54.7158C68.4079 53.46 67.3989 52.4421 66.1543 52.4421C64.9096 52.4421 63.9007 53.46 63.9007 54.7158C63.9007 55.9715 64.9096 56.9894 66.1543 56.9894Z" fill="#5B94E3"/>
<path opacity="0.1" d="M237.429 58.5054H49.127V59.2633H237.429V58.5054Z" fill="black"/>
<path d="M282 163.463C282 179.573 272.507 185.198 260.797 185.198C249.087 185.198 239.594 179.573 239.594 163.463C239.594 147.352 260.797 126.857 260.797 126.857C260.797 126.857 282 147.352 282 163.463Z" fill="#F2F2F2"/>
<path d="M260.025 182.733L260.242 169.25L269.279 152.569L260.276 167.135L260.373 161.072L266.602 149.004L260.399 159.468L260.575 148.564L267.244 138.956L260.602 146.849L260.712 126.856L260.023 153.324L260.079 152.232L253.298 141.76L259.971 154.328L259.339 166.506L259.32 166.182L251.503 155.162L259.296 167.324L259.217 168.847L259.203 168.87L259.21 168.995L257.606 199.891H259.748L260.005 183.933L267.78 171.8L260.025 182.733Z" fill="#3F3D56"/>
<path d="M30.7047 199.749C30.0541 200.114 29.3679 200.411 28.6569 200.634C27.3851 200.984 26.0259 200.856 24.7413 201.155C24.2154 201.277 23.643 201.534 23.4757 202.051C23.353 202.431 23.4865 202.841 23.6143 203.219C25.0337 207.418 25.8892 211.876 28.1529 215.679C29.1042 217.277 30.285 218.723 31.6567 219.971C32.1713 220.439 32.7544 220.897 33.4434 220.97C33.7609 221.004 34.0816 220.953 34.3732 220.821C34.6648 220.69 34.9169 220.484 35.1041 220.223C35.2913 219.962 35.407 219.656 35.4394 219.335C35.4719 219.015 35.42 218.691 35.289 218.398C35.086 217.943 34.7087 217.59 34.4654 217.156C34.2015 216.602 34.0468 216.003 34.0098 215.39C33.7862 213.594 33.5707 211.717 34.1874 210.017C34.6011 208.878 35.3598 207.906 35.9919 206.873C36.624 205.84 37.1492 204.657 37.0085 203.451C36.9126 202.628 36.5148 201.876 36.0946 201.164C35.6735 200.451 34.8414 198.534 33.9955 198.296C33.1174 198.049 31.4704 199.353 30.7047 199.749Z" fill="#2F2E41"/>
<path d="M53.8504 214.253C53.8637 214.659 53.8075 215.064 53.6844 215.451C53.4196 216.157 52.7626 216.64 52.4233 217.312C51.9513 218.247 52.1652 219.377 52.4779 220.378C52.674 221.005 52.9311 221.658 53.4576 222.046C53.9079 222.328 54.4199 222.493 54.9485 222.528C59.4648 223.159 64.0525 222.797 68.61 222.929C69.4407 222.953 70.3201 222.982 71.0452 222.573C71.7703 222.163 72.2186 221.134 71.7254 220.459C71.2826 219.853 70.407 219.858 69.6616 219.823C67.7206 219.723 65.8722 218.955 64.425 217.646C64.1395 217.4 63.892 217.113 63.6904 216.793C63.5354 216.51 63.4068 216.212 63.3062 215.905C62.6673 214.159 61.9073 212.46 61.0317 210.822C60.7866 210.364 60.5091 209.886 60.0536 209.641C59.7202 209.488 59.3584 209.408 58.9921 209.407C57.8562 209.333 54.9148 208.943 54.0364 209.834C53.2248 210.657 53.8684 213.207 53.8504 214.253Z" fill="#2F2E41"/>
<path d="M60.8401 112.491C64.8471 112.491 68.0955 109.214 68.0955 105.171C68.0955 101.128 64.8471 97.851 60.8401 97.851C56.8331 97.851 53.5848 101.128 53.5848 105.171C53.5848 109.214 56.8331 112.491 60.8401 112.491Z" fill="#FBBEBE"/>
<path d="M54.2885 111.215C53.8569 112.381 53.1249 113.476 52.0598 114.103L62.0945 116.168C61.7306 114.69 61.6826 113.151 61.9538 111.654C62.0534 111.291 62.0739 110.911 62.0139 110.54C61.8252 109.805 61.0056 109.452 60.2724 109.283C58.4409 108.862 56.8213 108.636 55.1194 107.82C54.5992 108.718 54.672 110.179 54.2885 111.215Z" fill="#FBBEBE"/>
<path d="M51.9759 111.363C53.0554 110.87 54.2315 110.63 55.416 110.661C56.6005 110.693 57.7626 110.994 58.8151 111.543C60.1016 112.227 61.1669 113.26 62.2134 114.278C63.1781 115.217 64.2072 116.292 64.2757 117.643C64.3089 118.297 64.1065 118.937 64.0043 119.584C63.8206 120.922 64.054 122.285 64.6723 123.483C65.2906 124.681 66.263 125.655 67.4548 126.271C68.252 127.611 68.4165 129.234 68.4287 130.797C68.475 136.717 66.6235 142.711 67.9453 148.48C68.2557 149.834 68.737 151.146 69.0051 152.51C69.3524 154.276 69.3352 156.092 69.5169 157.883C69.7139 159.823 70.1439 161.731 70.7972 163.566C70.3605 164.267 69.4517 164.535 68.6332 164.479C67.8147 164.422 67.0494 164.064 66.319 163.687C62.7826 161.861 59.5434 159.453 55.8806 157.901C53.4573 156.875 50.8757 156.235 48.5248 155.05C46.174 153.864 43.9876 151.982 43.2688 149.432C42.958 148.329 42.9388 147.167 42.9219 146.02C42.8504 141.192 42.784 136.31 43.8258 131.597C44.7446 127.44 46.5155 123.463 46.9018 119.223C47.0276 117.842 47.0303 116.364 47.7948 115.212C48.8753 113.584 51.2083 113.163 51.9759 111.363Z" fill="#2F2E41"/>
<path d="M56.7137 105.275C57.1412 104.713 57.9657 104.636 58.6487 104.803C59.3317 104.969 59.9615 105.324 60.6513 105.459C60.8081 105.504 60.9724 105.515 61.1339 105.493C61.2953 105.47 61.4501 105.413 61.5886 105.326C61.8297 105.087 61.9739 104.765 61.9931 104.424C62.2347 102.974 62.2912 101.498 62.1611 100.033C62.1252 99.8279 62.1388 99.6167 62.2009 99.4177C62.3716 99.0025 62.8927 98.9037 63.3182 98.7705C64.0202 98.5311 64.6232 98.0625 65.0319 97.4388C65.4406 96.8151 65.6317 96.0718 65.575 95.3263C65.5644 94.9688 65.4155 94.6296 65.1602 94.3814C64.8659 94.1394 64.454 94.1246 64.0744 94.1215C62.1241 94.1057 60.1738 94.1062 58.2234 94.1229C57.5015 94.1291 56.7435 94.147 56.1177 94.5101C55.655 94.7786 55.311 95.2107 54.8956 95.5488C53.8123 96.4308 52.3471 96.6103 51.0291 97.0623C50.3858 97.2471 49.8015 97.5986 49.3345 98.0818C48.8962 98.587 48.6855 99.3382 48.9608 99.9494C49.1021 100.204 49.2599 100.449 49.4332 100.683C50.2107 101.937 49.6931 103.564 49.8092 105.038C49.9542 106.88 52.655 109.867 54.4864 110.302C57.443 111.006 55.7349 106.484 56.7137 105.275Z" fill="#2F2E41"/>
<path d="M52.6179 186.004C52.8044 187.348 53.0437 188.697 52.9797 190.053C52.8904 191.946 52.2137 193.77 52.0886 195.662C51.9952 197.074 52.2113 198.502 52.0169 199.904C51.8924 200.801 51.6023 201.667 51.4226 202.555C51.1382 204.002 51.1462 205.492 51.4462 206.936C51.7463 208.38 52.3321 209.748 53.1687 210.959C53.2916 211.166 53.4663 211.337 53.6754 211.454C53.8759 211.529 54.0905 211.558 54.3034 211.538C56.4151 211.494 58.5211 211.301 60.606 210.96C60.7586 210.954 60.9032 210.889 61.0107 210.78C61.0577 210.707 61.0878 210.625 61.0986 210.539C61.4852 208.534 60.6036 206.524 60.3795 204.494C60.1401 202.326 60.6556 200.154 61.1672 198.035C61.3993 196.99 61.6891 195.959 62.0355 194.946C62.2828 194.265 62.5815 193.602 62.7959 192.909C63.0995 191.821 63.2843 190.703 63.3472 189.574C63.4961 187.793 63.5749 186.008 63.5838 184.218C63.6344 182.523 63.4945 180.827 63.1669 179.163C62.6966 177.057 61.7336 175.101 60.7791 173.168C60.2687 173.292 59.7895 173.521 59.3723 173.843C58.1423 174.646 56.8579 175.362 55.5287 175.985C54.6356 176.404 52.894 176.701 52.3272 177.573C51.7682 178.433 52.1288 180.188 52.1715 181.137C52.2448 182.765 52.3936 184.387 52.6179 186.004Z" fill="#2F2E41"/>
<path opacity="0.1" d="M52.6179 186.004C52.8044 187.348 53.0437 188.697 52.9797 190.053C52.8904 191.946 52.2137 193.77 52.0886 195.662C51.9952 197.074 52.2113 198.502 52.0169 199.904C51.8924 200.801 51.6023 201.667 51.4226 202.555C51.1382 204.002 51.1462 205.492 51.4462 206.936C51.7463 208.38 52.3321 209.748 53.1687 210.959C53.2916 211.166 53.4663 211.337 53.6754 211.454C53.8759 211.529 54.0905 211.558 54.3034 211.538C56.4151 211.494 58.5211 211.301 60.606 210.96C60.7586 210.954 60.9032 210.889 61.0107 210.78C61.0577 210.707 61.0878 210.625 61.0986 210.539C61.4852 208.534 60.6036 206.524 60.3795 204.494C60.1401 202.326 60.6556 200.154 61.1672 198.035C61.3993 196.99 61.6891 195.959 62.0355 194.946C62.2828 194.265 62.5815 193.602 62.7959 192.909C63.0995 191.821 63.2843 190.703 63.3472 189.574C63.4961 187.793 63.5749 186.008 63.5838 184.218C63.6344 182.523 63.4945 180.827 63.1669 179.163C62.6966 177.057 61.7336 175.101 60.7791 173.168C60.2687 173.292 59.7895 173.521 59.3723 173.843C58.1423 174.646 56.8579 175.362 55.5287 175.985C54.6356 176.404 52.894 176.701 52.3272 177.573C51.7682 178.433 52.1288 180.188 52.1715 181.137C52.2448 182.765 52.3936 184.387 52.6179 186.004Z" fill="black"/>
<path d="M42.8088 157.289C41.8453 159.906 43.2616 162.734 44.492 165.235C47.5234 171.396 49.6284 177.969 51.7222 184.515C51.8791 185.005 52.0358 185.54 51.8609 186.024C51.7099 186.368 51.4648 186.662 51.1543 186.87C49.7107 187.976 47.8724 188.37 46.1527 188.949C44.4907 189.509 42.8989 190.262 41.4094 191.192C40.1632 191.972 38.9958 192.871 37.8307 193.769L34.1217 196.627C33.8816 196.79 33.6718 196.995 33.5018 197.232C33.1441 197.798 33.2906 198.537 33.4687 199.184C33.9404 200.897 34.5476 202.57 35.2846 204.185C35.4059 204.539 35.6368 204.844 35.9432 205.055C36.5221 205.369 37.2302 204.953 37.6723 204.462C38.1143 203.972 38.4967 203.361 39.1198 203.15C39.7423 202.94 40.4273 203.195 41.0774 203.103C42.1288 202.954 42.8268 201.977 43.5846 201.227C46.6809 198.162 51.8504 198.384 55.2564 195.674C55.7488 195.23 56.27 194.819 56.8167 194.445C57.3925 194.101 58.0455 193.913 58.6429 193.609C60.4599 192.686 61.6023 190.778 62.2142 188.82C62.8261 186.863 63.0007 184.796 63.4404 182.792C63.6677 181.756 63.967 180.731 64.0681 179.675C64.1331 178.693 64.1119 177.707 64.0047 176.728L62.7757 161.389C62.6757 160.141 62.5754 158.89 62.3811 157.653C58.7311 157.784 55.0837 157.933 51.4317 157.976C48.5256 158.011 45.5662 158.216 42.8088 157.289Z" fill="#2F2E41"/>
<path d="M41.4671 160.876C41.9622 161.68 43.1674 161.663 43.9972 161.223C44.8271 160.782 45.4718 160.042 46.3036 159.605C47.4214 159.019 48.744 159.041 50.0036 159.077C51.9976 159.133 54.0162 159.194 55.9348 159.745C57.9192 160.316 59.851 161.413 61.9028 161.194C62.2599 161.156 62.6503 161.053 62.8446 160.748C62.9585 160.528 63.012 160.28 62.9998 160.032L63.0669 158.223C63.108 157.911 63.0584 157.592 62.9242 157.308C62.752 157.07 62.5159 156.888 62.2441 156.782C59.3236 155.356 55.9929 155.09 52.7501 154.978C51.1017 154.921 49.4526 154.898 47.8028 154.908C46.4028 154.916 44.7221 154.712 43.361 155.089C41.5343 155.596 40.5404 159.373 41.4671 160.876Z" fill="#2F2E41"/>
<path d="M59.8057 113.509C55.979 113.475 52.5113 110.927 48.6849 110.865C48.2226 110.832 47.7595 110.913 47.3346 111.1C46.8014 111.371 46.4509 111.895 46.0459 112.337C44.9145 113.573 43.2761 114.233 42.1138 115.44C41.024 116.571 40.4179 118.256 40.8481 119.773C41.2784 121.29 42.9023 122.453 44.4236 122.088C45.0365 120.087 46.3015 118.353 48.0136 117.167C48.9044 116.591 49.8432 116.094 50.8194 115.681C52.5391 114.895 54.4622 114.094 56.2576 114.683C56.9197 114.936 57.5441 115.279 58.1128 115.704L61.1061 117.733C60.7573 116.345 60.4437 114.788 59.8057 113.509Z" fill="#5B94E3"/>
<path d="M43.9827 120.747C43.4745 121.387 44.2065 122.314 44.0945 123.125C44.02 123.665 43.5801 124.077 43.3969 124.589C43.2071 125.12 43.3077 125.707 43.2357 126.267C43.1635 126.674 43.0567 127.073 42.9165 127.462C42.5941 128.622 42.3691 129.807 42.2438 131.005L41.574 136.051C41.4578 136.811 41.387 137.577 41.3621 138.345C41.3959 138.919 41.3579 139.495 41.2489 140.059C41.1006 140.611 40.7722 141.093 40.5513 141.619C40.3304 142.146 40.2279 142.782 40.5264 143.268C39.5269 144.108 39.2298 145.757 39.9286 146.864C40.0616 147.036 40.1657 147.23 40.2366 147.436C40.2753 147.725 40.228 148.019 40.101 148.28L39.4237 150.101C39.2504 150.567 39.1955 151.276 39.6775 151.383C39.2783 151.801 38.9673 152.297 38.7632 152.839C38.6642 153.112 38.6347 153.405 38.6772 153.693C38.7197 153.98 38.833 154.252 39.0067 154.483C39.175 154.632 39.3183 154.807 39.431 155.003C39.4972 155.274 39.4801 155.56 39.382 155.822C39.2807 156.219 39.2612 156.634 39.3246 157.039C39.388 157.445 39.5331 157.833 39.7508 158.18C39.9764 158.522 40.2959 158.79 40.6703 158.952C41.0446 159.114 41.4576 159.162 41.8588 159.091C43.2136 158.783 44.431 158.296 45.797 158.549C48.7382 159.094 51.6889 159.641 54.5375 160.558C57.7887 161.605 60.9368 163.141 64.3347 163.464C64.5582 163.51 64.7908 163.473 64.9899 163.361C65.163 163.195 65.2707 162.972 65.2929 162.732C65.6429 161.076 65.993 159.42 66.343 157.764C66.7663 155.929 67.0885 154.071 67.3084 152.2C67.428 150.992 67.462 149.777 67.496 148.564L67.7667 138.905C67.8935 137.482 67.7053 136.048 67.2158 134.707L65.6589 129.692C64.7705 126.831 62.7323 124.293 62.0066 121.385C61.5474 119.545 61.2081 117.57 59.9764 116.135C58.2205 114.09 55.1826 113.772 52.5236 114.124C51.3223 114.283 50.1108 114.557 49.0717 115.185C47.8702 115.912 46.9851 117.057 46.1288 118.176C45.4231 119.097 44.7048 119.839 43.9827 120.747Z" fill="#5B94E3"/>
<path d="M50.1913 149.155C50.4104 150.108 50.8705 150.987 51.1521 151.923C51.624 153.491 51.5839 155.181 52.0549 156.75C52.2525 157.408 52.5389 158.04 52.6808 158.713C53.0115 160.282 52.5286 161.905 51.9287 163.391C51.3288 164.876 50.5982 166.341 50.4034 167.933C50.2663 169.054 50.4633 170.32 51.3199 171.048C52.2093 171.804 53.5017 171.752 54.66 171.652C55.0759 171.64 55.4863 171.554 55.8723 171.397C56.7581 170.974 57.1312 169.917 57.3383 168.951C58.0322 165.712 57.834 162.355 57.6323 159.048L57.1049 150.4C57.0034 148.734 56.8946 147.035 56.3861 145.436C56.2011 144.855 55.8786 143.679 55.3521 143.308C54.8306 142.94 53.3414 142.924 52.6957 142.893C49.6664 142.75 49.7004 147.016 50.1913 149.155Z" fill="#FBBEBE"/>
<path d="M53.5478 117.223C52.9292 116.896 52.1497 117.037 51.5517 117.401C50.9743 117.8 50.4686 118.295 50.0563 118.865C48.7195 120.512 47.3042 122.401 47.5025 124.52C47.5769 125.314 47.8784 126.066 48.0828 126.837C48.9791 130.217 47.9879 133.792 48.1017 137.289C48.1674 139.31 48.6032 141.297 49.0372 143.271C49.1258 143.674 49.2677 144.14 49.6539 144.276C49.9441 144.378 50.2575 144.247 50.5447 144.137C51.6145 143.738 52.7638 143.605 53.8954 143.749C55.0269 143.893 56.1076 144.309 57.0458 144.964C57.7632 144.577 57.4944 143.356 57.3336 142.552C56.8557 140.163 57.5044 137.698 58.2922 135.394C59.08 133.089 60.0226 130.788 60.1532 128.354C60.301 125.596 59.3948 122.905 58.5005 120.294C58.3054 119.725 58.092 119.127 57.6395 118.734C57.2521 118.443 56.8081 118.238 56.3367 118.133C55.3869 117.85 54.4252 117.686 53.5478 117.223Z" fill="#2F2E41"/>
</g>
<defs>
<clipPath id="clip0">
<rect width="282" height="235" fill="white"/>
</clipPath>
</defs>
</svg>
