<svg width="282" height="235" viewBox="0 0 282 235" fill="none" xmlns="http://www.w3.org/2000/svg">
<g clip-path="url(#clip0)">
<path opacity="0.1" d="M200.421 234.995C216.332 234.995 229.23 233.724 229.23 232.156C229.23 230.588 216.332 229.316 200.421 229.316C184.511 229.316 171.612 230.588 171.612 232.156C171.612 233.724 184.511 234.995 200.421 234.995Z" fill="#5B94E3"/>
<path opacity="0.1" d="M123.463 3.43793C136.152 -1.27735 151.598 2.77796 164.789 8.69242C206.219 27.2727 236.402 62.5432 260.382 98.4765C269.065 111.488 277.312 125.072 280.576 139.597C287.222 169.161 269.888 199.766 240.407 210.492C230.382 214.143 219.368 215.639 208.337 216.474C188.722 217.959 168.413 217.369 148.955 211.868C135.079 207.936 121.952 201.612 109.362 194.624C74.2022 175.1 42.0927 149.746 18.9719 118.775C8.83145 105.191 0.252798 89.8772 0.00560686 74.2036C-0.241584 58.53 9.97471 42.7806 26.7837 40.1154C33.7331 39.0145 41.0843 40.1604 48.2556 41.3399C58.8146 43.0783 69.5169 44.9065 79.9551 44.1483C90.7388 43.3591 104.764 39.1465 106.73 28.8538C108.812 17.8028 110.792 8.14759 123.463 3.43793Z" fill="#5B94E3"/>
<path d="M68.5449 215.912C68.5449 215.912 82.1011 215.095 80.5028 224.593C80.5028 224.593 80.8202 226.278 79.2977 227.033C79.2977 227.033 79.2753 226.328 77.9073 226.567C77.4214 226.651 76.9272 226.675 76.4354 226.64C75.7703 226.594 75.1383 226.333 74.6348 225.896C74.6348 225.896 70.823 224.323 69.3427 218.094C69.3427 218.094 68.2444 216.738 68.2893 216.387L70.5758 217.364C70.5758 217.364 69.7949 219.015 70.4101 220.386C70.4101 220.386 70.4831 217.426 70.9241 217.493C71.0112 217.507 72.1123 218.055 72.1123 218.055C72.1123 218.055 70.7668 220.928 71.7809 223.017C71.7809 223.017 71.396 219.476 72.5309 218.263L74.1432 219.204C74.1432 219.204 72.5702 222.172 73.6376 224.593C73.6376 224.593 73.3567 220.877 74.4803 219.431L75.941 220.554C75.941 220.554 74.4635 223.481 75.3651 225.492C75.3651 225.492 75.4803 221.164 76.2556 220.838C76.2556 220.838 77.5337 221.961 77.7275 222.428C77.7275 222.428 76.7163 224.551 77.3427 225.671C77.3427 225.671 77.7275 222.79 78.0449 222.776C78.0449 222.776 79.3146 224.686 79.4494 225.994C79.4494 225.994 79.3932 224.048 78.3511 222.593C78.3511 222.593 79.5814 222.804 80.3005 223.602C80.3005 223.602 80.1011 222.251 78.0393 222.133C78.0393 222.133 76.9887 220.686 76.705 220.597C76.705 220.597 78.7584 220.425 80.0028 220.978C80.0028 220.978 78.9073 219.703 76.3286 220.282L74.8876 219.108C74.8876 219.108 77.5927 218.737 78.7359 219.147C78.7359 219.147 77.4185 218.024 74.5 218.841L72.9326 217.903C72.9326 217.903 75.2359 217.406 76.6095 217.586C76.6095 217.586 75.1601 216.805 72.4719 217.651L71.3483 217.148C71.3483 217.148 73.0337 216.816 73.5309 216.763C74.0281 216.71 74.0505 216.575 74.0505 216.575C72.9813 216.396 71.8833 216.517 70.8792 216.926C70.8792 216.926 68.5028 216.075 68.5449 215.912Z" fill="#5B94E3"/>
<path opacity="0.1" d="M77.8819 229.483C83.1814 229.483 87.4774 228.758 87.4774 227.863C87.4774 226.968 83.1814 226.242 77.8819 226.242C72.5825 226.242 68.2864 226.968 68.2864 227.863C68.2864 228.758 72.5825 229.483 77.8819 229.483Z" fill="#5B94E3"/>
<path d="M50.3848 209.522C50.3848 209.522 58.0281 209.061 57.1264 214.417C57.174 214.688 57.1341 214.968 57.0124 215.215C56.8908 215.462 56.6936 215.665 56.4494 215.793C56.4494 215.793 56.4354 215.397 55.6657 215.532C55.3921 215.578 55.1139 215.592 54.8371 215.571C54.4612 215.548 54.1035 215.401 53.8202 215.152C53.8202 215.152 51.6742 214.262 50.8315 210.752C50.8315 210.752 50.2135 209.985 50.2359 209.788L51.5281 210.35C51.5281 210.35 51.0871 211.282 51.4326 212.055C51.4326 212.055 51.4747 210.384 51.7135 210.423C51.764 210.423 52.3848 210.746 52.3848 210.746C52.3848 210.746 51.6264 212.367 52.1994 213.554C52.1994 213.554 51.9803 211.558 52.6208 210.872L53.5281 211.403C53.5281 211.403 52.6433 213.088 53.2472 214.442C53.2472 214.442 53.0927 212.347 53.7219 211.532L54.5449 212.173C54.5449 212.173 53.7022 213.821 54.2219 214.956C54.2219 214.956 54.2865 212.515 54.7247 212.333C54.7247 212.333 55.4438 212.968 55.5534 213.229C55.5534 213.229 54.9916 214.425 55.3371 215.057C55.3371 215.057 55.5534 213.434 55.7332 213.425C55.7332 213.425 56.4494 214.501 56.5225 215.24C56.4867 214.557 56.2737 213.896 55.9045 213.321C56.3177 213.397 56.6997 213.592 57.0028 213.883C57.0028 213.883 56.8933 213.122 55.7275 213.055C55.7275 213.055 55.1348 212.237 54.9775 212.19C54.9775 212.19 56.1348 212.091 56.8371 212.403C56.8371 212.403 56.2191 211.684 54.764 212.01L53.9522 211.347C53.9522 211.347 55.4775 211.139 56.1236 211.37C56.1236 211.37 55.3792 210.735 53.7331 211.198L52.8511 210.667C53.5306 210.519 54.2265 210.46 54.9213 210.491C54.9213 210.491 54.1067 210.05 52.5899 210.527L51.9579 210.246C51.9579 210.246 52.9101 210.058 53.1882 210.03C53.4663 210.002 53.4831 209.923 53.4831 209.923C52.8797 209.823 52.2604 209.892 51.6938 210.123C51.6938 210.123 50.3624 209.614 50.3848 209.522Z" fill="#5B94E3"/>
<path opacity="0.1" d="M55.6488 217.175C58.6367 217.175 61.0589 216.765 61.0589 216.259C61.0589 215.754 58.6367 215.344 55.6488 215.344C52.6609 215.344 50.2387 215.754 50.2387 216.259C50.2387 216.765 52.6609 217.175 55.6488 217.175Z" fill="#5B94E3"/>
<path d="M238.421 214.669C238.421 214.669 247.649 214.107 246.567 220.566C246.623 220.894 246.573 221.232 246.426 221.53C246.279 221.828 246.041 222.073 245.747 222.229C245.747 222.229 245.73 221.749 244.801 221.911C244.469 221.968 244.133 221.984 243.798 221.959C243.345 221.93 242.915 221.752 242.573 221.454C242.573 221.454 239.978 220.384 238.969 216.143C238.969 216.143 238.222 215.219 238.253 214.983L239.809 215.646C239.809 215.646 239.278 216.769 239.697 217.704C239.697 217.704 239.747 215.688 240.045 215.739C240.107 215.739 240.854 216.126 240.854 216.126C240.854 216.126 239.938 218.092 240.629 219.496C240.629 219.496 240.368 217.087 241.14 216.261L242.236 216.898C242.236 216.898 241.166 218.92 241.893 220.569C241.893 220.569 241.705 218.041 242.455 217.056L243.449 217.831C243.449 217.831 242.444 219.822 243.056 221.201C243.056 221.201 243.138 218.258 243.666 218.033C243.666 218.033 244.534 218.8 244.666 219.114C244.666 219.114 243.978 220.561 244.404 221.324C244.404 221.324 244.666 219.359 244.882 219.359C244.882 219.359 245.747 220.659 245.837 221.549C245.795 220.726 245.539 219.928 245.093 219.235C245.592 219.33 246.053 219.568 246.419 219.92C246.419 219.92 246.284 219.002 244.876 218.92C244.876 218.92 244.163 217.935 243.972 217.876C243.972 217.876 245.376 217.758 246.219 218.134C246.219 218.134 245.472 217.269 243.716 217.662L242.736 216.862C242.736 216.862 244.576 216.609 245.357 216.887C245.357 216.887 244.458 216.121 242.472 216.679L241.404 216.042C241.404 216.042 242.972 215.705 243.907 215.826C243.907 215.826 242.921 215.295 241.098 215.871L240.334 215.528C240.334 215.528 241.483 215.3 241.82 215.267C242.157 215.233 242.174 215.138 242.174 215.138C241.447 215.016 240.7 215.099 240.017 215.376C240.017 215.376 238.393 214.775 238.421 214.669Z" fill="#5B94E3"/>
<path opacity="0.1" d="M244.775 223.911C248.382 223.911 251.306 223.416 251.306 222.807C251.306 222.197 248.382 221.703 244.775 221.703C241.168 221.703 238.244 222.197 238.244 222.807C238.244 223.416 241.168 223.911 244.775 223.911Z" fill="#5B94E3"/>
<path d="M229.228 146.491C229.051 145.502 228.948 144.501 228.921 143.497C228.921 142.292 227.284 141.225 227.284 141.225C227.284 141.225 226.273 138.885 225.598 138.54C224.924 138.195 222.843 135.133 222.843 135.133C222.819 134.53 222.599 133.95 222.216 133.482C221.593 132.663 221.023 131.803 220.511 130.91C220.23 130.567 220.371 130.326 219.949 128.329C219.927 128.225 219.902 128.124 219.871 128.028C219.871 127.983 219.843 127.944 219.826 127.899C220.273 127.451 220.585 126.885 220.725 126.268C220.866 125.651 220.83 125.006 220.621 124.408C220.545 124.171 220.407 123.957 220.222 123.79C219.747 123.403 218.989 123.563 218.5 123.195L219.02 120.898C219.143 120.336 219.208 119.626 218.716 119.322C218.532 119.235 218.338 119.17 218.138 119.128C217.295 118.848 216.806 117.957 216.587 117.101C216.377 116.276 216.319 115.419 216.419 114.573C216.514 113.759 216.753 112.967 216.84 112.15C216.998 110.638 216.635 109.118 215.809 107.842C215.488 107.291 215.015 106.844 214.447 106.555C213.927 106.322 213.323 106.275 212.837 105.994C211.792 105.328 211.846 103.747 211.011 102.84C210.177 101.933 208.699 101.936 207.483 102.247C206.267 102.559 205.056 103.09 203.809 102.958C203.006 102.868 202.253 102.503 201.447 102.419C201.216 102.397 200.983 102.407 200.756 102.45V102.424C200.16 102.531 199.612 102.862 199.472 103.427C199.44 103.561 199.427 103.699 199.433 103.837C199.433 104.165 199.511 104.508 199.517 104.823C199.527 104.948 199.512 105.073 199.473 105.192C199.434 105.312 199.372 105.422 199.289 105.516C199.129 105.688 198.893 105.777 198.728 105.954C198.66 106.022 198.607 106.103 198.572 106.192C198.536 106.28 198.52 106.376 198.523 106.471C198.523 106.971 199.146 107.412 199.565 107.614H199.582C199.469 107.726 199.357 107.844 199.253 107.965C198.053 109.32 197.391 111.067 197.393 112.877C197.403 114.339 197.841 115.765 198.651 116.982C199.462 118.198 200.61 119.151 201.955 119.724L201.896 119.906C201.778 120.268 201.64 120.622 201.483 120.968C201.193 120.87 200.884 120.837 200.579 120.871C200.275 120.905 199.981 121.005 199.719 121.165C198.916 121.726 197.346 121.681 196.927 121.577C196.508 121.473 192.152 120.923 191.801 121.061C191.449 121.198 190.756 120.58 190.303 121.406C189.851 122.232 189.641 122.678 189.18 122.886C188.719 123.094 187.924 123.745 188.031 123.883C188.138 124.021 186.879 124.846 186.879 124.846C186.879 124.846 185.798 125.97 185.171 126.119C184.545 126.267 183.219 127.118 183.219 127.118L181.683 128.32C181.683 128.32 180.534 128.494 180.882 127.702C181.23 126.911 180.253 125.914 180.253 125.914C180.253 125.914 178.301 121.957 178.301 121.139C178.301 120.322 176.697 116.837 176.697 116.837L176.5 116.817L176.41 116.562C176.115 115.733 175.733 114.717 175.441 114.121C174.879 112.984 174.534 112.866 174.534 112.866C174.534 112.866 167.77 107.788 163.376 109.336C158.983 110.883 171.396 115.494 172.511 115.977C172.902 116.146 173.183 116.691 173.379 117.328C172.39 117.805 171.557 118.555 170.978 119.488C170.978 119.488 173.663 125.439 173.733 126.919C173.803 128.399 175.582 132.536 175.582 132.536C175.582 132.536 176.244 135.6 179.834 135.426C179.834 135.426 184.787 136.335 185.868 135.426C186.949 134.516 187.924 133.802 188.449 133.698C188.836 133.571 189.175 133.332 189.424 133.01C189.424 133.01 187.787 143.331 186.983 144.227C186.18 145.123 179.082 156.71 181.629 158.783C183.647 160.345 185.779 161.753 188.008 162.995C188.225 163.102 188.874 162.021 189.801 161.254C189.801 161.448 189.801 161.645 189.801 161.852C189.817 165.975 190.362 172.243 191.115 173.648C192.239 175.712 191.778 179.703 191.778 179.703C192.369 179.98 193.01 180.134 193.663 180.155C193.697 180.289 193.736 180.436 193.773 180.576C194.388 182.898 195.385 186.49 195.893 187.445C196.66 188.892 197.216 193.469 197.216 193.469C197.216 193.469 197.671 197.963 197.497 198.595C197.43 198.833 197.725 200.704 198.188 203.088C197.907 206.315 197.374 212.535 197.284 214.785C197.284 214.827 197.284 214.869 197.284 214.908V214.948C197.285 214.973 197.285 214.998 197.284 215.024C197.284 215.074 197.284 215.119 197.284 215.161C197.275 215.303 197.281 215.445 197.301 215.585C197.335 215.799 197.319 216.019 197.253 216.226C197.054 216.847 196.801 217.451 196.497 218.029C196.369 218.312 196.257 218.603 196.16 218.899C195.879 219.023 195.537 219.323 195.346 220.056C194.997 221.399 194.475 225.111 194.475 225.111C194.475 225.111 194.264 227.383 193.848 227.9C193.433 228.417 193.006 231.649 195.975 232.062C198.944 232.475 200.228 230.489 200.228 230.489L200.124 221.48V221.463C200.184 221.387 200.235 221.306 200.278 221.219V221.196C200.298 221.154 200.32 221.109 200.34 221.059L200.365 220.991L200.41 220.882C200.409 220.869 200.409 220.856 200.41 220.843C200.698 219.98 200.785 219.062 200.663 218.161V218.116V218.045C200.663 218.023 200.663 217.998 200.663 217.975V217.835C200.663 217.818 200.663 217.798 200.663 217.781C200.663 217.722 200.669 217.66 200.68 217.596C200.68 217.596 200.68 217.574 200.68 217.562L200.697 217.453V217.405C200.697 217.369 200.697 217.332 200.719 217.293C200.718 217.283 200.718 217.274 200.719 217.265C200.747 217.135 200.781 216.984 200.817 216.86V216.829L200.86 216.695C200.902 216.551 200.949 216.414 201 216.262V216.234C201 216.189 201.031 216.144 201.048 216.102V216.085C201.098 215.948 201.152 215.804 201.202 215.686L201.216 215.65L201.261 215.538L201.275 215.504L201.382 215.254L202.205 217.795C202.205 217.795 202.66 219.688 202.416 220.135C202.171 220.581 202.697 222.441 203.042 222.474L202.719 224.814C202.545 226.104 202.44 227.402 202.407 228.703C202.385 228.852 202.362 228.984 202.346 229.074C202.121 230.273 202.66 232.132 202.66 232.132C205.413 235.387 208.694 232.385 208.694 232.385C208.694 232.385 209.076 230.663 208.694 230.321C208.312 229.978 208.483 228.737 208.483 228.737C208.483 228.737 208.657 225.673 208.691 223.438C208.725 221.202 206.862 219.225 206.862 219.225L206.758 219.318C206.419 218.441 206.031 217.419 206.112 216.961C206.253 216.169 205.728 207.809 205.728 207.809C205.922 205.568 205.963 203.316 205.851 201.069C205.896 200.69 205.938 200.316 205.98 199.945C206.191 198.148 206.362 196.612 206.43 195.806V195.71C206.447 195.494 206.455 195.34 206.452 195.267C206.452 194.986 206.452 194.666 206.48 194.315C206.545 193.348 206.697 192.273 206.697 192.273L207.427 187.833C207.427 187.833 207.989 185.665 208.789 184.463L208.885 184.311C208.916 184.258 208.947 184.199 208.98 184.137L208.994 184.112C209.025 184.053 209.059 183.991 209.09 183.926L209.104 183.901C209.216 183.679 209.337 183.424 209.464 183.143C209.464 183.12 209.483 183.101 209.492 183.078L209.587 182.865C209.587 182.837 209.61 182.809 209.624 182.781C209.638 182.752 209.683 182.637 209.714 182.567C209.727 182.539 209.74 182.51 209.75 182.48C209.787 182.396 209.826 182.309 209.862 182.219L209.916 182.09C209.941 182.025 209.969 181.96 209.997 181.896L210.065 181.725C210.084 181.682 210.101 181.64 210.118 181.598L210.194 181.404C210.194 181.376 210.219 181.345 210.23 181.317C210.43 180.82 210.621 180.329 210.792 179.882C210.846 179.742 210.899 179.601 210.947 179.478C212.733 179.587 213.947 179.686 213.947 179.686C213.947 179.686 214.508 175.661 214.329 173.013C214.211 171.204 214.548 168.93 214.77 167.677C214.795 167.539 214.817 167.416 214.84 167.304L214.888 167.343C215.761 168.031 216.388 165.759 216.388 165.759C216.388 165.759 216.152 163.639 215.826 161.069L215.792 160.813C216.296 160.921 216.805 160.999 217.317 161.046C217.317 161.046 217.598 161.021 217.983 160.973C219.048 161.59 220.171 162.098 221.337 162.49L223.194 159.064C223.543 158.353 223.952 157.674 224.416 157.033C224.978 156.345 226.961 154.143 226.927 153.731C226.893 153.318 227.59 150.942 228.287 149.875C228.983 148.808 229.261 146.662 229.228 146.491ZM221.486 149.105C220.753 149.414 220.056 151.136 220.023 151.652C219.989 152.169 219.219 154.438 218.419 154.714C217.68 154.966 216.27 156.264 216.045 156.472C215.815 156.491 215.553 156.522 215.281 156.567C214.975 154.396 214.671 152.599 214.478 152.237C213.916 151.203 215.093 147.9 215.093 147.9C215.093 147.9 215.208 144.564 215.935 143.772C216.663 142.98 216.497 140.983 216.497 140.983C216.497 140.983 216.671 140.158 216.742 139.781C216.812 139.405 217.778 139.781 217.787 139.781C217.787 139.781 219.669 140.812 219.949 142.359C220.23 143.907 222.287 146.592 222.287 146.592C222.287 146.592 221.972 147.521 222.287 147.996C222.601 148.471 222.219 148.796 221.486 149.105Z" fill="url(#paint0_linear)"/>
<path d="M171.056 119.697C171.629 118.753 172.467 117.998 173.466 117.528C174.466 117.057 175.581 116.891 176.674 117.051V121.07H174.233L172.323 120.587L171.056 119.697Z" fill="#4C4981"/>
<path opacity="0.1" d="M171.056 119.697C171.629 118.753 172.467 117.998 173.466 117.528C174.466 117.057 175.581 116.891 176.674 117.051V121.07H174.233L172.323 120.587L171.056 119.697Z" fill="black"/>
<path d="M176.857 118.119L173.865 120.214C173.865 120.214 173.84 119.795 173.764 119.222C173.615 118.138 173.281 116.512 172.559 116.198C171.461 115.715 159.233 111.115 163.57 109.567C167.907 108.02 174.562 113.092 174.562 113.092C174.562 113.092 174.904 113.21 175.452 114.341C175.733 114.937 176.118 115.951 176.407 116.779C176.674 117.526 176.857 118.119 176.857 118.119Z" fill="#AE6E79"/>
<path d="M200.756 121.344L201.096 121.184L202.051 122.273L201.27 123.939L199.938 123.405L200.247 122.074L200.756 121.344Z" fill="#4C4981"/>
<path d="M196.23 218.881C196.23 218.881 195.371 218.78 195.028 220.119C194.685 221.459 194.169 225.174 194.169 225.174C194.169 225.174 193.963 227.441 193.551 227.957C193.138 228.474 192.728 231.701 195.646 232.111C198.565 232.521 199.837 230.541 199.837 230.541L199.733 221.535L196.23 218.881Z" fill="#444053"/>
<path d="M206.416 219.285C206.416 219.285 208.253 221.251 208.219 223.481C208.185 225.711 208.011 228.769 208.011 228.769C208.011 228.769 207.843 230.008 208.219 230.35C208.595 230.693 208.219 232.412 208.219 232.412C208.219 232.412 204.989 235.408 202.275 232.159C202.275 232.159 201.747 230.302 201.966 229.106C202.185 227.91 202.798 222.532 202.798 222.532L206.416 219.285Z" fill="#444053"/>
<path d="M210.966 178.222C210.966 178.222 209.112 183.406 208.32 184.608C207.528 185.81 206.983 187.978 206.983 187.978L206.261 192.407C206.12 193.397 206.04 194.395 206.02 195.395C206.053 196.392 204.233 210.917 204.233 210.917L201.348 214.593C201.348 214.593 200.079 217.169 200.284 218.244C200.489 219.32 200.146 221.027 199.722 221.541C199.722 221.541 199.655 224.911 199.551 225.661C199.447 226.411 199.93 228.548 199.551 228.925C199.171 229.301 194.124 229.132 193.986 228.512C193.848 227.891 194.604 224.906 194.604 224.906L195.051 222.022C195.051 222.022 195.944 220.443 195.739 219.927C195.534 219.41 196.115 218.211 196.149 218.107C196.183 218.003 197.112 216.321 196.941 215.669C196.77 215.018 198.023 201.161 198.023 201.161L201.559 176.332L210.966 178.222Z" fill="#AE6E79"/>
<path opacity="0.1" d="M210.966 178.22C210.966 178.22 210.686 179.001 210.301 180.026C209.688 181.644 208.806 183.871 208.32 184.607C207.531 185.809 206.98 187.977 206.98 187.977L206.259 192.408C206.119 193.399 206.039 194.397 206.02 195.396C206.02 195.79 205.756 198.297 205.419 201.187C204.899 205.605 204.233 210.918 204.233 210.918L201.348 214.595C201.348 214.595 201.202 214.875 201.02 215.319C200.657 216.162 200.146 217.529 200.284 218.234C200.489 219.299 200.146 221.015 199.722 221.531C199.722 221.531 199.652 224.901 199.551 225.651C199.45 226.401 199.93 228.535 199.551 228.914C199.171 229.294 194.124 229.122 193.986 228.504C193.848 227.887 194.604 224.898 194.604 224.898L195.051 222.011C195.051 222.011 195.944 220.433 195.736 219.916C195.528 219.4 196.115 218.201 196.149 218.097C196.183 217.993 197.112 216.31 196.941 215.659C196.809 215.162 197.503 207.026 197.826 203.167C197.935 201.954 198.006 201.165 198.006 201.165L201.048 179.804L201.295 178.083L201.542 176.336L210.966 178.22Z" fill="black"/>
<path d="M207.876 229.868C207.907 230.247 203.031 230.797 202.334 230.384C201.638 229.971 202.334 224.855 202.334 224.855L202.652 222.521C202.312 222.484 201.795 220.631 202.034 220.184C202.273 219.738 201.829 217.85 201.829 217.85L201.02 215.323L200.525 213.776C199.722 212.003 198.559 206.948 197.837 203.174C197.382 200.804 197.093 198.936 197.157 198.697C197.329 198.079 196.876 193.58 196.876 193.58C196.876 193.58 196.315 189.011 195.573 187.57C195.07 186.616 194.09 183.029 193.483 180.715C193.174 179.527 192.961 178.673 192.961 178.673C192.961 178.673 198.152 178.238 201.301 178.087C202.747 178.016 203.764 178.008 203.646 178.126C203.528 178.244 203.497 178.873 203.503 179.783C203.517 182.139 203.846 186.284 204.194 187.399C204.674 188.944 205.155 193.578 204.949 194.027C204.744 194.476 204.812 197.462 204.812 197.462C205.166 198.674 205.37 199.926 205.419 201.188C205.528 203.425 205.489 205.666 205.301 207.898C205.301 207.898 205.815 216.244 205.677 217.033C205.539 217.822 206.775 220.297 206.775 220.777C206.775 221.257 207.118 224.52 207.118 224.52C207.118 224.52 207.854 229.491 207.876 229.868Z" fill="#AE6E79"/>
<path d="M210.587 129.554L209.997 130.191L209.612 130.607L207.365 133.022L201.559 133.676L198.469 132.851L197.705 132.646C197.705 132.646 197.705 131.095 197.843 129.236C198.039 126.852 198.508 123.956 199.629 123.167C200.19 122.728 200.638 122.161 200.935 121.513C201.16 121.067 201.347 120.603 201.497 120.126C201.52 120.064 201.536 120.005 201.556 119.943C201.809 119.111 201.991 118.259 202.101 117.396C202.101 117.396 202.843 116.986 203.874 116.509C206.562 115.253 211.205 113.521 209.59 117.396C209.352 117.964 209.15 118.545 208.983 119.137C208.958 119.224 208.935 119.311 208.916 119.396C208.376 121.553 208.733 122.861 209.135 123.583C209.203 123.708 209.281 123.827 209.368 123.94C209.478 124.09 209.609 124.224 209.758 124.336L210.427 128.579L210.483 128.93L210.587 129.554Z" fill="#AE6E79"/>
<path opacity="0.1" d="M209.593 117.604C209.286 118.34 209.742 117.003 209.593 117.604C208.368 118.475 205.483 120.955 203.862 120.955C202.767 120.955 202.438 120.755 201.5 120.331C201.784 119.442 201.986 118.53 202.104 117.604C202.104 117.604 211.826 112.246 209.593 117.604Z" fill="black"/>
<path d="M212.067 113.093C212.066 114.942 211.38 116.726 210.142 118.1C208.904 119.475 207.202 120.343 205.362 120.538C205.104 120.563 204.843 120.58 204.579 120.58C203.097 120.58 201.65 120.141 200.418 119.318C199.186 118.495 198.227 117.326 197.66 115.958C197.093 114.59 196.945 113.084 197.234 111.632C197.523 110.18 198.236 108.846 199.283 107.798C200.331 106.751 201.665 106.038 203.118 105.749C204.57 105.46 206.076 105.609 207.444 106.175C208.813 106.742 209.982 107.702 210.805 108.933C211.628 110.164 212.067 111.612 212.067 113.093Z" fill="#AE6E79"/>
<path opacity="0.1" d="M213.132 146.28L212.064 149.063C212.064 149.063 211.197 149.1 209.843 149.142C205.272 149.288 195.202 149.473 194.753 148.299C194.652 148.002 194.599 147.69 194.595 147.375C194.536 145.587 195.371 142.84 195.371 142.84C195.371 142.84 195.851 137.344 195.851 137.105C195.851 136.866 195.438 133.016 195.438 133.016L196.264 129.927L198.564 128.312C198.564 128.312 199.595 129.893 200.213 130.028C200.831 130.163 201.657 130.924 201.657 130.924C201.657 130.924 203.682 132.16 204.337 131.472C204.991 130.784 210.073 127.762 210.073 127.762L212.753 130.716L213.132 146.28Z" fill="black"/>
<path d="M213.132 146.706L212.065 149.486C212.065 149.486 211.197 149.526 209.843 149.568H209.711C209.127 149.587 208.458 149.607 207.744 149.621C204.112 149.705 199.11 149.728 196.494 149.34C195.511 149.2 194.868 148.998 194.761 148.722C194.702 148.557 194.661 148.386 194.638 148.211C194.621 148.082 194.61 147.93 194.604 147.798C194.545 146.01 195.379 143.263 195.379 143.263C195.379 143.263 195.86 137.767 195.86 137.528C195.86 137.289 195.447 133.439 195.447 133.439L196.273 130.35L197.854 129.243L198.573 128.738C198.815 129.1 199.079 129.447 199.362 129.777C199.584 130.075 199.881 130.308 200.222 130.454C200.843 130.591 201.666 131.35 201.666 131.35C201.666 131.35 203.691 132.585 204.346 131.897C204.843 131.372 207.933 129.482 209.36 128.62C209.798 128.353 210.082 128.188 210.082 128.188L210.441 128.586L212.761 131.142L213.132 146.706Z" fill="white"/>
<path opacity="0.1" d="M176.857 118.117L173.865 120.212C173.865 120.212 173.84 119.794 173.764 119.221C175.242 118.597 176.14 117.218 176.399 116.777C176.674 117.524 176.857 118.117 176.857 118.117Z" fill="black"/>
<path d="M187.368 125.23L186.716 125.056C186.716 125.056 185.649 126.179 185.031 126.328C184.413 126.477 183.11 127.322 183.11 127.322L181.596 128.524C181.596 128.524 180.472 128.698 180.806 127.906C181.141 127.114 180.188 126.12 180.188 126.12C180.188 126.12 178.264 122.172 178.264 121.346C178.264 120.52 176.674 117.055 176.674 117.055C176.674 117.055 174.68 120.936 171.039 119.7C171.039 119.7 173.685 125.64 173.753 127.117C173.82 128.594 175.573 132.714 175.573 132.714C175.573 132.714 176.228 135.773 179.764 135.601C179.764 135.601 184.643 136.508 185.708 135.601C186.773 134.694 187.733 133.981 188.236 133.877C188.739 133.773 189.197 133.192 189.197 133.192V129.108L187.368 125.23Z" fill="#4C4981"/>
<path opacity="0.1" d="M181.253 129.105C181.253 129.105 182.112 132.301 181.562 132.644L181.253 129.105Z" fill="black"/>
<path opacity="0.1" d="M209.843 149.556C205.273 149.702 195.202 149.884 194.753 148.713C194.652 148.415 194.599 148.103 194.596 147.789L209.525 148.575L209.843 149.556Z" fill="black"/>
<path opacity="0.1" d="M210.966 178.222C210.966 178.222 210.685 179.003 210.301 180.028C208.405 179.913 205.893 179.792 203.508 179.775C202.666 179.775 201.84 179.775 201.059 179.803C199.402 179.854 197.969 179.989 197.056 180.247C195.902 180.602 194.695 180.758 193.489 180.707C193.18 179.52 192.966 178.666 192.966 178.666C192.966 178.666 198.157 178.231 201.306 178.079L201.553 176.332L210.966 178.222Z" fill="black"/>
<path d="M214.986 165.648L214.402 166.884C214.402 166.884 214.32 167.252 214.216 167.836C213.997 169.094 213.654 171.363 213.784 173.172C213.955 175.817 213.404 179.833 213.404 179.833C213.404 179.833 200.764 178.769 197.056 179.833C193.348 180.898 191.522 179.833 191.522 179.833C191.522 179.833 191.972 175.851 190.871 173.789C190.121 172.385 189.593 166.117 189.576 161.994C189.576 160.093 189.671 158.652 189.91 158.36C190.666 157.433 193.893 148.16 193.893 148.16L194.629 148.199L196.595 148.303L207.775 148.893L209.531 148.986L209.716 149.547L214.986 165.648Z" fill="#444053"/>
<path d="M220.551 161.525L220.655 162.626C220.655 162.626 215.118 160.823 215.399 158.607C215.68 156.391 215.399 156.641 215.399 156.641L219.848 157.018L220.551 161.525Z" fill="#4C4981"/>
<path opacity="0.1" d="M220.551 161.525L220.655 162.626C220.655 162.626 215.118 160.823 215.399 158.607C215.68 156.391 215.399 156.641 215.399 156.641L219.848 157.018L220.551 161.525Z" fill="black"/>
<path opacity="0.1" d="M184.947 129.995C185.512 130.475 186.178 130.821 186.896 131.009C186.688 130.963 186.495 130.867 186.334 130.728C185.938 130.447 185.562 130.141 185.18 129.843C184.871 129.601 184.486 129.2 184.107 129.102C184.355 129.428 184.637 129.727 184.947 129.995Z" fill="black"/>
<path opacity="0.1" d="M185.031 131.439C185.209 131.64 185.353 131.868 185.458 132.115C185.635 132.814 185.624 133.548 185.427 134.241L184.539 132.101C184.385 131.736 184.23 131.371 184.045 131.023C183.963 130.874 183.452 130.253 183.511 130.124C183.669 129.759 184.865 131.234 185.031 131.439Z" fill="black"/>
<path opacity="0.1" d="M209.798 143.295C210.403 143.221 210.969 142.957 211.413 142.539C210.5 142.654 209.635 143.014 208.736 143.202C207.901 143.396 207.027 143.315 206.242 142.972C207.275 143.477 208.697 143.494 209.798 143.295Z" fill="black"/>
<path opacity="0.1" d="M207.216 137.005C207.053 137.029 206.886 136.988 206.753 136.89C206.067 136.496 205.391 136.086 204.725 135.66C204.076 135.241 203.292 134.817 202.739 134.289C204.101 135.519 205.371 136.558 207.216 137.005Z" fill="black"/>
<path opacity="0.1" d="M209.121 144.288C209.481 144.304 209.841 144.275 210.194 144.201C210.55 144.127 210.866 143.92 211.076 143.622C210.948 143.593 210.814 143.614 210.702 143.681C209.614 144.139 208.419 144.282 207.253 144.094C207.812 144.333 208.528 144.285 209.121 144.288Z" fill="black"/>
<path opacity="0.1" d="M202.615 160.235C201.9 160.451 201.165 160.595 200.421 160.665C199.843 160.692 199.263 160.68 198.685 160.631L195.876 160.454L194.472 160.364C194.306 160.364 193.629 160.364 193.963 160.03C194.132 159.867 195.07 159.971 195.312 159.963C195.778 159.948 196.246 159.939 196.716 159.938C197.646 159.938 198.579 159.938 199.508 159.994C200.551 160.044 201.576 160.123 202.615 160.235Z" fill="black"/>
<path opacity="0.1" d="M199.36 161.624C198.882 161.605 198.267 161.888 197.775 161.95C197.225 162.015 196.671 162.037 196.118 162.015C195.023 161.989 193.942 161.768 192.924 161.363C195.067 161.473 197.216 161.537 199.36 161.624Z" fill="black"/>
<path opacity="0.1" d="M193.343 163.098C193.551 163.14 193.755 163.196 193.955 163.266C195.141 163.603 196.402 163.305 197.607 163.008C197.306 163.46 196.764 163.654 196.222 163.777C195.34 164.001 194.421 164.034 193.525 163.876C193.244 163.819 192.539 163.718 192.402 163.426C192.171 162.997 193.079 163.056 193.343 163.098Z" fill="black"/>
<path opacity="0.1" d="M199.989 165.313C200.344 165.386 200.695 165.48 201.039 165.594C202.374 165.925 203.759 165.47 205.098 165.164C206.709 164.799 208.361 164.646 210.011 164.709C209.716 164.709 209.247 164.968 208.958 165.055C208.579 165.17 208.194 165.277 207.809 165.372C207.053 165.557 206.287 165.709 205.514 165.819C203.955 166.044 202.377 166.113 200.803 166.024C200.084 165.984 198.837 166.057 198.222 165.695C198.754 165.379 199.374 165.245 199.989 165.313Z" fill="black"/>
<path opacity="0.1" d="M200.491 122.957C200.491 122.957 200.559 126.12 200.045 127.563C199.882 128.012 199.629 128.841 199.354 129.77C199.053 130.801 198.725 131.955 198.472 132.86C198.219 133.764 198.05 134.371 198.05 134.371C198.05 134.371 196.89 143.818 196.59 148.32C196.59 148.399 196.59 148.48 196.573 148.556C196.556 148.809 196.528 149.073 196.486 149.345C195.817 153.816 191.961 160.71 190.666 161.261C190.262 161.446 189.893 161.7 189.576 162.011C189.576 160.109 189.671 158.669 189.91 158.377C190.666 157.45 193.893 148.177 193.893 148.177L194.629 148.216C194.612 148.087 194.601 147.935 194.595 147.803C194.536 146.014 195.371 143.268 195.371 143.268C195.371 143.268 195.851 137.772 195.851 137.533C195.851 137.294 195.438 133.444 195.438 133.444L196.264 130.355L197.845 129.248C198.042 126.864 198.511 123.968 199.632 123.179C200.193 122.74 200.641 122.173 200.938 121.525C201.16 121.556 200.756 121.359 200.756 121.359L200.491 122.957Z" fill="black"/>
<path d="M201.095 121.184C200.809 121.086 200.505 121.053 200.204 121.087C199.903 121.121 199.614 121.221 199.357 121.381C198.565 121.942 197.02 121.895 196.607 121.794C196.194 121.693 191.902 121.139 191.55 121.277C191.199 121.414 190.52 120.797 190.073 121.622C189.626 122.448 189.421 122.892 188.975 123.097C188.528 123.302 187.736 123.956 187.851 124.094C187.966 124.231 186.727 125.054 186.727 125.054L189.233 133.198C189.233 133.198 187.618 143.5 186.829 144.393C186.039 145.286 179.031 156.859 181.539 158.921C183.525 160.482 185.627 161.89 187.826 163.133C188.107 163.271 189.095 161.417 190.469 160.833C191.843 160.249 196.104 152.52 196.368 148.125C196.632 143.73 197.845 133.943 197.845 133.943C197.845 133.943 199.323 128.584 199.837 127.141C200.351 125.697 200.284 122.535 200.284 122.535L201.095 121.184Z" fill="#4C4981"/>
<path opacity="0.1" d="M214.986 165.652L214.402 166.888C214.402 166.888 214.32 167.255 214.216 167.84C214.112 167.826 214.014 167.782 213.935 167.713C213.076 167.025 208.037 161.841 207.787 157.238C207.61 153.843 207.694 150.916 207.75 149.613C207.767 149.203 207.784 148.956 207.784 148.903C207.784 148.903 211.699 144.162 211.253 142.483C210.806 140.803 209.775 131.811 209.775 131.811L209.624 130.631L209.362 128.637L208.739 123.812L209.385 123.964C209.495 124.115 209.626 124.248 209.775 124.36L210.444 128.604L212.764 131.159L213.143 146.718L212.076 149.498C212.076 149.498 211.208 149.537 209.854 149.579H209.722L214.986 165.652Z" fill="black"/>
<path d="M217.149 139.967C217.149 139.967 216.188 139.588 216.121 139.967C216.053 140.346 215.879 141.166 215.879 141.166C215.879 141.166 216.051 143.16 215.317 143.949C214.584 144.739 214.475 148.069 214.475 148.069C214.475 148.069 213.317 151.366 213.865 152.397C214.065 152.771 214.374 154.644 214.683 156.89C214.879 158.295 215.073 159.836 215.244 161.246C215.556 163.807 215.789 165.928 215.789 165.928C215.789 165.928 215.169 168.194 214.309 167.506C213.449 166.818 208.41 161.634 208.163 157.031C207.994 153.798 208.062 150.99 208.118 149.605C208.141 149.019 208.163 148.687 208.163 148.687C208.163 148.687 212.079 143.947 211.632 142.264C211.185 140.582 210.155 131.593 210.155 131.593L209.975 130.202L209.781 128.708L209.736 128.38L209.115 123.605C209.225 123.631 213.079 124.501 213.587 125.01C214.096 125.518 217.239 126.245 217.239 126.245C217.713 126.374 218.144 126.627 218.487 126.979C218.83 127.331 219.072 127.768 219.188 128.245C219.219 128.34 219.242 128.442 219.264 128.545C219.677 130.539 219.545 130.778 219.826 131.124C220.107 131.469 217.149 139.967 217.149 139.967Z" fill="#4C4981"/>
<path opacity="0.1" d="M215.267 161.243C213.862 160.962 211.778 160.313 211.826 158.881C211.868 157.541 213.48 157.058 214.702 156.887C214.899 158.285 215.093 159.833 215.267 161.243Z" fill="black"/>
<path d="M219.624 160.532C219.567 160.653 219.343 160.757 219.022 160.849C218.271 161.028 217.508 161.153 216.739 161.223C216.739 161.223 211.963 160.844 212.031 158.679C212.081 157.126 214.239 156.713 215.449 156.62C215.717 156.595 215.986 156.584 216.256 156.586C216.256 156.586 219.829 160.088 219.624 160.532Z" fill="#AE6E79"/>
<path opacity="0.1" d="M219.624 160.532C219.567 160.653 219.343 160.757 219.022 160.849C217.778 159.184 216.042 157.047 215.191 156.859L215.449 156.62C215.717 156.595 215.986 156.584 216.256 156.586C216.256 156.586 219.829 160.088 219.624 160.532Z" fill="black"/>
<path d="M218.421 130.895L219.826 131.102C220.333 131.995 220.896 132.856 221.511 133.678C221.889 134.147 222.105 134.725 222.129 135.326C222.129 135.326 224.191 138.382 224.843 138.724C225.494 139.067 226.492 141.404 226.492 141.404C226.492 141.404 228.107 142.468 228.107 143.67C228.135 144.672 228.239 145.671 228.416 146.658C228.452 146.829 228.177 148.961 227.489 150.028C226.801 151.095 226.112 153.449 226.149 153.87C226.185 154.291 224.225 156.482 223.677 157.167C223.22 157.808 222.818 158.486 222.475 159.195L220.654 162.629C220.654 162.629 216.806 156.962 215.399 156.653C215.399 156.653 216.977 155.142 217.767 154.867C218.556 154.592 219.315 152.339 219.348 151.811C219.382 151.283 220.07 149.579 220.789 149.284C221.508 148.989 221.89 148.666 221.581 148.183C221.272 147.7 221.581 146.779 221.581 146.779C221.581 146.779 219.553 144.1 219.278 142.566C219.003 141.033 217.149 139.991 217.149 139.991L216.084 137.379L218.421 130.895Z" fill="#4C4981"/>
<path opacity="0.1" d="M223.531 143.714C224.308 143.058 225.286 142.688 226.303 142.664C225.652 142.776 224.966 142.92 224.489 143.375C224.301 143.572 224.133 143.786 223.986 144.015C223.823 144.248 222.497 145.933 222.301 145.666C221.972 145.276 223.264 143.942 223.531 143.714Z" fill="black"/>
<path opacity="0.1" d="M220.419 142.086C220.629 142.068 220.831 141.994 221.003 141.872C221.175 141.75 221.312 141.585 221.399 141.393C221.566 141.006 221.67 140.594 221.705 140.174C221.806 139.47 221.947 138.774 222.129 138.087C222.184 137.951 222.207 137.805 222.197 137.659C222.186 137.513 222.143 137.371 222.07 137.245C221.995 137.025 221.893 136.816 221.767 136.621C221.514 136.902 221.441 137.556 221.337 137.933C221.208 138.399 221.09 138.868 220.978 139.337C220.919 139.561 220.452 142.086 220.419 142.086Z" fill="black"/>
<path opacity="0.1" d="M219.202 128.223C219.064 128.404 218.904 128.568 218.728 128.712C218.166 129.158 217.421 129.535 217.351 130.24C217.371 130.469 217.342 130.699 217.267 130.916C217.087 131.225 216.646 131.197 216.295 131.138C215.999 131.112 215.715 131.007 215.472 130.835C215.104 130.52 215.07 129.959 214.789 129.563C214.619 129.358 214.403 129.196 214.16 129.088C213.916 128.981 213.651 128.931 213.385 128.942C212.86 128.925 212.337 129.043 211.812 129.066C211.474 129.083 211.136 129.06 210.803 128.998C210.694 128.981 210.585 128.959 210.478 128.931C210.243 128.873 210.013 128.795 209.792 128.698C209.678 128.652 209.566 128.6 209.458 128.54C209.106 128.36 208.78 128.133 208.489 127.866C207.975 127.395 207.548 126.743 207.59 126.044C207.615 125.614 207.809 125.218 207.871 124.794C208.081 123.581 207.275 122.435 206.402 121.567C206.053 121.222 205.683 120.888 205.334 120.537C204.792 120.036 204.364 119.425 204.079 118.745C203.844 118.021 203.768 117.254 203.854 116.498C203.933 115.731 203.954 114.96 203.919 114.19C203.66 111.46 201.329 109.368 198.997 108.23L198.893 108.177C199.585 107.383 200.436 106.744 201.392 106.302C202.347 105.86 203.385 105.624 204.438 105.61C205.49 105.596 206.534 105.804 207.501 106.221C208.468 106.638 209.336 107.254 210.048 108.029C210.761 108.804 211.302 109.72 211.636 110.718C211.97 111.717 212.09 112.774 211.988 113.822C211.885 114.869 211.563 115.883 211.042 116.798C210.521 117.713 209.813 118.507 208.963 119.13C208.938 119.217 208.916 119.304 208.896 119.388C208.357 121.545 208.713 122.854 209.115 123.575C209.225 123.601 213.079 124.471 213.587 124.979C214.095 125.488 217.239 126.215 217.239 126.215C217.716 126.342 218.151 126.596 218.497 126.949C218.842 127.303 219.086 127.743 219.202 128.223Z" fill="black"/>
<path d="M198.399 106.194C198.553 106.017 198.786 105.927 198.944 105.756C199.43 105.228 198.944 104.366 199.121 103.669C199.312 102.897 200.261 102.56 201.053 102.641C201.845 102.723 202.587 103.088 203.379 103.178C204.609 103.315 205.801 102.782 207 102.47C208.199 102.158 209.649 102.141 210.475 103.06C211.301 103.978 211.244 105.542 212.272 106.208C212.747 106.514 213.345 106.548 213.859 106.77C214.422 107.058 214.889 107.504 215.202 108.053C216.016 109.331 216.374 110.846 216.219 112.353C216.132 113.167 215.896 113.959 215.8 114.773C215.704 115.619 215.761 116.476 215.969 117.301C216.185 118.143 216.654 119.053 217.494 119.323C217.688 119.366 217.877 119.431 218.056 119.517C218.542 119.82 218.477 120.533 218.354 121.089L217.854 123.395C218.334 123.76 219.081 123.603 219.539 123.988C219.723 124.155 219.858 124.368 219.933 124.606C220.158 125.25 220.183 125.949 220.003 126.608C219.823 127.267 219.446 127.855 218.924 128.296C218.362 128.742 217.618 129.119 217.548 129.821C217.569 130.05 217.54 130.281 217.463 130.498C217.286 130.806 216.843 130.778 216.492 130.719C216.196 130.692 215.913 130.588 215.671 130.416C215.301 130.102 215.27 129.54 214.989 129.144C214.818 128.94 214.602 128.778 214.359 128.67C214.115 128.563 213.85 128.512 213.584 128.523C213.056 128.506 212.536 128.624 212.008 128.65C210.79 128.7 209.601 128.27 208.697 127.453C208.18 126.979 207.756 126.33 207.795 125.628C207.82 125.201 208.014 124.802 208.076 124.378C208.284 123.168 207.48 122.019 206.607 121.151C205.733 120.283 204.708 119.483 204.281 118.329C203.747 116.899 204.264 115.304 204.121 113.788C203.862 111.055 201.534 108.966 199.199 107.825C198.68 107.559 197.795 106.882 198.399 106.194Z" fill="#444053"/>
<path opacity="0.1" d="M216.77 129.779C216.399 129.462 216.368 128.903 216.087 128.507C215.916 128.303 215.701 128.14 215.457 128.032C215.214 127.924 214.949 127.873 214.683 127.884C214.154 127.867 213.632 127.985 213.107 128.01C211.884 128.064 210.69 127.633 209.784 126.811C209.267 126.339 208.845 125.687 208.885 124.988C208.91 124.558 209.104 124.16 209.166 123.738C209.376 122.525 208.57 121.376 207.697 120.509C206.823 119.641 205.801 118.841 205.371 117.686C204.84 116.26 205.371 114.664 205.213 113.145C204.952 110.413 202.624 108.323 200.292 107.183C199.747 106.916 198.862 106.239 199.466 105.551C199.618 105.374 199.851 105.284 200.008 105.113C200.494 104.588 200.008 103.723 200.188 103.029C200.223 102.891 200.283 102.761 200.365 102.645C199.778 102.754 199.242 103.085 199.098 103.647C198.927 104.344 199.407 105.206 198.921 105.734C198.764 105.905 198.531 105.995 198.376 106.169C197.772 106.857 198.657 107.537 199.202 107.801C201.537 108.941 203.865 111.033 204.124 113.763C204.267 115.282 203.75 116.877 204.284 118.307C204.711 119.458 205.736 120.273 206.61 121.129C207.483 121.986 208.295 123.143 208.079 124.356C207.96 124.767 207.866 125.184 207.798 125.606C207.758 126.305 208.183 126.957 208.699 127.429C209.604 128.251 210.798 128.682 212.02 128.628C212.548 128.602 213.067 128.487 213.595 128.501C213.862 128.491 214.127 128.542 214.37 128.65C214.613 128.758 214.829 128.921 215 129.125C215.281 129.521 215.312 130.082 215.683 130.397C215.925 130.568 216.208 130.671 216.503 130.698C216.854 130.762 217.298 130.785 217.475 130.478C217.538 130.353 217.565 130.214 217.553 130.074C217.271 130.046 217 129.945 216.77 129.779Z" fill="black"/>
<path d="M175.879 113.091H156.449V93.9489H175.893L175.879 113.091ZM175.598 84.2291H156.73C156.73 54.4827 185.011 56.2211 185.011 37.4021C185.011 27.0364 176.525 18.732 166.157 18.732C155.789 18.732 147.306 27.6851 147.306 37.697H128.452C128.444 32.7442 129.413 27.8384 131.305 23.2609C133.197 18.6835 135.974 14.5244 139.477 11.0223C142.98 7.52008 147.14 4.74367 151.718 2.85224C156.297 0.9608 161.203 -0.0084529 166.157 5.55346e-05C186.983 5.55346e-05 203.862 16.6116 203.862 37.4021C203.862 60.9336 175.584 63.6128 175.584 84.2291H175.598Z" fill="#5B94E3"/>
<path opacity="0.1" d="M78.972 107.389H73.9608V102.44H78.972V107.389ZM78.8962 99.9465H74.0366C74.0366 92.2796 81.3259 92.7262 81.3259 87.8705C81.3234 87.2351 81.1956 86.6066 80.9499 86.0206C80.7043 85.4347 80.3456 84.9029 79.8943 84.4556C79.443 84.0083 78.908 83.6544 78.3198 83.4139C77.7316 83.1734 77.1018 83.0511 76.4664 83.0541C75.1831 83.0837 73.9611 83.6093 73.0571 84.5204C72.1531 85.4316 71.6373 86.6574 71.6181 87.9407H66.7585C66.7908 85.3909 67.8239 82.9559 69.6353 81.1606C71.4467 79.3654 73.8912 78.3538 76.4417 78.3438C78.9923 78.3339 81.4445 79.3264 83.2699 81.1075C85.0952 82.8885 86.1474 85.3154 86.1995 87.8649C86.1855 93.931 78.8962 94.6218 78.8962 99.9353V99.9465Z" fill="#5B94E3"/>
<path opacity="0.1" d="M116.916 141.768H111.905V136.834H116.916V141.768ZM116.843 134.329H111.983C111.983 126.659 119.273 127.108 119.273 122.253C119.27 121.617 119.142 120.989 118.897 120.403C118.651 119.817 118.292 119.286 117.841 118.839C117.389 118.392 116.854 118.038 116.266 117.798C115.678 117.558 115.048 117.436 114.413 117.439C113.124 117.462 111.895 117.986 110.986 118.899C110.076 119.812 109.557 121.043 109.539 122.331H104.68C104.712 119.782 105.745 117.346 107.557 115.551C109.368 113.756 111.813 112.744 114.363 112.734C116.914 112.725 119.366 113.717 121.191 115.498C123.017 117.279 124.069 119.706 124.121 122.255C124.129 128.322 116.843 129.015 116.843 134.329Z" fill="#5B94E3"/>
<path opacity="0.1" d="M139.989 80.9084H136.357V77.339H139.989V80.9084ZM139.935 75.5135H136.413C136.413 69.9585 141.697 70.2815 141.697 66.7654C141.694 66.3051 141.602 65.8498 141.423 65.4254C141.245 65.001 140.985 64.6159 140.658 64.292C140.331 63.9681 139.943 63.7118 139.517 63.5377C139.091 63.3636 138.635 63.2752 138.174 63.2774C137.242 63.2962 136.354 63.6764 135.696 64.3376C135.039 64.9989 134.665 65.8895 134.652 66.8216H131.129C131.122 64.9535 131.857 63.1591 133.173 61.8329C134.489 60.5067 136.278 59.7575 138.146 59.7501C140.015 59.7426 141.809 60.4775 143.136 61.7932C144.462 63.1088 145.212 64.8974 145.219 66.7654C145.213 71.1605 139.935 71.6632 139.935 75.5135Z" fill="#5B94E3"/>
<path opacity="0.1" d="M202.022 85.9469H199.969V83.9249H202.022V85.9469ZM201.992 82.8998H199.989C199.989 79.7601 202.975 79.9426 202.975 77.9543C202.975 77.6942 202.923 77.4367 202.823 77.1967C202.723 76.9568 202.576 76.739 202.391 76.5562C202.206 76.3734 201.986 76.229 201.745 76.1316C201.504 76.0341 201.246 75.9854 200.986 75.9884C200.459 75.9993 199.957 76.2141 199.586 76.5876C199.214 76.9611 199.002 77.4641 198.994 77.9908H197.003C197.026 76.953 197.454 75.9653 198.195 75.2381C198.936 74.5109 199.931 74.1017 200.969 74.0977C202.008 74.0937 203.007 74.4951 203.753 75.2165C204.5 75.938 204.935 76.9223 204.966 77.9599C204.977 80.4285 201.992 80.7233 201.992 82.8998Z" fill="#5B94E3"/>
<path opacity="0.1" d="M233.416 177.912H231.362V175.89H233.416V177.912ZM233.385 174.865H231.393C231.393 171.722 234.382 171.907 234.382 169.919C234.378 169.394 234.167 168.893 233.793 168.524C233.42 168.156 232.915 167.95 232.391 167.953C231.864 167.963 231.361 168.178 230.99 168.552C230.618 168.925 230.406 169.429 230.399 169.956H228.407C228.431 168.918 228.858 167.93 229.599 167.203C230.34 166.476 231.336 166.067 232.374 166.063C233.412 166.059 234.411 166.46 235.158 167.181C235.904 167.903 236.34 168.887 236.371 169.925C236.382 172.405 233.396 172.688 233.396 174.865H233.385Z" fill="#5B94E3"/>
</g>
<defs>
<linearGradient id="paint0_linear" x1="195.843" y1="233.671" x2="195.843" y2="102.028" gradientUnits="userSpaceOnUse">
<stop stop-color="#808080" stop-opacity="0.25"/>
<stop offset="0.54" stop-color="#808080" stop-opacity="0.12"/>
<stop offset="1" stop-color="#808080" stop-opacity="0.1"/>
</linearGradient>
<clipPath id="clip0">
<rect width="282" height="235" fill="white"/>
</clipPath>
</defs>
</svg>
