<svg width="282" height="235" viewBox="0 0 282 235" fill="none" xmlns="http://www.w3.org/2000/svg">
<path d="M138.781 57.4394H137.615V25.4909C137.615 20.5868 135.667 15.8836 132.199 12.4159C128.731 8.94816 124.027 7.00001 119.123 7H51.4326C49.0042 6.99999 46.5996 7.47827 44.3561 8.40751C42.1125 9.33676 40.074 10.6988 38.3569 12.4158C36.6397 14.1329 35.2776 16.1713 34.3483 18.4147C33.419 20.6581 32.9407 23.0626 32.9407 25.4909V200.763C32.9407 203.191 33.419 205.596 34.3483 207.839C35.2776 210.083 36.6397 212.121 38.3568 213.838C40.0739 215.555 42.1124 216.917 44.356 217.846C46.5995 218.776 49.0041 219.254 51.4325 219.254H119.123C121.551 219.254 123.956 218.776 126.199 217.846C128.443 216.917 130.481 215.555 132.199 213.838C133.916 212.121 135.278 210.083 136.207 207.839C137.136 205.596 137.615 203.191 137.615 200.763V80.1809H138.781V57.4394Z" fill="#3F3D56"/>
<path d="M119.73 12.2478H110.894C111.3 13.244 111.455 14.3248 111.346 15.395C111.236 16.4652 110.865 17.492 110.264 18.3849C109.664 19.2779 108.854 20.0095 107.904 20.5154C106.955 21.0214 105.895 21.286 104.82 21.2861H66.0406C64.9647 21.286 63.9053 21.0214 62.9558 20.5154C62.0063 20.0095 61.1958 19.2779 60.5957 18.3849C59.9956 17.492 59.6243 16.4652 59.5145 15.395C59.4047 14.3248 59.5598 13.244 59.9661 12.2478H51.7134C48.051 12.2478 44.5385 13.7026 41.9487 16.2923C39.3589 18.8819 37.904 22.3943 37.904 26.0566V201.071C37.904 202.885 38.2612 204.681 38.9551 206.356C39.6491 208.031 40.6663 209.554 41.9487 210.836C43.231 212.118 44.7533 213.135 46.4288 213.829C48.1042 214.523 49.8999 214.88 51.7134 214.88H119.73C123.392 214.88 126.905 213.425 129.495 210.836C132.084 208.246 133.539 204.734 133.539 201.072V26.0566C133.539 24.2432 133.182 22.4476 132.488 20.7722C131.794 19.0968 130.777 17.5746 129.495 16.2923C128.212 15.01 126.69 13.9929 125.015 13.2989C123.339 12.605 121.543 12.2478 119.73 12.2478Z" fill="white"/>
<g clip-path="url(#clip0)">
<path fill-rule="evenodd" clip-rule="evenodd" d="M77.9107 83.7448C74.706 83.7472 72.1125 86.3573 72.1148 89.5736C72.1125 92.7899 74.7084 95.4 77.9131 95.4024H83.7113V89.576C83.7137 86.3597 81.1177 83.7496 77.9107 83.7448C77.9131 83.7448 77.9131 83.7448 77.9107 83.7448V83.7448ZM77.9107 99.2914H62.4534C59.2488 99.2938 56.6528 101.904 56.6552 105.12C56.6505 108.336 59.2464 110.947 62.4511 110.951H77.9107C81.1154 110.949 83.7113 108.339 83.709 105.123C83.7113 101.904 81.1154 99.2938 77.9107 99.2914Z" fill="#36C5F0"/>
<path fill-rule="evenodd" clip-rule="evenodd" d="M114.629 105.12C114.631 101.904 112.035 99.2938 108.83 99.2914C105.626 99.2938 103.03 101.904 103.032 105.12V110.951H108.83C112.035 110.949 114.631 108.339 114.629 105.12ZM99.1689 105.12V89.5736C99.1712 86.3597 96.5776 83.7496 93.373 83.7448C90.1683 83.7472 87.5723 86.3573 87.5747 89.5736V105.12C87.57 108.336 90.1659 110.947 93.3706 110.951C96.5753 110.949 99.1712 108.339 99.1689 105.12Z" fill="#2EB67D"/>
<path fill-rule="evenodd" clip-rule="evenodd" d="M93.3705 142.045C96.5752 142.042 99.1712 139.432 99.1688 136.216C99.1712 133 96.5752 130.389 93.3705 130.387H87.5723V136.216C87.5699 139.43 90.1659 142.04 93.3705 142.045ZM93.3705 126.496H108.83C112.035 126.493 114.631 123.883 114.628 120.667C114.633 117.451 112.037 114.84 108.833 114.836H93.3729C90.1682 114.838 87.5723 117.448 87.5747 120.664C87.5723 123.883 90.1659 126.493 93.3705 126.496Z" fill="#ECB22E"/>
<path fill-rule="evenodd" clip-rule="evenodd" d="M56.6554 120.667C56.653 123.883 59.249 126.493 62.4536 126.495C65.6583 126.493 68.2543 123.883 68.2519 120.667V114.838H62.4536C59.249 114.84 56.653 117.45 56.6554 120.667ZM72.115 120.667V136.213C72.1103 139.429 74.7062 142.04 77.9109 142.044C81.1156 142.042 83.7115 139.432 83.7092 136.216V120.671C83.7139 117.455 81.118 114.845 77.9133 114.84C74.7062 114.84 72.1127 117.45 72.115 120.667C72.115 120.667 72.115 120.669 72.115 120.667Z" fill="#E01E5A"/>
</g>
<path d="M169.637 133.151H160.414V142.374H169.637V133.151Z" fill="#E6E6E6"/>
<path d="M149.544 138.751H164.696V153.902H149.544V138.751ZM164.037 139.409H150.203V153.243H164.037V139.409Z" fill="#3F3D56"/>
<path d="M9.22298 57.0653H0V66.2879H9.22298V57.0653Z" fill="#E6E6E6"/>
<path d="M20.0929 60.6884H4.94089V45.5371H20.0929V60.6884ZM5.59967 60.0297H19.4342V46.1959H5.59967V60.0297Z" fill="#3F3D56"/>
<path d="M215.119 224.856H211.08L209.159 209.28H215.119L215.119 224.856Z" fill="#FFB8B8"/>
<path d="M208.196 223.701H215.984V228.605H203.292C203.292 227.304 203.809 226.057 204.728 225.137C205.648 224.218 206.895 223.701 208.196 223.701Z" fill="#2F2E41"/>
<path d="M235.211 224.856H231.173L229.252 209.28H235.212L235.211 224.856Z" fill="#FFB8B8"/>
<path d="M228.289 223.701H236.077V228.605H223.385C223.385 227.304 223.902 226.057 224.821 225.137C225.741 224.218 226.988 223.701 228.289 223.701Z" fill="#2F2E41"/>
<path d="M194.861 169.153C194.57 168.725 194.377 168.239 194.295 167.728C194.213 167.217 194.243 166.695 194.385 166.197C194.527 165.7 194.776 165.239 195.115 164.849C195.453 164.458 195.874 164.146 196.346 163.935L210.074 126.101L216.829 129.787L201.155 165.943C201.456 166.76 201.448 167.659 201.131 168.47C200.813 169.281 200.21 169.948 199.434 170.344C198.658 170.739 197.764 170.837 196.921 170.617C196.078 170.398 195.345 169.877 194.861 169.153Z" fill="#FFB8B8"/>
<path d="M233.149 176.262C232.7 176.005 232.313 175.652 232.015 175.229C231.718 174.806 231.516 174.323 231.425 173.814C231.334 173.305 231.356 172.782 231.489 172.282C231.623 171.782 231.864 171.317 232.196 170.921L227.943 130.898L235.63 131.25L237.398 170.617C238.027 171.219 238.414 172.031 238.484 172.899C238.555 173.767 238.305 174.631 237.781 175.327C237.257 176.023 236.496 176.502 235.643 176.675C234.789 176.847 233.902 176.7 233.149 176.262V176.262Z" fill="#FFB8B8"/>
<path d="M220.885 119.093C225.353 119.093 228.975 115.471 228.975 111.003C228.975 106.535 225.353 102.913 220.885 102.913C216.417 102.913 212.795 106.535 212.795 111.003C212.795 115.471 216.417 119.093 220.885 119.093Z" fill="#FFB8B8"/>
<path d="M233.097 167.16H208.707L208.736 166.97C208.78 166.686 213.083 138.499 209.909 129.277C209.591 128.371 209.619 127.379 209.988 126.492C210.357 125.606 211.041 124.887 211.908 124.474H211.908C216.445 122.338 225.153 119.707 232.502 126.091C233.584 127.046 234.428 128.239 234.969 129.576C235.51 130.914 235.732 132.359 235.618 133.797L233.097 167.16Z" fill="#CCCCCC"/>
<path d="M213.391 142.665L202.41 140.438L207.557 128.241C207.865 127.059 208.629 126.048 209.682 125.43C210.734 124.811 211.989 124.635 213.171 124.94C214.354 125.245 215.366 126.007 215.988 127.057C216.609 128.108 216.788 129.363 216.486 130.546L213.391 142.665Z" fill="#CCCCCC"/>
<path d="M227.455 146.801L226.795 131.669C226.294 128.824 227.923 126.135 230.427 125.696C232.932 125.258 235.378 127.231 235.881 130.096L238.363 144.236L227.455 146.801Z" fill="#CCCCCC"/>
<path d="M232.286 165.349C236.21 180.295 236.638 199.298 235.58 220.026L230.309 219.367L220.757 179.842L215.487 220.026L209.558 219.696C207.786 197.948 206.062 179.277 208.899 166.996L232.286 165.349Z" fill="#2F2E41"/>
<path d="M226.216 117.254C224.707 118.862 221.904 117.999 221.707 115.803C221.692 115.632 221.693 115.461 221.71 115.29C221.812 114.317 222.374 113.434 222.239 112.407C222.209 112.151 222.114 111.908 221.963 111.699C220.76 110.089 217.937 112.42 216.802 110.962C216.106 110.068 216.924 108.66 216.39 107.661C215.685 106.342 213.597 106.993 212.287 106.271C210.831 105.467 210.918 103.232 211.877 101.873C213.046 100.215 215.097 99.3301 217.122 99.2026C219.147 99.0751 221.158 99.6225 223.048 100.359C225.196 101.196 227.326 102.353 228.648 104.242C230.256 106.539 230.41 109.626 229.606 112.312C229.117 113.946 227.448 115.942 226.216 117.254Z" fill="#2F2E41"/>
<path d="M281.671 229H156.172C156.085 229 156.001 228.965 155.939 228.904C155.877 228.842 155.843 228.758 155.843 228.671C155.843 228.583 155.877 228.499 155.939 228.438C156.001 228.376 156.085 228.341 156.172 228.341H281.671C281.758 228.341 281.842 228.376 281.903 228.438C281.965 228.499 282 228.583 282 228.671C282 228.758 281.965 228.842 281.903 228.904C281.842 228.965 281.758 229 281.671 229Z" fill="#3F3D56"/>
<defs>
<clipPath id="clip0">
<rect width="57.973" height="58.2997" fill="white" transform="translate(56.6555 83.7448)"/>
</clipPath>
</defs>
</svg>
