<svg width="282" height="235" viewBox="0 0 282 235" fill="none" xmlns="http://www.w3.org/2000/svg">
<path opacity="0.1" d="M279.025 191.554C277.935 194.235 276.594 196.806 275.021 199.236C274.282 200.394 273.472 201.506 272.595 202.564L272.568 202.596H1.36649L1.41529 202.562C1.65932 202.372 3.09177 201.214 5.31976 199.233C6.91815 197.81 8.92407 195.963 11.1765 193.74C29.5982 175.646 64.9849 132.818 35.5135 93.5841C8.11633 57.1111 37.6146 50.4901 57.0734 49.72C64.5503 49.4302 72.009 50.6477 79.0043 53.2998C87.9919 56.7115 104.422 61.9435 125.829 64.3389C126.531 64.4185 127.241 64.4949 127.957 64.568C139.29 65.7194 150.699 65.9257 162.067 65.1845C162.401 65.1675 162.738 65.1431 163.077 65.1188C174.323 64.3281 185.482 62.6034 196.441 59.9623C197.151 59.7893 197.851 59.626 198.549 59.4749C235.063 51.0384 268.725 79.7913 260.311 112.287C257.197 124.304 257.987 137.117 268.364 147.478C285.336 164.4 283.269 181.059 279.025 191.554Z" fill="#5B94E3"/>
<path d="M221.342 100.508C222.266 98.8574 221.992 96.9481 220.729 96.2434C219.467 95.5386 217.695 96.3053 216.771 97.9558C215.847 99.6062 216.121 101.516 217.383 102.22C218.645 102.925 220.417 102.158 221.342 100.508Z" fill="#3F3D56"/>
<path d="M223.385 96.8555C224.31 95.205 224.035 93.2958 222.773 92.591C221.511 91.8863 219.739 92.6529 218.815 94.3034C217.89 95.9539 218.165 97.8632 219.427 98.5679C220.689 99.2727 222.461 98.506 223.385 96.8555Z" fill="#3F3D56"/>
<path d="M225.432 93.2035C226.356 91.5531 226.081 89.6438 224.819 88.939C223.557 88.2343 221.785 89.001 220.861 90.6514C219.937 92.3019 220.211 94.2112 221.473 94.9159C222.735 95.6207 224.507 94.854 225.432 93.2035Z" fill="#3F3D56"/>
<path d="M227.475 89.5485C228.399 87.898 228.125 85.9887 226.863 85.284C225.601 84.5793 223.829 85.3459 222.905 86.9964C221.98 88.6469 222.255 90.5562 223.517 91.2609C224.779 91.9657 226.551 91.199 227.475 89.5485Z" fill="#3F3D56"/>
<path d="M229.518 85.8975C230.442 84.247 230.168 82.3377 228.906 81.633C227.644 80.9283 225.871 81.6949 224.947 83.3454C224.023 84.9959 224.297 86.9052 225.56 87.6099C226.822 88.3147 228.594 87.548 229.518 85.8975Z" fill="#3F3D56"/>
<path d="M231.565 82.245C232.489 80.5946 232.214 78.6853 230.952 77.9805C229.69 77.2758 227.918 78.0425 226.994 79.693C226.069 81.3434 226.344 83.2527 227.606 83.9574C228.868 84.6622 230.64 83.8955 231.565 82.245Z" fill="#3F3D56"/>
<path d="M233.611 78.5931C234.535 76.9427 234.261 75.0334 232.998 74.3286C231.736 73.6239 229.964 74.3906 229.04 76.041C228.116 77.6915 228.39 79.6008 229.652 80.3055C230.914 81.0103 232.686 80.2436 233.611 78.5931Z" fill="#3F3D56"/>
<path d="M253.863 57.0935C254.398 56.8706 254.916 56.6117 255.415 56.3186L249.961 51.9785L256.426 55.6533C257.806 54.6471 258.967 53.3703 259.837 51.9008C260.707 50.4314 261.267 48.8003 261.484 47.1071L250.242 46.7562L261.582 45.3453C261.569 43.6177 261.198 41.9116 260.493 40.3342C259.787 38.7567 258.763 37.3419 257.484 36.1787C256.205 35.0155 254.699 34.129 253.06 33.575C251.422 33.021 249.686 32.8114 247.962 32.9594C246.239 33.1073 244.564 33.6097 243.045 34.4349C241.525 35.26 240.192 36.3902 239.131 37.7543C238.069 39.1184 237.302 40.687 236.876 42.3616C236.451 44.0361 236.377 45.7804 236.659 47.4848C235.827 47.8313 235.034 48.2659 234.295 48.7813L239.832 57.1788L233.079 49.7511C231.53 51.148 230.355 52.9086 229.659 54.8736C228.963 56.8387 228.769 58.946 229.094 61.0047C226.922 61.9087 225.048 63.4049 223.686 65.3223C222.325 67.2398 221.531 69.501 221.396 71.8475C221.261 74.1941 221.79 76.5313 222.922 78.5919C224.054 80.6525 225.744 82.3535 227.799 83.5003C229.853 84.6471 232.189 85.1936 234.54 85.0771C236.891 84.9606 239.162 84.186 241.092 82.8418C243.023 81.4975 244.536 79.6379 245.459 77.4754C246.381 75.313 246.675 72.935 246.308 70.6134C248.905 69.5335 251.062 67.6133 252.434 65.1612C253.807 62.7092 254.313 59.8678 253.873 57.0935H253.863Z" fill="#5B94E3"/>
<path opacity="0.1" d="M230.525 52.9369C229.153 55.3894 228.649 58.2319 229.094 61.0055C226.922 61.9095 225.048 63.4057 223.686 65.3231C222.325 67.2405 221.531 69.5017 221.396 71.8483C221.261 74.1948 221.79 76.532 222.922 78.5927C224.054 80.6533 225.744 82.3543 227.799 83.5011C229.853 84.6479 232.189 85.1943 234.54 85.0779C236.891 84.9614 239.162 84.1868 241.092 82.8425C243.023 81.4982 244.536 79.6386 245.459 77.4762C246.381 75.3138 246.675 72.9358 246.308 70.6141C248.805 69.5736 231.213 51.7185 230.525 52.9369Z" fill="black"/>
<path d="M246.809 186.956H249.764C251.382 186.956 252.934 187.598 254.078 188.74C255.222 189.883 255.865 191.432 255.865 193.048V202.091H240.708V193.048C240.708 191.432 241.351 189.883 242.495 188.74C243.639 187.598 245.191 186.956 246.809 186.956Z" fill="#3F3D56"/>
<path opacity="0.1" d="M246.809 186.956H249.764C251.382 186.956 252.934 187.598 254.078 188.74C255.222 189.883 255.865 191.432 255.865 193.048V202.091H240.708V193.048C240.708 191.432 241.351 189.883 242.495 188.74C243.639 187.598 245.191 186.956 246.809 186.956Z" fill="black"/>
<path d="M247.682 190.287C248.352 190.287 248.895 189.745 248.895 189.076C248.895 188.407 248.352 187.865 247.682 187.865C247.012 187.865 246.469 188.407 246.469 189.076C246.469 189.745 247.012 190.287 247.682 190.287Z" fill="#3F3D56"/>
<path d="M247.682 188.774C248.352 188.774 248.895 188.232 248.895 187.563C248.895 186.894 248.352 186.352 247.682 186.352C247.012 186.352 246.469 186.894 246.469 187.563C246.469 188.232 247.012 188.774 247.682 188.774Z" fill="#3F3D56"/>
<path d="M247.682 187.257C248.352 187.257 248.895 186.715 248.895 186.046C248.895 185.377 248.352 184.835 247.682 184.835C247.012 184.835 246.469 185.377 246.469 186.046C246.469 186.715 247.012 187.257 247.682 187.257Z" fill="#3F3D56"/>
<path d="M247.682 185.745C248.352 185.745 248.895 185.203 248.895 184.534C248.895 183.865 248.352 183.323 247.682 183.323C247.012 183.323 246.469 183.865 246.469 184.534C246.469 185.203 247.012 185.745 247.682 185.745Z" fill="#3F3D56"/>
<path d="M247.682 184.231C248.352 184.231 248.895 183.689 248.895 183.02C248.895 182.351 248.352 181.809 247.682 181.809C247.012 181.809 246.469 182.351 246.469 183.02C246.469 183.689 247.012 184.231 247.682 184.231Z" fill="#3F3D56"/>
<path d="M247.682 182.718C248.352 182.718 248.895 182.176 248.895 181.507C248.895 180.838 248.352 180.296 247.682 180.296C247.012 180.296 246.469 180.838 246.469 181.507C246.469 182.176 247.012 182.718 247.682 182.718Z" fill="#3F3D56"/>
<path d="M247.682 181.204C248.352 181.204 248.895 180.662 248.895 179.993C248.895 179.324 248.352 178.782 247.682 178.782C247.012 178.782 246.469 179.324 246.469 179.993C246.469 180.662 247.012 181.204 247.682 181.204Z" fill="#3F3D56"/>
<path d="M249.5 181.808C250.17 181.808 250.713 181.266 250.713 180.597C250.713 179.928 250.17 179.386 249.5 179.386C248.83 179.386 248.287 179.928 248.287 180.597C248.287 181.266 248.83 181.808 249.5 181.808Z" fill="#3F3D56"/>
<path d="M250.713 181.204C251.383 181.204 251.926 180.662 251.926 179.993C251.926 179.324 251.383 178.782 250.713 178.782C250.043 178.782 249.5 179.324 249.5 179.993C249.5 180.662 250.043 181.204 250.713 181.204Z" fill="#3F3D56"/>
<path d="M251.926 180.597C252.596 180.597 253.139 180.055 253.139 179.386C253.139 178.717 252.596 178.175 251.926 178.175C251.256 178.175 250.713 178.717 250.713 179.386C250.713 180.055 251.256 180.597 251.926 180.597Z" fill="#3F3D56"/>
<path d="M247.682 179.691C248.352 179.691 248.895 179.149 248.895 178.48C248.895 177.811 248.352 177.269 247.682 177.269C247.012 177.269 246.469 177.811 246.469 178.48C246.469 179.149 247.012 179.691 247.682 179.691Z" fill="#3F3D56"/>
<path d="M247.682 178.177C248.352 178.177 248.895 177.635 248.895 176.966C248.895 176.297 248.352 175.755 247.682 175.755C247.012 175.755 246.469 176.297 246.469 176.966C246.469 177.635 247.012 178.177 247.682 178.177Z" fill="#3F3D56"/>
<path d="M247.682 176.662C248.352 176.662 248.895 176.12 248.895 175.451C248.895 174.782 248.352 174.24 247.682 174.24C247.012 174.24 246.469 174.782 246.469 175.451C246.469 176.12 247.012 176.662 247.682 176.662Z" fill="#3F3D56"/>
<path d="M247.682 175.148C248.352 175.148 248.895 174.606 248.895 173.937C248.895 173.268 248.352 172.726 247.682 172.726C247.012 172.726 246.469 173.268 246.469 173.937C246.469 174.606 247.012 175.148 247.682 175.148Z" fill="#3F3D56"/>
<path d="M252.709 170.033C252.408 170.077 252.106 170.109 251.801 170.128C252.083 169.883 252.344 169.616 252.582 169.329C252.414 168.82 252.167 168.341 251.85 167.908C251.549 168.077 251.217 168.182 250.874 168.218C250.574 168.262 250.271 168.293 249.969 168.313C250.376 167.927 250.763 167.52 251.128 167.094C250.253 166.303 249.132 165.835 247.953 165.77C246.775 165.705 245.609 166.047 244.653 166.738C243.696 167.429 243.006 168.427 242.699 169.565C242.391 170.704 242.485 171.913 242.964 172.99C243.443 174.068 244.278 174.949 245.33 175.484C246.382 176.02 247.586 176.179 248.741 175.934C249.896 175.688 250.931 175.054 251.673 174.138C252.416 173.221 252.82 172.077 252.819 170.898C252.819 170.602 252.793 170.306 252.741 170.014L252.709 170.033Z" fill="#5B94E3"/>
<path d="M256.76 176.05C256.45 176.24 256.102 176.357 255.74 176.391C255.44 176.435 255.137 176.467 254.835 176.486C255.156 176.198 255.456 175.887 255.733 175.555C255.479 175.489 255.219 175.455 254.957 175.453C254.235 175.452 253.536 175.707 252.986 176.174C252.436 176.64 252.07 177.287 251.955 177.999C251.839 178.71 251.981 179.439 252.355 180.056C252.729 180.672 253.311 181.135 253.996 181.362C254.681 181.589 255.424 181.565 256.093 181.293C256.762 181.022 257.312 180.522 257.645 179.883C257.978 179.243 258.071 178.506 257.909 177.804C257.747 177.101 257.34 176.48 256.76 176.05Z" fill="#5B94E3"/>
<path d="M245.862 181.808C246.532 181.808 247.075 181.266 247.075 180.597C247.075 179.928 246.532 179.386 245.862 179.386C245.192 179.386 244.649 179.928 244.649 180.597C244.649 181.266 245.192 181.808 245.862 181.808Z" fill="#3F3D56"/>
<path d="M244.649 181.204C245.319 181.204 245.862 180.662 245.862 179.993C245.862 179.324 245.319 178.782 244.649 178.782C243.979 178.782 243.436 179.324 243.436 179.993C243.436 180.662 243.979 181.204 244.649 181.204Z" fill="#3F3D56"/>
<path d="M243.439 180.597C244.108 180.597 244.651 180.055 244.651 179.386C244.651 178.717 244.108 178.175 243.439 178.175C242.769 178.175 242.226 178.717 242.226 179.386C242.226 180.055 242.769 180.597 243.439 180.597Z" fill="#3F3D56"/>
<path d="M238.612 176.05C238.921 176.24 239.27 176.357 239.632 176.391C239.932 176.435 240.234 176.467 240.537 176.486C240.215 176.198 239.915 175.887 239.639 175.555C239.892 175.489 240.153 175.455 240.415 175.453C241.137 175.452 241.835 175.707 242.385 176.174C242.936 176.64 243.301 177.287 243.417 177.999C243.533 178.71 243.391 179.439 243.017 180.056C242.643 180.672 242.061 181.135 241.376 181.362C240.691 181.589 239.947 181.565 239.279 181.293C238.61 181.022 238.06 180.522 237.727 179.883C237.394 179.243 237.3 178.506 237.463 177.804C237.625 177.101 238.032 176.48 238.612 176.05Z" fill="#5B94E3"/>
<path d="M246.809 187.865H249.764C251.382 187.865 252.934 188.506 254.078 189.649C255.222 190.791 255.865 192.341 255.865 193.957V201.967C255.865 202.241 255.756 202.504 255.561 202.697C255.367 202.891 255.104 203 254.83 203H241.743C241.468 203 241.205 202.891 241.011 202.697C240.817 202.504 240.708 202.241 240.708 201.967V193.957C240.708 192.341 241.351 190.791 242.495 189.649C243.639 188.506 245.191 187.865 246.809 187.865Z" fill="#3F3D56"/>
<g opacity="0.1">
<path opacity="0.1" d="M252.802 170.364C252.68 170.496 252.548 170.62 252.409 170.735C252.548 170.735 252.687 170.713 252.824 170.698C252.819 170.586 252.814 170.474 252.802 170.364Z" fill="black"/>
<path opacity="0.1" d="M250.591 168.917C250.894 168.897 251.196 168.865 251.496 168.822C251.768 168.788 252.034 168.716 252.285 168.607C252.161 168.364 252.019 168.13 251.86 167.908C251.708 168 251.544 168.07 251.372 168.115C251.133 168.402 250.872 168.67 250.591 168.917Z" fill="black"/>
<path opacity="0.1" d="M243.133 171.517C243.132 170.593 243.379 169.686 243.851 168.891C244.322 168.096 244.999 167.442 245.811 166.999C246.623 166.556 247.539 166.34 248.464 166.374C249.388 166.407 250.287 166.689 251.064 167.189L251.143 167.106C250.635 166.656 250.043 166.309 249.401 166.088C248.759 165.866 248.079 165.774 247.401 165.816C246.723 165.858 246.06 166.033 245.45 166.332C244.841 166.631 244.296 167.048 243.848 167.558C243.4 168.068 243.058 168.662 242.841 169.305C242.624 169.947 242.536 170.627 242.583 171.303C242.63 171.98 242.811 172.641 243.115 173.248C243.418 173.855 243.84 174.395 244.354 174.839C243.564 173.912 243.132 172.734 243.133 171.517Z" fill="black"/>
</g>
<g opacity="0.1">
<path opacity="0.1" d="M254.835 177.093C255.137 177.071 255.44 177.04 255.74 176.996C256.101 176.962 256.45 176.846 256.76 176.657C257.103 176.909 257.389 177.23 257.599 177.599C257.81 177.969 257.939 178.378 257.98 178.801C257.992 178.695 257.998 178.587 257.997 178.48C257.999 178.007 257.89 177.539 257.678 177.116C257.466 176.693 257.158 176.325 256.777 176.043C256.468 176.233 256.119 176.349 255.757 176.384L255.513 176.413C255.306 176.658 255.079 176.885 254.835 177.093Z" fill="black"/>
<path opacity="0.1" d="M254.962 176.057C255.064 176.057 255.164 176.057 255.264 176.079C255.423 175.911 255.579 175.731 255.738 175.555C255.484 175.489 255.224 175.455 254.962 175.453C254.158 175.453 253.387 175.772 252.818 176.34C252.25 176.907 251.931 177.677 251.931 178.48C251.931 178.582 251.931 178.684 251.945 178.782C252.021 178.035 252.371 177.343 252.929 176.84C253.486 176.337 254.21 176.058 254.962 176.057Z" fill="black"/>
</g>
<g opacity="0.1">
<path opacity="0.1" d="M240.527 177.093C240.225 177.071 239.922 177.04 239.622 176.996C239.26 176.962 238.912 176.846 238.602 176.657C238.259 176.909 237.973 177.23 237.762 177.599C237.552 177.969 237.422 178.378 237.382 178.801C237.37 178.695 237.364 178.587 237.365 178.48C237.363 178.007 237.472 177.539 237.684 177.116C237.896 176.693 238.204 176.325 238.585 176.043C238.894 176.233 239.243 176.349 239.605 176.384L239.849 176.413C240.057 176.657 240.284 176.884 240.527 177.093Z" fill="black"/>
<path opacity="0.1" d="M240.405 176.057C240.303 176.057 240.203 176.057 240.103 176.079C239.944 175.911 239.788 175.731 239.629 175.555C239.883 175.489 240.143 175.455 240.405 175.453C241.209 175.453 241.98 175.772 242.548 176.34C243.117 176.907 243.436 177.677 243.436 178.48C243.436 178.582 243.436 178.684 243.422 178.782C243.346 178.035 242.996 177.343 242.438 176.84C241.881 176.337 241.157 176.058 240.405 176.057Z" fill="black"/>
</g>
<path d="M13.9097 164.348H37.2242C38.8422 164.348 40.394 164.99 41.5381 166.133C42.6822 167.275 43.3249 168.825 43.3249 170.441V199.803H7.80893V170.441C7.80893 168.825 8.45168 167.275 9.59579 166.133C10.7399 164.99 12.2916 164.348 13.9097 164.348Z" fill="#3F3D56"/>
<path opacity="0.1" d="M13.9097 164.348H37.2242C38.8422 164.348 40.394 164.99 41.5381 166.133C42.6822 167.275 43.3249 168.825 43.3249 170.441V199.803H7.80893V170.441C7.80893 168.825 8.45168 167.275 9.59579 166.133C10.7399 164.99 12.2916 164.348 13.9097 164.348Z" fill="black"/>
<path d="M24.1515 172.14C25.7203 172.14 26.992 170.87 26.992 169.303C26.992 167.737 25.7203 166.467 24.1515 166.467C22.5827 166.467 21.311 167.737 21.311 169.303C21.311 170.87 22.5827 172.14 24.1515 172.14Z" fill="#3F3D56"/>
<path d="M24.1515 168.593C25.7203 168.593 26.992 167.323 26.992 165.757C26.992 164.19 25.7203 162.92 24.1515 162.92C22.5827 162.92 21.311 164.19 21.311 165.757C21.311 167.323 22.5827 168.593 24.1515 168.593Z" fill="#3F3D56"/>
<path d="M24.1515 165.045C25.7203 165.045 26.992 163.775 26.992 162.209C26.992 160.642 25.7203 159.372 24.1515 159.372C22.5827 159.372 21.311 160.642 21.311 162.209C21.311 163.775 22.5827 165.045 24.1515 165.045Z" fill="#3F3D56"/>
<path d="M24.1515 161.5C25.7203 161.5 26.992 160.23 26.992 158.664C26.992 157.097 25.7203 155.827 24.1515 155.827C22.5827 155.827 21.311 157.097 21.311 158.664C21.311 160.23 22.5827 161.5 24.1515 161.5Z" fill="#3F3D56"/>
<path d="M24.1515 157.951C25.7203 157.951 26.992 156.681 26.992 155.115C26.992 153.548 25.7203 152.278 24.1515 152.278C22.5827 152.278 21.311 153.548 21.311 155.115C21.311 156.681 22.5827 157.951 24.1515 157.951Z" fill="#3F3D56"/>
<path d="M24.1515 154.406C25.7203 154.406 26.992 153.136 26.992 151.569C26.992 150.003 25.7203 148.733 24.1515 148.733C22.5827 148.733 21.311 150.003 21.311 151.569C21.311 153.136 22.5827 154.406 24.1515 154.406Z" fill="#3F3D56"/>
<path d="M24.1515 150.861C25.7203 150.861 26.992 149.591 26.992 148.024C26.992 146.458 25.7203 145.188 24.1515 145.188C22.5827 145.188 21.311 146.458 21.311 148.024C21.311 149.591 22.5827 150.861 24.1515 150.861Z" fill="#3F3D56"/>
<path d="M28.4123 152.279C29.981 152.279 31.2528 151.009 31.2528 149.442C31.2528 147.876 29.981 146.606 28.4123 146.606C26.8435 146.606 25.5718 147.876 25.5718 149.442C25.5718 151.009 26.8435 152.279 28.4123 152.279Z" fill="#3F3D56"/>
<path d="M31.2528 150.861C32.8216 150.861 34.0933 149.591 34.0933 148.024C34.0933 146.458 32.8216 145.188 31.2528 145.188C29.6841 145.188 28.4124 146.458 28.4124 148.024C28.4124 149.591 29.6841 150.861 31.2528 150.861Z" fill="#3F3D56"/>
<path d="M34.0957 149.44C35.6644 149.44 36.9362 148.17 36.9362 146.604C36.9362 145.037 35.6644 143.767 34.0957 143.767C32.5269 143.767 31.2552 145.037 31.2552 146.604C31.2552 148.17 32.5269 149.44 34.0957 149.44Z" fill="#3F3D56"/>
<path d="M24.1515 147.312C25.7203 147.312 26.992 146.042 26.992 144.475C26.992 142.909 25.7203 141.639 24.1515 141.639C22.5827 141.639 21.311 142.909 21.311 144.475C21.311 146.042 22.5827 147.312 24.1515 147.312Z" fill="#3F3D56"/>
<path d="M24.1515 143.767C25.7203 143.767 26.992 142.497 26.992 140.93C26.992 139.364 25.7203 138.094 24.1515 138.094C22.5827 138.094 21.311 139.364 21.311 140.93C21.311 142.497 22.5827 143.767 24.1515 143.767Z" fill="#3F3D56"/>
<path d="M24.1515 140.219C25.7203 140.219 26.992 138.949 26.992 137.382C26.992 135.816 25.7203 134.546 24.1515 134.546C22.5827 134.546 21.311 135.816 21.311 137.382C21.311 138.949 22.5827 140.219 24.1515 140.219Z" fill="#3F3D56"/>
<path d="M24.1515 136.672C25.7203 136.672 26.992 135.402 26.992 133.836C26.992 132.269 25.7203 130.999 24.1515 130.999C22.5827 130.999 21.311 132.269 21.311 133.836C21.311 135.402 22.5827 136.672 24.1515 136.672Z" fill="#3F3D56"/>
<path d="M35.9308 124.686C35.2263 124.788 34.5186 124.863 33.8077 124.91C34.4656 124.335 35.0768 123.708 35.6355 123.036C35.2479 121.845 34.6765 120.722 33.9419 119.707C33.2429 120.106 32.4683 120.355 31.6676 120.438C30.9648 120.541 30.2546 120.616 29.5445 120.665C30.4791 119.91 31.3454 118.767 32.2606 117.838C30.139 115.914 27.4026 114.804 24.5384 114.707C21.6742 114.609 18.8682 115.529 16.62 117.304C14.3717 119.079 12.8272 121.593 12.2615 124.398C11.6957 127.204 12.1453 130.119 13.5303 132.624C14.9154 135.13 17.1459 137.063 19.8247 138.08C22.5036 139.097 25.4569 139.131 28.1588 138.177C30.8607 137.223 33.1359 135.343 34.5793 132.87C36.0226 130.398 36.5405 127.494 36.0406 124.676L35.9308 124.686Z" fill="#5B94E3"/>
<path d="M45.4236 138.786C44.755 139.256 43.8667 139.458 43.0346 139.58C42.3293 139.685 41.6216 139.758 40.9115 139.807C41.6436 139.22 42.3171 138.401 43.015 137.628C41.3051 137.175 39.4875 137.375 37.9172 138.189C36.347 139.002 35.137 140.372 34.5238 142.029C33.9106 143.686 33.9382 145.512 34.6012 147.15C35.2642 148.788 36.5149 150.12 38.109 150.886C39.7031 151.652 41.526 151.797 43.2215 151.293C44.9169 150.788 46.3631 149.67 47.2774 148.158C48.1916 146.646 48.5083 144.847 48.1655 143.114C47.8227 141.381 46.8451 139.838 45.4236 138.786Z" fill="#5B94E3"/>
<path d="M19.8883 152.279C21.4571 152.279 22.7288 151.009 22.7288 149.442C22.7288 147.876 21.4571 146.606 19.8883 146.606C18.3195 146.606 17.0478 147.876 17.0478 149.442C17.0478 151.009 18.3195 152.279 19.8883 152.279Z" fill="#3F3D56"/>
<path d="M17.0479 150.861C18.6167 150.861 19.8884 149.591 19.8884 148.024C19.8884 146.458 18.6167 145.188 17.0479 145.188C15.4791 145.188 14.2074 146.458 14.2074 148.024C14.2074 149.591 15.4791 150.861 17.0479 150.861Z" fill="#3F3D56"/>
<path d="M14.2073 149.44C15.7761 149.44 17.0478 148.17 17.0478 146.604C17.0478 145.037 15.7761 143.767 14.2073 143.767C12.6386 143.767 11.3668 145.037 11.3668 146.604C11.3668 148.17 12.6386 149.44 14.2073 149.44Z" fill="#3F3D56"/>
<path d="M2.87951 138.786C3.54815 139.256 4.43641 139.458 5.27099 139.58C5.9738 139.685 6.68148 139.758 7.39161 139.807C6.65952 139.22 5.986 138.401 5.28807 137.628C6.99799 137.175 8.81567 137.375 10.3859 138.189C11.9561 139.002 13.1661 140.372 13.7793 142.029C14.3925 143.686 14.3649 145.512 13.702 147.15C13.039 148.788 11.7882 150.12 10.1941 150.886C8.59999 151.652 6.7771 151.797 5.08165 151.293C3.3862 150.788 1.94004 149.67 1.02577 148.158C0.111494 146.646 -0.205183 144.847 0.137619 143.114C0.480421 141.381 1.45807 139.838 2.87951 138.786Z" fill="#5B94E3"/>
<path d="M13.9097 166.467H37.2242C38.8422 166.467 40.394 167.108 41.5381 168.251C42.6822 169.393 43.3249 170.943 43.3249 172.559V200.902C43.3249 201.176 43.2159 201.439 43.0219 201.633C42.8278 201.827 42.5647 201.936 42.2902 201.936H8.84849C8.71221 201.936 8.57714 201.91 8.45104 201.858C8.32494 201.807 8.2103 201.731 8.1137 201.635C8.01711 201.539 7.94046 201.425 7.88815 201.299C7.83585 201.173 7.80893 201.038 7.80893 200.902V172.559C7.80893 170.943 8.45168 169.393 9.59579 168.251C10.7399 167.108 12.2916 166.467 13.9097 166.467Z" fill="#3F3D56"/>
<g opacity="0.1">
<path opacity="0.1" d="M36.1455 125.461C35.86 125.77 35.5534 126.06 35.228 126.328C35.5525 126.306 35.8795 126.277 36.2041 126.245C36.1919 125.982 36.1748 125.719 36.1455 125.461Z" fill="black"/>
<path opacity="0.1" d="M30.9672 122.074C31.6773 122.025 32.385 121.952 33.0878 121.847C33.7244 121.773 34.3472 121.609 34.9375 121.36C34.649 120.787 34.3161 120.238 33.9419 119.717C33.5891 119.935 33.2058 120.099 32.8047 120.204C32.2417 120.874 31.6273 121.499 30.9672 122.074Z" fill="black"/>
<path opacity="0.1" d="M13.4948 128.163C13.4905 125.998 14.0709 123.873 15.175 122.01C16.279 120.147 17.8658 118.615 19.7681 117.577C21.6704 116.539 23.8178 116.033 25.9842 116.111C28.1505 116.19 30.2556 116.85 32.0776 118.023C32.1386 117.96 32.1996 117.889 32.2606 117.828C31.0737 116.757 29.6853 115.933 28.1763 115.403C26.6674 114.873 25.0679 114.648 23.471 114.741C21.8741 114.834 20.3116 115.243 18.8745 115.944C17.4374 116.646 16.1543 117.625 15.0999 118.827C14.0455 120.028 13.2409 121.427 12.7328 122.941C12.2247 124.456 12.0233 126.056 12.1403 127.649C12.2573 129.243 12.6903 130.797 13.4143 132.221C14.1382 133.645 15.1386 134.912 16.3572 135.947C14.5067 133.775 13.4918 131.015 13.4948 128.163Z" fill="black"/>
</g>
<g opacity="0.1">
<path opacity="0.1" d="M40.9116 141.225C41.6209 141.18 42.3286 141.104 43.0346 140.998C43.8668 140.879 44.7428 140.677 45.4237 140.204C46.2244 140.795 46.8916 141.547 47.3819 142.413C47.8721 143.278 48.1744 144.237 48.269 145.226C48.2934 144.983 48.3081 144.739 48.3081 144.478C48.3088 143.371 48.0488 142.278 47.549 141.29C47.0493 140.301 46.3237 139.443 45.431 138.786C44.7623 139.256 43.8741 139.458 43.0419 139.58C42.854 139.607 42.6686 139.629 42.4831 139.651C42.0017 140.216 41.4762 140.743 40.9116 141.225Z" fill="black"/>
<path opacity="0.1" d="M41.1922 138.803C41.4304 138.807 41.6682 138.823 41.9047 138.852C42.2757 138.457 42.6368 138.038 43.0102 137.633C41.959 137.35 40.8566 137.313 39.7888 137.525C38.7209 137.737 37.7164 138.192 36.8534 138.855C35.9904 139.518 35.2922 140.37 34.813 141.347C34.3339 142.323 34.0868 143.396 34.0909 144.484C34.0909 144.727 34.1031 144.971 34.1251 145.193C34.3 143.442 35.12 141.819 36.4259 140.638C37.7318 139.458 39.4305 138.803 41.1922 138.803Z" fill="black"/>
</g>
<g opacity="0.1">
<path opacity="0.1" d="M7.3892 141.225C6.67989 141.18 5.97302 141.104 5.26859 140.998C4.43401 140.879 3.54574 140.677 2.8771 140.204C2.0777 140.795 1.41188 141.548 0.922925 142.414C0.433969 143.279 0.132818 144.237 0.0390452 145.226C0.0146422 144.983 5.40842e-07 144.739 5.40842e-07 144.478C-0.000433143 143.37 0.259957 142.278 0.760155 141.289C1.26035 140.3 1.98635 139.443 2.87954 138.786C3.54818 139.256 4.43645 139.458 5.27103 139.58C5.45649 139.607 5.64195 139.629 5.82741 139.651C6.3063 140.215 6.82848 140.742 7.3892 141.225Z" fill="black"/>
<path opacity="0.1" d="M7.10375 138.803C6.86554 138.807 6.6277 138.823 6.39119 138.852C6.02026 138.457 5.6591 138.038 5.28574 137.633C6.33691 137.35 7.4393 137.313 8.50715 137.525C9.575 137.737 10.5795 138.192 11.4425 138.855C12.3055 139.518 13.0038 140.37 13.4829 141.347C13.962 142.323 14.2091 143.396 14.205 144.484C14.205 144.727 14.205 144.971 14.1708 145.193C13.9959 143.442 13.1759 141.819 11.87 140.638C10.5641 139.458 8.86541 138.803 7.10375 138.803Z" fill="black"/>
</g>
<path d="M165.935 202.641L118.349 202.032L118.488 200.814L120.79 180.709H162.579L165.654 200.814L165.889 202.337L165.935 202.641Z" fill="#D0D2D5"/>
<path opacity="0.1" d="M165.889 202.337H142.142L118.349 202.032L118.488 200.814H165.654L165.889 202.337Z" fill="black"/>
<path d="M173.561 201.118H110.418V202.641H173.561V201.118Z" fill="#D0D2D5"/>
<path d="M233.804 59.9571C233.809 58.9053 233.396 57.8945 232.655 57.147C231.914 56.3994 230.907 55.9761 229.853 55.9703H53.5155C52.9938 55.9729 52.4777 56.078 51.9967 56.2798C51.5157 56.4815 51.0792 56.7759 50.7121 57.1461C50.345 57.5163 50.0545 57.9551 49.8572 58.4374C49.6599 58.9197 49.5597 59.4361 49.5623 59.9571V166.693H233.804V59.9571Z" fill="#444053"/>
<path d="M49.5624 165.63V178.134C49.5608 178.654 49.6618 179.168 49.8598 179.648C50.0578 180.129 50.3488 180.565 50.7161 180.933C51.0834 181.3 51.5197 181.592 52.0001 181.791C52.4806 181.99 52.9956 182.092 53.5156 182.092H229.853C230.901 182.092 231.906 181.676 232.647 180.936C233.388 180.196 233.804 179.193 233.804 178.146V165.63H49.5624Z" fill="#D0D2D5"/>
<path opacity="0.1" d="M227.093 62.6718H57.1881V158.624H227.093V62.6718Z" fill="#5B94E3"/>
<path d="M142.598 177.338C143.222 177.338 143.838 177.197 144.4 176.925C144.961 176.653 145.453 176.258 145.839 175.768C145.956 175.618 146.062 175.461 146.159 175.298L143.899 174.928L146.339 174.945C146.575 174.436 146.703 173.884 146.716 173.324C146.73 172.763 146.628 172.206 146.417 171.686L143.14 173.392L146.164 171.175C145.886 170.677 145.508 170.243 145.054 169.899C144.599 169.556 144.079 169.31 143.524 169.177C142.97 169.045 142.394 169.029 141.833 169.131C141.272 169.233 140.738 169.449 140.265 169.768C139.793 170.086 139.392 170.499 139.087 170.98C138.783 171.462 138.582 172.001 138.497 172.564C138.412 173.127 138.445 173.701 138.594 174.251C138.743 174.8 139.005 175.313 139.363 175.756C139.747 176.247 140.237 176.645 140.798 176.919C141.359 177.193 141.974 177.336 142.598 177.338Z" fill="#5B94E3"/>
<path opacity="0.1" d="M146.718 182.079L165.701 201.119L162.789 182.079H146.718Z" fill="black"/>
<path d="M193.083 75.7375H61.9175V145.289H193.083V75.7375Z" fill="white"/>
<path opacity="0.1" d="M105.818 93.8693H69.2335V95.7627H105.818V93.8693Z" fill="#5B94E3"/>
<path opacity="0.1" d="M76.0102 83.8559H72.4864V93.8691H76.0102V83.8559Z" fill="#5B94E3"/>
<path opacity="0.1" d="M81.1591 83.8559H77.6353V93.8691H81.1591V83.8559Z" fill="#5B94E3"/>
<path opacity="0.1" d="M86.3082 83.8559H82.7844V93.8691H86.3082V83.8559Z" fill="#5B94E3"/>
<path opacity="0.1" d="M91.4571 83.8559H87.9334V93.8691H91.4571V83.8559Z" fill="#5B94E3"/>
<path opacity="0.1" d="M96.6063 83.8559H93.0825V93.8691H96.6063V83.8559Z" fill="#5B94E3"/>
<path opacity="0.1" d="M101.755 83.8559H98.2314V93.8691H101.755V83.8559Z" fill="#5B94E3"/>
<path opacity="0.1" d="M76.0102 85.7509H72.4864V86.8328H76.0102V85.7509Z" fill="#5B94E3"/>
<path opacity="0.1" d="M81.1591 85.7509H77.6353V86.8328H81.1591V85.7509Z" fill="#5B94E3"/>
<path opacity="0.1" d="M86.3082 85.7509H82.7844V86.8328H86.3082V85.7509Z" fill="#5B94E3"/>
<path opacity="0.1" d="M91.4571 85.7509H87.9334V86.8328H91.4571V85.7509Z" fill="#5B94E3"/>
<path opacity="0.1" d="M96.6063 85.7509H93.0825V86.8328H96.6063V85.7509Z" fill="#5B94E3"/>
<path opacity="0.1" d="M101.755 85.7509H98.2314V86.8328H101.755V85.7509Z" fill="#5B94E3"/>
<path opacity="0.1" d="M76.0102 90.6221H72.4864V91.7041H76.0102V90.6221Z" fill="#5B94E3"/>
<path opacity="0.1" d="M81.1591 90.6221H77.6353V91.7041H81.1591V90.6221Z" fill="#5B94E3"/>
<path opacity="0.1" d="M86.3082 90.6221H82.7844V91.7041H86.3082V90.6221Z" fill="#5B94E3"/>
<path opacity="0.1" d="M91.4571 90.6221H87.9334V91.7041H91.4571V90.6221Z" fill="#5B94E3"/>
<path opacity="0.1" d="M96.6063 90.6221H93.0825V91.7041H96.6063V90.6221Z" fill="#5B94E3"/>
<path opacity="0.1" d="M101.755 90.6221H98.2314V91.7041H101.755V90.6221Z" fill="#5B94E3"/>
<path opacity="0.1" d="M186.036 98.7404H149.451V100.634H186.036V98.7404Z" fill="#5B94E3"/>
<path opacity="0.1" d="M156.227 88.7271H152.704V98.7403H156.227V88.7271Z" fill="#5B94E3"/>
<path opacity="0.1" d="M161.377 88.7271H157.853V98.7403H161.377V88.7271Z" fill="#5B94E3"/>
<path opacity="0.1" d="M166.525 88.7271H163.002V98.7403H166.525V88.7271Z" fill="#5B94E3"/>
<path opacity="0.1" d="M171.674 88.7271H168.151V98.7403H171.674V88.7271Z" fill="#5B94E3"/>
<path opacity="0.1" d="M176.824 88.7271H173.3V98.7403H176.824V88.7271Z" fill="#5B94E3"/>
<path opacity="0.1" d="M181.972 88.7271H178.449V98.7403H181.972V88.7271Z" fill="#5B94E3"/>
<path opacity="0.1" d="M156.227 90.6221H152.704V91.7041H156.227V90.6221Z" fill="#5B94E3"/>
<path opacity="0.1" d="M161.377 90.6221H157.853V91.7041H161.377V90.6221Z" fill="#5B94E3"/>
<path opacity="0.1" d="M166.525 90.6221H163.002V91.7041H166.525V90.6221Z" fill="#5B94E3"/>
<path opacity="0.1" d="M171.674 90.6221H168.151V91.7041H171.674V90.6221Z" fill="#5B94E3"/>
<path opacity="0.1" d="M176.824 90.6221H173.3V91.7041H176.824V90.6221Z" fill="#5B94E3"/>
<path opacity="0.1" d="M181.972 90.6221H178.449V91.7041H181.972V90.6221Z" fill="#5B94E3"/>
<path opacity="0.1" d="M156.227 95.4947H152.704V96.5767H156.227V95.4947Z" fill="#5B94E3"/>
<path opacity="0.1" d="M161.377 95.4947H157.853V96.5767H161.377V95.4947Z" fill="#5B94E3"/>
<path opacity="0.1" d="M166.525 95.4947H163.002V96.5767H166.525V95.4947Z" fill="#5B94E3"/>
<path opacity="0.1" d="M171.674 95.4947H168.151V96.5767H171.674V95.4947Z" fill="#5B94E3"/>
<path opacity="0.1" d="M176.824 95.4947H173.3V96.5767H176.824V95.4947Z" fill="#5B94E3"/>
<path opacity="0.1" d="M181.972 95.4947H178.449V96.5767H181.972V95.4947Z" fill="#5B94E3"/>
<path opacity="0.1" d="M186.036 112.542H149.451V114.436H186.036V112.542Z" fill="#5B94E3"/>
<path opacity="0.1" d="M156.227 102.529H152.704V112.542H156.227V102.529Z" fill="#5B94E3"/>
<path opacity="0.1" d="M161.377 102.529H157.853V112.542H161.377V102.529Z" fill="#5B94E3"/>
<path opacity="0.1" d="M166.525 102.529H163.002V112.542H166.525V102.529Z" fill="#5B94E3"/>
<path opacity="0.1" d="M171.674 102.529H168.151V112.542H171.674V102.529Z" fill="#5B94E3"/>
<path opacity="0.1" d="M176.824 102.529H173.3V112.542H176.824V102.529Z" fill="#5B94E3"/>
<path opacity="0.1" d="M181.972 102.529H178.449V112.542H181.972V102.529Z" fill="#5B94E3"/>
<path opacity="0.1" d="M156.227 104.423H152.704V105.505H156.227V104.423Z" fill="#5B94E3"/>
<path opacity="0.1" d="M161.377 104.423H157.853V105.505H161.377V104.423Z" fill="#5B94E3"/>
<path opacity="0.1" d="M166.525 104.423H163.002V105.505H166.525V104.423Z" fill="#5B94E3"/>
<path opacity="0.1" d="M171.674 104.423H168.151V105.505H171.674V104.423Z" fill="#5B94E3"/>
<path opacity="0.1" d="M176.824 104.423H173.3V105.505H176.824V104.423Z" fill="#5B94E3"/>
<path opacity="0.1" d="M181.972 104.423H178.449V105.505H181.972V104.423Z" fill="#5B94E3"/>
<path opacity="0.1" d="M156.227 109.294H152.704V110.376H156.227V109.294Z" fill="#5B94E3"/>
<path opacity="0.1" d="M161.377 109.294H157.853V110.376H161.377V109.294Z" fill="#5B94E3"/>
<path opacity="0.1" d="M166.525 109.294H163.002V110.376H166.525V109.294Z" fill="#5B94E3"/>
<path opacity="0.1" d="M171.674 109.294H168.151V110.376H171.674V109.294Z" fill="#5B94E3"/>
<path opacity="0.1" d="M176.824 109.294H173.3V110.376H176.824V109.294Z" fill="#5B94E3"/>
<path opacity="0.1" d="M181.972 109.294H178.449V110.376H181.972V109.294Z" fill="#5B94E3"/>
<path opacity="0.1" d="M91.6719 115.283C91.3981 114.935 91.1486 114.569 90.9252 114.187L96.1938 113.324L90.4859 113.37C89.9396 112.183 89.6416 110.897 89.6101 109.59C89.5787 108.284 89.8144 106.985 90.3029 105.772L97.9459 109.732L90.8983 104.559C91.5568 103.416 92.444 102.422 93.5045 101.638C94.5651 100.853 95.7762 100.295 97.0622 99.999C98.3482 99.7028 99.6816 99.6745 100.979 99.9159C102.277 100.157 103.51 100.663 104.603 101.402C105.696 102.141 106.625 103.097 107.331 104.21C108.038 105.323 108.507 106.57 108.709 107.872C108.912 109.175 108.843 110.505 108.508 111.779C108.172 113.054 107.578 114.246 106.76 115.281C107.189 115.821 107.558 116.406 107.861 117.026L101.028 120.571L108.317 118.135C108.83 119.645 108.957 121.259 108.686 122.831C108.416 124.403 107.758 125.883 106.77 127.136C107.884 128.551 108.578 130.25 108.771 132.039C108.964 133.828 108.649 135.636 107.861 137.255C107.074 138.874 105.846 140.239 104.319 141.194C102.791 142.149 101.026 142.655 99.2234 142.655C97.4212 142.655 95.6554 142.149 94.1278 141.194C92.6003 140.239 91.3727 138.874 90.5855 137.255C89.7982 135.636 89.4831 133.828 89.6761 132.039C89.8691 130.25 90.5624 128.551 91.6768 127.136C90.3458 125.446 89.6223 123.359 89.6223 121.209C89.6223 119.059 90.3458 116.971 91.6768 115.281L91.6719 115.283Z" fill="#5B94E3"/>
<path opacity="0.1" d="M108.82 121.212C108.823 123.363 108.099 125.451 106.765 127.139C107.88 128.553 108.573 130.252 108.766 132.042C108.959 133.831 108.644 135.638 107.857 137.257C107.069 138.876 105.842 140.241 104.314 141.196C102.787 142.151 101.021 142.658 99.2186 142.658C97.4164 142.658 95.6506 142.151 94.1231 141.196C92.5956 140.241 91.368 138.876 90.5807 137.257C89.7935 135.638 89.4783 133.831 89.6713 132.042C89.8643 130.252 90.5576 128.553 91.6721 127.139C90.386 125.509 108.82 120.135 108.82 121.212Z" fill="#5B94E3"/>
<path opacity="0.2" d="M100.76 145.209C100.777 145.236 100.789 145.263 100.806 145.29H97.5457C97.5628 145.263 97.575 145.236 97.5921 145.209C97.3122 144.721 97.1673 144.168 97.1724 143.606C97.1719 143.221 97.2388 142.839 97.37 142.477C97.5506 142.507 97.7751 142.538 98.0338 142.565C98.79 142.641 99.5519 142.641 100.308 142.565C100.523 142.543 100.75 142.511 100.979 142.477C100.98 142.483 100.98 142.489 100.979 142.494C101.108 142.851 101.173 143.227 101.172 143.606C101.179 144.167 101.037 144.721 100.76 145.209Z" fill="#3F3D56"/>
<path opacity="0.1" d="M89.0438 145.294H70.9124C70.871 145.19 70.8344 145.08 70.8026 144.973C70.1633 142.919 70.2382 140.711 71.0149 138.705C69.243 137.483 67.9341 135.701 67.2985 133.646C66.6629 131.592 66.7377 129.383 67.5107 127.376C67.146 127.123 66.7987 126.846 66.4711 126.547L71.2492 124.169L65.8196 125.889C64.9458 124.916 64.2803 123.774 63.864 122.535C63.4478 121.295 63.2894 119.984 63.3988 118.681L71.8715 120.209L63.6086 117.343C63.9007 116.058 64.4551 114.847 65.2369 113.785C66.0188 112.723 67.0115 111.833 68.153 111.172C69.2946 110.51 70.5604 110.091 71.8715 109.94C73.1827 109.788 74.5109 109.909 75.7734 110.293C77.0359 110.678 78.2054 111.318 79.2091 112.174C80.2127 113.029 81.0289 114.083 81.6067 115.268C82.1844 116.453 82.5114 117.744 82.5671 119.061C82.6228 120.378 82.406 121.692 81.9304 122.921C82.4979 123.314 83.0223 123.766 83.4946 124.269L78.0088 129.674L84.2535 125.19C85.1894 126.483 85.7876 127.989 85.9938 129.571C86.2 131.153 86.0078 132.761 85.4346 134.25C87.1631 135.444 88.4521 137.17 89.104 139.165C89.7559 141.16 89.7348 143.313 89.0438 145.294Z" fill="#5B94E3"/>
<path opacity="0.1" d="M89.0438 145.295H70.9125C70.871 145.19 70.8344 145.08 70.8027 144.973C70.1634 142.92 70.2382 140.711 71.015 138.705C69.3068 137.523 85.3297 126.957 85.6567 127.983C86.2935 130.037 86.2187 132.246 85.4444 134.253C87.1707 135.447 88.4574 137.174 89.1074 139.168C89.7575 141.162 89.7352 143.314 89.0438 145.295Z" fill="#5B94E3"/>
<path opacity="0.1" d="M171.147 132.303C170.046 134.151 168.352 135.573 166.34 136.339C166.426 137.023 166.44 137.715 166.381 138.403L158.69 137.942L166.201 139.582C165.704 141.874 164.386 143.905 162.494 145.294H152.025V145.565H141.368C141.39 145.472 141.412 145.382 141.437 145.294C141.828 143.824 142.563 142.468 143.581 141.336C144.6 140.205 145.872 139.331 147.294 138.785C147.021 136.652 147.475 134.489 148.581 132.643C149.687 130.798 151.382 129.377 153.394 128.609C153.337 128.17 153.31 127.728 153.314 127.286L158.28 129.235L153.37 126.355C153.51 125.057 153.914 123.801 154.556 122.664C155.198 121.527 156.066 120.532 157.106 119.741L161.63 127.052L158.241 119.01C160.087 117.984 162.221 117.596 164.311 117.904C166.402 118.213 168.332 119.202 169.802 120.717C171.272 122.233 172.201 124.19 172.443 126.286C172.686 128.382 172.23 130.5 171.145 132.31L171.147 132.303Z" fill="#5B94E3"/>
<path opacity="0.1" d="M165.054 142.481C164.4 143.582 163.529 144.54 162.494 145.295H152.025V145.566H141.368C141.39 145.473 141.412 145.383 141.437 145.295C141.828 143.825 142.563 142.469 143.581 141.337C144.6 140.206 145.872 139.332 147.293 138.786C147.203 138.087 149.273 138.182 152.028 138.645C157.413 139.547 165.42 141.869 165.054 142.481Z" fill="#5B94E3"/>
<path d="M119.684 116.894C119.684 116.894 120.99 124.003 118.061 126.32C115.133 128.638 120.536 142.545 129.511 140.925C138.487 139.304 142.123 127.634 142.123 127.634C142.123 127.634 133.147 125.782 136.473 116.356L119.684 116.894Z" fill="#EFB7B9"/>
<path opacity="0.1" d="M119.684 116.894C119.684 116.894 120.99 124.003 118.061 126.32C115.133 128.638 120.536 142.545 129.511 140.925C138.487 139.304 142.123 127.634 142.123 127.634C142.123 127.634 133.147 125.782 136.473 116.356L119.684 116.894Z" fill="black"/>
<path d="M127.615 122.11C135.819 122.11 142.469 115.469 142.469 107.277C142.469 99.0845 135.819 92.4434 127.615 92.4434C119.411 92.4434 112.761 99.0845 112.761 107.277C112.761 115.469 119.411 122.11 127.615 122.11Z" fill="#EFB7B9"/>
<path d="M152.025 135.476V145.56H102.975V135.936C102.976 134.716 103.336 133.522 104.011 132.505C104.687 131.487 105.647 130.691 106.772 130.214L108.181 129.617C111.738 128.104 116.06 126.225 117.473 125.443C117.628 125.366 117.774 125.272 117.908 125.163C118.681 124.39 118.527 125.394 118.527 125.394C118.527 125.394 118.505 125.584 118.491 125.916C118.408 128.184 118.735 137.108 129.204 136.365C139.419 135.634 139.868 128.752 139.775 126.727C139.769 126.54 139.753 126.352 139.726 126.167C139.726 126.113 140.605 126.41 141.796 126.839C143.936 127.626 147.081 128.894 147.928 129.491C148.192 129.673 148.511 129.868 148.858 130.061C149.822 130.599 150.625 131.384 151.183 132.336C151.741 133.289 152.033 134.373 152.03 135.476H152.025Z" fill="#5B94E3"/>
<path opacity="0.1" d="M141.793 126.84C140.929 130.841 138.216 138.337 128.428 138.537C118.005 138.742 117.405 128.39 117.468 125.453C117.624 125.376 117.771 125.281 117.905 125.171C118.679 124.398 118.525 125.402 118.525 125.402C118.525 125.402 117.21 137.223 129.201 136.368C141.193 135.513 139.724 126.17 139.724 126.17C139.724 126.114 140.602 126.401 141.793 126.84Z" fill="black"/>
<path d="M110.033 108.009C111.009 107.693 112.173 108.229 112.717 108.984C113.261 109.74 113.337 110.653 113.403 111.528C114.049 111.665 114.413 110.934 114.472 110.385C114.716 108.141 114.728 105.855 115.482 103.691C116.236 101.527 117.883 99.4316 120.416 98.5982C121.278 98.2998 122.198 98.212 123.101 98.3423C123.635 98.4325 124.14 98.6177 124.674 98.7054C126.522 99.01 128.535 98.1352 130.27 98.7444C131.356 99.127 132.056 100.012 132.554 100.899C132.776 101.375 133.076 101.811 133.442 102.188C134.175 102.846 135.336 103.019 136.39 103.226C137.445 103.433 138.601 103.789 139.053 104.603C139.46 105.334 139.16 106.187 139.023 106.986C138.815 108.245 139.027 109.538 139.626 110.666C139.821 111.036 140.217 111.455 140.683 111.336C140.895 111.264 141.074 111.119 141.188 110.926C142.408 109.221 142.369 107.008 143.889 105.485C144.399 104.976 145.056 104.576 145.551 104.057C145.926 103.679 146.201 103.214 146.351 102.703C146.502 102.193 146.523 101.653 146.413 101.133C146.139 99.9604 145.192 98.9832 144.443 97.9646C143.459 96.6593 142.741 95.1729 142.332 93.5904C142.26 93.4071 142.26 93.2034 142.332 93.0201C142.476 92.8336 142.66 92.6827 142.872 92.5791C143.286 92.3048 143.586 91.8891 143.714 91.4099C143.843 90.9308 143.793 90.421 143.572 89.9765C143.148 89.0919 142.193 88.4364 141.146 88.0416C140.1 87.6468 138.95 87.4787 137.813 87.3105C137.066 87.4202 136.19 86.9937 135.958 86.3967C135.856 86.1311 135.856 85.8435 135.751 85.5779C135.548 85.0686 134.965 84.7079 134.338 84.5836C133.7 84.4792 133.047 84.5251 132.43 84.7177C131.727 84.9151 130.912 85.205 130.299 84.8688C129.977 84.686 129.797 84.3546 129.45 84.2059C128.747 83.9062 128.005 84.5105 127.498 85.0101C127.005 85.5305 126.403 85.9343 125.734 86.192C125.028 86.4357 124.16 86.4357 123.552 86.0482C123.064 85.7387 122.82 85.2416 122.432 84.8468C121.795 84.1962 120.787 83.8428 119.782 83.7624C118.773 83.7095 117.763 83.8198 116.79 84.0889C114.932 84.5384 113.157 85.2786 111.531 86.2821C110.718 86.7915 109.94 87.3861 109.515 88.1537C109.214 88.7523 109.058 89.4136 109.061 90.0837C108.986 92.1819 109.684 94.3946 111.502 95.864C110.394 96.327 110.018 97.4602 109.759 98.4666C109.345 100.07 108.927 101.703 109.083 103.34C109.162 104.186 109.393 105.032 109.269 105.872C109.21 106.279 109.069 106.679 109.103 107.091C109.148 107.319 109.261 107.529 109.427 107.693C109.593 107.856 109.804 107.967 110.033 108.009Z" fill="#454B69"/>
<g opacity="0.1">
<path opacity="0.1" d="M146.198 100.499C146.037 100.847 145.82 101.165 145.556 101.442C145.068 101.961 144.404 102.361 143.894 102.873C142.374 104.393 142.406 106.613 141.193 108.314C141.079 108.506 140.9 108.651 140.688 108.721C140.222 108.841 139.826 108.422 139.631 108.051C139.394 107.601 139.216 107.122 139.102 106.626C139.076 106.749 139.051 106.873 139.028 106.998C138.82 108.258 139.032 109.551 139.631 110.678C139.826 111.049 140.222 111.468 140.688 111.348C140.9 111.277 141.079 111.132 141.193 110.939C142.413 109.233 142.374 107.02 143.894 105.497C144.404 104.988 145.061 104.588 145.556 104.069C145.931 103.691 146.206 103.226 146.356 102.716C146.507 102.205 146.528 101.666 146.418 101.145C146.366 100.923 146.292 100.707 146.198 100.499Z" fill="black"/>
<path opacity="0.1" d="M142.881 89.976C142.67 90.0779 142.485 90.2282 142.342 90.4146C142.27 90.5979 142.27 90.8016 142.342 90.9848C142.483 91.5372 142.663 92.0788 142.881 92.6054C143.301 92.3289 143.603 91.9077 143.73 91.4225C143.858 90.9373 143.801 90.4223 143.572 89.976C143.503 89.8308 143.422 89.6922 143.328 89.5617C143.201 89.7214 143.05 89.8611 142.881 89.976Z" fill="black"/>
<path opacity="0.1" d="M111.499 93.2614C110.241 92.2223 109.411 90.7557 109.169 89.1431C109.106 89.4644 109.07 89.7905 109.062 90.1178C108.983 91.6663 109.393 93.2003 110.233 94.5042C110.488 93.949 110.939 93.5067 111.499 93.2614Z" fill="black"/>
<path opacity="0.1" d="M139.028 104.372C139.165 103.573 139.465 102.722 139.058 101.989C138.606 101.175 137.452 100.816 136.395 100.612C135.339 100.407 134.184 100.232 133.447 99.5737C133.081 99.1965 132.781 98.7608 132.559 98.2846C132.071 97.3975 131.361 96.5129 130.275 96.1303C128.54 95.5211 126.527 96.396 124.679 96.0914C124.145 96.0036 123.64 95.8184 123.105 95.7283C122.204 95.594 121.283 95.6776 120.421 95.972C117.888 96.8054 116.241 98.8962 115.487 101.065C114.733 103.234 114.716 105.515 114.477 107.759C114.418 108.307 114.054 109.039 113.408 108.902C113.342 108.027 113.261 107.113 112.722 106.358C112.183 105.603 111.031 105.064 110.038 105.383C109.737 105.315 109.47 105.143 109.286 104.896C109.32 105.22 109.315 105.547 109.271 105.871C109.213 106.278 109.071 106.677 109.105 107.089C109.15 107.318 109.262 107.527 109.428 107.692C109.593 107.856 109.804 107.967 110.033 108.01C111.009 107.693 112.173 108.23 112.717 108.985C113.261 109.74 113.337 110.654 113.403 111.529C114.049 111.666 114.413 110.934 114.472 110.386C114.716 108.142 114.728 105.856 115.482 103.692C116.236 101.528 117.883 99.4323 120.416 98.5989C121.278 98.3005 122.198 98.2127 123.101 98.343C123.635 98.4332 124.14 98.6184 124.674 98.7061C126.522 99.0108 128.535 98.1359 130.27 98.7451C131.356 99.1277 132.056 100.012 132.554 100.899C132.776 101.376 133.076 101.811 133.442 102.188C134.175 102.846 135.336 103.019 136.39 103.227C137.445 103.434 138.516 103.765 138.999 104.521C139.011 104.479 139.019 104.426 139.028 104.372Z" fill="black"/>
<path opacity="0.1" d="M109.276 103.265C109.334 102.603 109.294 101.937 109.159 101.286C109.055 101.972 109.032 102.668 109.091 103.36C109.106 103.538 109.13 103.713 109.154 103.891C109.184 103.682 109.237 103.474 109.276 103.265Z" fill="black"/>
</g>
<path d="M221.757 130.157H199.794V145.375H221.757V130.157Z" fill="white"/>
<path opacity="0.1" d="M219.799 141.64C219.486 142.166 219.004 142.57 218.43 142.788C218.455 142.982 218.459 143.179 218.443 143.375L216.246 143.243L218.384 143.711C218.241 144.362 217.867 144.939 217.33 145.334H214.358V145.412H211.327C211.327 145.385 211.327 145.361 211.346 145.334C211.411 145.086 211.512 144.849 211.644 144.63C211.957 144.104 212.439 143.7 213.011 143.482C212.932 142.875 213.061 142.259 213.376 141.734C213.691 141.209 214.173 140.805 214.746 140.587C214.729 140.463 214.721 140.337 214.724 140.212L216.137 140.767L214.738 139.949C214.778 139.578 214.893 139.22 215.076 138.896C215.26 138.572 215.507 138.289 215.805 138.065L217.091 140.146L216.127 137.855C216.652 137.57 217.257 137.464 217.848 137.555C218.439 137.645 218.984 137.927 219.399 138.356C219.815 138.786 220.078 139.34 220.148 139.933C220.218 140.526 220.091 141.125 219.787 141.64H219.799Z" fill="#5B94E3"/>
<path opacity="0.1" d="M218.064 144.541C217.877 144.854 217.628 145.126 217.332 145.34H214.358V145.418H211.327C211.327 145.391 211.327 145.367 211.346 145.34C211.411 145.092 211.512 144.855 211.644 144.636C211.957 144.11 212.439 143.706 213.011 143.488C212.986 143.291 213.574 143.317 214.358 143.449C215.89 143.707 218.169 144.368 218.064 144.541Z" fill="#5B94E3"/>
<path opacity="0.1" d="M200.629 141.64C200.942 142.166 201.424 142.57 201.998 142.788C201.973 142.982 201.969 143.179 201.985 143.375L204.182 143.243L202.044 143.711C202.187 144.362 202.561 144.939 203.098 145.334H206.078V145.412H209.111C209.111 145.385 209.096 145.361 209.091 145.334C209.024 145.087 208.924 144.85 208.794 144.63C208.479 144.105 207.997 143.701 207.425 143.482C207.503 142.875 207.374 142.259 207.059 141.734C206.745 141.209 206.262 140.805 205.69 140.587C205.706 140.463 205.714 140.337 205.714 140.212L204.301 140.767L205.697 139.949C205.658 139.578 205.543 139.22 205.359 138.896C205.176 138.572 204.928 138.289 204.631 138.065L203.345 140.146L204.308 137.855C203.783 137.57 203.179 137.464 202.588 137.555C201.996 137.645 201.451 137.927 201.036 138.356C200.62 138.786 200.358 139.34 200.287 139.933C200.217 140.526 200.344 141.125 200.648 141.64H200.629Z" fill="#5B94E3"/>
<path opacity="0.1" d="M202.364 144.541C202.551 144.854 202.8 145.126 203.096 145.34H206.075V145.418H209.109C209.109 145.391 209.094 145.367 209.089 145.34C209.022 145.093 208.922 144.856 208.791 144.636C208.477 144.111 207.995 143.707 207.422 143.488C207.447 143.291 206.859 143.317 206.075 143.449C204.538 143.707 202.251 144.368 202.364 144.541Z" fill="#5B94E3"/>
<path d="M212.945 133.51H208.037V138.969H212.945V133.51Z" fill="#464353"/>
<path opacity="0.1" d="M212.945 133.51H208.037V138.969H212.945V133.51Z" fill="black"/>
<path d="M205.946 143.964L205.846 145.382H207.247L207.334 143.508L205.946 143.964Z" fill="#A1616A"/>
<path d="M213.325 143.964L213.113 145.382H214.397L214.477 143.508L213.325 143.964Z" fill="#A1616A"/>
<path d="M209.262 136.241C209.262 136.241 209.213 136.95 209.043 137.136C208.872 137.321 210.568 138.961 211.903 137.34C211.903 137.34 211.329 136.853 211.463 136.307C211.598 135.761 209.262 136.241 209.262 136.241Z" fill="#A1616A"/>
<path opacity="0.1" d="M209.262 136.241C209.262 136.241 209.213 136.95 209.043 137.136C208.872 137.321 210.568 138.961 211.903 137.34C211.903 137.34 211.329 136.853 211.463 136.307C211.598 135.761 209.262 136.241 209.262 136.241Z" fill="black"/>
<path d="M210.49 136.874C211.846 136.874 212.945 135.777 212.945 134.423C212.945 133.069 211.846 131.971 210.49 131.971C209.134 131.971 208.035 133.069 208.035 134.423C208.035 135.777 209.134 136.874 210.49 136.874Z" fill="#A1616A"/>
<path d="M210.363 137.762C210.363 137.762 209.333 137.744 209.179 136.806C208.975 136.982 208.76 137.145 208.535 137.294C208.435 137.328 207.452 137.883 207.266 137.918C207.085 137.954 206.916 138.038 206.778 138.161C206.535 138.351 206.337 138.592 206.197 138.866C206.057 139.141 205.978 139.442 205.965 139.75C205.931 140.849 205.797 142.996 205.797 142.996L205.848 143.773V144.28C205.848 144.28 206.761 144.524 207.312 144.037C207.312 144.037 207.312 143.851 207.415 143.793C207.517 143.734 207.532 143.488 207.515 143.386C207.506 143.234 207.506 143.082 207.515 142.93C207.533 143.013 207.582 143.085 207.652 143.132C207.692 143.27 207.704 143.414 207.686 143.556C207.635 143.656 207.583 143.893 207.635 143.944C207.66 143.989 207.671 144.042 207.665 144.093C207.659 144.145 207.636 144.194 207.6 144.232C207.507 144.362 207.433 144.504 207.381 144.656C207.381 144.656 207.329 144.958 207.278 144.992C207.22 145.115 207.181 145.247 207.161 145.382H213.262C213.154 145.073 213.073 144.756 213.018 144.434C213.035 144.283 212.867 143.656 212.984 143.488C213.156 143.265 213.251 142.993 213.255 142.711L213.323 143.369L213.137 144.831C213.137 144.831 214.27 145.187 214.389 144.965C214.516 144.579 214.612 144.184 214.677 143.783C214.677 143.783 214.948 142.565 215.016 142.397C215.085 142.228 215.236 138.848 214.321 138.359C213.406 137.869 211.681 137.026 211.637 137.067C211.539 137.313 211.358 137.517 211.125 137.644C210.893 137.771 210.623 137.813 210.363 137.762Z" fill="#5B94E3"/>
<path opacity="0.1" d="M207.422 141.066C207.248 141.315 207.173 141.62 207.212 141.921C207.253 142.219 207.351 142.507 207.5 142.769" stroke="black" stroke-miterlimit="10"/>
<path opacity="0.1" d="M213.35 141.298C213.394 141.422 213.428 141.549 213.452 141.678C213.496 141.839 213.504 142.008 213.477 142.173C213.449 142.338 213.385 142.495 213.291 142.633" stroke="black" stroke-miterlimit="10"/>
<path d="M209.392 132.746C209.583 132.695 209.787 132.716 209.965 132.805C210.14 132.895 210.323 132.967 210.512 133.022C210.639 133.048 210.756 133.048 210.897 133.068C211.133 133.111 211.35 133.223 211.522 133.39C211.693 133.557 211.81 133.772 211.859 134.006C211.969 134.606 211.615 135.195 211.615 135.807C211.616 136.157 211.739 136.496 211.964 136.765C212.152 136.936 212.316 137.132 212.452 137.347C212.522 137.503 212.537 137.681 212.605 137.835C212.755 138.111 213.002 138.321 213.298 138.424C213.593 138.523 213.876 138.65 214.145 138.804C214.633 139.128 214.921 139.75 215.487 139.884C215.516 139.896 215.546 139.902 215.576 139.902C215.607 139.902 215.637 139.896 215.666 139.884C215.691 139.864 215.712 139.838 215.726 139.808C215.741 139.779 215.748 139.746 215.749 139.713C215.763 139.594 215.75 139.473 215.71 139.36C215.671 139.246 215.606 139.143 215.522 139.058C215.382 138.919 215.18 138.814 215.136 138.627C215.092 138.439 215.209 138.278 215.273 138.107C215.475 137.554 215.138 136.952 214.755 136.504C214.372 136.056 213.913 135.612 213.821 135.042C213.799 134.849 213.791 134.655 213.799 134.462C213.792 134.063 213.723 133.667 213.594 133.29C213.532 133.086 213.433 132.895 213.301 132.727C213.179 132.581 213.023 132.468 212.896 132.327C212.727 132.095 212.576 131.85 212.442 131.596C212.248 131.295 211.983 131.046 211.67 130.87C211.358 130.695 211.007 130.598 210.648 130.59C209.963 130.59 209.313 130.892 208.733 131.255C208.519 131.371 208.334 131.534 208.191 131.73C207.947 132.118 208.02 132.629 207.879 133.068C207.737 133.507 207.403 133.831 207.286 134.26C207.25 134.386 207.244 134.518 207.268 134.647C207.312 134.783 207.37 134.914 207.442 135.037C207.571 135.351 207.645 135.685 207.659 136.024C207.696 136.433 207.713 136.874 207.498 137.223C207.331 137.434 207.124 137.61 206.888 137.739C207.127 137.933 207.432 138.027 207.739 138C208.203 138.02 208.74 138 209.028 137.635C209.2 137.372 209.27 137.056 209.223 136.745C209.2 136.406 209.131 136.072 209.018 135.751C208.86 135.3 208.616 134.874 208.545 134.401C208.517 134.23 208.524 134.056 208.566 133.888C208.608 133.721 208.684 133.564 208.789 133.426C208.877 133.317 209.033 133.26 209.106 133.144C209.199 132.988 209.172 132.824 209.392 132.746Z" fill="#464353"/>
<g opacity="0.1">
<path opacity="0.1" d="M207.442 135.005C207.571 135.319 207.645 135.653 207.659 135.992C207.659 136.099 207.676 136.209 207.678 136.318C207.704 136.08 207.704 135.84 207.678 135.602C207.663 135.267 207.59 134.937 207.461 134.627C207.391 134.504 207.333 134.374 207.288 134.24C207.252 134.365 207.246 134.497 207.271 134.625C207.314 134.757 207.372 134.885 207.442 135.005Z" fill="black"/>
<path opacity="0.1" d="M209.05 137.253C208.762 137.616 208.225 137.638 207.761 137.621C207.565 137.621 207.37 137.592 207.183 137.533C207.09 137.608 206.99 137.679 206.893 137.747C207.132 137.941 207.437 138.035 207.744 138.008C208.208 138.028 208.745 138.008 209.033 137.643C209.198 137.399 209.269 137.104 209.233 136.812C209.211 136.972 209.148 137.124 209.05 137.253Z" fill="black"/>
<path opacity="0.1" d="M215.153 138.227C215.16 138.255 215.17 138.282 215.182 138.307C215.212 138.239 215.246 138.168 215.273 138.098C215.331 137.937 215.348 137.764 215.321 137.596C215.313 137.634 215.303 137.673 215.29 137.71C215.226 137.881 215.112 138.051 215.153 138.227Z" fill="black"/>
<path opacity="0.1" d="M211.873 134.123C211.901 133.956 211.901 133.786 211.873 133.619C211.825 133.384 211.708 133.17 211.537 133.002C211.365 132.835 211.148 132.723 210.912 132.681C210.783 132.659 210.653 132.659 210.526 132.634C210.338 132.579 210.155 132.506 209.98 132.417C209.802 132.328 209.598 132.306 209.406 132.357C209.187 132.435 209.213 132.6 209.116 132.761C209.045 132.878 208.886 132.937 208.799 133.044C208.605 133.301 208.518 133.623 208.555 133.943C208.585 133.757 208.663 133.581 208.782 133.434C208.869 133.324 209.026 133.268 209.099 133.151C209.196 132.988 209.17 132.824 209.389 132.746C209.581 132.695 209.785 132.716 209.963 132.805C210.137 132.895 210.32 132.968 210.509 133.022C210.636 133.049 210.753 133.049 210.895 133.068C211.13 133.111 211.348 133.223 211.519 133.39C211.691 133.557 211.808 133.772 211.856 134.006C211.864 134.045 211.87 134.084 211.873 134.123Z" fill="black"/>
<path opacity="0.1" d="M215.673 139.488C215.616 139.51 215.552 139.51 215.495 139.488C214.929 139.353 214.636 138.732 214.153 138.408C213.882 138.256 213.599 138.129 213.306 138.028C213.009 137.925 212.762 137.716 212.613 137.441C212.544 137.282 212.53 137.107 212.459 136.953C212.323 136.738 212.159 136.542 211.971 136.371C211.768 136.129 211.645 135.83 211.619 135.515C211.605 135.61 211.598 135.705 211.598 135.8C211.602 136.155 211.732 136.497 211.964 136.766C212.152 136.937 212.316 137.133 212.452 137.348C212.522 137.504 212.537 137.682 212.605 137.835C212.755 138.111 213.002 138.322 213.298 138.425C213.592 138.524 213.876 138.651 214.145 138.805C214.633 139.129 214.921 139.751 215.487 139.885C215.515 139.897 215.546 139.903 215.576 139.903C215.607 139.903 215.637 139.897 215.665 139.885C215.691 139.864 215.712 139.838 215.726 139.809C215.741 139.779 215.748 139.747 215.748 139.714C215.759 139.622 215.755 139.529 215.734 139.439C215.718 139.46 215.697 139.477 215.673 139.488Z" fill="black"/>
</g>
<path opacity="0.1" d="M205.172 131.276H202.034V135.752H205.172V131.276Z" fill="#5B94E3"/>
<path opacity="0.1" d="M204.723 131.916H202.483V135.113H204.723V131.916Z" fill="#5B94E3"/>
<path opacity="0.1" d="M220.634 131.948H215.48V134.634H220.634V131.948Z" fill="#5B94E3"/>
<path opacity="0.1" d="M219.963 132.298H216.154V134.284H219.963V132.298Z" fill="#5B94E3"/>
</svg>
