<svg width="99" height="99" viewBox="0 0 99 99" fill="none" xmlns="http://www.w3.org/2000/svg">
<g clip-path="url(#clip0)">
<path d="M37.5547 80.2207H61.4502V81.9275H37.5547V80.2207Z" fill="url(#paint0_linear)"/>
<path d="M60.8426 90.4609H38.0531C38.2273 91.046 38.4465 91.6169 38.7098 92.1678H60.1701C60.4351 91.616 60.6593 91.0452 60.8426 90.4609Z" fill="url(#paint1_linear)"/>
<path d="M50.2959 98.9698C53.1003 98.7773 55.7397 97.5739 57.7241 95.582H41.1526C41.2143 95.642 41.2668 95.707 41.3234 95.7645C43.7328 98.0431 46.9881 99.2065 50.2959 98.9698Z" fill="url(#paint2_linear)"/>
<path d="M61.4502 85.3398H37.5547V87.0467H61.4277C61.4343 86.8916 61.4502 85.3398 61.4502 85.3398Z" fill="url(#paint3_linear)"/>
<path d="M61.4502 75.5076C61.466 71.7606 63.2278 68.2353 66.2156 65.9734C74.9897 59.1878 78.7884 47.7676 75.8256 37.0783C72.8629 26.3882 63.7287 18.5525 52.7127 17.2507C51.636 17.1291 50.5534 17.0674 49.4699 17.0665C42.7693 17.0449 36.3004 19.5151 31.3208 23.998C25.2703 29.396 21.9316 37.2042 22.2083 45.3074C22.485 53.4115 26.3487 60.9738 32.7534 65.9468C35.7545 68.2153 37.5289 71.7515 37.5547 75.5135V76.8069H61.4502V75.5076ZM52.136 24.0455C52.071 24.0455 52.006 24.0422 51.941 24.0355C51.1317 23.9422 50.3175 23.8955 49.5024 23.8955C48.5598 23.8955 47.7956 23.1313 47.7956 22.1887C47.7956 21.2461 48.5598 20.4819 49.5024 20.4819C50.4458 20.4852 51.3893 20.5427 52.3269 20.6527C53.2219 20.7585 53.8803 21.5428 53.8295 22.4429C53.7795 23.3429 53.0369 24.0488 52.136 24.0538V24.0455ZM56.4131 23.2063C56.7747 22.3354 57.7732 21.9228 58.6441 22.2845C66.5873 25.5615 72.1536 32.8571 73.2171 41.3837C73.3287 42.3196 72.6612 43.1697 71.7253 43.2814C70.7885 43.3939 69.9393 42.7255 69.8268 41.7896C68.9142 34.4848 64.1421 28.235 57.3348 25.4315C56.4706 25.0698 56.0597 24.0797 56.4131 23.2129V23.2063Z" fill="url(#paint4_linear)"/>
<path d="M49.5025 10.2409C50.4451 10.2409 51.2093 9.47668 51.2093 8.5341V1.70682C51.2093 0.764235 50.4451 0 49.5025 0C48.5599 0 47.7957 0.764235 47.7957 1.70682V8.5341C47.7957 9.47668 48.5599 10.2409 49.5025 10.2409Z" fill="url(#paint5_linear)"/>
<path d="M29.249 14.4181C29.5516 14.9506 30.1166 15.2807 30.7292 15.2815C31.3417 15.2832 31.9076 14.9565 32.2126 14.4247C32.5177 13.8939 32.5152 13.2396 32.2051 12.7113L28.7915 6.79906C28.3173 5.98982 27.278 5.71479 26.4654 6.184C25.6537 6.65321 25.372 7.6908 25.8354 8.50588L29.249 14.4181Z" fill="url(#paint6_linear)"/>
<path d="M17.8354 25.8301L11.9232 22.4164C11.1073 21.953 10.0706 22.2347 9.60136 23.0473C9.13215 23.8599 9.40718 24.8983 10.2164 25.3733L16.1286 28.787C16.9445 29.2504 17.9813 28.9687 18.4505 28.1561C18.9197 27.3435 18.6447 26.3051 17.8354 25.8301Z" fill="url(#paint7_linear)"/>
<path d="M13.6593 46.0838C13.6593 45.1412 12.895 44.377 11.9524 44.377H5.12515C4.18257 44.377 3.41833 45.1412 3.41833 46.0838C3.41833 47.0264 4.18257 47.7906 5.12515 47.7906H11.9524C12.895 47.7906 13.6593 47.0264 13.6593 46.0838Z" fill="url(#paint8_linear)"/>
<path d="M16.1286 63.3806L10.2164 66.7942C9.6839 67.0976 9.3547 67.6618 9.35303 68.2744C9.35137 68.8869 9.6789 69.4536 10.2098 69.7587C10.7407 70.0637 11.3949 70.0603 11.9233 69.7512L17.8355 66.3375C18.368 66.0342 18.6972 65.4699 18.6989 64.8574C18.7005 64.2448 18.373 63.6781 17.8421 63.3731C17.3112 63.0681 16.657 63.0714 16.1286 63.3806Z" fill="url(#paint9_linear)"/>
<path d="M88.7877 66.7942L82.8755 63.3806C82.3472 63.0714 81.6938 63.0681 81.162 63.3731C80.6312 63.6781 80.3045 64.2448 80.3053 64.8574C80.307 65.4699 80.6362 66.0341 81.1687 66.3375L87.0809 69.7511C87.8968 70.2145 88.9336 69.9328 89.4028 69.1202C89.872 68.3077 89.5978 67.2693 88.7877 66.7942Z" fill="url(#paint10_linear)"/>
<path d="M93.8798 44.377H87.0525C86.1099 44.377 85.3457 45.1412 85.3457 46.0838C85.3457 47.0264 86.1099 47.7906 87.0525 47.7906H93.8798C94.8224 47.7906 95.5866 47.0264 95.5866 46.0838C95.5866 45.1412 94.8224 44.377 93.8798 44.377Z" fill="url(#paint11_linear)"/>
<path d="M82.0238 29.0153C82.3238 29.0153 82.618 28.9362 82.8772 28.787L88.7902 25.3733C89.5995 24.8983 89.8737 23.8599 89.4045 23.0473C88.9352 22.2347 87.8985 21.953 87.0834 22.4164L81.1704 25.8301C80.502 26.2168 80.1753 27.0043 80.3753 27.7502C80.5753 28.4961 81.2512 29.0153 82.0238 29.0153Z" fill="url(#paint12_linear)"/>
<path d="M67.4241 15.0431C68.24 15.5148 69.2843 15.2348 69.7552 14.4181L73.1688 8.50588C73.633 7.6908 73.3513 6.65321 72.5388 6.184C71.7262 5.71479 70.6869 5.98982 70.2127 6.79906L66.7991 12.7113C66.3282 13.528 66.6074 14.5714 67.4241 15.0431Z" fill="url(#paint13_linear)"/>
</g>
<defs>
<linearGradient id="paint0_linear" x1="49.5024" y1="80.2207" x2="49.5024" y2="81.9275" gradientUnits="userSpaceOnUse">
<stop stop-color="#5B94E3"/>
<stop offset="1" stop-color="#315CD5"/>
</linearGradient>
<linearGradient id="paint1_linear" x1="49.4479" y1="90.4609" x2="49.4479" y2="92.1678" gradientUnits="userSpaceOnUse">
<stop stop-color="#5B94E3"/>
<stop offset="1" stop-color="#315CD5"/>
</linearGradient>
<linearGradient id="paint2_linear" x1="49.4383" y1="95.582" x2="49.4383" y2="99" gradientUnits="userSpaceOnUse">
<stop stop-color="#5B94E3"/>
<stop offset="1" stop-color="#315CD5"/>
</linearGradient>
<linearGradient id="paint3_linear" x1="49.5024" y1="85.3398" x2="49.5024" y2="87.0467" gradientUnits="userSpaceOnUse">
<stop stop-color="#5B94E3"/>
<stop offset="1" stop-color="#315CD5"/>
</linearGradient>
<linearGradient id="paint4_linear" x1="49.5057" y1="17.0664" x2="49.5057" y2="76.8069" gradientUnits="userSpaceOnUse">
<stop stop-color="#5B94E3"/>
<stop offset="1" stop-color="#315CD5"/>
</linearGradient>
<linearGradient id="paint5_linear" x1="49.5025" y1="0" x2="49.5025" y2="10.2409" gradientUnits="userSpaceOnUse">
<stop stop-color="#5B94E3"/>
<stop offset="1" stop-color="#315CD5"/>
</linearGradient>
<linearGradient id="paint6_linear" x1="29.0259" y1="5.95508" x2="29.0259" y2="15.2815" gradientUnits="userSpaceOnUse">
<stop stop-color="#5B94E3"/>
<stop offset="1" stop-color="#315CD5"/>
</linearGradient>
<linearGradient id="paint7_linear" x1="14.0259" y1="22.1934" x2="14.0259" y2="29.01" gradientUnits="userSpaceOnUse">
<stop stop-color="#5B94E3"/>
<stop offset="1" stop-color="#315CD5"/>
</linearGradient>
<linearGradient id="paint8_linear" x1="8.53879" y1="44.377" x2="8.53879" y2="47.7906" gradientUnits="userSpaceOnUse">
<stop stop-color="#5B94E3"/>
<stop offset="1" stop-color="#315CD5"/>
</linearGradient>
<linearGradient id="paint9_linear" x1="14.026" y1="63.1465" x2="14.026" y2="69.9853" gradientUnits="userSpaceOnUse">
<stop stop-color="#5B94E3"/>
<stop offset="1" stop-color="#315CD5"/>
</linearGradient>
<linearGradient id="paint10_linear" x1="84.9686" y1="63.1465" x2="84.9686" y2="69.9742" gradientUnits="userSpaceOnUse">
<stop stop-color="#5B94E3"/>
<stop offset="1" stop-color="#315CD5"/>
</linearGradient>
<linearGradient id="paint11_linear" x1="90.4662" y1="44.377" x2="90.4662" y2="47.7906" gradientUnits="userSpaceOnUse">
<stop stop-color="#5B94E3"/>
<stop offset="1" stop-color="#315CD5"/>
</linearGradient>
<linearGradient id="paint12_linear" x1="84.9753" y1="22.1934" x2="84.9753" y2="29.0153" gradientUnits="userSpaceOnUse">
<stop stop-color="#5B94E3"/>
<stop offset="1" stop-color="#315CD5"/>
</linearGradient>
<linearGradient id="paint13_linear" x1="69.9814" y1="5.95508" x2="69.9814" y2="15.2723" gradientUnits="userSpaceOnUse">
<stop stop-color="#5B94E3"/>
<stop offset="1" stop-color="#315CD5"/>
</linearGradient>
<clipPath id="clip0">
<rect width="99" height="99" fill="white"/>
</clipPath>
</defs>
</svg>
