<svg width="46" height="57" viewBox="0 0 46 57" fill="none" xmlns="http://www.w3.org/2000/svg">
<path d="M15.4651 13.9383C15.5982 14.0718 15.7378 14.1376 15.8696 14.115C15.9339 14.1041 15.9911 14.0724 16.0439 14.0234C16.6876 16.0324 17.9216 18.0337 19.4771 19.2286C20.3742 19.9176 21.3773 20.3382 22.4371 20.3382C23.5206 20.3382 24.5437 19.8982 25.4555 19.1828C26.9834 17.9828 28.1943 16.0066 28.8303 14.0228C28.883 14.0718 28.9402 14.1034 29.0039 14.1144C29.1177 14.1344 29.2373 14.0886 29.3531 13.9899C29.6444 13.7428 29.9177 13.1641 30.0431 12.4615C30.2051 11.546 30.0585 10.7434 29.7145 10.5821C29.6894 10.5705 29.6643 10.5615 29.6367 10.557C29.5306 10.5383 29.4199 10.5776 29.3113 10.6628L29.3061 10.6705C29.3061 10.6699 29.3048 10.6692 29.3048 10.6686C29.3036 10.6692 29.3029 10.6699 29.3016 10.6712C29.301 10.6641 29.301 10.6576 29.3003 10.6512C28.8881 9.08084 28.3686 8.11955 27.8335 7.54665C27.7287 7.49052 27.6207 7.43956 27.5011 7.40536C27.4876 7.63633 27.7512 7.98794 27.7789 8.33181C27.0349 7.98343 26.3243 7.44407 25.2864 7.40536C25.0434 7.39633 24.781 7.39827 24.5122 7.40407C22.0062 8.30214 19.2514 7.28601 19.2514 7.28601C16.1101 6.99375 15.6111 10.2686 15.5732 10.6434C15.5725 10.6525 15.5719 10.6608 15.5719 10.6705C15.5712 10.6705 15.5712 10.6705 15.5706 10.6705C15.4593 10.5802 15.3449 10.5383 15.2362 10.5576C15.1886 10.5654 15.1436 10.5854 15.1025 10.6157C15.0047 10.686 14.9282 10.8183 14.871 10.9879C14.8401 11.4286 14.8195 11.8744 14.8131 12.3344C14.8189 12.377 14.8234 12.4183 14.8311 12.4615C14.9488 13.1195 15.1957 13.6673 15.4651 13.9383Z" fill="#315CD5"/>
<path d="M40.5994 55.1406H4.52951C4.0215 55.1406 3.6106 55.5574 3.6106 56.0697C3.6106 56.5819 4.0215 56.9987 4.52951 56.9987H40.5994C41.1068 56.9987 41.5177 56.5826 41.5177 56.0703C41.5171 55.5574 41.1055 55.1406 40.5994 55.1406Z" fill="#315CD5"/>
<path d="M21.2899 29.1675H23.5142H25.9012H33.4468H38.8509H39.186C39.1853 29.1636 39.1853 29.1598 39.184 29.1559C37.2825 22.5933 33.7702 22.3682 33.0133 22.1914C31.5253 21.8417 29.7216 21.9901 28.7609 21.6895C28.6483 22.6353 25.9038 25.7488 24.1058 27.7011L23.3264 24.6869C23.9116 24.3398 24.0396 23.5753 24.0396 22.9404H21.0848C21.0848 23.5701 21.2115 24.3275 21.7851 24.6778L21.0185 27.6998C19.2199 25.7482 16.4773 22.6353 16.3641 21.6895C15.4021 21.9901 13.5997 21.8417 12.111 22.1914C11.3548 22.3682 7.84181 22.594 5.94031 29.1559C5.93967 29.1598 5.93967 29.1636 5.93839 29.1675H18.9994H21.2899Z" fill="#315CD5"/>
<path d="M6.49351 54.5926H38.6351C39.8298 54.5926 40.7989 53.6204 40.7989 52.421L45.1273 31.9849C45.1273 30.7862 44.1582 29.814 42.9634 29.814H40.1514H39.1874H38.8524H33.4482H25.9014H23.5144H21.2907H21.2901H19.0002H5.9392H4.9682H2.1645C0.969076 29.814 0 30.7856 0 31.9849L4.32837 52.4217C4.32837 53.6204 5.29744 54.5926 6.49351 54.5926ZM22.564 41.2391C23.1993 41.2391 23.7144 41.7559 23.7144 42.3933C23.7144 42.4727 23.706 42.5507 23.6912 42.6256C23.5838 43.152 23.1202 43.5475 22.564 43.5475C21.9286 43.5475 21.4135 43.0307 21.4135 42.3933C21.4135 41.7559 21.9286 41.2391 22.564 41.2391Z" fill="#315CD5"/>
<path d="M14.7392 14.7041C15.4401 16.5951 16.5487 18.4318 17.921 19.7757C18.6965 20.5364 19.5562 21.1383 20.4739 21.5035C21.1041 21.7538 21.7619 21.8931 22.4384 21.8931C23.1142 21.8931 23.7721 21.7538 24.4029 21.5035C25.3514 21.126 26.2401 20.4938 27.0368 19.6957C28.375 18.3557 29.4566 16.5473 30.1421 14.6886C30.6707 14.5325 31.225 13.5402 31.4501 12.2725C31.6957 10.8957 31.4636 9.69573 30.9344 9.49509C30.9536 9.15961 30.9665 8.82025 30.9659 8.47251C30.953 3.48478 28.0381 0.584783 23.4428 0.275752C19.4341 0.00542948 16.4156 1.60285 15.0401 4.25768C14.5777 5.15058 14.3128 6.26864 14.2119 7.48219C14.0575 8.11445 13.9675 8.77122 13.9675 9.44993H13.9816C13.9816 9.45573 13.9804 9.4609 13.9804 9.46606C13.9707 9.46735 13.9611 9.46735 13.9514 9.46928C13.365 9.57186 13.0981 10.8261 13.356 12.2719C13.5913 13.6002 14.1887 14.6267 14.7392 14.7041ZM14.8716 10.988C14.9289 10.8183 15.0054 10.6861 15.1031 10.6157C15.1443 10.5861 15.1893 10.5654 15.2369 10.5577C15.3455 10.5383 15.46 10.5809 15.5713 10.6706C15.5719 10.6706 15.5719 10.6706 15.5725 10.6706C15.5725 10.6615 15.5732 10.6525 15.5738 10.6435C15.6118 10.2686 16.1101 6.99445 19.2521 7.28606C19.2521 7.28606 22.0069 8.30219 24.5129 7.40413C24.7817 7.39832 25.044 7.39638 25.2871 7.40542C26.325 7.44412 27.0355 7.98348 27.7796 8.33187C27.7519 7.988 27.4889 7.63638 27.5018 7.40542C27.6214 7.43961 27.7294 7.48993 27.8342 7.54671C28.3692 8.11961 28.8895 9.08025 29.301 10.6512C29.3017 10.6577 29.3016 10.6641 29.3023 10.6712C29.3036 10.6706 29.3042 10.6693 29.3055 10.6686C29.3055 10.6693 29.3068 10.6693 29.3068 10.6706L29.3119 10.6628C29.4206 10.5777 29.5312 10.5383 29.6373 10.557C29.665 10.5615 29.6901 10.5706 29.7151 10.5822C30.0592 10.7435 30.2058 11.5461 30.0437 12.4615C29.9183 13.1641 29.645 13.7422 29.3537 13.9899C29.238 14.0886 29.1184 14.1344 29.0046 14.1144C28.9409 14.1035 28.8837 14.0719 28.8309 14.0228C28.195 16.0067 26.9841 17.9828 25.4562 19.1828C24.5444 19.8983 23.5206 20.3383 22.4377 20.3383C21.378 20.3383 20.3748 19.9177 19.4778 19.2286C17.9222 18.0331 16.6882 16.0325 16.0445 14.0235C15.9918 14.0725 15.9346 14.1041 15.8703 14.1151C15.7378 14.1377 15.5989 14.0719 15.4658 13.9383C15.1964 13.6673 14.9494 13.1196 14.833 12.4622C14.8247 12.419 14.8208 12.3777 14.815 12.3351C14.8202 11.8744 14.8408 11.428 14.8716 10.988Z" fill="#315CD5"/>
</svg>
