<svg width="93" height="93" viewBox="0 0 93 93" fill="none" xmlns="http://www.w3.org/2000/svg">
<path d="M93 21.9785V8.35547C93 3.84842 89.3332 0.181641 84.8262 0.181641H8.17383C3.66678 0.181641 0 3.84842 0 8.35547V21.9785H93ZM62.8477 11.0801H79.1953C80.7 11.0801 81.9199 12.3 81.9199 13.8047C81.9199 15.3094 80.7 16.5293 79.1953 16.5293H62.8477C61.3429 16.5293 60.123 15.3094 60.123 13.8047C60.123 12.3 61.3429 11.0801 62.8477 11.0801ZM35.6016 11.0801C37.1063 11.0801 38.3262 12.3 38.3262 13.8047C38.3262 15.3094 37.1063 16.5293 35.6016 16.5293C34.0969 16.5293 32.877 15.3094 32.877 13.8047C32.877 12.3 34.0969 11.0801 35.6016 11.0801ZM24.7031 11.0801C26.2078 11.0801 27.4277 12.3 27.4277 13.8047C27.4277 15.3094 26.2078 16.5293 24.7031 16.5293C23.1984 16.5293 21.9785 15.3094 21.9785 13.8047C21.9785 12.3 23.1984 11.0801 24.7031 11.0801ZM13.8047 11.0801C15.3094 11.0801 16.5293 12.3 16.5293 13.8047C16.5293 15.3094 15.3094 16.5293 13.8047 16.5293C12.3 16.5293 11.0801 15.3094 11.0801 13.8047C11.0801 12.3 12.3 11.0801 13.8047 11.0801Z" fill="url(#paint0_linear)"/>
<path d="M0 27.4277V84.6445C0 89.1516 3.66678 92.8184 8.17383 92.8184H84.8262C89.3332 92.8184 93 89.1516 93 84.6445V27.4277H0ZM31.8543 66.1693C33.0295 67.1093 33.2199 68.8238 32.2799 69.9988C31.3401 71.1737 29.6252 71.3644 28.4504 70.4243L14.8273 59.5258C13.4652 58.4365 13.4643 56.3609 14.8273 55.2707L28.4504 44.3723C29.6249 43.4323 31.3397 43.6226 32.2799 44.7977C33.2199 45.9727 33.0295 47.6874 31.8543 48.6272L20.8909 57.3984L31.8543 66.1693ZM57.1781 39.3995L40.8305 77.544C40.2378 78.9268 38.6364 79.568 37.2529 78.975C35.8698 78.3823 35.229 76.7804 35.8219 75.3974L52.1696 37.2529C52.7624 35.8698 54.3641 35.2292 55.7471 35.8219C57.1302 36.4146 57.771 38.0163 57.1781 39.3995ZM78.1727 59.526L64.5496 70.4244C63.3766 71.3632 61.6615 71.1757 60.7201 69.999C59.7801 68.824 59.9705 67.1093 61.1457 66.1695L72.1091 57.3984L61.1457 48.6276C59.9705 47.6876 59.7801 45.9731 60.7201 44.798C61.6599 43.623 63.3746 43.4325 64.5496 44.3726L78.1727 55.2711C79.5348 56.3604 79.5357 58.4358 78.1727 59.526Z" fill="url(#paint1_linear)"/>
<defs>
<linearGradient id="paint0_linear" x1="46.5" y1="0.181641" x2="46.5" y2="21.9785" gradientUnits="userSpaceOnUse">
<stop stop-color="#5B94E3"/>
<stop offset="1" stop-color="#315CD5"/>
</linearGradient>
<linearGradient id="paint1_linear" x1="46.5" y1="27.4277" x2="46.5" y2="92.8184" gradientUnits="userSpaceOnUse">
<stop stop-color="#5B94E3"/>
<stop offset="1" stop-color="#315CD5"/>
</linearGradient>
</defs>
</svg>
