<svg width="35" height="36" viewBox="0 0 35 36" fill="none" xmlns="http://www.w3.org/2000/svg">
<g clip-path="url(#clip0)">
<path d="M35 17.8606L31.0274 22.1234L26.9718 26.4607C25.6052 27.9151 24.2273 29.3772 22.8356 30.8387C22.1419 31.5713 21.4416 32.3008 20.7407 33.0316C20.0391 33.7618 19.3382 34.4949 18.6308 35.2221L18.1496 35.717L17.6385 35.2221L15.497 33.1474L13.3614 31.0662C11.9363 29.6805 10.5208 28.2847 9.10225 26.8924L6.97982 24.798L4.86038 22.7013L0.635235 18.4935L0 17.8606L0.635235 17.2272L4.85919 13.0181L9.10045 8.82642C10.5196 7.43416 11.9339 6.03771 13.359 4.65202L15.494 2.57079L17.6361 0.496725L18.1496 0L18.6326 0.496725C19.34 1.2245 20.0415 1.95645 20.7424 2.68721C21.4433 3.41797 22.1443 4.14753 22.838 4.88008L24.9156 7.07236L26.9742 9.25926L31.0292 13.5972L35 17.8606ZM35 17.8606L26.1604 9.59598L24.0022 7.5661L21.8637 5.54159C21.152 4.86874 20.4475 4.19291 19.7424 3.51827C19.0385 2.84363 18.3346 2.17078 17.6361 1.49256H18.632L16.5573 3.63409L14.4761 5.76905C13.0904 7.19415 11.6939 8.6091 10.3017 10.0276L6.10995 14.2689L1.90093 18.4929V17.2266L6.10876 21.4517L8.20551 23.5711L10.2999 25.6936C11.6927 27.1121 13.088 28.5277 14.4737 29.9527L16.5549 32.0883L18.6296 34.2298H17.6373C18.3352 33.5516 19.0403 32.8794 19.7442 32.2035C20.4487 31.5283 21.1538 30.8531 21.8654 30.1802C23.2846 28.8309 24.7174 27.4823 26.1622 26.1258L35 17.8606Z" fill="#315cd5"/>
<path d="M9.70166 9.42773C10.1232 9.70893 10.5297 10.0051 10.9315 10.3066C11.3339 10.6069 11.728 10.9155 12.1196 11.2266C12.9017 11.8499 13.6629 12.4947 14.4152 13.1478C15.9155 14.4589 17.3615 15.8237 18.7681 17.2279C20.1735 18.6333 21.5389 20.0793 22.8499 21.579C23.5031 22.3312 24.1473 23.0924 24.7706 23.8745C25.081 24.2668 25.3897 24.6608 25.69 25.0632C25.9909 25.465 26.287 25.8716 26.5676 26.2937C26.1455 26.0131 25.739 25.717 25.3372 25.4161C24.9348 25.1158 24.5401 24.8071 24.1485 24.4966C23.3664 23.8734 22.6052 23.2292 21.8529 22.576C20.3532 21.265 18.9072 19.8996 17.5018 18.4942C16.0976 17.0876 14.7328 15.6416 13.4217 14.1412C12.7686 13.389 12.1244 12.6278 11.5005 11.8457C11.1894 11.454 10.8808 11.06 10.5805 10.6576C10.279 10.2558 9.98226 9.84923 9.70166 9.42773Z" fill="#315cd5"/>
<path d="M9.70166 26.2937C9.98286 25.8722 10.279 25.4656 10.5805 25.0638C10.8808 24.6614 11.1894 24.2674 11.5005 23.8757C12.1238 23.0936 12.7686 22.3324 13.4217 21.5802C14.7328 20.0799 16.0976 18.6339 17.5018 17.2273C18.9072 15.8219 20.3532 14.4565 21.8529 13.1454C22.6052 12.4923 23.3664 11.8481 24.1485 11.2248C24.5407 10.9143 24.9348 10.6057 25.3372 10.3054C25.739 10.0045 26.1455 9.70834 26.5676 9.42773C26.287 9.84983 25.9909 10.2564 25.69 10.6582C25.3897 11.0606 25.081 11.4552 24.7706 11.8469C24.1473 12.629 23.5031 13.3902 22.8499 14.1424C21.5389 15.6422 20.1735 17.0882 18.7681 18.4936C17.3615 19.8978 15.9155 21.2626 14.4152 22.5736C13.6629 23.2268 12.9017 23.871 12.1196 24.4949C11.728 24.8059 11.3339 25.1146 10.9315 25.4149C10.5297 25.7164 10.1232 26.0125 9.70166 26.2937Z" fill="#315cd5"/>
</g>
<defs>
<clipPath id="clip0">
<rect width="35" height="35.7176" fill="white"/>
</clipPath>
</defs>
</svg>
